<svg xmlns="http://www.w3.org/2000/svg" xmlns:xlink="http://www.w3.org/1999/xlink" version="1.1" width="1582.7606532319164" height="1126.9656756669997"><desc>%23actor%20Data%20Consumer%0A%23actor%20Data%20Provider%0Aparticipant%20Data%20Consumer%20System%0Aparticipant%20Platform%20Core%0A%0Aparticipantgroup%20%23FFF2CC%20Data%20Protection%20Cockpit%20(DPC)%20%0Aparticipant%20UI%20%23FFF2CC%0Aparticipant%20API%20%23FFF2CC%0A%23participant%20Notification%20Service%20%23yellow%0Aparticipant%20Grant%20Service%20%23d5e8d4%0Aparticipant%20Participant%20Service%20%23lightblue%0Aparticipant%20Log%20Service%20%23e1d5e7%0Adatabase%20Repository%20%23lightgray%0Aend%0A%0A%0Aautoactivation%20%0A%0Anote%20left%20of%20Data%20Consumer%20System%20%23black%3A%3Ccolor%3A%23white%3E1.%20Data%20consumer%20system%20request%20data%20asset%0A%0AData%20Consumer%20System%20-%3E%20Platform%20Core%3A%20get%20data%20asset%0A%0APlatform%20Core-%3E%20API%3Acheck%20grant%20for%20data%20flow%0AAPI%20-%3E%20Grant%20Service%3Acheck%20grant%20for%20data%20flow%0AGrant%20Service%20-%3E%20Repository%3A%20retrieve%20grants%0ARepository--%3EGrant%20Service%3A%20grants%0A%0A%0Aalt%20if%20there%20are%20grants%0A%20%20Grant%20Service-%3E%20Log%20Service%3A%20create%20log%5Cn(grant%20checked%20for%20data%20flow)%0A%20%20Log%20Service%20--%3E%20Grant%20Service%3A%20logged%0A%20%20Grant%20Service--%3E%20API%3Agranted%0A%20%20API%20--%3E%20Platform%20Core%3Agranted%0A%20%20Platform%20Core%20-%3E%20Platform%20Core%3Aget%20data%20asset%20from%20repository%0A%20%20Platform%20Core%20--%3E%20Platform%20Core%3Adata%20asset%0A%20%20Platform%20Core%20--%3E%20Data%20Consumer%20System%3Adata%20asset%0A%20%20%0Aelse%20there%20are%20no%20grants%0AGrant%20Service%20--%3E%20API%3A%20exception%3A%5Cnno%20grants%20found%0AAPI%20--%3E%20Platform%20Core%3A%20no%20grants%20found%0APlatform%20Core%20--%3E%20Data%20Consumer%20System%3A%20unauthorized%0Aend%0A</desc><defs/><g><g/><g/><g/><g/><g/><g/><g/><g/><g/><g/><g/><g/><g/><g/><g/><g/><g/><g/><g/><g/><g/><g/><g/><g/><g/><g/><g/><g/><g/><g/><g/><g/><g/><g/><g/><g/><g/><g/><g/><g/><g/><g/><g/><g/><g/><g/><g/><g/><g/><g/><g/><g/><g/><g/><g/><g/><g/><g/><g/><g/><g/><g/><g/><g/><g/><g/><g/><g/><g/><g/><g/><g/><g/><g/><g/><g/><g/><g/><g/><g/><g/><g/><g/><g/><g/><g/><g/><g/><g/><g/><g/><g/><g/><g/><g/><g/><g/><g/><g/><g/><g/><g/><g/><g/><g/><g/><g/><g/><g/><g/><g><rect fill="white" stroke="none" x="0" y="0" width="1582" height="1135"/></g><g><g><path fill="#FFF2CC" stroke="black" paint-order="fill stroke markers" d=" M 751.6493935262603 9.556093930499998 L 1574.5930515819164 9.556093930499998 L 1574.5930515819164 1126.9656756669997 L 751.6493935262603 1126.9656756669997 L 751.6493935262603 9.556093930499998 Z" stroke-miterlimit="10" stroke-width="1.3612669416666667" stroke-dasharray=""/></g><g><text fill="black" stroke="none" font-family="sans-serif" font-size="11pt" font-style="normal" font-weight="normal" text-decoration="normal" x="1061.689620076061" y="32.4253785505" text-anchor="start" dominant-baseline="alphabetic" xml:space="preserve">Data Protection Cockpit (DPC) </text></g></g><g><path fill="none" stroke="black" paint-order="fill stroke markers" d=" M 352.96844111910156 125.617713377 L 352.96844111910156 1126.9656756669997" stroke-miterlimit="10" stroke-width="1.3612669416666667" stroke-dasharray="12.565541,5.445067766666667"/><path fill="none" stroke="black" paint-order="fill stroke markers" d=" M 527.7717570156484 125.617713377 L 527.7717570156484 1126.9656756669997" stroke-miterlimit="10" stroke-width="1.3612669416666667" stroke-dasharray="12.565541,5.445067766666667"/><path fill="none" stroke="black" paint-order="fill stroke markers" d=" M 784.8706849584205 125.617713377 L 784.8706849584205 1126.9656756669997" stroke-miterlimit="10" stroke-width="1.3612669416666667" stroke-dasharray="12.565541,5.445067766666667"/><path fill="none" stroke="black" paint-order="fill stroke markers" d=" M 894.6753615691301 125.617713377 L 894.6753615691301 1126.9656756669997" stroke-miterlimit="10" stroke-width="1.3612669416666667" stroke-dasharray="12.565541,5.445067766666667"/><path fill="none" stroke="black" paint-order="fill stroke markers" d=" M 1114.2847147905493 125.617713377 L 1114.2847147905493 1126.9656756669997" stroke-miterlimit="10" stroke-width="1.3612669416666667" stroke-dasharray="12.565541,5.445067766666667"/><path fill="none" stroke="black" paint-order="fill stroke markers" d=" M 1271.9870785386586 125.617713377 L 1271.9870785386586 1126.9656756669997" stroke-miterlimit="10" stroke-width="1.3612669416666667" stroke-dasharray="12.565541,5.445067766666667"/><path fill="none" stroke="black" paint-order="fill stroke markers" d=" M 1423.587078700342 125.617713377 L 1423.587078700342 1126.9656756669997" stroke-miterlimit="10" stroke-width="1.3612669416666667" stroke-dasharray="12.565541,5.445067766666667"/><path fill="none" stroke="black" paint-order="fill stroke markers" d=" M 1531.3896757009593 125.617713377 L 1531.3896757009593 1126.9656756669997" stroke-miterlimit="10" stroke-width="1.3612669416666667" stroke-dasharray="12.565541,5.445067766666667"/></g><g><path fill="none" stroke="none"/><g><path fill="white" stroke="black" paint-order="fill stroke markers" d=" M 257.4387534121367 81.51266446700001 L 448.49812882606636 81.51266446700001 L 448.49812882606636 125.617713377 L 257.4387534121367 125.617713377 L 257.4387534121367 81.51266446700001 Z" stroke-miterlimit="10" stroke-width="2.613632528" stroke-dasharray=""/></g><g><g/><text fill="black" stroke="none" font-family="sans-serif" font-size="11pt" font-style="normal" font-weight="normal" text-decoration="normal" x="275.1624489926367" y="109.282510077" text-anchor="start" dominant-baseline="alphabetic" xml:space="preserve">Data Consumer System</text></g><path fill="none" stroke="none"/><g><path fill="white" stroke="black" paint-order="fill stroke markers" d=" M 464.83333212606635 81.51266446700001 L 590.7101819052305 81.51266446700001 L 590.7101819052305 125.617713377 L 464.83333212606635 125.617713377 L 464.83333212606635 81.51266446700001 Z" stroke-miterlimit="10" stroke-width="2.613632528" stroke-dasharray=""/></g><g><g/><text fill="black" stroke="none" font-family="sans-serif" font-size="11pt" font-style="normal" font-weight="normal" text-decoration="normal" x="482.5570277065664" y="109.282510077" text-anchor="start" dominant-baseline="alphabetic" xml:space="preserve">Platform Core</text></g><path fill="none" stroke="none"/><g><path fill="#FFF2CC" stroke="black" paint-order="fill stroke markers" d=" M 759.8169951762603 81.51266446700001 L 809.9243747405807 81.51266446700001 L 809.9243747405807 125.617713377 L 759.8169951762603 125.617713377 L 759.8169951762603 81.51266446700001 Z" stroke-miterlimit="10" stroke-width="2.613632528" stroke-dasharray=""/></g><g><g/><text fill="black" stroke="none" font-family="sans-serif" font-size="11pt" font-style="normal" font-weight="normal" text-decoration="normal" x="777.5406907567603" y="109.282510077" text-anchor="start" dominant-baseline="alphabetic" xml:space="preserve">UI</text></g><path fill="none" stroke="none"/><g><path fill="#FFF2CC" stroke="black" paint-order="fill stroke markers" d=" M 865.137067905134 81.51266446700001 L 924.2136552331262 81.51266446700001 L 924.2136552331262 125.617713377 L 865.137067905134 125.617713377 L 865.137067905134 81.51266446700001 Z" stroke-miterlimit="10" stroke-width="2.613632528" stroke-dasharray=""/></g><g><g/><text fill="black" stroke="none" font-family="sans-serif" font-size="11pt" font-style="normal" font-weight="normal" text-decoration="normal" x="882.860763485634" y="109.282510077" text-anchor="start" dominant-baseline="alphabetic" xml:space="preserve">API</text></g><path fill="none" stroke="none"/><g><path fill="#d5e8d4" stroke="black" paint-order="fill stroke markers" d=" M 1051.7507317344634 81.51266446700001 L 1176.8186978466354 81.51266446700001 L 1176.8186978466354 125.617713377 L 1051.7507317344634 125.617713377 L 1051.7507317344634 81.51266446700001 Z" stroke-miterlimit="10" stroke-width="2.613632528" stroke-dasharray=""/></g><g><g/><text fill="black" stroke="none" font-family="sans-serif" font-size="11pt" font-style="normal" font-weight="normal" text-decoration="normal" x="1069.4744273149633" y="109.282510077" text-anchor="start" dominant-baseline="alphabetic" xml:space="preserve">Grant Service</text></g><path fill="none" stroke="none"/><g><path fill="lightblue" stroke="black" paint-order="fill stroke markers" d=" M 1193.1539011466352 81.51266446700001 L 1350.8202559306822 81.51266446700001 L 1350.8202559306822 125.617713377 L 1193.1539011466352 125.617713377 L 1193.1539011466352 81.51266446700001 Z" stroke-miterlimit="10" stroke-width="2.613632528" stroke-dasharray=""/></g><g><g/><text fill="black" stroke="none" font-family="sans-serif" font-size="11pt" font-style="normal" font-weight="normal" text-decoration="normal" x="1210.8775967271351" y="109.282510077" text-anchor="start" dominant-baseline="alphabetic" xml:space="preserve">Participant Service</text></g><path fill="none" stroke="none"/><g><path fill="#e1d5e7" stroke="black" paint-order="fill stroke markers" d=" M 1367.155459230682 81.51266446700001 L 1480.0186981700024 81.51266446700001 L 1480.0186981700024 125.617713377 L 1367.155459230682 125.617713377 L 1367.155459230682 81.51266446700001 Z" stroke-miterlimit="10" stroke-width="2.613632528" stroke-dasharray=""/></g><g><g/><text fill="black" stroke="none" font-family="sans-serif" font-size="11pt" font-style="normal" font-weight="normal" text-decoration="normal" x="1384.879154811182" y="109.282510077" text-anchor="start" dominant-baseline="alphabetic" xml:space="preserve">Log Service</text></g><g><path fill="lightgray" stroke="black" paint-order="fill stroke markers" d=" M 1507.5402788829592 93.600714909 L 1507.5402788829592 59.29678797900001 L 1555.2390725189593 59.29678797900001 L 1555.2390725189593 93.600714909" stroke-miterlimit="10" stroke-width="2.7769845610000004" stroke-dasharray=""/><path fill="lightgray" stroke="black" paint-order="fill stroke markers" d=" M 1555.2390725189593 58.104318138100005 L 1555.2378800590557 58.21212868301663 L 1555.2343027985896 58.319928446968596 L 1555.2283410952841 58.42770665006936 L 1555.219995545305 58.53545251458841 L 1555.2092669831998 58.64315526602909 L 1555.196156481816 58.75080413420601 L 1555.1806653521926 58.85838835432205 L 1555.16279514343 58.96589716804486 L 1555.142547642534 59.073319824582654 L 1555.1199248742378 59.1806455817593 L 1555.0949291007994 59.28786370708852 L 1555.0675628217755 59.394963478847124 L 1555.0378287737708 59.501934187147185 L 1555.0057299301657 59.60876513500702 L 1554.9712695008175 59.715445639420864 L 1554.9344509317407 59.82196503242718 L 1554.8952779047615 59.92831266217543 L 1554.8537543371497 60.03447789399126 L 1554.8098843812277 60.14045011143997 L 1554.7636724239544 60.24621871738811 L 1554.715123086487 60.35177313506323 L 1554.664241223719 60.45710280911153 L 1554.611031923794 60.56219720665338 L 1554.5555005075978 60.6670458183366 L 1554.497652528226 60.771638159387386 L 1554.4374937704276 60.875963770658814 L 1554.3750302500289 60.980012219676674 L 1554.31026821333 61.08377310168279 L 1554.2432141364798 61.18723604067541 L 1554.1738747248307 61.29039069044686 L 1554.1022569122663 61.393226735618136 L 1554.0283678605076 61.4957338926704 L 1553.9522149583984 61.597901910973384 L 1553.8738058211657 61.69972057381039 L 1553.7931482896577 61.80117969939998 L 1553.7102504295601 61.902269141914154 L 1553.6251205305903 62.00297879249289 L 1553.537767105667 62.10329858025506 L 1553.4481988900598 62.20321847330548 L 1553.3564248405155 62.302728479738136 L 1553.2624541343632 62.40181864863528 L 1553.1662961685947 62.500479071062614 L 1553.0679605589264 62.5986998810601 L 1552.9674571388377 62.6964712566286 L 1552.8647959585865 62.793783420712025 L 1552.7599872842054 62.89062664217507 L 1552.6530415964746 62.98699123677628 L 1552.5439695898738 63.08286756813651 L 1552.4327821715124 63.178246048702505 L 1552.3194904600398 63.2731171407057 L 1552.2041057845329 63.36747135711595 L 1552.0866396833628 63.46129926259025 L 1551.967103903042 63.55459147441624 L 1551.8455103970487 63.647338663450476 L 1551.7218713246323 63.73953155505134 L 1551.5961990495969 63.83116093000651 L 1551.4685061390653 63.92221762545484 L 1551.3388053622225 64.01269253580267 L 1551.2071096890375 64.10257661363435 L 1551.0734322889682 64.19186087061702 L 1550.9377865296433 64.28053637839936 L 1550.8001859755254 64.36859426950451 L 1550.6606443865555 64.45602573821674 L 1550.5191757167763 64.54282204146202 L 1550.3757941129365 64.62897449968237 L 1550.2305139130772 64.71447449770376 L 1550.0833496450975 64.79931348559764 L 1549.9343160253013 64.8834829795359 L 1549.7834279569265 64.96697456263931 L 1549.6307005286542 65.04977988581912 L 1549.4761490130998 65.13189066861203 L 1549.3197888652862 65.21329870000817 L 1549.161635721098 65.29399583927226 L 1549.0017053957179 65.37397401675761 L 1548.8400138820446 65.45322523471312 L 1548.6765773490952 65.53174156808304 L 1548.5114121403867 65.60951516529946 L 1548.3445347723025 65.68653824906747 L 1548.17596193244 65.76280311714287 L 1548.0057104779428 65.83830214310242 L 1547.8337974338147 65.91302777710644 L 1547.6602399912167 65.98697254665379 L 1547.4850555057483 66.06012905732914 L 1547.3082614957123 66.13248999354239 L 1547.1298756403621 66.20404811926022 L 1546.949915778135 66.27479627872968 L 1546.7683999048668 66.3447273971938 L 1546.585346171994 66.41383448159898 L 1546.4007728847369 66.4821106212944 L 1546.2146985002707 66.54954898872295 L 1546.0271416258788 66.61614284010412 L 1545.8381210170921 66.68188551610825 L 1545.6476555758143 66.74677044252253 L 1545.4557643484304 66.81079113090838 L 1545.2624665239036 66.87394117925032 L 1545.067781431855 66.93621427259615 L 1544.871728540632 66.99760418368842 L 1544.6743274553598 67.05810477358717 L 1544.4755979159827 67.11770999228384 L 1544.275559795289 67.17641387930622 L 1544.074233096924 67.23421056431454 L 1543.8716379533898 67.29109426768845 L 1543.6677946240322 67.34705930110503 L 1543.4627234930138 67.40210006810757 L 1543.2564450672771 67.45621106466523 L 1543.0489799744928 67.50938687972345 L 1542.840348960997 67.56162219574504 L 1542.6305728897175 67.61291178924193 L 1542.4196727380865 67.6632505312975 L 1542.2076695959436 67.71263338807951 L 1541.994584663426 67.76105542134341 L 1541.7804392488495 67.80851178892625 L 1541.5652547665773 67.85499774523082 L 1541.3490527348781 67.9005086417002 L 1541.1318547737749 67.94503992728269 L 1540.9136826028828 67.98858714888684 L 1540.6945580392373 68.03114595182676 L 1540.474502995112 68.07271208025765 L 1540.253539475828 68.11328137760128 L 1540.031689577553 68.15284978696175 L 1539.8089754850919 68.19141335153107 L 1539.5854194696685 68.22896821498495 L 1539.3610438866979 68.2655106218683 L 1539.1358711735515 68.30103691797092 L 1538.9099238473132 68.33554355069278 L 1538.683224502527 68.36902706939938 L 1538.4557958089385 68.40148412576673 L 1538.227660509228 68.43291147411628 L 1537.9988414167344 68.46330597173935 L 1537.7693614131772 68.4926645792115 L 1537.5392434463652 68.52098436069649 L 1537.308510527903 68.54826248423974 L 1537.0771857308907 68.57449622205164 L 1536.8452921876149 68.59968295078025 L 1536.6128530872368 68.62382015177371 L 1536.3798916734727 68.64690541133201 L 1536.1464312422697 68.66893642094847 L 1535.9124951394767 68.68991097754045 L 1535.6781067585089 68.70982698366979 L 1535.443289538009 68.72868244775246 L 1535.2080669595032 68.74647548425779 L 1534.9724625450535 68.76320431389692 L 1534.7364998549053 68.77886726380085 L 1534.5002024851306 68.79346276768764 L 1534.2635940652694 68.80698936601907 L 1534.026698255967 68.81944570614655 L 1533.7895387466065 68.83083054244649 L 1533.5521392529413 68.84114273644471 L 1533.3145235147229 68.85038125693043 L 1533.0767152933272 68.8585451800593 L 1532.8387383693782 68.86563368944577 L 1532.6006165403699 68.87164607624486 L 1532.3623736182865 68.87658173922287 L 1532.1240334272222 68.88044018481763 L 1531.8856198009971 68.8832210271878 L 1531.6471565807756 68.88492398825143 L 1531.4086676126803 68.88554889771386 L 1531.17017674541 68.88509569308466 L 1530.931707827852 68.88356441968392 L 1530.6932847066998 68.88095523063768 L 1530.4549312240667 68.87726838686271 L 1530.2166712151025 68.87250425704028 L 1529.9785285056091 68.86666331757941 L 1529.7405269096594 68.85974615256919 L 1529.5026902272145 68.85175345372033 L 1529.2650422417446 68.8426860202961 L 1529.0276067178502 68.83254475903225 L 1528.7904073988855 68.82133068404647 L 1528.553468004585 68.8090449167369 L 1528.3168122286907 68.79568868567006 L 1528.080463736583 68.78126332645789 L 1527.844446162914 68.76577028162431 L 1527.6087831092443 68.7492111004609 L 1527.3734981416833 68.73158743887197 L 1527.1386147885312 68.71290105920899 L 1526.904156537928 68.69315383009435 L 1526.670146835503 68.6723477262345 L 1526.4366090820317 68.65048482822252 L 1526.2035666310946 68.62756732232997 L 1525.971042786743 68.60359750028833 L 1525.7390608011672 68.57857775905984 L 1525.5076438723725 68.55251060059778 L 1525.276815141859 68.52539863159627 L 1525.0465976923074 68.49724456322961 L 1524.817014545271 68.46805121088119 L 1524.5880886588727 68.4378214938619 L 1524.3598429255107 68.40655843511826 L 1524.132300169568 68.3742651609301 L 1523.9054831451308 68.3409449005979 L 1523.6794145337121 68.30660098611995 L 1523.4541169419851 68.27123685185907 L 1523.2296128995213 68.23485603419923 L 1523.0059248565374 68.19746217119186 L 1522.7830751816514 68.1590590021921 L 1522.5610861596454 68.11965036748485 L 1522.339979989236 68.07924020790075 L 1522.119778780857 68.03783256442209 L 1521.9005045544445 67.99543157777869 L 1521.6821792372393 67.95204148803388 L 1521.4648246615911 67.90766663416049 L 1521.248462562776 67.86231145360694 L 1521.0331145768237 67.81598048185344 L 1520.8188022383533 67.76867835195861 L 1520.6055469784203 67.72040979409601 L 1520.3933701223727 67.67117963508119 L 1520.1822928877195 67.62099279788902 L 1519.9723363820083 67.56985430116141 L 1519.7635216007143 67.51776925870541 L 1519.555869425142 67.46474287898188 L 1519.3494006203357 67.41078046458458 L 1519.1441358330042 67.35588741171 L 1518.9400955894546 67.30006920961766 L 1518.7373002935417 67.24333144008128 L 1518.535770224626 67.18567977683051 L 1518.3355255355461 67.12711998498365 L 1518.1365862506048 67.06765792047108 L 1517.938972263564 67.0072995294497 L 1517.742703335658 66.9460508477083 L 1517.5477990936163 66.88391800006403 L 1517.3542790277002 66.82090719974988 L 1517.1621624897555 66.75702474779337 L 1516.9714686912757 66.69227703238643 L 1516.7822167014817 66.62667052824669 L 1516.5944254454148 66.56021179596986 L 1516.4081137020441 66.4929074813738 L 1516.2233001023887 66.4247643148339 L 1516.0400031276547 66.35578911060999 L 1515.8582411073864 66.28598876616503 L 1515.6780322176348 66.21537026147531 L 1515.4993944791386 66.14394065833244 L 1515.3223457555227 66.07170709963721 L 1515.146903751512 65.99867680868529 L 1514.9730860111604 65.92485708844492 L 1514.8009099160975 65.8502553208266 L 1514.6303926837893 65.77487896594495 L 1514.4615513658166 65.69873556137263 L 1514.2944028461707 65.62183272138664 L 1514.1289638395642 65.5441781362069 L 1513.9652508897602 65.46577957122719 L 1513.8032803679168 65.38664486623871 L 1513.6430684709514 65.30678193464601 L 1513.4846312199204 65.22619876267568 L 1513.3279844584167 65.14490340857778 L 1513.1731438509858 65.06290400181996 L 1513.0201248815595 64.98020874227457 L 1512.8689428519071 64.89682589939866 L 1512.7196128801058 64.81276381140702 L 1512.5721498990283 64.7280308844384 L 1512.42656865485 64.64263559171489 L 1512.2828837055733 64.5565864726946 L 1512.1411094195741 64.46989213221772 L 1512.0012599741626 64.38256123964607 L 1511.863349354167 64.29460252799609 L 1511.727391350534 64.2060247930657 L 1511.593399558951 64.11683689255453 L 1511.4613873784851 64.02704774517835 L 1511.331368010245 63.93666632977704 L 1511.2033544560584 63.84570168441684 L 1511.0773595171745 63.75416290548648 L 1510.953395792982 63.66205914678757 L 1510.8314756797504 63.56939961861922 L 1510.711611369389 63.47619358685704 L 1510.593814848229 63.38245037202654 L 1510.4780978958245 63.288179348371074 L 1510.3644720837744 63.19338994291445 L 1510.2529487745649 63.09809163451822 L 1510.1435391204343 63.00229395293381 L 1510.0362540622566 62.90600647784956 L 1509.9311043284483 62.80923883793272 L 1509.8281004338953 62.71200070986665 L 1509.727252678901 62.61430181738313 L 1509.6285711481569 62.516151930289986 L 1509.532065709734 62.417560863494145 L 1509.4377460140954 62.318538476020116 L 1509.3456214931325 62.219094670024134 L 1509.2557013592204 62.11923938980393 L 1509.1679946042973 62.018982620804316 L 1509.082509998966 61.91833438861863 L 1508.9992560916157 61.81730475798624 L 1508.918241207568 61.715903831786 L 1508.839473448243 61.61414175002604 L 1508.7629606903517 61.51202868882973 L 1508.688710585106 61.40957485941809 L 1508.6167305574543 61.3067905070887 L 1508.5470278053397 61.203685910191126 L 1508.479609298979 61.10027137909914 L 1508.414481780167 60.996557255179674 L 1508.3516517616013 60.89255390975869 L 1508.291125526231 60.78827174308406 L 1508.2329091266297 60.683721183285556 L 1508.1770083843883 60.57891268533202 L 1508.1234288895348 60.473856729985926 L 1508.0721759999742 60.36856382275525 L 1508.0232548409522 60.26304449284297 L 1507.9766703045445 60.157309292094155 L 1507.9324270491654 60.05136879394075 L 1507.890529499104 59.94523359234431 L 1507.8509818440803 59.83891430073653 L 1507.8137880388267 59.73242155095798 L 1507.7789518026927 59.62576599219489 L 1507.7464766192732 59.518958289914266 L 1507.716365736059 59.41200912479732 L 1507.688622164114 59.30492919167144 L 1507.6632486777714 59.19772919844071 L 1507.6402478143596 59.09041986501512 L 1507.619621873945 58.98301192223859 L 1507.601372919105 58.87551611081589 L 1507.5855027747195 58.767943180238575 L 1507.57201302779 58.660303887710064 L 1507.56090502728 58.55260899706992 L 1507.5521798839798 58.444869277717444 L 1507.5458384703968 58.337095503534805 L 1507.541881420667 58.2292984518096 L 1507.5403091304925 58.121488902157175 L 1507.5411217571004 58.013677635442654 L 1507.544319219229 57.905875432702864 L 1507.5499011971347 57.79809307406824 L 1507.5578671326243 57.69034133768484 L 1507.5682162291112 57.582630998636496 L 1507.5809474516939 57.47497282786737 L 1507.596059527261 57.367377591104805 L 1507.6135509446176 57.25985604778283 L 1507.6334199546363 57.15241894996617 L 1507.6556645704331 57.04507704127507 L 1507.6802825675645 56.937841055810964 L 1507.7072714842516 56.83072171708302 L 1507.736628621625 56.72372973693586 L 1507.7683510439954 56.61687581447832 L 1507.8024355791472 56.51017063501361 L 1507.8388788186553 56.40362486897076 L 1507.877677118226 56.29724917083759 L 1507.9188265980617 56.19105417809525 L 1507.9623231432488 56.08505051015453 L 1508.0081624041688 55.979248767293896 L 1508.056339796934 55.87365952959945 L 1508.1068505038452 55.76829335590698 L 1508.1596894738739 55.66316078274605 L 1508.214851423167 55.55827232328636 L 1508.2723308355755 55.453638466286456 L 1508.3321219632064 55.349269675044845 L 1508.3942188269964 55.24517638635367 L 1508.4586152173108 55.141369009455055 L 1508.5253046945645 55.037857925000196 L 1508.5942805898653 54.93465348401127 L 1508.6655360056811 54.83176600684637 L 1508.7390638165298 54.72920578216748 L 1508.8148566696914 54.6269830659116 L 1508.892906985944 54.52510808026517 L 1508.9732069603206 54.42359101264186 L 1509.055748562891 54.32244201466383 L 1509.140523539564 54.22167120114659 L 1509.2275234129118 54.12128864908752 L 1509.3167394830202 54.02130439665817 L 1509.4081628283561 53.92172844220046 L 1509.5017843066616 53.82257074322687 L 1509.5975945558669 53.72384121542465 L 1509.6955839950265 53.62554973166431 L 1509.7957428252782 53.52770612101232 L 1509.8980610308226 53.43032016774821 L 1510.0025283799246 53.33340161038615 L 1510.109134425936 53.23696014070111 L 1510.2178685083413 53.14100540275969 L 1510.3287197538227 53.045546991955725 L 1510.441677077348 52.950594454050744 L 1510.556729183279 52.85615728421942 L 1510.6738645665012 52.762244926100024 L 1510.7930715135738 52.668866770850116 L 1510.9143381039012 52.57603215620741 L 1511.0376522109254 52.483750365556 L 1511.163001503339 52.39203062699805 L 1511.2903734463166 52.300882112431 L 1511.4197553027705 52.21031393663032 L 1511.5511341346225 52.12033515633814 L 1511.6844968040991 52.0309547693575 L 1511.8198299750445 51.942181713652616 L 1511.9571201142544 51.85402486645508 L 1512.0963534928292 51.766493043376144 L 1512.237516187547 51.67959499752518 L 1512.3805940822563 51.59333941863436 L 1512.5255728692864 51.50773493218968 L 1512.6724380508797 51.42279009856846 L 1512.8211749406403 51.338513412183275 L 1512.9717686650033 51.25491330063253 L 1513.1242041647215 51.17199812385771 L 1513.2784661963724 51.0897761733074 L 1513.434539333881 51.00825567110814 L 1513.592407970064 50.927444769242214 L 1513.7520563181888 50.84735154873246 L 1513.913468413554 50.7679840188342 L 1514.0766281150843 50.689350116234266 L 1514.241519106946 50.611457704257404 L 1514.408124900177 50.53431457207989 L 1514.5764288343366 50.45792843395067 L 1514.746414079172 50.382306928419894 L 1514.9180636363003 50.307457617575096 L 1515.0913603409085 50.23338798628499 L 1515.2662868634711 50.16010544145098 L 1515.4428257114812 50.08761731126648 L 1515.6209592312014 50.015930844484096 L 1515.8006696094278 49.945053209690776 L 1515.9819388752728 49.87499149459093 L 1516.1647489019606 49.80575270529769 L 1516.3490814086408 49.737343765632275 L 1516.5349179622165 49.66977151643166 L 1516.722239979187 49.60304271486444 L 1516.911028727507 49.537164033755175 L 1517.1012653284588 49.47214206091707 L 1517.292930758541 49.407983298493235 L 1517.48600585137 49.34469416230643 L 1517.6804712995977 49.282280981217546 L 1517.8763076568412 49.22074999649268 L 1518.0734953396282 49.16010736117902 L 1518.2720146293543 49.10035913948957 L 1518.4718456742562 49.04151130619671 L 1518.6729684913962 48.98356974603472 L 1518.8753629686598 48.92654025311134 L 1519.079008866768 48.87042853032834 L 1519.2838858213008 48.81524018881123 L 1519.4899733447335 48.760980747348185 L 1519.6972508284855 48.70765563183812 L 1519.905697544981 48.65527017474815 L 1520.115292649722 48.60382961458035 L 1520.326015183373 48.55333909534784 L 1520.5378440738561 48.50380366606049 L 1520.7507581384587 48.455228280219934 L 1520.9647360859517 48.40761779532429 L 1521.179756518719 48.36097697238237 L 1521.395797934896 48.3153104754376 L 1521.6128387305218 48.27062287110161 L 1521.830857201697 48.2269186280976 L 1522.0498315467566 48.18420211681345 L 1522.2697398684484 48.1424776088647 L 1522.4905601761236 48.10174927666736 L 1522.7122703879352 48.062021193020726 L 1522.934848333047 48.02329733070004 L 1523.1582717538502 47.985581562059274 L 1523.3825183081883 47.94887765864386 L 1523.6075655715933 47.91318929081355 L 1523.833391039526 47.878520027375394 L 1524.059972129628 47.844873335226836 L 1524.2872861839792 47.81225257900906 L 1524.5153104713634 47.7806610207705 L 1524.7440221895417 47.75010181964065 L 1524.9733984675333 47.720578031514165 L 1525.2034163679014 47.69209260874525 L 1525.4340528890475 47.664648399852446 L 1525.665284967512 47.63824814923377 L 1525.8970894802794 47.61289449689228 L 1526.1294432470918 47.58858997817209 L 1526.362323032766 47.56533702350482 L 1526.5957055495176 47.54313795816655 L 1526.8295674592891 47.521995002045315 L 1527.063885376085 47.50191026941911 L 1527.2986358683086 47.482885768744474 L 1527.5337954611061 47.46492340245561 L 1527.7693406387145 47.44802496677417 L 1528.0052478468122 47.43219215152965 L 1528.241493494875 47.41742653999037 L 1528.4780539585347 47.403729608705206 L 1528.7149055819425 47.39110272735584 L 1528.952024680133 47.3795471586199 L 1529.1893875413946 47.369064058044636 L 1529.4269704296382 47.35965447393136 L 1529.6647495867737 47.351319347230636 L 1529.902701235083 47.3440595114482 L 1530.1408015795998 47.33787569256158 L 1530.3790268104879 47.33276850894751 L 1530.6173531054228 47.328738471320094 L 1530.855756631974 47.32578598267973 L 1531.0942135499868 47.32391133827283 L 1531.3327000139686 47.32311472556227 L 1531.5711921754717 47.323396224208665 L 1531.8096661854786 47.32475580606237 L 1532.048098196787 47.32719333516634 L 1532.2864643663943 47.3307085677697 L 1532.5247408578828 47.33530115235211 L 1532.762903843801 47.34097062965894 L 1533.0009295080497 47.3477164327472 L 1533.2387940482602 47.35553788704218 L 1533.476473678177 47.36443421040498 L 1533.7139446300348 47.374404513210685 L 1533.9511831569368 47.385447798437305 L 1534.1881655352279 47.39756296176553 L 1534.4248680668675 47.41074879168913 L 1534.6612670817997 47.42500396963608 L 1534.8973389403202 47.44032707010049 L 1535.13306003544 47.45671656078506 L 1535.3684067952456 47.4741708027544 L 1535.6033556852574 47.492688050598844 L 1535.8378832107824 47.51226645260904 L 1536.071965919263 47.5329040509611 L 1536.3055804026237 47.554598781912404 L 1536.538703299611 47.57734847600791 L 1536.771311298129 47.60115085829719 L 1537.003381137572 47.62600354856183 L 1537.2348896111496 47.65190406155354 L 1537.4658135682068 47.67884980724257 L 1537.6961299165412 47.70683809107683 L 1537.925815624709 47.735866114251266 L 1538.1548477243314 47.76593097398773 L 1538.383203312389 47.79702966382531 L 1538.6108595535136 47.82915907392094 L 1538.8377936822703 47.86231599136038 L 1539.0639830054358 47.89649710047953 L 1539.289404904266 47.93169898319594 L 1539.514036836759 47.9679181193507 L 1539.7378563399086 48.00515088706036 L 1539.960841031951 48.04339356307918 L 1540.1829686146032 48.08264232317141 L 1540.4042168752917 48.12289324249378 L 1540.6245636893748 48.16414229598789 L 1540.8439870223547 48.20638535878274 L 1541.0624649320812 48.24961820660728 L 1541.279975570945 48.29383651621275 L 1541.4964971880638 48.33903586580504 L 1541.7120081314563 48.38521173548684 L 1541.9264868502075 48.43235950770968 L 1542.1399118966244 48.48047446773562 L 1542.3522619283804 48.52955180410875 L 1542.563515710649 48.57958660913633 L 1542.7736521182283 48.63057387937956 L 1542.9826501376524 48.6825085161539 L 1543.1904888692934 48.73538532603896 L 1543.3971475294518 48.789199021397806 L 1543.6026054524334 48.84394422090574 L 1543.8068420926174 48.89961545008845 L 1544.0098370265098 48.9562071418694 L 1544.2115699547865 49.01371363712657 L 1544.4120207043225 49.07212918525836 L 1544.6111692302102 49.131447944758634 L 1544.8089956177628 49.19166398380087 L 1545.0054800845064 49.25277128083136 L 1545.200602982158 49.314763725171304 L 1545.3943447985907 49.37763511762794 L 1545.5866861597842 49.44137917111441 L 1545.7776078317627 49.505989511278486 L 1545.967090722518 49.57145967714 L 1546.1551158839188 49.637783121736916 L 1546.3416645136058 49.70495321278004 L 1546.5267179568716 49.772963233316254 L 1546.710257708526 49.84180638240017 L 1546.8922654147466 49.91147577577426 L 1547.0727228749145 49.98196444655723 L 1547.2516120434343 50.05326534594075 L 1547.4289150315383 50.1253713438943 L 1547.6046141090749 50.19827522987816 L 1547.7786917062833 50.27196971356451 L 1547.9511304155485 50.346447425566375 L 1548.1219129931435 50.421700918174615 L 1548.2910223609529 50.49772266610269 L 1548.4584416081805 50.57450506723916 L 1548.6241539930413 50.65204044340789 L 1548.788142944435 50.73032104113588 L 1548.950392063603 50.80933903242859 L 1549.1108851257686 50.889086515552734 L 1549.2696060817593 50.969555515826464 L 1549.426539059612 51.050737986416806 L 1549.5816683661594 51.13262580914435 L 1549.7349784886 51.215210795295064 L 1549.8864540960499 51.29848468643916 L 1550.036080041074 51.38243915525691 L 1550.183841361203 51.467065806371394 L 1550.3297232804273 51.55235617718803 L 1550.4737112106773 51.63830173874081 L 1550.6157907532793 51.72489389654519 L 1550.755947700398 51.812123991457554 L 1550.8941680364553 51.899983300541116 L 1551.0304379395327 51.98846303793816 L 1551.1647437827535 52.0775543557487 L 1551.2970721356453 52.16724834491519 L 1551.427409765483 52.25753603611345 L 1551.5557436386123 52.3484084006496 L 1551.682060921753 52.439856351362934 L 1551.8063489832816 52.53187074353457 L 1551.9285953944961 52.62444237580196 L 1552.0487879308569 52.717561991079045 L 1552.1669145732103 52.81122027748188 L 1552.282963508991 52.905407869259875 L 1552.396923133402 53.00011534773235 L 1552.5087820505755 53.09533324223036 L 1552.6185290747135 53.191052031043824 L 1552.7261532312045 53.28726214237362 L 1552.831643757723 53.38395395528879 L 1552.9349901053042 53.481117800688615 L 1553.036181939399 53.57874396226953 L 1553.135209140909 53.67682267749672 L 1553.232061807196 53.77534413858041 L 1553.3267302530744 53.874298493456585 L 1553.4192050117783 53.973675846772224 L 1553.509476835909 54.073466260874795 L 1553.5975366983594 54.17365975680607 L 1553.6833757932166 54.274246315299926 L 1553.7669855366423 54.37521587778435 L 1553.8483575677324 54.476558347387225 L 1553.9274837493513 54.578263589946054 L 1554.0043561689467 54.68032143502133 L 1554.0789671393409 54.78272167691359 L 1554.1513091994989 54.88545407568398 L 1554.2213751152751 54.98850835817824 L 1554.2891578801361 55.091874219053985 L 1554.3546507158621 55.19554132181128 L 1554.417847073224 55.29949929982622 L 1554.4787406326386 55.40373775738766 L 1554.537325304801 55.508246270736684 L 1554.5935952312927 55.61301438910906 L 1554.647544785168 55.718031635780264 L 1554.699168571516 55.82328750911313 L 1554.748461428002 55.92877148360804 L 1554.7954184253804 56.03447301095545 L 1554.8400348679913 56.14038152109071 L 1554.8823062942274 56.24648642325106 L 1554.9222284769812 56.35277710703471 L 1554.9597974240678 56.45924294346186 L 1554.995009378624 56.56587328603757 L 1555.0278608194833 56.672657471816464 L 1555.058348461529 56.779584822468934 L 1555.0864692560228 56.88664464534902 L 1555.1122203909083 56.99382623456367 L 1555.1355992910933 57.10111887204326 L 1555.1566036187078 57.20851182861346 L 1555.1752312733358 57.31599436506811 L 1555.1914803922282 57.42355573324312 L 1555.2053493504861 57.53118517709132 L 1555.2168367612253 57.63887193375801 L 1555.2259414757145 57.74660523465727 L 1555.2326625834896 57.85437430654877 L 1555.2369994124458 57.962168372615146 L 1555.2389515289033 58.06997665353961 M 1555.2390725189593 92.4082450681 L 1555.2378800590557 92.51605561301662 L 1555.2343027985896 92.62385537696859 L 1555.2283410952841 92.73163358006936 L 1555.219995545305 92.8393794445884 L 1555.2092669831998 92.94708219602909 L 1555.196156481816 93.05473106420601 L 1555.1806653521926 93.16231528432205 L 1555.16279514343 93.26982409804485 L 1555.142547642534 93.37724675458266 L 1555.1199248742378 93.4845725117593 L 1555.0949291007994 93.59179063708852 L 1555.0675628217755 93.69889040884712 L 1555.0378287737708 93.80586111714719 L 1555.0057299301657 93.91269206500702 L 1554.9712695008175 94.01937256942087 L 1554.9344509317407 94.12589196242718 L 1554.8952779047615 94.23223959217543 L 1554.8537543371497 94.33840482399125 L 1554.8098843812277 94.44437704143996 L 1554.7636724239544 94.5501456473881 L 1554.715123086487 94.65570006506323 L 1554.664241223719 94.76102973911152 L 1554.611031923794 94.86612413665337 L 1554.5555005075978 94.97097274833659 L 1554.497652528226 95.07556508938738 L 1554.4374937704276 95.1798907006588 L 1554.3750302500289 95.28393914967667 L 1554.31026821333 95.38770003168278 L 1554.2432141364798 95.4911629706754 L 1554.1738747248307 95.59431762044686 L 1554.1022569122663 95.69715366561813 L 1554.0283678605076 95.7996608226704 L 1553.9522149583984 95.90182884097338 L 1553.8738058211657 96.00364750381038 L 1553.7931482896577 96.10510662939998 L 1553.7102504295601 96.20619607191415 L 1553.6251205305903 96.30690572249289 L 1553.537767105667 96.40722551025506 L 1553.4481988900598 96.50714540330549 L 1553.3564248405155 96.60665540973812 L 1553.2624541343632 96.70574557863527 L 1553.1662961685947 96.8044060010626 L 1553.0679605589264 96.9026268110601 L 1552.9674571388377 97.0003981866286 L 1552.8647959585865 97.09771035071202 L 1552.7599872842054 97.19455357217507 L 1552.6530415964746 97.29091816677628 L 1552.5439695898738 97.3867944981365 L 1552.4327821715124 97.4821729787025 L 1552.3194904600398 97.5770440707057 L 1552.2041057845329 97.67139828711595 L 1552.0866396833628 97.76522619259025 L 1551.967103903042 97.85851840441623 L 1551.8455103970487 97.95126559345047 L 1551.7218713246323 98.04345848505133 L 1551.5961990495969 98.13508786000651 L 1551.4685061390653 98.22614455545484 L 1551.3388053622225 98.31661946580266 L 1551.2071096890375 98.40650354363434 L 1551.0734322889682 98.49578780061701 L 1550.9377865296433 98.58446330839936 L 1550.8001859755254 98.67252119950452 L 1550.6606443865555 98.75995266821674 L 1550.5191757167763 98.84674897146202 L 1550.3757941129365 98.93290142968237 L 1550.2305139130772 99.01840142770375 L 1550.0833496450975 99.10324041559763 L 1549.9343160253013 99.18740990953589 L 1549.7834279569265 99.2709014926393 L 1549.6307005286542 99.35370681581911 L 1549.4761490130998 99.43581759861202 L 1549.3197888652862 99.51722563000817 L 1549.161635721098 99.59792276927226 L 1549.0017053957179 99.6779009467576 L 1548.8400138820446 99.75715216471312 L 1548.6765773490952 99.83566849808304 L 1548.5114121403867 99.91344209529944 L 1548.3445347723025 99.99046517906746 L 1548.17596193244 100.06673004714287 L 1548.0057104779428 100.14222907310241 L 1547.8337974338147 100.21695470710642 L 1547.6602399912167 100.29089947665378 L 1547.4850555057483 100.36405598732914 L 1547.3082614957123 100.43641692354238 L 1547.1298756403621 100.50797504926021 L 1546.949915778135 100.57872320872968 L 1546.7683999048668 100.64865432719378 L 1546.585346171994 100.71776141159897 L 1546.4007728847369 100.78603755129438 L 1546.2146985002707 100.85347591872295 L 1546.0271416258788 100.9200697701041 L 1545.8381210170921 100.98581244610824 L 1545.6476555758143 101.05069737252252 L 1545.4557643484304 101.11471806090837 L 1545.2624665239036 101.17786810925033 L 1545.067781431855 101.24014120259615 L 1544.871728540632 101.30153111368841 L 1544.6743274553598 101.36203170358716 L 1544.4755979159827 101.42163692228384 L 1544.275559795289 101.48034080930621 L 1544.074233096924 101.53813749431454 L 1543.8716379533898 101.59502119768845 L 1543.6677946240322 101.65098623110502 L 1543.4627234930138 101.70602699810756 L 1543.2564450672771 101.76013799466523 L 1543.0489799744928 101.81331380972344 L 1542.840348960997 101.86554912574503 L 1542.6305728897175 101.91683871924192 L 1542.4196727380865 101.9671774612975 L 1542.2076695959436 102.0165603180795 L 1541.994584663426 102.06498235134342 L 1541.7804392488495 102.11243871892626 L 1541.5652547665773 102.15892467523081 L 1541.3490527348781 102.2044355717002 L 1541.1318547737749 102.24896685728268 L 1540.9136826028828 102.29251407888682 L 1540.6945580392373 102.33507288182676 L 1540.474502995112 102.37663901025765 L 1540.253539475828 102.41720830760129 L 1540.031689577553 102.45677671696174 L 1539.8089754850919 102.49534028153107 L 1539.5854194696685 102.53289514498493 L 1539.3610438866979 102.56943755186829 L 1539.1358711735515 102.60496384797091 L 1538.9099238473132 102.63947048069276 L 1538.683224502527 102.67295399939937 L 1538.4557958089385 102.70541105576673 L 1538.227660509228 102.73683840411627 L 1537.9988414167344 102.76723290173933 L 1537.7693614131772 102.79659150921151 L 1537.5392434463652 102.82491129069649 L 1537.308510527903 102.85218941423973 L 1537.0771857308907 102.87842315205162 L 1536.8452921876149 102.90360988078025 L 1536.6128530872368 102.9277470817737 L 1536.3798916734727 102.95083234133202 L 1536.1464312422697 102.97286335094847 L 1535.9124951394767 102.99383790754045 L 1535.6781067585089 103.01375391366979 L 1535.443289538009 103.03260937775246 L 1535.2080669595032 103.05040241425777 L 1534.9724625450535 103.06713124389691 L 1534.7364998549053 103.08279419380085 L 1534.5002024851306 103.09738969768763 L 1534.2635940652694 103.11091629601906 L 1534.026698255967 103.12337263614656 L 1533.7895387466065 103.13475747244648 L 1533.5521392529413 103.14506966644471 L 1533.3145235147229 103.15430818693042 L 1533.0767152933272 103.16247211005928 L 1532.8387383693782 103.16956061944578 L 1532.6006165403699 103.17557300624486 L 1532.3623736182865 103.18050866922287 L 1532.1240334272222 103.18436711481763 L 1531.8856198009971 103.18714795718779 L 1531.6471565807756 103.18885091825143 L 1531.4086676126803 103.18947582771386 L 1531.17017674541 103.18902262308465 L 1530.931707827852 103.18749134968391 L 1530.6932847066998 103.18488216063768 L 1530.4549312240667 103.1811953168627 L 1530.2166712151025 103.17643118704027 L 1529.9785285056091 103.1705902475794 L 1529.7405269096594 103.16367308256918 L 1529.5026902272145 103.15568038372034 L 1529.2650422417446 103.14661295029609 L 1529.0276067178502 103.13647168903225 L 1528.7904073988855 103.12525761404646 L 1528.553468004585 103.1129718467369 L 1528.3168122286907 103.09961561567005 L 1528.080463736583 103.08519025645788 L 1527.844446162914 103.06969721162432 L 1527.6087831092443 103.0531380304609 L 1527.3734981416833 103.03551436887196 L 1527.1386147885312 103.01682798920898 L 1526.904156537928 102.99708076009435 L 1526.670146835503 102.97627465623451 L 1526.4366090820317 102.95441175822252 L 1526.2035666310946 102.93149425232995 L 1525.971042786743 102.90752443028832 L 1525.7390608011672 102.88250468905984 L 1525.5076438723725 102.85643753059779 L 1525.276815141859 102.82932556159626 L 1525.0465976923074 102.80117149322962 L 1524.817014545271 102.77197814088119 L 1524.5880886588727 102.7417484238619 L 1524.3598429255107 102.71048536511826 L 1524.132300169568 102.67819209093008 L 1523.9054831451308 102.64487183059789 L 1523.6794145337121 102.61052791611995 L 1523.4541169419851 102.57516378185908 L 1523.2296128995213 102.53878296419921 L 1523.0059248565374 102.50138910119185 L 1522.7830751816514 102.4629859321921 L 1522.5610861596454 102.42357729748485 L 1522.339979989236 102.38316713790076 L 1522.119778780857 102.34175949442208 L 1521.9005045544445 102.29935850777868 L 1521.6821792372393 102.25596841803387 L 1521.4648246615911 102.2115935641605 L 1521.248462562776 102.16623838360692 L 1521.0331145768237 102.11990741185345 L 1520.8188022383533 102.07260528195862 L 1520.6055469784203 102.024336724096 L 1520.3933701223727 101.97510656508118 L 1520.1822928877195 101.92491972788902 L 1519.9723363820083 101.8737812311614 L 1519.7635216007143 101.82169618870542 L 1519.555869425142 101.76866980898188 L 1519.3494006203357 101.71470739458458 L 1519.1441358330042 101.65981434170999 L 1518.9400955894546 101.60399613961766 L 1518.7373002935417 101.54725837008127 L 1518.535770224626 101.4896067068305 L 1518.3355255355461 101.43104691498365 L 1518.1365862506048 101.37158485047108 L 1517.938972263564 101.3112264594497 L 1517.742703335658 101.2499777777083 L 1517.5477990936163 101.18784493006403 L 1517.3542790277002 101.12483412974987 L 1517.1621624897555 101.06095167779335 L 1516.9714686912757 100.99620396238643 L 1516.7822167014817 100.93059745824668 L 1516.5944254454148 100.86413872596987 L 1516.4081137020441 100.79683441137381 L 1516.2233001023887 100.7286912448339 L 1516.0400031276547 100.65971604061 L 1515.8582411073864 100.58991569616504 L 1515.6780322176348 100.5192971914753 L 1515.4993944791386 100.44786758833243 L 1515.3223457555227 100.3756340296372 L 1515.146903751512 100.30260373868528 L 1514.9730860111604 100.22878401844491 L 1514.8009099160975 100.15418225082661 L 1514.6303926837893 100.07880589594495 L 1514.4615513658166 100.00266249137262 L 1514.2944028461707 99.92575965138663 L 1514.1289638395642 99.84810506620688 L 1513.9652508897602 99.76970650122719 L 1513.8032803679168 99.69057179623871 L 1513.6430684709514 99.610708864646 L 1513.4846312199204 99.53012569267568 L 1513.3279844584167 99.44883033857778 L 1513.1731438509858 99.36683093181996 L 1513.0201248815595 99.28413567227457 L 1512.8689428519071 99.20075282939865 L 1512.7196128801058 99.11669074140701 L 1512.5721498990283 99.0319578144384 L 1512.42656865485 98.9465625217149 L 1512.2828837055733 98.8605134026946 L 1512.1411094195741 98.77381906221773 L 1512.0012599741626 98.68648816964605 L 1511.863349354167 98.5985294579961 L 1511.727391350534 98.5099517230657 L 1511.593399558951 98.42076382255453 L 1511.4613873784851 98.33097467517834 L 1511.331368010245 98.24059325977703 L 1511.2033544560584 98.14962861441684 L 1511.0773595171745 98.05808983548647 L 1510.953395792982 97.96598607678756 L 1510.8314756797504 97.87332654861922 L 1510.711611369389 97.78012051685704 L 1510.593814848229 97.68637730202654 L 1510.4780978958245 97.59210627837106 L 1510.3644720837744 97.49731687291444 L 1510.2529487745649 97.40201856451822 L 1510.1435391204343 97.30622088293381 L 1510.0362540622566 97.20993340784955 L 1509.9311043284483 97.11316576793271 L 1509.8281004338953 97.01592763986665 L 1509.727252678901 96.91822874738313 L 1509.6285711481569 96.82007886028998 L 1509.532065709734 96.72148779349413 L 1509.4377460140954 96.62246540602011 L 1509.3456214931325 96.52302160002414 L 1509.2557013592204 96.42316631980393 L 1509.1679946042973 96.32290955080431 L 1509.082509998966 96.22226131861864 L 1508.9992560916157 96.12123168798624 L 1508.918241207568 96.019830761786 L 1508.839473448243 95.91806868002604 L 1508.7629606903517 95.81595561882972 L 1508.688710585106 95.71350178941809 L 1508.6167305574543 95.6107174370887 L 1508.5470278053397 95.50761284019111 L 1508.479609298979 95.40419830909913 L 1508.414481780167 95.30048418517967 L 1508.3516517616013 95.19648083975868 L 1508.291125526231 95.09219867308406 L 1508.2329091266297 94.98764811328554 L 1508.1770083843883 94.88283961533202 L 1508.1234288895348 94.77778365998593 L 1508.0721759999742 94.67249075275525 L 1508.0232548409522 94.56697142284297 L 1507.9766703045445 94.46123622209414 L 1507.9324270491654 94.35529572394076 L 1507.890529499104 94.24916052234431 L 1507.8509818440803 94.14284123073652 L 1507.8137880388267 94.03634848095798 L 1507.7789518026927 93.92969292219489 L 1507.7464766192732 93.82288521991427 L 1507.716365736059 93.71593605479731 L 1507.688622164114 93.60885612167144 L 1507.6632486777714 93.50165612844071 L 1507.6402478143596 93.39434679501512 L 1507.619621873945 93.28693885223859 L 1507.601372919105 93.17944304081588 L 1507.5855027747195 93.07187011023856 L 1507.57201302779 92.96423081771006 L 1507.56090502728 92.85653592706991 L 1507.5521798839798 92.74879620771745 L 1507.5458384703968 92.6410224335348 L 1507.541881420667 92.5332253818096 L 1507.5403091304925 92.42541583215717" stroke-miterlimit="10" stroke-width="2.7769845610000004" stroke-dasharray=""/></g><g><g/><text fill="black" stroke="none" font-family="sans-serif" font-size="11pt" font-style="normal" font-weight="normal" text-decoration="normal" x="1496.3539014700023" y="120.717152387" text-anchor="start" dominant-baseline="alphabetic" xml:space="preserve">Repository</text></g></g><g><path fill="white" stroke="black" paint-order="fill stroke markers" d=" M 519.6041553656484 241.597656807 L 535.9393586656485 241.597656807 L 535.9393586656485 847.6336992369997 L 519.6041553656484 847.6336992369997 L 519.6041553656484 241.597656807" stroke-miterlimit="10" stroke-width="1.3612669416666667" stroke-dasharray=""/><path fill="white" stroke="black" paint-order="fill stroke markers" d=" M 886.5077599191301 287.33622604699997 L 902.8429632191302 287.33622604699997 L 902.8429632191302 667.9464629369999 L 886.5077599191301 667.9464629369999 L 886.5077599191301 287.33622604699997" stroke-miterlimit="10" stroke-width="1.3612669416666667" stroke-dasharray=""/><path fill="white" stroke="black" paint-order="fill stroke markers" d=" M 1106.1171131405492 333.074795287 L 1122.4523164405493 333.074795287 L 1122.4523164405493 622.2078936969999 L 1106.1171131405492 622.2078936969999 L 1106.1171131405492 333.074795287" stroke-miterlimit="10" stroke-width="1.3612669416666667" stroke-dasharray=""/><path fill="white" stroke="black" paint-order="fill stroke markers" d=" M 1523.2220740509592 378.813364527 L 1539.5572773509593 378.813364527 L 1539.5572773509593 424.551933767 L 1523.2220740509592 424.551933767 L 1523.2220740509592 378.813364527" stroke-miterlimit="10" stroke-width="1.3612669416666667" stroke-dasharray=""/><path fill="white" stroke="black" paint-order="fill stroke markers" d=" M 1415.419477050342 530.730755217 L 1431.7546803503421 530.730755217 L 1431.7546803503421 576.469324457 L 1415.419477050342 576.469324457 L 1415.419477050342 530.730755217" stroke-miterlimit="10" stroke-width="1.3612669416666667" stroke-dasharray=""/><path fill="white" stroke="black" paint-order="fill stroke markers" d=" M 527.7717570156484 734.9207964669998 L 544.1069603156485 734.9207964669998 L 544.1069603156485 780.6593657069998 L 527.7717570156484 780.6593657069998 L 527.7717570156484 734.9207964669998" stroke-miterlimit="10" stroke-width="1.3612669416666667" stroke-dasharray=""/><path fill="black" stroke="black" paint-order="fill stroke markers" d=" M 352.96844111910156 177.07360377199998 L 344.80083946910156 177.07360377199998 M 8.16760165 158.288119977 L 330.0991564991016 158.288119977 L 344.80083946910156 172.98980294700002 L 344.80083946910156 195.859087567 L 8.16760165 195.859087567 L 8.16760165 158.288119977 M 330.0991564991016 158.288119977 L 330.0991564991016 172.98980294700002 L 344.80083946910156 172.98980294700002" stroke-miterlimit="10" stroke-width="1.3612669416666667" stroke-dasharray=""/><g><text fill="white" stroke="none" font-family="sans-serif" font-size="11pt" font-style="normal" font-weight="normal" text-decoration="normal" x="31.036886269999997" y="181.15740459699995" text-anchor="start" dominant-baseline="alphabetic" xml:space="preserve">1. Data consumer system request data asset</text></g><g><text fill="black" stroke="none" font-family="sans-serif" font-size="11pt" font-style="normal" font-weight="normal" text-decoration="normal" x="390.23763796405467" y="235.06357548699998" text-anchor="start" dominant-baseline="alphabetic" xml:space="preserve">get data asset</text></g><g><path fill="none" stroke="black" paint-order="fill stroke markers" d=" M 352.96844111910156 241.597656807 L 506.1548379819817 241.597656807" stroke-miterlimit="10" stroke-width="1.3612669416666667" stroke-dasharray=""/><g transform="translate(519.6041553656484,241.597656807) translate(-519.6041553656484,-241.597656807)"><path fill="black" stroke="none" paint-order="stroke fill markers" d=" M 505.9914859489817 234.79132209866665 L 519.6041553656484 241.597656807 L 505.9914859489817 248.40399151533333 Z"/></g></g><g><text fill="black" stroke="none" font-family="sans-serif" font-size="11pt" font-style="normal" font-weight="normal" text-decoration="normal" x="631.3667553983463" y="280.8021447269999" text-anchor="start" dominant-baseline="alphabetic" xml:space="preserve">check grant for data flow</text></g><g><path fill="none" stroke="black" paint-order="fill stroke markers" d=" M 535.9393586656485 287.33622604699997 L 873.0584425354634 287.33622604699997" stroke-miterlimit="10" stroke-width="1.3612669416666667" stroke-dasharray=""/><g transform="translate(886.5077599191301,287.33622604699997) translate(-886.5077599191301,-287.33622604699997)"><path fill="black" stroke="none" paint-order="stroke fill markers" d=" M 872.8950905024634 280.52989133866663 L 886.5077599191301 287.33622604699997 L 872.8950905024634 294.1425607553333 Z"/></g></g><g><text fill="black" stroke="none" font-family="sans-serif" font-size="11pt" font-style="normal" font-weight="normal" text-decoration="normal" x="924.6232342857968" y="326.54071396699993" text-anchor="start" dominant-baseline="alphabetic" xml:space="preserve">check grant for data flow</text></g><g><path fill="none" stroke="black" paint-order="fill stroke markers" d=" M 902.8429632191302 333.074795287 L 1092.6677957568825 333.074795287" stroke-miterlimit="10" stroke-width="1.3612669416666667" stroke-dasharray=""/><g transform="translate(1106.1171131405492,333.074795287) translate(-1106.1171131405492,-333.074795287)"><path fill="black" stroke="none" paint-order="stroke fill markers" d=" M 1092.5044437238826 326.26846057866663 L 1106.1171131405492 333.074795287 L 1092.5044437238826 339.8811299953333 Z"/></g></g><g><text fill="black" stroke="none" font-family="sans-serif" font-size="11pt" font-style="normal" font-weight="normal" text-decoration="normal" x="1275.9868305606956" y="372.27928320699993" text-anchor="start" dominant-baseline="alphabetic" xml:space="preserve">retrieve grants</text></g><g><path fill="none" stroke="black" paint-order="fill stroke markers" d=" M 1122.4523164405493 378.813364527 L 1509.7727566672925 378.813364527" stroke-miterlimit="10" stroke-width="1.3612669416666667" stroke-dasharray=""/><g transform="translate(1523.2220740509592,378.813364527) translate(-1523.2220740509592,-378.813364527)"><path fill="black" stroke="none" paint-order="stroke fill markers" d=" M 1509.6094046342926 372.00702981866664 L 1523.2220740509592 378.813364527 L 1509.6094046342926 385.6196992353333 Z"/></g></g><g><text fill="black" stroke="none" font-family="sans-serif" font-size="11pt" font-style="normal" font-weight="normal" text-decoration="normal" x="1302.464979974758" y="418.01785244699994" text-anchor="start" dominant-baseline="alphabetic" xml:space="preserve">grants</text></g><g><path fill="none" stroke="black" paint-order="fill stroke markers" d=" M 1523.2220740509592 424.551933767 L 1135.901633824216 424.551933767" stroke-miterlimit="10" stroke-width="1.3612669416666667" stroke-dasharray="6.53408132"/><g transform="translate(1122.4523164405493,424.551933767) translate(-1122.4523164405493,-424.551933767)"><path fill="black" stroke="none" paint-order="stroke fill markers" d=" M 1136.064985857216 417.74559905866664 L 1122.4523164405493 424.551933767 L 1136.064985857216 431.3582684753333 Z"/></g></g><g><text fill="black" stroke="none" font-family="sans-serif" font-size="11pt" font-style="normal" font-weight="normal" text-decoration="normal" x="1176.044028154137" y="507.861470597" text-anchor="start" dominant-baseline="alphabetic" xml:space="preserve">create log</text><text fill="black" stroke="none" font-family="sans-serif" font-size="11pt" font-style="normal" font-weight="normal" text-decoration="normal" x="1176.044028154137" y="524.196673897" text-anchor="start" dominant-baseline="alphabetic" xml:space="preserve">(grant checked for data flow)</text></g><g><path fill="none" stroke="black" paint-order="fill stroke markers" d=" M 1122.4523164405493 530.730755217 L 1401.9701596666753 530.730755217" stroke-miterlimit="10" stroke-width="1.3612669416666667" stroke-dasharray=""/><g transform="translate(1415.419477050342,530.730755217) translate(-1415.419477050342,-530.730755217)"><path fill="black" stroke="none" paint-order="stroke fill markers" d=" M 1401.8068076336754 523.9244205086667 L 1415.419477050342 530.730755217 L 1401.8068076336754 537.5370899253334 Z"/></g></g><g><text fill="black" stroke="none" font-family="sans-serif" font-size="11pt" font-style="normal" font-weight="normal" text-decoration="normal" x="1246.9244526536488" y="569.9352431369999" text-anchor="start" dominant-baseline="alphabetic" xml:space="preserve">logged</text></g><g><path fill="none" stroke="black" paint-order="fill stroke markers" d=" M 1415.419477050342 576.469324457 L 1135.901633824216 576.469324457" stroke-miterlimit="10" stroke-width="1.3612669416666667" stroke-dasharray="6.53408132"/><g transform="translate(1122.4523164405493,576.469324457) translate(-1122.4523164405493,-576.469324457)"><path fill="black" stroke="none" paint-order="stroke fill markers" d=" M 1136.064985857216 569.6629897486666 L 1122.4523164405493 576.469324457 L 1136.064985857216 583.2756591653333 Z"/></g></g><g><text fill="black" stroke="none" font-family="sans-serif" font-size="11pt" font-style="normal" font-weight="normal" text-decoration="normal" x="979.619633211578" y="615.6738123769999" text-anchor="start" dominant-baseline="alphabetic" xml:space="preserve">granted</text></g><g><path fill="none" stroke="black" paint-order="fill stroke markers" d=" M 1106.1171131405492 622.2078936969999 L 916.2922806027968 622.2078936969999" stroke-miterlimit="10" stroke-width="1.3612669416666667" stroke-dasharray="6.53408132"/><g transform="translate(902.8429632191302,622.2078936969999) translate(-902.8429632191302,-622.2078936969999)"><path fill="black" stroke="none" paint-order="stroke fill markers" d=" M 916.4556326357969 615.4015589886666 L 902.8429632191302 622.2078936969999 L 916.4556326357969 629.0142284053333 Z"/></g></g><g><text fill="black" stroke="none" font-family="sans-serif" font-size="11pt" font-style="normal" font-weight="normal" text-decoration="normal" x="686.3631543241275" y="661.4123816169998" text-anchor="start" dominant-baseline="alphabetic" xml:space="preserve">granted</text></g><g><path fill="none" stroke="black" paint-order="fill stroke markers" d=" M 886.5077599191301 667.9464629369999 L 549.3886760493151 667.9464629369999" stroke-miterlimit="10" stroke-width="1.3612669416666667" stroke-dasharray="6.53408132"/><g transform="translate(535.9393586656485,667.9464629369999) translate(-535.9393586656485,-667.9464629369999)"><path fill="black" stroke="none" paint-order="stroke fill markers" d=" M 549.5520280823151 661.1401282286665 L 535.9393586656485 667.9464629369999 L 549.5520280823151 674.7527976453332 Z"/></g></g><g><text fill="black" stroke="none" font-family="sans-serif" font-size="11pt" font-style="normal" font-weight="normal" text-decoration="normal" x="565.8872313823151" y="707.1509508569998" text-anchor="start" dominant-baseline="alphabetic" xml:space="preserve">get data asset from repository</text></g><g><path fill="none" stroke="black" paint-order="fill stroke markers" d=" M 535.9393586656485 713.6850321769998 L 609.4477735156484 713.6850321769998 L 609.4477735156484 734.9207964669998 L 557.556277699315 734.9207964669998" stroke-miterlimit="10" stroke-width="1.3612669416666667" stroke-dasharray=""/><g transform="translate(544.1069603156484,734.9207964669998) translate(-544.1069603156484,-734.9207964669998)"><path fill="black" stroke="none" paint-order="stroke fill markers" d=" M 557.7196297323151 728.1144617586665 L 544.1069603156484 734.9207964669998 L 557.7196297323151 741.7271311753332 Z"/></g></g><g><text fill="black" stroke="none" font-family="sans-serif" font-size="11pt" font-style="normal" font-weight="normal" text-decoration="normal" x="565.8872313823151" y="774.1252843869997" text-anchor="start" dominant-baseline="alphabetic" xml:space="preserve">data asset</text></g><g><path fill="none" stroke="black" paint-order="fill stroke markers" d=" M 544.1069603156484 780.6593657069998 L 609.4477735156484 780.6593657069998 L 609.4477735156484 801.8951299969998 L 549.388676049315 801.8951299969998" stroke-miterlimit="10" stroke-width="1.3612669416666667" stroke-dasharray="6.53408132"/><g transform="translate(535.9393586656483,801.8951299969998) translate(-535.9393586656483,-801.8951299969998)"><path fill="black" stroke="none" paint-order="stroke fill markers" d=" M 549.552028082315 795.0887952886665 L 535.9393586656483 801.8951299969998 L 549.552028082315 808.7014647053331 Z"/></g></g><g><text fill="black" stroke="none" font-family="sans-serif" font-size="11pt" font-style="normal" font-weight="normal" text-decoration="normal" x="402.46383425311717" y="841.0996179169997" text-anchor="start" dominant-baseline="alphabetic" xml:space="preserve">data asset</text></g><g><path fill="none" stroke="black" paint-order="fill stroke markers" d=" M 519.6041553656484 847.6336992369997 L 366.4177585027682 847.6336992369997" stroke-miterlimit="10" stroke-width="1.3612669416666667" stroke-dasharray="6.53408132"/><g transform="translate(352.96844111910156,847.6336992369997) translate(-352.96844111910156,-847.6336992369997)"><path fill="black" stroke="none" paint-order="stroke fill markers" d=" M 366.58111053576823 840.8273645286664 L 352.96844111910156 847.6336992369997 L 366.58111053576823 854.4400339453331 Z"/></g></g><g><text fill="black" stroke="none" font-family="sans-serif" font-size="11pt" font-style="normal" font-weight="normal" text-decoration="normal" x="953.5387540001523" y="930.9432360669998" text-anchor="start" dominant-baseline="alphabetic" xml:space="preserve">exception:</text><text fill="black" stroke="none" font-family="sans-serif" font-size="11pt" font-style="normal" font-weight="normal" text-decoration="normal" x="953.5387540001523" y="947.2784393669998" text-anchor="start" dominant-baseline="alphabetic" xml:space="preserve">no grants found</text></g><g><path fill="none" stroke="black" paint-order="fill stroke markers" d=" M 1114.2847147905493 953.8125206869998 L 908.1246789527968 953.8125206869998" stroke-miterlimit="10" stroke-width="1.3612669416666667" stroke-dasharray="6.53408132"/><g transform="translate(894.6753615691301,953.8125206869998) translate(-894.6753615691301,-953.8125206869998)"><path fill="black" stroke="none" paint-order="stroke fill markers" d=" M 908.2880309857968 947.0061859786665 L 894.6753615691301 953.8125206869998 L 908.2880309857968 960.6188553953332 Z"/></g></g><g><text fill="black" stroke="none" font-family="sans-serif" font-size="11pt" font-style="normal" font-weight="normal" text-decoration="normal" x="660.2822751127018" y="993.0170086069998" text-anchor="start" dominant-baseline="alphabetic" xml:space="preserve">no grants found</text></g><g><path fill="none" stroke="black" paint-order="fill stroke markers" d=" M 894.6753615691301 999.5510899269998 L 541.2210743993151 999.5510899269998" stroke-miterlimit="10" stroke-width="1.3612669416666667" stroke-dasharray="6.53408132"/><g transform="translate(527.7717570156484,999.5510899269998) translate(-527.7717570156484,-999.5510899269998)"><path fill="black" stroke="none" paint-order="stroke fill markers" d=" M 541.3844264323151 992.7447552186665 L 527.7717570156484 999.5510899269998 L 541.3844264323151 1006.3574246353331 Z"/></g></g><g><text fill="black" stroke="none" font-family="sans-serif" font-size="11pt" font-style="normal" font-weight="normal" text-decoration="normal" x="397.98643970458204" y="1038.755577847" text-anchor="start" dominant-baseline="alphabetic" xml:space="preserve">unauthorized</text></g><g><path fill="none" stroke="black" paint-order="fill stroke markers" d=" M 527.7717570156484 1045.2896591669999 L 366.4177585027682 1045.2896591669999" stroke-miterlimit="10" stroke-width="1.3612669416666667" stroke-dasharray="6.53408132"/><g transform="translate(352.96844111910156,1045.2896591669999) translate(-352.96844111910156,-1045.2896591669999)"><path fill="black" stroke="none" paint-order="stroke fill markers" d=" M 366.58111053576823 1038.4833244586666 L 352.96844111910156 1045.2896591669999 L 366.58111053576823 1052.095993875333 Z"/></g></g><g><g/><path fill="none" stroke="black" paint-order="fill stroke markers" d=" M 295.79522956910154 449.05473871699996 L 1480.760290250342 449.05473871699996 L 1480.760290250342 1069.7924641169998 L 295.79522956910154 1069.7924641169998 L 295.79522956910154 449.05473871699996 Z" stroke-miterlimit="10" stroke-width="2.3336004714285714" stroke-dasharray=""/><path fill="white" stroke="black" paint-order="fill stroke markers" d=" M 295.79522956910154 449.05473871699996 L 295.79522956910154 468.656982677 L 342.1544331661718 468.656982677 L 351.95555514617183 458.85586069699997 L 351.95555514617183 449.05473871699996 L 295.79522956910154 449.05473871699996" stroke-miterlimit="10" stroke-width="2.3336004714285714" stroke-dasharray=""/><text fill="black" stroke="none" font-family="sans-serif" font-size="8.8pt" font-style="normal" font-weight="bold" text-decoration="normal" x="312.1304328691015" y="462.122901357" text-anchor="start" dominant-baseline="alphabetic" xml:space="preserve">alt</text><g><rect fill="white" stroke="none" x="365.8404779511718" y="450.361554981" width="111.79919685425781" height="16.988611432000003"/></g><text fill="black" stroke="none" font-family="sans-serif" font-size="8.8pt" font-style="normal" font-weight="bold" text-decoration="normal" x="368.2907584461718" y="462.122901357" text-anchor="start" dominant-baseline="alphabetic" xml:space="preserve">[if there are grants]</text><g><path fill="none" stroke="black" paint-order="fill stroke markers" d=" M 295.79522956910154 872.1365041869998 L 1480.760290250342 872.1365041869998" stroke-miterlimit="10" stroke-width="2.3336004714285714" stroke-dasharray="4.083800825"/></g><g/><g><rect fill="white" stroke="none" x="365.8404779511718" y="873.4433204509997" width="118.96435798707031" height="16.988611432000003"/></g><text fill="black" stroke="none" font-family="sans-serif" font-size="8.8pt" font-style="normal" font-weight="bold" text-decoration="normal" x="368.2907584461718" y="885.2046668269998" text-anchor="start" dominant-baseline="alphabetic" xml:space="preserve">[there are no grants]</text></g><g/></g><g/><g/><g/><g/><g/><g/><g/><g/></g></svg>