<svg xmlns="http://www.w3.org/2000/svg" xmlns:xlink="http://www.w3.org/1999/xlink" version="1.1" width="2434.4427133514855" height="1670.9279455570002"><desc>actor%20Data%20Consumer%0Aactor%20Data%20Provider%0A%23participant%20Platform%20Core%0Aparticipantgroup%20%23FFF2CC%20Data%20Protection%20Cockpit%20(DPC)%20%0Aparticipant%20UI%20%23FFF2CC%0Aparticipant%20API%20%23FFF2CC%0Aparticipant%20Notification%20Service%20%23yellow%0Aparticipant%20Grant%20Service%20%23d5e8d4%0Aparticipant%20Participant%20Service%20%23lightblue%0Aparticipant%20Log%20Service%20%23e1d5e7%0Adatabase%20Repository%20%23lightgray%0Aend%0A%0A%0Aautoactivation%20%0A%0Anote%20left%20of%20Data%20Consumer%20%23black%3A%3Ccolor%3A%23white%3E1.%20Data%20consumer%20creates%20an%20incident%20report%20notification%20to%20data%20providers%0A%0AData%20Consumer%20-%3E%20UI%3Areport%20incident%5Cn(data%20leak%20involving%20participants%20emails)%0A%0AUI-%3EAPI%3Anew%20notification%5Cn(incident%20report%20involving%20emails)%0A%0AAPI-%3ENotification%20Service%3A%20create%20notification%5Cn(type%3Aincident%2C%20data%20type%3A%20email%2C%20consumer%20ID)%0A%0ANotification%20Service%20-%3E%20Participant%20Service%3A%20retrieve%20participants%0AParticipant%20Service%20--%3E%20Notification%20Service%3A%20participants%0A%0ANotification%20Service%20-%3E%20Grant%20Service%3A%20retrieve%20grants%5Cn(consumer%20ID%2C%20data%20type%3A%20email%2C%20status%3A%20valid)%0A%0A%0A%0AGrant%20Service%20-%3E%20Repository%3A%20retrieve%20grants%0ARepository%20--%3E%20Grant%20Service%3A%20grants%0A%0AGrant%20Service%20--%3E%20Notification%20Service%3A%20grants%0A%0Aloop%20for%20each%20provider%20ID%20in%20the%20grants%0ANotification%20Service%20-%3E%20Repository%3A%20create%20notification%5Cn(sender%3A%20consumer%20ID%2C%20recipient%3A%20provider%20ID%2C%20incident%20details)%0ARepository%20--%3E%20Notification%20Service%3A%20created%0A%0ANotification%20Service%20-%3E%20Log%20Service%3A%20create%20log%5Cn(incident%20details)%0ALog%20Service-%3ERepository%3A%20store%20log%0ARepository--%3E%20Log%20Service%3A%20stored%0ALog%20Service--%3ENotification%20Service%3A%20logged%0A%0Aend%0A%0ANotification%20Service%20--%3E%20API%3A%20created%0AAPI--%3E%20UI%3A%20created%0AUI--%3E%20Data%20Consumer%3A%20%22Incident%20report%20notification%20has%20been%20created%22%0A%0Anote%20left%20of%20Data%20Consumer%20%23black%3A%3Ccolor%3A%23white%3E2.%20Data%20provider%20is%20informed%20about%20the%20incident%0A%0AData%20Provider%20-%3E%20UI%3A%20see%20new%20notifications%0AUI%20-%3E%20API%20%3A%20pull%20new%20notifications%0AAPI%20-%3E%20Notification%20Service%20%3A%20retrieve%20(new)%20notifications%0ANotification%20Service%20-%3E%20Repository%3A%20retrieve%20notifications%0ARepository%20--%3E%20Notification%20Service%20%3A%20notifications%0ANotification%20Service%20--%3E%20API%3A%20notifications%0AAPI%20--%3E%20UI%3A%20new%20notifications%0AUI%20--%3E%20Data%20Provider%3A%20List%20of%20new%20notifications%0A</desc><defs/><g><g/><g/><g/><g/><g/><g/><g/><g/><g/><g/><g/><g/><g/><g/><g/><g/><g/><g/><g/><g/><g/><g/><g/><g/><g/><g/><g/><g/><g/><g/><g/><g/><g/><g/><g/><g/><g/><g/><g/><g/><g/><g/><g/><g/><g/><g/><g/><g/><g/><g/><g/><g/><g/><g/><g/><g/><g/><g/><g/><g/><g/><g/><g/><g/><g/><g/><g/><g/><g/><g/><g/><g/><g/><g/><g/><g/><g/><g/><g/><g/><g/><g/><g/><g/><g/><g/><g/><g/><g/><g/><g/><g/><g/><g/><g/><g/><g/><g/><g/><g/><g/><g/><g/><g/><g/><g/><g/><g/><g/><g/><g/><g/><g/><g/><g/><g/><g/><g/><g/><g/><g/><g/><g/><g/><g/><g/><g/><g/><g/><g/><g/><g/><g/><g/><g/><g/><g/><g/><g/><g/><g/><g/><g/><g/><g/><g/><g/><g/><g/><g/><g/><g/><g/><g/><g/><g/><g/><g/><g/><g/><g/><g/><g/><g/><g/><g/><g/><g/><g/><g/><g/><g/><g/><g/><g/><g/><g/><g/><g/><g/><g/><g/><g/><g/><g/><g/><g/><g/><g/><g/><g/><g/><g/><g/><g/><g/><g/><g/><g/><g/><g/><g/><g/><g/><g/><g/><g/><g/><g/><g/><g/><g/><g/><g/><g><rect fill="white" stroke="none" x="0" y="0" width="2434" height="1679"/></g><g><g><path fill="#FFF2CC" stroke="black" paint-order="fill stroke markers" d=" M 911.0325887414335 9.556093930499998 L 2387.8024710824425 9.556093930499998 L 2387.8024710824425 1670.9279455570002 L 911.0325887414335 1670.9279455570002 L 911.0325887414335 9.556093930499998 Z" stroke-miterlimit="10" stroke-width="1.3612669416666667" stroke-dasharray=""/></g><g><text fill="black" stroke="none" font-family="sans-serif" font-size="11pt" font-style="normal" font-weight="normal" text-decoration="normal" x="1547.9859274339105" y="32.4253785505" text-anchor="start" dominant-baseline="alphabetic" xml:space="preserve">Data Protection Cockpit (DPC) </text></g></g><g><path fill="none" stroke="black" paint-order="fill stroke markers" d=" M 534.7077752255468 125.617713377 L 534.7077752255468 1670.9279455570002" stroke-miterlimit="10" stroke-width="1.3612669416666667" stroke-dasharray="12.565541,5.445067766666667"/><path fill="none" stroke="black" paint-order="fill stroke markers" d=" M 704.3118912018815 125.617713377 L 704.3118912018815 1670.9279455570002" stroke-miterlimit="10" stroke-width="1.3612669416666667" stroke-dasharray="12.565541,5.445067766666667"/><path fill="none" stroke="black" paint-order="fill stroke markers" d=" M 944.2538801735938 125.617713377 L 944.2538801735938 1670.9279455570002" stroke-miterlimit="10" stroke-width="1.3612669416666667" stroke-dasharray="12.565541,5.445067766666667"/><path fill="none" stroke="black" paint-order="fill stroke markers" d=" M 1214.3642404750913 125.617713377 L 1214.3642404750913 1670.9279455570002" stroke-miterlimit="10" stroke-width="1.3612669416666667" stroke-dasharray="12.565541,5.445067766666667"/><path fill="none" stroke="black" paint-order="fill stroke markers" d=" M 1569.2204961623308 125.617713377 L 1569.2204961623308 1670.9279455570002" stroke-miterlimit="10" stroke-width="1.3612669416666667" stroke-dasharray="12.565541,5.445067766666667"/><path fill="none" stroke="black" paint-order="fill stroke markers" d=" M 1919.1733857607032 125.617713377 L 1919.1733857607032 1670.9279455570002" stroke-miterlimit="10" stroke-width="1.3612669416666667" stroke-dasharray="12.565541,5.445067766666667"/><path fill="none" stroke="black" paint-order="fill stroke markers" d=" M 2076.8757495088125 125.617713377 L 2076.8757495088125 1670.9279455570002" stroke-miterlimit="10" stroke-width="1.3612669416666667" stroke-dasharray="12.565541,5.445067766666667"/><path fill="none" stroke="black" paint-order="fill stroke markers" d=" M 2228.475749670496 125.617713377 L 2228.475749670496 1670.9279455570002" stroke-miterlimit="10" stroke-width="1.3612669416666667" stroke-dasharray="12.565541,5.445067766666667"/><path fill="none" stroke="black" paint-order="fill stroke markers" d=" M 2344.5990952014854 125.617713377 L 2344.5990952014854 1670.9279455570002" stroke-miterlimit="10" stroke-width="1.3612669416666667" stroke-dasharray="12.565541,5.445067766666667"/></g><g><g><path fill="white" stroke="black" paint-order="fill stroke markers" d=" M 544.0188411065468 56.51980341800001 A 9.311065881 9.311065881 0 1 1 544.0188364510143 56.51049235367085 M 534.7077752255468 65.83086929900001 L 534.7077752255468 85.75981732500001 M 522.9464288495468 73.01835875100001 L 546.4691216015468 73.01835875100001 M 534.7077752255468 85.75981732500001 L 522.9464288495468 104.38194908700001 M 534.7077752255468 85.75981732500001 L 546.4691216015468 104.38194908700001" stroke-miterlimit="10" stroke-width="2.7769845610000004" stroke-dasharray=""/></g><g><g/><text fill="black" stroke="none" font-family="sans-serif" font-size="11pt" font-style="normal" font-weight="normal" text-decoration="normal" x="483.37636195650384" y="120.717152387" text-anchor="start" dominant-baseline="alphabetic" xml:space="preserve">Data Consumer</text></g><g><path fill="white" stroke="black" paint-order="fill stroke markers" d=" M 713.6229570828815 56.51980341800001 A 9.311065881 9.311065881 0 1 1 713.622952427349 56.51049235367085 M 704.3118912018815 65.83086929900001 L 704.3118912018815 85.75981732500001 M 692.5505448258815 73.01835875100001 L 716.0732375778815 73.01835875100001 M 704.3118912018815 85.75981732500001 L 692.5505448258815 104.38194908700001 M 704.3118912018815 85.75981732500001 L 716.0732375778815 104.38194908700001" stroke-miterlimit="10" stroke-width="2.7769845610000004" stroke-dasharray=""/></g><g><g/><text fill="black" stroke="none" font-family="sans-serif" font-size="11pt" font-style="normal" font-weight="normal" text-decoration="normal" x="659.4980255402604" y="120.717152387" text-anchor="start" dominant-baseline="alphabetic" xml:space="preserve">Data Provider</text></g><path fill="none" stroke="none"/><g><path fill="#FFF2CC" stroke="black" paint-order="fill stroke markers" d=" M 919.2001903914336 81.51266446700001 L 969.3075699557539 81.51266446700001 L 969.3075699557539 125.617713377 L 919.2001903914336 125.617713377 L 919.2001903914336 81.51266446700001 Z" stroke-miterlimit="10" stroke-width="2.613632528" stroke-dasharray=""/></g><g><g/><text fill="black" stroke="none" font-family="sans-serif" font-size="11pt" font-style="normal" font-weight="normal" text-decoration="normal" x="936.9238859719336" y="109.282510077" text-anchor="start" dominant-baseline="alphabetic" xml:space="preserve">UI</text></g><path fill="none" stroke="none"/><g><path fill="#FFF2CC" stroke="black" paint-order="fill stroke markers" d=" M 1184.8259468110953 81.51266446700001 L 1243.9025341390875 81.51266446700001 L 1243.9025341390875 125.617713377 L 1184.8259468110953 125.617713377 L 1184.8259468110953 81.51266446700001 Z" stroke-miterlimit="10" stroke-width="2.613632528" stroke-dasharray=""/></g><g><g/><text fill="black" stroke="none" font-family="sans-serif" font-size="11pt" font-style="normal" font-weight="normal" text-decoration="normal" x="1202.5496423915952" y="109.282510077" text-anchor="start" dominant-baseline="alphabetic" xml:space="preserve">API</text></g><path fill="none" stroke="none"/><g><path fill="yellow" stroke="black" paint-order="fill stroke markers" d=" M 1488.7588245076122 81.51266446700001 L 1649.6821678170497 81.51266446700001 L 1649.6821678170497 125.617713377 L 1488.7588245076122 125.617713377 L 1488.7588245076122 81.51266446700001 Z" stroke-miterlimit="10" stroke-width="2.613632528" stroke-dasharray=""/></g><g><g/><text fill="black" stroke="none" font-family="sans-serif" font-size="11pt" font-style="normal" font-weight="normal" text-decoration="normal" x="1506.482520088112" y="109.282510077" text-anchor="start" dominant-baseline="alphabetic" xml:space="preserve">Notification Service</text></g><path fill="none" stroke="none"/><g><path fill="#d5e8d4" stroke="black" paint-order="fill stroke markers" d=" M 1856.6394027046174 81.51266446700001 L 1981.7073688167893 81.51266446700001 L 1981.7073688167893 125.617713377 L 1856.6394027046174 125.617713377 L 1856.6394027046174 81.51266446700001 Z" stroke-miterlimit="10" stroke-width="2.613632528" stroke-dasharray=""/></g><g><g/><text fill="black" stroke="none" font-family="sans-serif" font-size="11pt" font-style="normal" font-weight="normal" text-decoration="normal" x="1874.3630982851173" y="109.282510077" text-anchor="start" dominant-baseline="alphabetic" xml:space="preserve">Grant Service</text></g><path fill="none" stroke="none"/><g><path fill="lightblue" stroke="black" paint-order="fill stroke markers" d=" M 1998.0425721167892 81.51266446700001 L 2155.708926900836 81.51266446700001 L 2155.708926900836 125.617713377 L 1998.0425721167892 125.617713377 L 1998.0425721167892 81.51266446700001 Z" stroke-miterlimit="10" stroke-width="2.613632528" stroke-dasharray=""/></g><g><g/><text fill="black" stroke="none" font-family="sans-serif" font-size="11pt" font-style="normal" font-weight="normal" text-decoration="normal" x="2015.766267697289" y="109.282510077" text-anchor="start" dominant-baseline="alphabetic" xml:space="preserve">Participant Service</text></g><path fill="none" stroke="none"/><g><path fill="#e1d5e7" stroke="black" paint-order="fill stroke markers" d=" M 2172.0441302008358 81.51266446700001 L 2284.907369140156 81.51266446700001 L 2284.907369140156 125.617713377 L 2172.0441302008358 125.617713377 L 2172.0441302008358 81.51266446700001 Z" stroke-miterlimit="10" stroke-width="2.613632528" stroke-dasharray=""/></g><g><g/><text fill="black" stroke="none" font-family="sans-serif" font-size="11pt" font-style="normal" font-weight="normal" text-decoration="normal" x="2189.767825781336" y="109.282510077" text-anchor="start" dominant-baseline="alphabetic" xml:space="preserve">Log Service</text></g><g><path fill="lightgray" stroke="black" paint-order="fill stroke markers" d=" M 2320.7496983834853 93.600714909 L 2320.7496983834853 59.29678797900001 L 2368.4484920194855 59.29678797900001 L 2368.4484920194855 93.600714909" stroke-miterlimit="10" stroke-width="2.7769845610000004" stroke-dasharray=""/><path fill="lightgray" stroke="black" paint-order="fill stroke markers" d=" M 2368.4484920194855 58.104318138100005 L 2368.4472995595816 58.21212868301663 L 2368.4437222991155 58.319928446968596 L 2368.4377605958102 58.42770665006936 L 2368.429415045831 58.53545251458841 L 2368.4186864837257 58.64315526602909 L 2368.405575982342 58.75080413420601 L 2368.3900848527187 58.85838835432205 L 2368.372214643956 58.96589716804486 L 2368.35196714306 59.073319824582654 L 2368.329344374764 59.1806455817593 L 2368.3043486013257 59.28786370708852 L 2368.2769823223016 59.394963478847124 L 2368.247248274297 59.501934187147185 L 2368.215149430692 59.60876513500702 L 2368.1806890013436 59.715445639420864 L 2368.143870432267 59.82196503242718 L 2368.1046974052874 59.92831266217543 L 2368.063173837676 60.03447789399126 L 2368.019303881754 60.14045011143997 L 2367.9730919244803 60.24621871738811 L 2367.924542587013 60.35177313506323 L 2367.873660724245 60.45710280911153 L 2367.8204514243203 60.56219720665338 L 2367.764920008124 60.6670458183366 L 2367.707072028752 60.771638159387386 L 2367.6469132709535 60.875963770658814 L 2367.584449750555 60.980012219676674 L 2367.519687713856 61.08377310168279 L 2367.452633637006 61.18723604067541 L 2367.383294225357 61.29039069044686 L 2367.311676412792 61.393226735618136 L 2367.2377873610335 61.4957338926704 L 2367.1616344589247 61.597901910973384 L 2367.0832253216918 61.69972057381039 L 2367.0025677901835 61.80117969939998 L 2366.9196699300865 61.902269141914154 L 2366.8345400311164 62.00297879249289 L 2366.747186606193 62.10329858025506 L 2366.657618390586 62.20321847330548 L 2366.5658443410416 62.302728479738136 L 2366.471873634889 62.40181864863528 L 2366.375715669121 62.500479071062614 L 2366.2773800594528 62.5986998810601 L 2366.176876639364 62.6964712566286 L 2366.0742154591126 62.793783420712025 L 2365.9694067847317 62.89062664217507 L 2365.862461097001 62.98699123677628 L 2365.7533890903997 63.08286756813651 L 2365.6422016720385 63.178246048702505 L 2365.528909960566 63.2731171407057 L 2365.4135252850588 63.36747135711595 L 2365.2960591838887 63.46129926259025 L 2365.176523403568 63.55459147441624 L 2365.0549298975748 63.647338663450476 L 2364.931290825158 63.73953155505134 L 2364.805618550123 63.83116093000651 L 2364.6779256395916 63.92221762545484 L 2364.5482248627486 64.01269253580267 L 2364.416529189564 64.10257661363435 L 2364.2828517894945 64.19186087061702 L 2364.1472060301694 64.28053637839936 L 2364.0096054760515 64.36859426950451 L 2363.870063887082 64.45602573821674 L 2363.7285952173024 64.54282204146202 L 2363.5852136134627 64.62897449968237 L 2363.4399334136033 64.71447449770376 L 2363.2927691456234 64.79931348559764 L 2363.143735525827 64.8834829795359 L 2362.9928474574526 64.96697456263931 L 2362.84012002918 65.04977988581912 L 2362.685568513626 65.13189066861203 L 2362.5292083658123 65.21329870000817 L 2362.3710552216244 65.29399583927226 L 2362.2111248962437 65.37397401675761 L 2362.049433382571 65.45322523471312 L 2361.8859968496213 65.53174156808304 L 2361.720831640913 65.60951516529946 L 2361.5539542728284 65.68653824906747 L 2361.385381432966 65.76280311714287 L 2361.215129978469 65.83830214310242 L 2361.0432169343408 65.91302777710644 L 2360.869659491743 65.98697254665379 L 2360.6944750062744 66.06012905732914 L 2360.5176809962386 66.13248999354239 L 2360.339295140888 66.20404811926022 L 2360.1593352786613 66.27479627872968 L 2359.977819405393 66.3447273971938 L 2359.79476567252 66.41383448159898 L 2359.610192385263 66.4821106212944 L 2359.4241180007966 66.54954898872295 L 2359.236561126405 66.61614284010412 L 2359.0475405176185 66.68188551610825 L 2358.85707507634 66.74677044252253 L 2358.6651838489565 66.81079113090838 L 2358.4718860244298 66.87394117925032 L 2358.277200932381 66.93621427259615 L 2358.081148041158 66.99760418368842 L 2357.8837469558857 67.05810477358717 L 2357.685017416509 67.11770999228384 L 2357.4849792958153 67.17641387930622 L 2357.2836525974503 67.23421056431454 L 2357.081057453916 67.29109426768845 L 2356.877214124558 67.34705930110503 L 2356.67214299354 67.40210006810757 L 2356.4658645678032 67.45621106466523 L 2356.258399475019 67.50938687972345 L 2356.0497684615234 67.56162219574504 L 2355.839992390244 67.61291178924193 L 2355.629092238613 67.6632505312975 L 2355.4170890964697 67.71263338807951 L 2355.204004163952 67.76105542134341 L 2354.989858749376 67.80851178892625 L 2354.7746742671034 67.85499774523082 L 2354.558472235404 67.9005086417002 L 2354.3412742743008 67.94503992728269 L 2354.123102103409 67.98858714888684 L 2353.903977539763 68.03114595182676 L 2353.683922495638 68.07271208025765 L 2353.462958976354 68.11328137760128 L 2353.241109078079 68.15284978696175 L 2353.0183949856178 68.19141335153107 L 2352.7948389701946 68.22896821498495 L 2352.570463387224 68.2655106218683 L 2352.3452906740777 68.30103691797092 L 2352.1193433478393 68.33554355069278 L 2351.892644003053 68.36902706939938 L 2351.6652153094647 68.40148412576673 L 2351.437080009754 68.43291147411628 L 2351.2082609172608 68.46330597173935 L 2350.9787809137033 68.4926645792115 L 2350.7486629468913 68.52098436069649 L 2350.517930028429 68.54826248423974 L 2350.2866052314166 68.57449622205164 L 2350.054711688141 68.59968295078025 L 2349.822272587763 68.62382015177371 L 2349.589311173999 68.64690541133201 L 2349.355850742796 68.66893642094847 L 2349.1219146400026 68.68991097754045 L 2348.887526259035 68.70982698366979 L 2348.652709038535 68.72868244775246 L 2348.417486460029 68.74647548425779 L 2348.1818820455796 68.76320431389692 L 2347.945919355431 68.77886726380085 L 2347.7096219856567 68.79346276768764 L 2347.4730135657956 68.80698936601907 L 2347.236117756493 68.81944570614655 L 2346.9989582471326 68.83083054244649 L 2346.7615587534674 68.84114273644471 L 2346.523943015249 68.85038125693043 L 2346.2861347938533 68.8585451800593 L 2346.048157869904 68.86563368944577 L 2345.8100360408957 68.87164607624486 L 2345.571793118813 68.87658173922287 L 2345.333452927748 68.88044018481763 L 2345.0950393015232 68.8832210271878 L 2344.8565760813017 68.88492398825143 L 2344.6180871132065 68.88554889771386 L 2344.3795962459358 68.88509569308466 L 2344.141127328378 68.88356441968392 L 2343.9027042072257 68.88095523063768 L 2343.6643507245926 68.87726838686271 L 2343.4260907156286 68.87250425704028 L 2343.1879480061352 68.86666331757941 L 2342.9499464101855 68.85974615256919 L 2342.712109727741 68.85175345372033 L 2342.4744617422707 68.8426860202961 L 2342.2370262183763 68.83254475903225 L 2341.999826899412 68.82133068404647 L 2341.7628875051114 68.8090449167369 L 2341.5262317292168 68.79568868567006 L 2341.2898832371093 68.78126332645789 L 2341.05386566344 68.76577028162431 L 2340.8182026097707 68.7492111004609 L 2340.5829176422094 68.73158743887197 L 2340.3480342890575 68.71290105920899 L 2340.113576038454 68.69315383009435 L 2339.8795663360293 68.6723477262345 L 2339.646028582558 68.65048482822252 L 2339.412986131621 68.62756732232997 L 2339.180462287269 68.60359750028833 L 2338.9484803016935 68.57857775905984 L 2338.717063372899 68.55251060059778 L 2338.486234642385 68.52539863159627 L 2338.2560171928335 68.49724456322961 L 2338.026434045797 68.46805121088119 L 2337.7975081593986 68.4378214938619 L 2337.569262426037 68.40655843511826 L 2337.3417196700943 68.3742651609301 L 2337.114902645657 68.3409449005979 L 2336.8888340342382 68.30660098611995 L 2336.6635364425115 68.27123685185907 L 2336.4390324000474 68.23485603419923 L 2336.2153443570633 68.19746217119186 L 2335.9924946821775 68.1590590021921 L 2335.7705056601712 68.11965036748485 L 2335.5493994897624 68.07924020790075 L 2335.329198281383 68.03783256442209 L 2335.1099240549706 67.99543157777869 L 2334.8915987377654 67.95204148803388 L 2334.6742441621172 67.90766663416049 L 2334.457882063302 67.86231145360694 L 2334.24253407735 67.81598048185344 L 2334.0282217388794 67.76867835195861 L 2333.8149664789466 67.72040979409601 L 2333.602789622899 67.67117963508119 L 2333.3917123882457 67.62099279788902 L 2333.181755882534 67.56985430116141 L 2332.9729411012404 67.51776925870541 L 2332.7652889256683 67.46474287898188 L 2332.558820120862 67.41078046458458 L 2332.35355533353 67.35588741171 L 2332.149515089981 67.30006920961766 L 2331.946719794068 67.24333144008128 L 2331.745189725152 67.18567977683051 L 2331.5449450360725 67.12711998498365 L 2331.3460057511306 67.06765792047108 L 2331.14839176409 67.0072995294497 L 2330.952122836184 66.9460508477083 L 2330.757218594142 66.88391800006403 L 2330.5636985282263 66.82090719974988 L 2330.371581990282 66.75702474779337 L 2330.180888191802 66.69227703238643 L 2329.9916362020076 66.62667052824669 L 2329.803844945941 66.56021179596986 L 2329.61753320257 66.4929074813738 L 2329.432719602915 66.4247643148339 L 2329.2494226281806 66.35578911060999 L 2329.067660607913 66.28598876616503 L 2328.887451718161 66.21537026147531 L 2328.7088139796647 66.14394065833244 L 2328.531765256049 66.07170709963721 L 2328.3563232520382 65.99867680868529 L 2328.1825055116865 65.92485708844492 L 2328.010329416624 65.8502553208266 L 2327.839812184315 65.77487896594495 L 2327.6709708663425 65.69873556137263 L 2327.503822346697 65.62183272138664 L 2327.3383833400903 65.5441781362069 L 2327.1746703902863 65.46577957122719 L 2327.0126998684427 65.38664486623871 L 2326.852487971478 65.30678193464601 L 2326.6940507204467 65.22619876267568 L 2326.537403958943 65.14490340857778 L 2326.3825633515116 65.06290400181996 L 2326.2295443820854 64.98020874227457 L 2326.078362352433 64.89682589939866 L 2325.929032380632 64.81276381140702 L 2325.7815693995544 64.7280308844384 L 2325.635988155376 64.64263559171489 L 2325.4923032060997 64.5565864726946 L 2325.3505289201003 64.46989213221772 L 2325.2106794746887 64.38256123964607 L 2325.072768854693 64.29460252799609 L 2324.9368108510603 64.2060247930657 L 2324.802819059477 64.11683689255453 L 2324.6708068790113 64.02704774517835 L 2324.5407875107708 63.93666632977704 L 2324.4127739565843 63.84570168441684 L 2324.2867790177006 63.75416290548648 L 2324.162815293508 63.66205914678757 L 2324.0408951802765 63.56939961861922 L 2323.921030869915 63.47619358685704 L 2323.8032343487553 63.38245037202654 L 2323.687517396351 63.288179348371074 L 2323.5738915843003 63.19338994291445 L 2323.462368275091 63.09809163451822 L 2323.35295862096 63.00229395293381 L 2323.245673562783 62.90600647784956 L 2323.1405238289744 62.80923883793272 L 2323.037519934421 62.71200070986665 L 2322.936672179427 62.61430181738313 L 2322.837990648683 62.516151930289986 L 2322.74148521026 62.417560863494145 L 2322.6471655146215 62.318538476020116 L 2322.5550409936586 62.219094670024134 L 2322.4651208597465 62.11923938980393 L 2322.3774141048234 62.018982620804316 L 2322.291929499492 61.91833438861863 L 2322.208675592142 61.81730475798624 L 2322.127660708094 61.715903831786 L 2322.048892948769 61.61414175002604 L 2321.9723801908776 61.51202868882973 L 2321.898130085632 61.40957485941809 L 2321.8261500579806 61.3067905070887 L 2321.756447305866 61.203685910191126 L 2321.689028799505 61.10027137909914 L 2321.623901280693 60.996557255179674 L 2321.5610712621274 60.89255390975869 L 2321.500545026757 60.78827174308406 L 2321.442328627156 60.683721183285556 L 2321.3864278849146 60.57891268533202 L 2321.332848390061 60.473856729985926 L 2321.2815955005003 60.36856382275525 L 2321.2326743414783 60.26304449284297 L 2321.1860898050704 60.157309292094155 L 2321.1418465496918 60.05136879394075 L 2321.09994899963 59.94523359234431 L 2321.0604013446064 59.83891430073653 L 2321.023207539353 59.73242155095798 L 2320.988371303219 59.62576599219489 L 2320.9558961197995 59.518958289914266 L 2320.9257852365854 59.41200912479732 L 2320.89804166464 59.30492919167144 L 2320.8726681782978 59.19772919844071 L 2320.8496673148857 59.09041986501512 L 2320.829041374471 58.98301192223859 L 2320.810792419631 58.87551611081589 L 2320.794922275246 58.767943180238575 L 2320.781432528316 58.660303887710064 L 2320.7703245278058 58.55260899706992 L 2320.7615993845056 58.444869277717444 L 2320.755257970923 58.337095503534805 L 2320.7513009211934 58.2292984518096 L 2320.7497286310186 58.121488902157175 L 2320.7505412576265 58.013677635442654 L 2320.753738719755 57.905875432702864 L 2320.7593206976608 57.79809307406824 L 2320.7672866331504 57.69034133768484 L 2320.777635729637 57.582630998636496 L 2320.7903669522198 57.47497282786737 L 2320.805479027787 57.367377591104805 L 2320.8229704451437 57.25985604778283 L 2320.8428394551624 57.15241894996617 L 2320.8650840709593 57.04507704127507 L 2320.8897020680906 56.937841055810964 L 2320.9166909847777 56.83072171708302 L 2320.946048122151 56.72372973693586 L 2320.9777705445217 56.61687581447832 L 2321.0118550796733 56.51017063501361 L 2321.0482983191814 56.40362486897076 L 2321.087096618752 56.29724917083759 L 2321.1282460985876 56.19105417809525 L 2321.171742643775 56.08505051015453 L 2321.2175819046947 55.979248767293896 L 2321.26575929746 55.87365952959945 L 2321.3162700043713 55.76829335590698 L 2321.3691089744 55.66316078274605 L 2321.4242709236933 55.55827232328636 L 2321.481750336102 55.453638466286456 L 2321.5415414637323 55.349269675044845 L 2321.6036383275223 55.24517638635367 L 2321.668034717837 55.141369009455055 L 2321.7347241950906 55.037857925000196 L 2321.8037000903914 54.93465348401127 L 2321.8749555062072 54.83176600684637 L 2321.948483317056 54.72920578216748 L 2322.0242761702175 54.6269830659116 L 2322.1023264864702 54.52510808026517 L 2322.1826264608467 54.42359101264186 L 2322.265168063417 54.32244201466383 L 2322.34994304009 54.22167120114659 L 2322.436942913438 54.12128864908752 L 2322.5261589835463 54.02130439665817 L 2322.6175823288822 53.92172844220046 L 2322.7112038071878 53.82257074322687 L 2322.8070140563927 53.72384121542465 L 2322.9050034955526 53.62554973166431 L 2323.005162325804 53.52770612101232 L 2323.1074805313488 53.43032016774821 L 2323.2119478804507 53.33340161038615 L 2323.3185539264623 53.23696014070111 L 2323.4272880088674 53.14100540275969 L 2323.5381392543486 53.045546991955725 L 2323.651096577874 52.950594454050744 L 2323.766148683805 52.85615728421942 L 2323.8832840670275 52.762244926100024 L 2324.0024910140996 52.668866770850116 L 2324.1237576044273 52.57603215620741 L 2324.2470717114516 52.483750365556 L 2324.372421003865 52.39203062699805 L 2324.4997929468427 52.300882112431 L 2324.6291748032963 52.21031393663032 L 2324.7605536351484 52.12033515633814 L 2324.8939163046252 52.0309547693575 L 2325.029249475571 51.942181713652616 L 2325.1665396147805 51.85402486645508 L 2325.3057729933553 51.766493043376144 L 2325.446935688073 51.67959499752518 L 2325.5900135827824 51.59333941863436 L 2325.7349923698125 51.50773493218968 L 2325.8818575514056 51.42279009856846 L 2326.030594441166 51.338513412183275 L 2326.1811881655294 51.25491330063253 L 2326.3336236652476 51.17199812385771 L 2326.4878856968985 51.0897761733074 L 2326.6439588344074 51.00825567110814 L 2326.80182747059 50.927444769242214 L 2326.961475818715 50.84735154873246 L 2327.12288791408 50.7679840188342 L 2327.2860476156106 50.689350116234266 L 2327.450938607472 50.611457704257404 L 2327.617544400703 50.53431457207989 L 2327.7858483348627 50.45792843395067 L 2327.9558335796983 50.382306928419894 L 2328.1274831368264 50.307457617575096 L 2328.3007798414346 50.23338798628499 L 2328.4757063639972 50.16010544145098 L 2328.6522452120075 50.08761731126648 L 2328.8303787317277 50.015930844484096 L 2329.010089109954 49.945053209690776 L 2329.1913583757987 49.87499149459093 L 2329.3741684024867 49.80575270529769 L 2329.558500909167 49.737343765632275 L 2329.7443374627424 49.66977151643166 L 2329.9316594797133 49.60304271486444 L 2330.120448228033 49.537164033755175 L 2330.310684828985 49.47214206091707 L 2330.502350259067 49.407983298493235 L 2330.695425351896 49.34469416230643 L 2330.889890800124 49.282280981217546 L 2331.0857271573673 49.22074999649268 L 2331.2829148401543 49.16010736117902 L 2331.48143412988 49.10035913948957 L 2331.6812651747823 49.04151130619671 L 2331.8823879919223 48.98356974603472 L 2332.084782469186 48.92654025311134 L 2332.2884283672943 48.87042853032834 L 2332.493305321827 48.81524018881123 L 2332.69939284526 48.760980747348185 L 2332.9066703290114 48.70765563183812 L 2333.115117045507 48.65527017474815 L 2333.324712150248 48.60382961458035 L 2333.535434683899 48.55333909534784 L 2333.747263574382 48.50380366606049 L 2333.960177638985 48.455228280219934 L 2334.174155586478 48.40761779532429 L 2334.389176019245 48.36097697238237 L 2334.605217435422 48.3153104754376 L 2334.8222582310477 48.27062287110161 L 2335.0402767022233 48.2269186280976 L 2335.2592510472828 48.18420211681345 L 2335.4791593689747 48.1424776088647 L 2335.6999796766495 48.10174927666736 L 2335.9216898884615 48.062021193020726 L 2336.1442678335734 48.02329733070004 L 2336.367691254376 47.985581562059274 L 2336.5919378087146 47.94887765864386 L 2336.816985072119 47.91318929081355 L 2337.042810540052 47.878520027375394 L 2337.269391630154 47.844873335226836 L 2337.4967056845053 47.81225257900906 L 2337.7247299718892 47.7806610207705 L 2337.953441690068 47.75010181964065 L 2338.1828179680597 47.720578031514165 L 2338.4128358684275 47.69209260874525 L 2338.6434723895736 47.664648399852446 L 2338.874704468038 47.63824814923377 L 2339.1065089808053 47.61289449689228 L 2339.338862747618 47.58858997817209 L 2339.571742533292 47.56533702350482 L 2339.8051250500434 47.54313795816655 L 2340.0389869598152 47.521995002045315 L 2340.2733048766113 47.50191026941911 L 2340.508055368835 47.482885768744474 L 2340.7432149616325 47.46492340245561 L 2340.9787601392404 47.44802496677417 L 2341.2146673473385 47.43219215152965 L 2341.450912995401 47.41742653999037 L 2341.687473459061 47.403729608705206 L 2341.9243250824684 47.39110272735584 L 2342.161444180659 47.3795471586199 L 2342.3988070419205 47.369064058044636 L 2342.6363899301646 47.35965447393136 L 2342.8741690873 47.351319347230636 L 2343.112120735609 47.3440595114482 L 2343.3502210801257 47.33787569256158 L 2343.588446311014 47.33276850894751 L 2343.826772605949 47.328738471320094 L 2344.0651761325 47.32578598267973 L 2344.303633050513 47.32391133827283 L 2344.542119514495 47.32311472556227 L 2344.780611675998 47.323396224208665 L 2345.0190856860045 47.32475580606237 L 2345.2575176973132 47.32719333516634 L 2345.4958838669204 47.3307085677697 L 2345.7341603584086 47.33530115235211 L 2345.9723233443274 47.34097062965894 L 2346.2103490085756 47.3477164327472 L 2346.4482135487865 47.35553788704218 L 2346.685893178703 47.36443421040498 L 2346.923364130561 47.374404513210685 L 2347.1606026574627 47.385447798437305 L 2347.3975850357538 47.39756296176553 L 2347.6342875673936 47.41074879168913 L 2347.870686582326 47.42500396963608 L 2348.1067584408465 47.44032707010049 L 2348.342479535966 47.45671656078506 L 2348.5778262957715 47.4741708027544 L 2348.8127751857837 47.492688050598844 L 2349.0473027113085 47.51226645260904 L 2349.281385419789 47.5329040509611 L 2349.5149999031496 47.554598781912404 L 2349.748122800137 47.57734847600791 L 2349.9807307986553 47.60115085829719 L 2350.212800638098 47.62600354856183 L 2350.4443091116755 47.65190406155354 L 2350.675233068733 47.67884980724257 L 2350.905549417067 47.70683809107683 L 2351.1352351252353 47.735866114251266 L 2351.3642672248575 47.76593097398773 L 2351.592622812915 47.79702966382531 L 2351.8202790540395 47.82915907392094 L 2352.0472131827964 47.86231599136038 L 2352.2734025059617 47.89649710047953 L 2352.4988244047922 47.93169898319594 L 2352.723456337285 47.9679181193507 L 2352.9472758404345 48.00515088706036 L 2353.170260532477 48.04339356307918 L 2353.3923881151295 48.08264232317141 L 2353.613636375818 48.12289324249378 L 2353.8339831899007 48.16414229598789 L 2354.053406522881 48.20638535878274 L 2354.2718844326073 48.24961820660728 L 2354.489395071471 48.29383651621275 L 2354.7059166885897 48.33903586580504 L 2354.921427631982 48.38521173548684 L 2355.1359063507334 48.43235950770968 L 2355.3493313971508 48.48047446773562 L 2355.5616814289065 48.52955180410875 L 2355.772935211175 48.57958660913633 L 2355.9830716187544 48.63057387937956 L 2356.1920696381785 48.6825085161539 L 2356.3999083698195 48.73538532603896 L 2356.606567029978 48.789199021397806 L 2356.8120249529597 48.84394422090574 L 2357.0162615931436 48.89961545008845 L 2357.2192565270357 48.9562071418694 L 2357.4209894553123 49.01371363712657 L 2357.6214402048486 49.07212918525836 L 2357.8205887307363 49.131447944758634 L 2358.018415118289 49.19166398380087 L 2358.2148995850325 49.25277128083136 L 2358.4100224826843 49.314763725171304 L 2358.603764299117 49.37763511762794 L 2358.7961056603103 49.44137917111441 L 2358.9870273322886 49.505989511278486 L 2359.176510223044 49.57145967714 L 2359.364535384445 49.637783121736916 L 2359.551084014132 49.70495321278004 L 2359.7361374573975 49.772963233316254 L 2359.9196772090518 49.84180638240017 L 2360.1016849152725 49.91147577577426 L 2360.282142375441 49.98196444655723 L 2360.4610315439604 50.05326534594075 L 2360.638334532064 50.1253713438943 L 2360.814033609601 50.19827522987816 L 2360.988111206809 50.27196971356451 L 2361.1605499160746 50.346447425566375 L 2361.33133249367 50.421700918174615 L 2361.500441861479 50.49772266610269 L 2361.667861108707 50.57450506723916 L 2361.8335734935677 50.65204044340789 L 2361.997562444961 50.73032104113588 L 2362.159811564129 50.80933903242859 L 2362.3203046262947 50.889086515552734 L 2362.4790255822854 50.969555515826464 L 2362.635958560138 51.050737986416806 L 2362.7910878666853 51.13262580914435 L 2362.944397989126 51.215210795295064 L 2363.095873596576 51.29848468643916 L 2363.2454995416 51.38243915525691 L 2363.393260861729 51.467065806371394 L 2363.5391427809536 51.55235617718803 L 2363.6831307112034 51.63830173874081 L 2363.8252102538054 51.72489389654519 L 2363.965367200924 51.812123991457554 L 2364.1035875369816 51.899983300541116 L 2364.239857440059 51.98846303793816 L 2364.37416328328 52.0775543557487 L 2364.506491636171 52.16724834491519 L 2364.636829266009 52.25753603611345 L 2364.7651631391386 52.3484084006496 L 2364.891480422279 52.439856351362934 L 2365.0157684838077 52.53187074353457 L 2365.138014895022 52.62444237580196 L 2365.2582074313827 52.717561991079045 L 2365.3763340737364 52.81122027748188 L 2365.492383009517 52.905407869259875 L 2365.606342633928 53.00011534773235 L 2365.7182015511016 53.09533324223036 L 2365.8279485752396 53.191052031043824 L 2365.9355727317306 53.28726214237362 L 2366.0410632582493 53.38395395528879 L 2366.1444096058303 53.481117800688615 L 2366.2456014399254 53.57874396226953 L 2366.344628641435 53.67682267749672 L 2366.441481307722 53.77534413858041 L 2366.5361497536005 53.874298493456585 L 2366.628624512304 53.973675846772224 L 2366.718896336435 54.073466260874795 L 2366.8069561988855 54.17365975680607 L 2366.8927952937424 54.274246315299926 L 2366.9764050371687 54.37521587778435 L 2367.0577770682585 54.476558347387225 L 2367.1369032498774 54.578263589946054 L 2367.213775669473 54.68032143502133 L 2367.288386639867 54.78272167691359 L 2367.360728700025 54.88545407568398 L 2367.430794615801 54.98850835817824 L 2367.498577380662 55.091874219053985 L 2367.5640702163882 55.19554132181128 L 2367.62726657375 55.29949929982622 L 2367.6881601331647 55.40373775738766 L 2367.746744805327 55.508246270736684 L 2367.803014731819 55.61301438910906 L 2367.856964285694 55.718031635780264 L 2367.908588072042 55.82328750911313 L 2367.957880928528 55.92877148360804 L 2368.0048379259065 56.03447301095545 L 2368.049454368517 56.14038152109071 L 2368.0917257947535 56.24648642325106 L 2368.1316479775073 56.35277710703471 L 2368.169216924594 56.45924294346186 L 2368.20442887915 56.56587328603757 L 2368.237280320009 56.672657471816464 L 2368.267767962055 56.779584822468934 L 2368.2958887565487 56.88664464534902 L 2368.321639891434 56.99382623456367 L 2368.3450187916196 57.10111887204326 L 2368.366023119234 57.20851182861346 L 2368.384650773862 57.31599436506811 L 2368.4008998927543 57.42355573324312 L 2368.414768851012 57.53118517709132 L 2368.4262562617514 57.63887193375801 L 2368.4353609762406 57.74660523465727 L 2368.442082084016 57.85437430654877 L 2368.4464189129717 57.962168372615146 L 2368.4483710294294 58.06997665353961 M 2368.4484920194855 92.4082450681 L 2368.4472995595816 92.51605561301662 L 2368.4437222991155 92.62385537696859 L 2368.4377605958102 92.73163358006936 L 2368.429415045831 92.8393794445884 L 2368.4186864837257 92.94708219602909 L 2368.405575982342 93.05473106420601 L 2368.3900848527187 93.16231528432205 L 2368.372214643956 93.26982409804485 L 2368.35196714306 93.37724675458266 L 2368.329344374764 93.4845725117593 L 2368.3043486013257 93.59179063708852 L 2368.2769823223016 93.69889040884712 L 2368.247248274297 93.80586111714719 L 2368.215149430692 93.91269206500702 L 2368.1806890013436 94.01937256942087 L 2368.143870432267 94.12589196242718 L 2368.1046974052874 94.23223959217543 L 2368.063173837676 94.33840482399125 L 2368.019303881754 94.44437704143996 L 2367.9730919244803 94.5501456473881 L 2367.924542587013 94.65570006506323 L 2367.873660724245 94.76102973911152 L 2367.8204514243203 94.86612413665337 L 2367.764920008124 94.97097274833659 L 2367.707072028752 95.07556508938738 L 2367.6469132709535 95.1798907006588 L 2367.584449750555 95.28393914967667 L 2367.519687713856 95.38770003168278 L 2367.452633637006 95.4911629706754 L 2367.383294225357 95.59431762044686 L 2367.311676412792 95.69715366561813 L 2367.2377873610335 95.7996608226704 L 2367.1616344589247 95.90182884097338 L 2367.0832253216918 96.00364750381038 L 2367.0025677901835 96.10510662939998 L 2366.9196699300865 96.20619607191415 L 2366.8345400311164 96.30690572249289 L 2366.747186606193 96.40722551025506 L 2366.657618390586 96.50714540330549 L 2366.5658443410416 96.60665540973812 L 2366.471873634889 96.70574557863527 L 2366.375715669121 96.8044060010626 L 2366.2773800594528 96.9026268110601 L 2366.176876639364 97.0003981866286 L 2366.0742154591126 97.09771035071202 L 2365.9694067847317 97.19455357217507 L 2365.862461097001 97.29091816677628 L 2365.7533890903997 97.3867944981365 L 2365.6422016720385 97.4821729787025 L 2365.528909960566 97.5770440707057 L 2365.4135252850588 97.67139828711595 L 2365.2960591838887 97.76522619259025 L 2365.176523403568 97.85851840441623 L 2365.0549298975748 97.95126559345047 L 2364.931290825158 98.04345848505133 L 2364.805618550123 98.13508786000651 L 2364.6779256395916 98.22614455545484 L 2364.5482248627486 98.31661946580266 L 2364.416529189564 98.40650354363434 L 2364.2828517894945 98.49578780061701 L 2364.1472060301694 98.58446330839936 L 2364.0096054760515 98.67252119950452 L 2363.870063887082 98.75995266821674 L 2363.7285952173024 98.84674897146202 L 2363.5852136134627 98.93290142968237 L 2363.4399334136033 99.01840142770375 L 2363.2927691456234 99.10324041559763 L 2363.143735525827 99.18740990953589 L 2362.9928474574526 99.2709014926393 L 2362.84012002918 99.35370681581911 L 2362.685568513626 99.43581759861202 L 2362.5292083658123 99.51722563000817 L 2362.3710552216244 99.59792276927226 L 2362.2111248962437 99.6779009467576 L 2362.049433382571 99.75715216471312 L 2361.8859968496213 99.83566849808304 L 2361.720831640913 99.91344209529944 L 2361.5539542728284 99.99046517906746 L 2361.385381432966 100.06673004714287 L 2361.215129978469 100.14222907310241 L 2361.0432169343408 100.21695470710642 L 2360.869659491743 100.29089947665378 L 2360.6944750062744 100.36405598732914 L 2360.5176809962386 100.43641692354238 L 2360.339295140888 100.50797504926021 L 2360.1593352786613 100.57872320872968 L 2359.977819405393 100.64865432719378 L 2359.79476567252 100.71776141159897 L 2359.610192385263 100.78603755129438 L 2359.4241180007966 100.85347591872295 L 2359.236561126405 100.9200697701041 L 2359.0475405176185 100.98581244610824 L 2358.85707507634 101.05069737252252 L 2358.6651838489565 101.11471806090837 L 2358.4718860244298 101.17786810925033 L 2358.277200932381 101.24014120259615 L 2358.081148041158 101.30153111368841 L 2357.8837469558857 101.36203170358716 L 2357.685017416509 101.42163692228384 L 2357.4849792958153 101.48034080930621 L 2357.2836525974503 101.53813749431454 L 2357.081057453916 101.59502119768845 L 2356.877214124558 101.65098623110502 L 2356.67214299354 101.70602699810756 L 2356.4658645678032 101.76013799466523 L 2356.258399475019 101.81331380972344 L 2356.0497684615234 101.86554912574503 L 2355.839992390244 101.91683871924192 L 2355.629092238613 101.9671774612975 L 2355.4170890964697 102.0165603180795 L 2355.204004163952 102.06498235134342 L 2354.989858749376 102.11243871892626 L 2354.7746742671034 102.15892467523081 L 2354.558472235404 102.2044355717002 L 2354.3412742743008 102.24896685728268 L 2354.123102103409 102.29251407888682 L 2353.903977539763 102.33507288182676 L 2353.683922495638 102.37663901025765 L 2353.462958976354 102.41720830760129 L 2353.241109078079 102.45677671696174 L 2353.0183949856178 102.49534028153107 L 2352.7948389701946 102.53289514498493 L 2352.570463387224 102.56943755186829 L 2352.3452906740777 102.60496384797091 L 2352.1193433478393 102.63947048069276 L 2351.892644003053 102.67295399939937 L 2351.6652153094647 102.70541105576673 L 2351.437080009754 102.73683840411627 L 2351.2082609172608 102.76723290173933 L 2350.9787809137033 102.79659150921151 L 2350.7486629468913 102.82491129069649 L 2350.517930028429 102.85218941423973 L 2350.2866052314166 102.87842315205162 L 2350.054711688141 102.90360988078025 L 2349.822272587763 102.9277470817737 L 2349.589311173999 102.95083234133202 L 2349.355850742796 102.97286335094847 L 2349.1219146400026 102.99383790754045 L 2348.887526259035 103.01375391366979 L 2348.652709038535 103.03260937775246 L 2348.417486460029 103.05040241425777 L 2348.1818820455796 103.06713124389691 L 2347.945919355431 103.08279419380085 L 2347.7096219856567 103.09738969768763 L 2347.4730135657956 103.11091629601906 L 2347.236117756493 103.12337263614656 L 2346.9989582471326 103.13475747244648 L 2346.7615587534674 103.14506966644471 L 2346.523943015249 103.15430818693042 L 2346.2861347938533 103.16247211005928 L 2346.048157869904 103.16956061944578 L 2345.8100360408957 103.17557300624486 L 2345.571793118813 103.18050866922287 L 2345.333452927748 103.18436711481763 L 2345.0950393015232 103.18714795718779 L 2344.8565760813017 103.18885091825143 L 2344.6180871132065 103.18947582771386 L 2344.3795962459358 103.18902262308465 L 2344.141127328378 103.18749134968391 L 2343.9027042072257 103.18488216063768 L 2343.6643507245926 103.1811953168627 L 2343.4260907156286 103.17643118704027 L 2343.1879480061352 103.1705902475794 L 2342.9499464101855 103.16367308256918 L 2342.712109727741 103.15568038372034 L 2342.4744617422707 103.14661295029609 L 2342.2370262183763 103.13647168903225 L 2341.999826899412 103.12525761404646 L 2341.7628875051114 103.1129718467369 L 2341.5262317292168 103.09961561567005 L 2341.2898832371093 103.08519025645788 L 2341.05386566344 103.06969721162432 L 2340.8182026097707 103.0531380304609 L 2340.5829176422094 103.03551436887196 L 2340.3480342890575 103.01682798920898 L 2340.113576038454 102.99708076009435 L 2339.8795663360293 102.97627465623451 L 2339.646028582558 102.95441175822252 L 2339.412986131621 102.93149425232995 L 2339.180462287269 102.90752443028832 L 2338.9484803016935 102.88250468905984 L 2338.717063372899 102.85643753059779 L 2338.486234642385 102.82932556159626 L 2338.2560171928335 102.80117149322962 L 2338.026434045797 102.77197814088119 L 2337.7975081593986 102.7417484238619 L 2337.569262426037 102.71048536511826 L 2337.3417196700943 102.67819209093008 L 2337.114902645657 102.64487183059789 L 2336.8888340342382 102.61052791611995 L 2336.6635364425115 102.57516378185908 L 2336.4390324000474 102.53878296419921 L 2336.2153443570633 102.50138910119185 L 2335.9924946821775 102.4629859321921 L 2335.7705056601712 102.42357729748485 L 2335.5493994897624 102.38316713790076 L 2335.329198281383 102.34175949442208 L 2335.1099240549706 102.29935850777868 L 2334.8915987377654 102.25596841803387 L 2334.6742441621172 102.2115935641605 L 2334.457882063302 102.16623838360692 L 2334.24253407735 102.11990741185345 L 2334.0282217388794 102.07260528195862 L 2333.8149664789466 102.024336724096 L 2333.602789622899 101.97510656508118 L 2333.3917123882457 101.92491972788902 L 2333.181755882534 101.8737812311614 L 2332.9729411012404 101.82169618870542 L 2332.7652889256683 101.76866980898188 L 2332.558820120862 101.71470739458458 L 2332.35355533353 101.65981434170999 L 2332.149515089981 101.60399613961766 L 2331.946719794068 101.54725837008127 L 2331.745189725152 101.4896067068305 L 2331.5449450360725 101.43104691498365 L 2331.3460057511306 101.37158485047108 L 2331.14839176409 101.3112264594497 L 2330.952122836184 101.2499777777083 L 2330.757218594142 101.18784493006403 L 2330.5636985282263 101.12483412974987 L 2330.371581990282 101.06095167779335 L 2330.180888191802 100.99620396238643 L 2329.9916362020076 100.93059745824668 L 2329.803844945941 100.86413872596987 L 2329.61753320257 100.79683441137381 L 2329.432719602915 100.7286912448339 L 2329.2494226281806 100.65971604061 L 2329.067660607913 100.58991569616504 L 2328.887451718161 100.5192971914753 L 2328.7088139796647 100.44786758833243 L 2328.531765256049 100.3756340296372 L 2328.3563232520382 100.30260373868528 L 2328.1825055116865 100.22878401844491 L 2328.010329416624 100.15418225082661 L 2327.839812184315 100.07880589594495 L 2327.6709708663425 100.00266249137262 L 2327.503822346697 99.92575965138663 L 2327.3383833400903 99.84810506620688 L 2327.1746703902863 99.76970650122719 L 2327.0126998684427 99.69057179623871 L 2326.852487971478 99.610708864646 L 2326.6940507204467 99.53012569267568 L 2326.537403958943 99.44883033857778 L 2326.3825633515116 99.36683093181996 L 2326.2295443820854 99.28413567227457 L 2326.078362352433 99.20075282939865 L 2325.929032380632 99.11669074140701 L 2325.7815693995544 99.0319578144384 L 2325.635988155376 98.9465625217149 L 2325.4923032060997 98.8605134026946 L 2325.3505289201003 98.77381906221773 L 2325.2106794746887 98.68648816964605 L 2325.072768854693 98.5985294579961 L 2324.9368108510603 98.5099517230657 L 2324.802819059477 98.42076382255453 L 2324.6708068790113 98.33097467517834 L 2324.5407875107708 98.24059325977703 L 2324.4127739565843 98.14962861441684 L 2324.2867790177006 98.05808983548647 L 2324.162815293508 97.96598607678756 L 2324.0408951802765 97.87332654861922 L 2323.921030869915 97.78012051685704 L 2323.8032343487553 97.68637730202654 L 2323.687517396351 97.59210627837106 L 2323.5738915843003 97.49731687291444 L 2323.462368275091 97.40201856451822 L 2323.35295862096 97.30622088293381 L 2323.245673562783 97.20993340784955 L 2323.1405238289744 97.11316576793271 L 2323.037519934421 97.01592763986665 L 2322.936672179427 96.91822874738313 L 2322.837990648683 96.82007886028998 L 2322.74148521026 96.72148779349413 L 2322.6471655146215 96.62246540602011 L 2322.5550409936586 96.52302160002414 L 2322.4651208597465 96.42316631980393 L 2322.3774141048234 96.32290955080431 L 2322.291929499492 96.22226131861864 L 2322.208675592142 96.12123168798624 L 2322.127660708094 96.019830761786 L 2322.048892948769 95.91806868002604 L 2321.9723801908776 95.81595561882972 L 2321.898130085632 95.71350178941809 L 2321.8261500579806 95.6107174370887 L 2321.756447305866 95.50761284019111 L 2321.689028799505 95.40419830909913 L 2321.623901280693 95.30048418517967 L 2321.5610712621274 95.19648083975868 L 2321.500545026757 95.09219867308406 L 2321.442328627156 94.98764811328554 L 2321.3864278849146 94.88283961533202 L 2321.332848390061 94.77778365998593 L 2321.2815955005003 94.67249075275525 L 2321.2326743414783 94.56697142284297 L 2321.1860898050704 94.46123622209414 L 2321.1418465496918 94.35529572394076 L 2321.09994899963 94.24916052234431 L 2321.0604013446064 94.14284123073652 L 2321.023207539353 94.03634848095798 L 2320.988371303219 93.92969292219489 L 2320.9558961197995 93.82288521991427 L 2320.9257852365854 93.71593605479731 L 2320.89804166464 93.60885612167144 L 2320.8726681782978 93.50165612844071 L 2320.8496673148857 93.39434679501512 L 2320.829041374471 93.28693885223859 L 2320.810792419631 93.17944304081588 L 2320.794922275246 93.07187011023856 L 2320.781432528316 92.96423081771006 L 2320.7703245278058 92.85653592706991 L 2320.7615993845056 92.74879620771745 L 2320.755257970923 92.6410224335348 L 2320.7513009211934 92.5332253818096 L 2320.7497286310186 92.42541583215717" stroke-miterlimit="10" stroke-width="2.7769845610000004" stroke-dasharray=""/></g><g><g/><text fill="black" stroke="none" font-family="sans-serif" font-size="11pt" font-style="normal" font-weight="normal" text-decoration="normal" x="2309.5633209705284" y="120.717152387" text-anchor="start" dominant-baseline="alphabetic" xml:space="preserve">Repository</text></g></g><g><path fill="white" stroke="black" paint-order="fill stroke markers" d=" M 936.0862785235937 257.932860107 L 952.4214818235938 257.932860107 L 952.4214818235938 1185.7724075469998 L 936.0862785235937 1185.7724075469998 L 936.0862785235937 257.932860107" stroke-miterlimit="10" stroke-width="1.3612669416666667" stroke-dasharray=""/><path fill="white" stroke="black" paint-order="fill stroke markers" d=" M 1206.1966388250912 320.006632647 L 1222.5318421250913 320.006632647 L 1222.5318421250913 1140.0338383069998 L 1206.1966388250912 1140.0338383069998 L 1206.1966388250912 320.006632647" stroke-miterlimit="10" stroke-width="1.3612669416666667" stroke-dasharray=""/><path fill="white" stroke="black" paint-order="fill stroke markers" d=" M 1561.0528945123308 382.080405187 L 1577.388097812331 382.080405187 L 1577.388097812331 1094.2952690669997 L 1561.0528945123308 1094.2952690669997 L 1561.0528945123308 382.080405187" stroke-miterlimit="10" stroke-width="1.3612669416666667" stroke-dasharray=""/><path fill="white" stroke="black" paint-order="fill stroke markers" d=" M 2068.7081478588125 427.818974427 L 2085.0433511588126 427.818974427 L 2085.0433511588126 473.557543667 L 2068.7081478588125 473.557543667 L 2068.7081478588125 427.818974427" stroke-miterlimit="10" stroke-width="1.3612669416666667" stroke-dasharray=""/><path fill="white" stroke="black" paint-order="fill stroke markers" d=" M 1911.0057841107032 535.631316207 L 1927.3409874107033 535.631316207 L 1927.3409874107033 672.8470239269999 L 1911.0057841107032 672.8470239269999 L 1911.0057841107032 535.631316207" stroke-miterlimit="10" stroke-width="1.3612669416666667" stroke-dasharray=""/><path fill="white" stroke="black" paint-order="fill stroke markers" d=" M 2336.4314935514853 581.369885447 L 2352.7666968514854 581.369885447 L 2352.7666968514854 627.108454687 L 2336.4314935514853 627.108454687 L 2336.4314935514853 581.369885447" stroke-miterlimit="10" stroke-width="1.3612669416666667" stroke-dasharray=""/><path fill="white" stroke="black" paint-order="fill stroke markers" d=" M 2336.4314935514853 779.0258453769999 L 2352.7666968514854 779.0258453769999 L 2352.7666968514854 824.7644146169998 L 2336.4314935514853 824.7644146169998 L 2336.4314935514853 779.0258453769999" stroke-miterlimit="10" stroke-width="1.3612669416666667" stroke-dasharray=""/><path fill="white" stroke="black" paint-order="fill stroke markers" d=" M 2220.308148020496 886.8381871569999 L 2236.643351320496 886.8381871569999 L 2236.643351320496 1024.0538948769997 L 2220.308148020496 1024.0538948769997 L 2220.308148020496 886.8381871569999" stroke-miterlimit="10" stroke-width="1.3612669416666667" stroke-dasharray=""/><path fill="white" stroke="black" paint-order="fill stroke markers" d=" M 2336.4314935514853 932.5767563969998 L 2352.7666968514854 932.5767563969998 L 2352.7666968514854 978.3153256369998 L 2336.4314935514853 978.3153256369998 L 2336.4314935514853 932.5767563969998" stroke-miterlimit="10" stroke-width="1.3612669416666667" stroke-dasharray=""/><path fill="white" stroke="black" paint-order="fill stroke markers" d=" M 936.0862785235937 1293.5847493269998 L 952.4214818235938 1293.5847493269998 L 952.4214818235938 1613.7547340070003 L 936.0862785235937 1613.7547340070003 L 936.0862785235937 1293.5847493269998" stroke-miterlimit="10" stroke-width="1.3612669416666667" stroke-dasharray=""/><path fill="white" stroke="black" paint-order="fill stroke markers" d=" M 1206.1966388250912 1339.323318567 L 1222.5318421250913 1339.323318567 L 1222.5318421250913 1568.0161647670002 L 1206.1966388250912 1568.0161647670002 L 1206.1966388250912 1339.323318567" stroke-miterlimit="10" stroke-width="1.3612669416666667" stroke-dasharray=""/><path fill="white" stroke="black" paint-order="fill stroke markers" d=" M 1561.0528945123308 1385.061887807 L 1577.388097812331 1385.061887807 L 1577.388097812331 1522.2775955270001 L 1561.0528945123308 1522.2775955270001 L 1561.0528945123308 1385.061887807" stroke-miterlimit="10" stroke-width="1.3612669416666667" stroke-dasharray=""/><path fill="white" stroke="black" paint-order="fill stroke markers" d=" M 2336.4314935514853 1430.800457047 L 2352.7666968514854 1430.800457047 L 2352.7666968514854 1476.539026287 L 2336.4314935514853 1476.539026287 L 2336.4314935514853 1430.800457047" stroke-miterlimit="10" stroke-width="1.3612669416666667" stroke-dasharray=""/><path fill="black" stroke="black" paint-order="fill stroke markers" d=" M 534.7077752255468 177.07360377199998 L 526.5401735755468 177.07360377199998 M 8.16760165 158.288119977 L 511.8384906055469 158.288119977 L 526.5401735755469 172.98980294700002 L 526.5401735755469 195.859087567 L 8.16760165 195.859087567 L 8.16760165 158.288119977 M 511.8384906055469 158.288119977 L 511.8384906055469 172.98980294700002 L 526.5401735755469 172.98980294700002" stroke-miterlimit="10" stroke-width="1.3612669416666667" stroke-dasharray=""/><g><text fill="white" stroke="none" font-family="sans-serif" font-size="11pt" font-style="normal" font-weight="normal" text-decoration="normal" x="31.036886269999968" y="181.15740459699995" text-anchor="start" dominant-baseline="alphabetic" xml:space="preserve">1. Data consumer creates an incident report notification to data providers</text></g><g><text fill="black" stroke="none" font-family="sans-serif" font-size="11pt" font-style="normal" font-weight="normal" text-decoration="normal" x="607.4693993110936" y="235.06357548699998" text-anchor="start" dominant-baseline="alphabetic" xml:space="preserve">report incident</text><text fill="black" stroke="none" font-family="sans-serif" font-size="11pt" font-style="normal" font-weight="normal" text-decoration="normal" x="607.4693993110936" y="251.39877878699997" text-anchor="start" dominant-baseline="alphabetic" xml:space="preserve">(data leak involving participants emails)</text></g><g><path fill="none" stroke="black" paint-order="fill stroke markers" d=" M 534.7077752255468 257.932860107 L 922.636961139927 257.932860107" stroke-miterlimit="10" stroke-width="1.3612669416666667" stroke-dasharray=""/><g transform="translate(936.0862785235937,257.932860107) translate(-936.0862785235937,-257.932860107)"><path fill="black" stroke="none" paint-order="stroke fill markers" d=" M 922.473609106927 251.12652539866667 L 936.0862785235937 257.932860107 L 922.473609106927 264.73919481533335 Z"/></g></g><g><text fill="black" stroke="none" font-family="sans-serif" font-size="11pt" font-style="normal" font-weight="normal" text-decoration="normal" x="974.2017528902604" y="297.137348027" text-anchor="start" dominant-baseline="alphabetic" xml:space="preserve">new notification</text><text fill="black" stroke="none" font-family="sans-serif" font-size="11pt" font-style="normal" font-weight="normal" text-decoration="normal" x="974.2017528902604" y="313.47255132699996" text-anchor="start" dominant-baseline="alphabetic" xml:space="preserve">(incident report involving emails)</text></g><g><path fill="none" stroke="black" paint-order="fill stroke markers" d=" M 952.4214818235938 320.006632647 L 1192.7473214414244 320.006632647" stroke-miterlimit="10" stroke-width="1.3612669416666667" stroke-dasharray=""/><g transform="translate(1206.1966388250912,320.006632647) translate(-1206.1966388250912,-320.006632647)"><path fill="black" stroke="none" paint-order="stroke fill markers" d=" M 1192.5839694084245 313.20029793866667 L 1206.1966388250912 320.006632647 L 1192.5839694084245 326.81296735533334 Z"/></g></g><g><text fill="black" stroke="none" font-family="sans-serif" font-size="11pt" font-style="normal" font-weight="normal" text-decoration="normal" x="1244.3121131917578" y="359.21112056699997" text-anchor="start" dominant-baseline="alphabetic" xml:space="preserve">create notification</text><text fill="black" stroke="none" font-family="sans-serif" font-size="11pt" font-style="normal" font-weight="normal" text-decoration="normal" x="1244.3121131917578" y="375.54632386699996" text-anchor="start" dominant-baseline="alphabetic" xml:space="preserve">(type:incident, data type: email, consumer ID)</text></g><g><path fill="none" stroke="black" paint-order="fill stroke markers" d=" M 1222.5318421250913 382.080405187 L 1547.603577128664 382.080405187" stroke-miterlimit="10" stroke-width="1.3612669416666667" stroke-dasharray=""/><g transform="translate(1561.0528945123308,382.080405187) translate(-1561.0528945123308,-382.080405187)"><path fill="black" stroke="none" paint-order="stroke fill markers" d=" M 1547.4402250956641 375.27407047866666 L 1561.0528945123308 382.080405187 L 1547.4402250956641 388.88673989533333 Z"/></g></g><g><text fill="black" stroke="none" font-family="sans-serif" font-size="11pt" font-style="normal" font-weight="normal" text-decoration="normal" x="1759.0861019615481" y="421.28489310699996" text-anchor="start" dominant-baseline="alphabetic" xml:space="preserve">retrieve participants</text></g><g><path fill="none" stroke="black" paint-order="fill stroke markers" d=" M 1577.388097812331 427.818974427 L 2055.2588304751457 427.818974427" stroke-miterlimit="10" stroke-width="1.3612669416666667" stroke-dasharray=""/><g transform="translate(2068.7081478588125,427.818974427) translate(-2068.7081478588125,-427.818974427)"><path fill="black" stroke="none" paint-order="stroke fill markers" d=" M 2055.095478442146 421.01263971866666 L 2068.7081478588125 427.818974427 L 2055.095478442146 434.62530913533334 Z"/></g></g><g><text fill="black" stroke="none" font-family="sans-serif" font-size="11pt" font-style="normal" font-weight="normal" text-decoration="normal" x="1785.5642513756106" y="467.02346234699996" text-anchor="start" dominant-baseline="alphabetic" xml:space="preserve">participants</text></g><g><path fill="none" stroke="black" paint-order="fill stroke markers" d=" M 2068.7081478588125 473.557543667 L 1590.8374151959977 473.557543667" stroke-miterlimit="10" stroke-width="1.3612669416666667" stroke-dasharray="6.53408132"/><g transform="translate(1577.388097812331,473.557543667) translate(-1577.388097812331,-473.557543667)"><path fill="black" stroke="none" paint-order="stroke fill markers" d=" M 1591.0007672289976 466.75120895866667 L 1577.388097812331 473.557543667 L 1591.0007672289976 480.36387837533334 Z"/></g></g><g><text fill="black" stroke="none" font-family="sans-serif" font-size="11pt" font-style="normal" font-weight="normal" text-decoration="normal" x="1599.1683688789976" y="512.762031587" text-anchor="start" dominant-baseline="alphabetic" xml:space="preserve">retrieve grants</text><text fill="black" stroke="none" font-family="sans-serif" font-size="11pt" font-style="normal" font-weight="normal" text-decoration="normal" x="1599.1683688789976" y="529.097234887" text-anchor="start" dominant-baseline="alphabetic" xml:space="preserve">(consumer ID, data type: email, status: valid)</text></g><g><path fill="none" stroke="black" paint-order="fill stroke markers" d=" M 1577.388097812331 535.631316207 L 1897.5564667270364 535.631316207" stroke-miterlimit="10" stroke-width="1.3612669416666667" stroke-dasharray=""/><g transform="translate(1911.0057841107032,535.631316207) translate(-1911.0057841107032,-535.631316207)"><path fill="black" stroke="none" paint-order="stroke fill markers" d=" M 1897.3931146940365 528.8249814986667 L 1911.0057841107032 535.631316207 L 1897.3931146940365 542.4376509153334 Z"/></g></g><g><text fill="black" stroke="none" font-family="sans-serif" font-size="11pt" font-style="normal" font-weight="normal" text-decoration="normal" x="2085.0358757960357" y="574.835804127" text-anchor="start" dominant-baseline="alphabetic" xml:space="preserve">retrieve grants</text></g><g><path fill="none" stroke="black" paint-order="fill stroke markers" d=" M 1927.3409874107033 581.369885447 L 2322.9821761678186 581.369885447" stroke-miterlimit="10" stroke-width="1.3612669416666667" stroke-dasharray=""/><g transform="translate(2336.4314935514853,581.369885447) translate(-2336.4314935514853,-581.369885447)"><path fill="black" stroke="none" paint-order="stroke fill markers" d=" M 2322.818824134819 574.5635507386667 L 2336.4314935514853 581.369885447 L 2322.818824134819 588.1762201553333 Z"/></g></g><g><text fill="black" stroke="none" font-family="sans-serif" font-size="11pt" font-style="normal" font-weight="normal" text-decoration="normal" x="2111.514025210098" y="620.5743733669999" text-anchor="start" dominant-baseline="alphabetic" xml:space="preserve">grants</text></g><g><path fill="none" stroke="black" paint-order="fill stroke markers" d=" M 2336.4314935514853 627.108454687 L 1940.79030479437 627.108454687" stroke-miterlimit="10" stroke-width="1.3612669416666667" stroke-dasharray="6.53408132"/><g transform="translate(1927.3409874107033,627.108454687) translate(-1927.3409874107033,-627.108454687)"><path fill="black" stroke="none" paint-order="stroke fill markers" d=" M 1940.95365682737 620.3021199786666 L 1927.3409874107033 627.108454687 L 1940.95365682737 633.9147893953333 Z"/></g></g><g><text fill="black" stroke="none" font-family="sans-serif" font-size="11pt" font-style="normal" font-weight="normal" text-decoration="normal" x="1723.824725690521" y="666.3129426069999" text-anchor="start" dominant-baseline="alphabetic" xml:space="preserve">grants</text></g><g><path fill="none" stroke="black" paint-order="fill stroke markers" d=" M 1911.0057841107032 672.8470239269999 L 1590.8374151959977 672.8470239269999" stroke-miterlimit="10" stroke-width="1.3612669416666667" stroke-dasharray="6.53408132"/><g transform="translate(1577.388097812331,672.8470239269999) translate(-1577.388097812331,-672.8470239269999)"><path fill="black" stroke="none" paint-order="stroke fill markers" d=" M 1591.0007672289976 666.0406892186666 L 1577.388097812331 672.8470239269999 L 1591.0007672289976 679.6533586353332 Z"/></g></g><g><text fill="black" stroke="none" font-family="sans-serif" font-size="11pt" font-style="normal" font-weight="normal" text-decoration="normal" x="1759.7302226228262" y="756.1565607569999" text-anchor="start" dominant-baseline="alphabetic" xml:space="preserve">create notification</text><text fill="black" stroke="none" font-family="sans-serif" font-size="11pt" font-style="normal" font-weight="normal" text-decoration="normal" x="1759.7302226228262" y="772.4917640569998" text-anchor="start" dominant-baseline="alphabetic" xml:space="preserve">(sender: consumer ID, recipient: provider ID, incident details)</text></g><g><path fill="none" stroke="black" paint-order="fill stroke markers" d=" M 1577.388097812331 779.0258453769999 L 2322.9821761678186 779.0258453769999" stroke-miterlimit="10" stroke-width="1.3612669416666667" stroke-dasharray=""/><g transform="translate(2336.4314935514853,779.0258453769999) translate(-2336.4314935514853,-779.0258453769999)"><path fill="black" stroke="none" paint-order="stroke fill markers" d=" M 2322.818824134819 772.2195106686665 L 2336.4314935514853 779.0258453769999 L 2322.818824134819 785.8321800853332 Z"/></g></g><g><text fill="black" stroke="none" font-family="sans-serif" font-size="11pt" font-style="normal" font-weight="normal" text-decoration="normal" x="1932.460988919213" y="818.2303332969998" text-anchor="start" dominant-baseline="alphabetic" xml:space="preserve">created</text></g><g><path fill="none" stroke="black" paint-order="fill stroke markers" d=" M 2336.4314935514853 824.7644146169998 L 1590.8374151959977 824.7644146169998" stroke-miterlimit="10" stroke-width="1.3612669416666667" stroke-dasharray="6.53408132"/><g transform="translate(1577.388097812331,824.7644146169998) translate(-1577.388097812331,-824.7644146169998)"><path fill="black" stroke="none" paint-order="stroke fill markers" d=" M 1591.0007672289976 817.9580799086665 L 1577.388097812331 824.7644146169998 L 1591.0007672289976 831.5707493253332 Z"/></g></g><g><text fill="black" stroke="none" font-family="sans-serif" font-size="11pt" font-style="normal" font-weight="normal" text-decoration="normal" x="1845.476647696687" y="863.9689025369998" text-anchor="start" dominant-baseline="alphabetic" xml:space="preserve">create log</text><text fill="black" stroke="none" font-family="sans-serif" font-size="11pt" font-style="normal" font-weight="normal" text-decoration="normal" x="1845.476647696687" y="880.3041058369998" text-anchor="start" dominant-baseline="alphabetic" xml:space="preserve">(incident details)</text></g><g><path fill="none" stroke="black" paint-order="fill stroke markers" d=" M 1577.388097812331 886.8381871569999 L 2206.858830636829 886.8381871569999" stroke-miterlimit="10" stroke-width="1.3612669416666667" stroke-dasharray=""/><g transform="translate(2220.308148020496,886.8381871569999) translate(-2220.308148020496,-886.8381871569999)"><path fill="black" stroke="none" paint-order="stroke fill markers" d=" M 2206.6954786038295 880.0318524486665 L 2220.308148020496 886.8381871569999 L 2206.6954786038295 893.6445218653332 Z"/></g></g><g><text fill="black" stroke="none" font-family="sans-serif" font-size="11pt" font-style="normal" font-weight="normal" text-decoration="normal" x="2258.4236223871626" y="926.0426750769998" text-anchor="start" dominant-baseline="alphabetic" xml:space="preserve">store log</text></g><g><path fill="none" stroke="black" paint-order="fill stroke markers" d=" M 2236.643351320496 932.5767563969998 L 2322.9821761678186 932.5767563969998" stroke-miterlimit="10" stroke-width="1.3612669416666667" stroke-dasharray=""/><g transform="translate(2336.4314935514853,932.5767563969998) translate(-2336.4314935514853,-932.5767563969998)"><path fill="black" stroke="none" paint-order="stroke fill markers" d=" M 2322.818824134819 925.7704216886665 L 2336.4314935514853 932.5767563969998 L 2322.818824134819 939.3830911053332 Z"/></g></g><g><text fill="black" stroke="none" font-family="sans-serif" font-size="11pt" font-style="normal" font-weight="normal" text-decoration="normal" x="2266.1652071649946" y="971.7812443169997" text-anchor="start" dominant-baseline="alphabetic" xml:space="preserve">stored</text></g><g><path fill="none" stroke="black" paint-order="fill stroke markers" d=" M 2336.4314935514853 978.3153256369998 L 2250.092668704163 978.3153256369998" stroke-miterlimit="10" stroke-width="1.3612669416666667" stroke-dasharray="6.53408132"/><g transform="translate(2236.643351320496,978.3153256369998) translate(-2236.643351320496,-978.3153256369998)"><path fill="black" stroke="none" paint-order="stroke fill markers" d=" M 2250.2560207371625 971.5089909286664 L 2236.643351320496 978.3153256369998 L 2250.2560207371625 985.1216603453331 Z"/></g></g><g><text fill="black" stroke="none" font-family="sans-serif" font-size="11pt" font-style="normal" font-weight="normal" text-decoration="normal" x="1876.8366788246167" y="1017.5198135569997" text-anchor="start" dominant-baseline="alphabetic" xml:space="preserve">logged</text></g><g><path fill="none" stroke="black" paint-order="fill stroke markers" d=" M 2220.308148020496 1024.0538948769997 L 1590.8374151959977 1024.0538948769997" stroke-miterlimit="10" stroke-width="1.3612669416666667" stroke-dasharray="6.53408132"/><g transform="translate(1577.388097812331,1024.0538948769997) translate(-1577.388097812331,-1024.0538948769997)"><path fill="black" stroke="none" paint-order="stroke fill markers" d=" M 1591.0007672289976 1017.2475601686664 L 1577.388097812331 1024.0538948769997 L 1591.0007672289976 1030.860229585333 Z"/></g></g><g><text fill="black" stroke="none" font-family="sans-serif" font-size="11pt" font-style="normal" font-weight="normal" text-decoration="normal" x="1367.3435615560156" y="1087.761187747" text-anchor="start" dominant-baseline="alphabetic" xml:space="preserve">created</text></g><g><path fill="none" stroke="black" paint-order="fill stroke markers" d=" M 1561.0528945123308 1094.2952690669997 L 1235.981159508758 1094.2952690669997" stroke-miterlimit="10" stroke-width="1.3612669416666667" stroke-dasharray="6.53408132"/><g transform="translate(1222.5318421250913,1094.2952690669997) translate(-1222.5318421250913,-1094.2952690669997)"><path fill="black" stroke="none" paint-order="stroke fill markers" d=" M 1236.144511541758 1087.4889343586665 L 1222.5318421250913 1094.2952690669997 L 1236.144511541758 1101.101603775333 Z"/></g></g><g><text fill="black" stroke="none" font-family="sans-serif" font-size="11pt" font-style="normal" font-weight="normal" text-decoration="normal" x="1054.8602535616471" y="1133.499756987" text-anchor="start" dominant-baseline="alphabetic" xml:space="preserve">created</text></g><g><path fill="none" stroke="black" paint-order="fill stroke markers" d=" M 1206.1966388250912 1140.0338383069998 L 965.8707992072605 1140.0338383069998" stroke-miterlimit="10" stroke-width="1.3612669416666667" stroke-dasharray="6.53408132"/><g transform="translate(952.4214818235938,1140.0338383069998) translate(-952.4214818235938,-1140.0338383069998)"><path fill="black" stroke="none" paint-order="stroke fill markers" d=" M 966.0341512402605 1133.2275035986665 L 952.4214818235938 1140.0338383069998 L 966.0341512402605 1146.840173015333 Z"/></g></g><g><text fill="black" stroke="none" font-family="sans-serif" font-size="11pt" font-style="normal" font-weight="normal" text-decoration="normal" x="587.5731819649022" y="1179.238326227" text-anchor="start" dominant-baseline="alphabetic" xml:space="preserve">"Incident report notification has been created"</text></g><g><path fill="none" stroke="black" paint-order="fill stroke markers" d=" M 936.0862785235937 1185.7724075469998 L 548.1570926092135 1185.7724075469998" stroke-miterlimit="10" stroke-width="1.3612669416666667" stroke-dasharray="6.53408132"/><g transform="translate(534.7077752255468,1185.7724075469998) translate(-534.7077752255468,-1185.7724075469998)"><path fill="black" stroke="none" paint-order="stroke fill markers" d=" M 548.3204446422135 1178.9660728386666 L 534.7077752255468 1185.7724075469998 L 548.3204446422135 1192.578742255333 Z"/></g></g><path fill="black" stroke="black" paint-order="fill stroke markers" d=" M 534.7077752255468 1229.0606962919999 L 526.5401735755468 1229.0606962919999 M 180.91625887656244 1210.2752124969998 L 511.8384906055468 1210.2752124969998 L 526.5401735755468 1224.9768954669998 L 526.5401735755468 1247.8461800869998 L 180.91625887656244 1247.8461800869998 L 180.91625887656244 1210.2752124969998 M 511.8384906055468 1210.2752124969998 L 511.8384906055468 1224.9768954669998 L 526.5401735755468 1224.9768954669998" stroke-miterlimit="10" stroke-width="1.3612669416666667" stroke-dasharray=""/><g><text fill="white" stroke="none" font-family="sans-serif" font-size="11pt" font-style="normal" font-weight="normal" text-decoration="normal" x="203.78554349656247" y="1233.144497117" text-anchor="start" dominant-baseline="alphabetic" xml:space="preserve">2. Data provider is informed about the incident</text></g><g><text fill="black" stroke="none" font-family="sans-serif" font-size="11pt" font-style="normal" font-weight="normal" text-decoration="normal" x="752.1533008661556" y="1287.050668007" text-anchor="start" dominant-baseline="alphabetic" xml:space="preserve">see new notifications</text></g><g><path fill="none" stroke="black" paint-order="fill stroke markers" d=" M 704.3118912018815 1293.5847493269998 L 922.636961139927 1293.5847493269998" stroke-miterlimit="10" stroke-width="1.3612669416666667" stroke-dasharray=""/><g transform="translate(936.0862785235937,1293.5847493269998) translate(-936.0862785235937,-1293.5847493269998)"><path fill="black" stroke="none" paint-order="stroke fill markers" d=" M 922.473609106927 1286.7784146186666 L 936.0862785235937 1293.5847493269998 L 922.473609106927 1300.391084035333 Z"/></g></g><g><text fill="black" stroke="none" font-family="sans-serif" font-size="11pt" font-style="normal" font-weight="normal" text-decoration="normal" x="1011.6712963472917" y="1332.789237247" text-anchor="start" dominant-baseline="alphabetic" xml:space="preserve">pull new notifications</text></g><g><path fill="none" stroke="black" paint-order="fill stroke markers" d=" M 952.4214818235938 1339.323318567 L 1192.7473214414244 1339.323318567" stroke-miterlimit="10" stroke-width="1.3612669416666667" stroke-dasharray=""/><g transform="translate(1206.1966388250912,1339.323318567) translate(-1206.1966388250912,-1339.323318567)"><path fill="black" stroke="none" paint-order="stroke fill markers" d=" M 1192.5839694084245 1332.5169838586667 L 1206.1966388250912 1339.323318567 L 1192.5839694084245 1346.129653275333 Z"/></g></g><g><text fill="black" stroke="none" font-family="sans-serif" font-size="11pt" font-style="normal" font-weight="normal" text-decoration="normal" x="1306.2412361165625" y="1378.5278064870001" text-anchor="start" dominant-baseline="alphabetic" xml:space="preserve">retrieve (new) notifications</text></g><g><path fill="none" stroke="black" paint-order="fill stroke markers" d=" M 1222.5318421250913 1385.061887807 L 1547.603577128664 1385.061887807" stroke-miterlimit="10" stroke-width="1.3612669416666667" stroke-dasharray=""/><g transform="translate(1561.0528945123308,1385.061887807) translate(-1561.0528945123308,-1385.061887807)"><path fill="black" stroke="none" paint-order="stroke fill markers" d=" M 1547.4402250956641 1378.2555530986667 L 1561.0528945123308 1385.061887807 L 1547.4402250956641 1391.8682225153332 Z"/></g></g><g><text fill="black" stroke="none" font-family="sans-serif" font-size="11pt" font-style="normal" font-weight="normal" text-decoration="normal" x="1891.7237223786856" y="1424.2663757270002" text-anchor="start" dominant-baseline="alphabetic" xml:space="preserve">retrieve notifications</text></g><g><path fill="none" stroke="black" paint-order="fill stroke markers" d=" M 1577.388097812331 1430.800457047 L 2322.9821761678186 1430.800457047" stroke-miterlimit="10" stroke-width="1.3612669416666667" stroke-dasharray=""/><g transform="translate(2336.4314935514853,1430.800457047) translate(-2336.4314935514853,-1430.800457047)"><path fill="black" stroke="none" paint-order="stroke fill markers" d=" M 2322.818824134819 1423.9941223386668 L 2336.4314935514853 1430.800457047 L 2322.818824134819 1437.6067917553332 Z"/></g></g><g><text fill="black" stroke="none" font-family="sans-serif" font-size="11pt" font-style="normal" font-weight="normal" text-decoration="normal" x="1918.201871792748" y="1470.0049449670003" text-anchor="start" dominant-baseline="alphabetic" xml:space="preserve">notifications</text></g><g><path fill="none" stroke="black" paint-order="fill stroke markers" d=" M 2336.4314935514853 1476.539026287 L 1590.8374151959977 1476.539026287" stroke-miterlimit="10" stroke-width="1.3612669416666667" stroke-dasharray="6.53408132"/><g transform="translate(1577.388097812331,1476.539026287) translate(-1577.388097812331,-1476.539026287)"><path fill="black" stroke="none" paint-order="stroke fill markers" d=" M 1591.0007672289976 1469.7326915786668 L 1577.388097812331 1476.539026287 L 1591.0007672289976 1483.3453609953333 Z"/></g></g><g><text fill="black" stroke="none" font-family="sans-serif" font-size="11pt" font-style="normal" font-weight="normal" text-decoration="normal" x="1353.0844444295508" y="1515.7435142070003" text-anchor="start" dominant-baseline="alphabetic" xml:space="preserve">notifications</text></g><g><path fill="none" stroke="black" paint-order="fill stroke markers" d=" M 1561.0528945123308 1522.2775955270001 L 1235.981159508758 1522.2775955270001" stroke-miterlimit="10" stroke-width="1.3612669416666667" stroke-dasharray="6.53408132"/><g transform="translate(1222.5318421250913,1522.2775955270001) translate(-1222.5318421250913,-1522.2775955270001)"><path fill="black" stroke="none" paint-order="stroke fill markers" d=" M 1236.144511541758 1515.471260818667 L 1222.5318421250913 1522.2775955270001 L 1236.144511541758 1529.0839302353334 Z"/></g></g><g><text fill="black" stroke="none" font-family="sans-serif" font-size="11pt" font-style="normal" font-weight="normal" text-decoration="normal" x="1025.1179592501237" y="1561.4820834470004" text-anchor="start" dominant-baseline="alphabetic" xml:space="preserve">new notifications</text></g><g><path fill="none" stroke="black" paint-order="fill stroke markers" d=" M 1206.1966388250912 1568.0161647670002 L 965.8707992072605 1568.0161647670002" stroke-miterlimit="10" stroke-width="1.3612669416666667" stroke-dasharray="6.53408132"/><g transform="translate(952.4214818235938,1568.0161647670002) translate(-952.4214818235938,-1568.0161647670002)"><path fill="black" stroke="none" paint-order="stroke fill markers" d=" M 966.0341512402605 1561.209830058667 L 952.4214818235938 1568.0161647670002 L 966.0341512402605 1574.8224994753334 Z"/></g></g><g><text fill="black" stroke="none" font-family="sans-serif" font-size="11pt" font-style="normal" font-weight="normal" text-decoration="normal" x="744.4152942743588" y="1607.2206526870004" text-anchor="start" dominant-baseline="alphabetic" xml:space="preserve">List of new notifications</text></g><g><path fill="none" stroke="black" paint-order="fill stroke markers" d=" M 936.0862785235937 1613.7547340070003 L 717.7612085855482 1613.7547340070003" stroke-miterlimit="10" stroke-width="1.3612669416666667" stroke-dasharray="6.53408132"/><g transform="translate(704.3118912018815,1613.7547340070003) translate(-704.3118912018815,-1613.7547340070003)"><path fill="black" stroke="none" paint-order="stroke fill markers" d=" M 717.9245606185482 1606.948399298667 L 704.3118912018815 1613.7547340070003 L 717.9245606185482 1620.5610687153335 Z"/></g></g><g><g/><path fill="none" stroke="black" paint-order="fill stroke markers" d=" M 1503.879682962331 697.3498288769998 L 2401.7723067514853 697.3498288769998 L 2401.7723067514853 1048.5566998269996 L 1503.879682962331 1048.5566998269996 L 1503.879682962331 697.3498288769998 Z" stroke-miterlimit="10" stroke-width="2.3336004714285714" stroke-dasharray=""/><path fill="white" stroke="black" paint-order="fill stroke markers" d=" M 1503.879682962331 697.3498288769998 L 1503.879682962331 716.9520728369998 L 1561.3044840935809 716.9520728369998 L 1571.105606073581 707.1509508569998 L 1571.105606073581 697.3498288769998 L 1503.879682962331 697.3498288769998" stroke-miterlimit="10" stroke-width="2.3336004714285714" stroke-dasharray=""/><text fill="black" stroke="none" font-family="sans-serif" font-size="8.8pt" font-style="normal" font-weight="bold" text-decoration="normal" x="1520.214886262331" y="710.4179915169998" text-anchor="start" dominant-baseline="alphabetic" xml:space="preserve">loop</text><g><rect fill="white" stroke="none" x="1584.990528878581" y="698.6566451409998" width="197.16804756226563" height="16.988611432000003"/></g><text fill="black" stroke="none" font-family="sans-serif" font-size="8.8pt" font-style="normal" font-weight="bold" text-decoration="normal" x="1587.440809373581" y="710.4179915169998" text-anchor="start" dominant-baseline="alphabetic" xml:space="preserve">[for each provider ID in the grants]</text></g></g><g/><g/><g/><g/><g/><g/><g/><g/><g/></g></svg>