<svg xmlns="http://www.w3.org/2000/svg" xmlns:xlink="http://www.w3.org/1999/xlink" version="1.1" width="2311.9624542493248" height="1579.4508070770003"><desc>actor%20Data%20Consumer%0Aactor%20Data%20Provider%0A%23participant%20Platform%20Core%0Aparticipantgroup%20%23FFF2CC%20Data%20Protection%20Cockpit%20(DPC)%20%0Aparticipant%20UI%20%23FFF2CC%0Aparticipant%20API%20%23FFF2CC%0Aparticipant%20Notification%20Service%20%23yellow%0Aparticipant%20Grant%20Service%20%23d5e8d4%0A%23participant%20Participant%20Service%20%23lightblue%0Aparticipant%20Log%20Service%20%23e1d5e7%0Adatabase%20Repository%20%23lightgray%0Aend%0A%0A%0Aautoactivation%20%0A%0Anote%20left%20of%20Data%20Consumer%20%23black%3A%3Ccolor%3A%23white%3E1.%20Data%20consumer%20creates%20an%20incident%20report%20notification%20to%20data%20providers%0A%0AData%20Consumer%20-%3E%20UI%3Areport%20incident%5Cn(data%20leak%20involving%20participants%20emails)%0A%0AUI-%3EAPI%3Anew%20notification%5Cn(incident%20report%20involving%20emails)%0A%0AAPI-%3ENotification%20Service%3A%20create%20notification%5Cn(type%3Aincident%2C%20data%20type%3A%20email%2C%20consumer%20ID)%0A%0ANotification%20Service%20-%3E%20Grant%20Service%3A%20retrieve%20grants%5Cn(consumer%20ID%2C%20data%20type%3A%20email%2C%20status%3A%20valid)%0A%0A%0A%0AGrant%20Service%20-%3E%20Repository%3A%20retrieve%20grants%0ARepository%20--%3E%20Grant%20Service%3A%20grants%0A%0AGrant%20Service%20--%3E%20Notification%20Service%3A%20grants%0A%0Aloop%20for%20each%20provider%20ID%20in%20the%20grants%0ANotification%20Service%20-%3E%20Repository%3A%20create%20notification%5Cn(sender%3A%20consumer%20ID%2C%20recipient%3A%20provider%20ID%2C%20incident%20details)%0ARepository%20--%3E%20Notification%20Service%3A%20created%0A%0ANotification%20Service%20-%3E%20Log%20Service%3A%20create%20log%5Cn(incident%20details)%0ALog%20Service-%3ERepository%3A%20store%20log%0ARepository--%3E%20Log%20Service%3A%20stored%0ALog%20Service--%3ENotification%20Service%3A%20logged%0A%0Aend%0A%0ANotification%20Service%20--%3E%20API%3A%20created%0AAPI--%3E%20UI%3A%20created%0AUI--%3E%20Data%20Consumer%3A%20%22Incident%20report%20notification%20has%20been%20created%22%0A%0Anote%20left%20of%20Data%20Consumer%20%23black%3A%3Ccolor%3A%23white%3E2.%20Data%20provider%20is%20informed%20about%20the%20incident%0A%0AData%20Provider%20-%3E%20UI%3A%20see%20new%20notifications%0AUI%20-%3E%20API%20%3A%20pull%20new%20notifications%0AAPI%20-%3E%20Notification%20Service%20%3A%20retrieve%20(new)%20notifications%0ANotification%20Service%20-%3E%20Repository%3A%20retrieve%20notifications%0ARepository%20--%3E%20Notification%20Service%20%3A%20notifications%0ANotification%20Service%20--%3E%20API%3A%20notifications%0AAPI%20--%3E%20UI%3A%20new%20notifications%0AUI%20--%3E%20Data%20Provider%3A%20List%20of%20new%20notifications%0A</desc><defs/><g><g/><g/><g/><g/><g/><g/><g/><g/><g/><g/><g/><g/><g/><g/><g/><g/><g/><g/><g/><g/><g/><g/><g/><g/><g/><g/><g/><g/><g/><g/><g/><g/><g/><g/><g/><g/><g/><g/><g/><g/><g/><g/><g/><g/><g/><g/><g/><g/><g/><g/><g/><g/><g/><g/><g/><g/><g/><g/><g/><g/><g/><g/><g/><g/><g/><g/><g/><g/><g/><g/><g/><g/><g/><g/><g/><g/><g/><g/><g/><g/><g/><g/><g/><g/><g/><g/><g/><g/><g/><g/><g/><g/><g/><g/><g/><g/><g/><g/><g/><g/><g/><g/><g/><g/><g/><g/><g/><g/><g/><g/><g/><g/><g/><g/><g/><g/><g/><g/><g/><g/><g/><g/><g/><g/><g/><g/><g/><g/><g/><g/><g/><g/><g/><g/><g/><g/><g/><g/><g/><g/><g/><g/><g/><g/><g/><g/><g/><g/><g/><g/><g/><g/><g/><g/><g/><g/><g/><g/><g/><g/><g/><g/><g/><g/><g/><g/><g/><g/><g/><g/><g/><g/><g/><g/><g/><g/><g/><g/><g/><g/><g/><g/><g/><g/><g/><g/><g/><g/><g/><g/><g/><g/><g/><g/><g/><g/><g/><g/><g/><g/><g/><g/><g/><g/><g/><g/><g/><g/><g><rect fill="white" stroke="none" x="0" y="0" width="2311" height="1587"/></g><g><g><path fill="#FFF2CC" stroke="black" paint-order="fill stroke markers" d=" M 911.0325887414335 9.556093930499998 L 2265.3222119802817 9.556093930499998 L 2265.3222119802817 1579.4508070770003 L 911.0325887414335 1579.4508070770003 L 911.0325887414335 9.556093930499998 Z" stroke-miterlimit="10" stroke-width="1.3612669416666667" stroke-dasharray=""/></g><g><text fill="black" stroke="none" font-family="sans-serif" font-size="11pt" font-style="normal" font-weight="normal" text-decoration="normal" x="1486.7457978828302" y="32.4253785505" text-anchor="start" dominant-baseline="alphabetic" xml:space="preserve">Data Protection Cockpit (DPC) </text></g></g><g><path fill="none" stroke="black" paint-order="fill stroke markers" d=" M 534.7077752255468 125.617713377 L 534.7077752255468 1579.4508070770003" stroke-miterlimit="10" stroke-width="1.3612669416666667" stroke-dasharray="12.565541,5.445067766666667"/><path fill="none" stroke="black" paint-order="fill stroke markers" d=" M 704.3118912018815 125.617713377 L 704.3118912018815 1579.4508070770003" stroke-miterlimit="10" stroke-width="1.3612669416666667" stroke-dasharray="12.565541,5.445067766666667"/><path fill="none" stroke="black" paint-order="fill stroke markers" d=" M 944.2538801735938 125.617713377 L 944.2538801735938 1579.4508070770003" stroke-miterlimit="10" stroke-width="1.3612669416666667" stroke-dasharray="12.565541,5.445067766666667"/><path fill="none" stroke="black" paint-order="fill stroke markers" d=" M 1214.3642404750913 125.617713377 L 1214.3642404750913 1579.4508070770003" stroke-miterlimit="10" stroke-width="1.3612669416666667" stroke-dasharray="12.565541,5.445067766666667"/><path fill="none" stroke="black" paint-order="fill stroke markers" d=" M 1569.2204961623308 125.617713377 L 1569.2204961623308 1579.4508070770003" stroke-miterlimit="10" stroke-width="1.3612669416666667" stroke-dasharray="12.565541,5.445067766666667"/><path fill="none" stroke="black" paint-order="fill stroke markers" d=" M 1919.1733857607032 125.617713377 L 1919.1733857607032 1579.4508070770003" stroke-miterlimit="10" stroke-width="1.3612669416666667" stroke-dasharray="12.565541,5.445067766666667"/><path fill="none" stroke="black" paint-order="fill stroke markers" d=" M 2054.4741915864493 125.617713377 L 2054.4741915864493 1579.4508070770003" stroke-miterlimit="10" stroke-width="1.3612669416666667" stroke-dasharray="12.565541,5.445067766666667"/><path fill="none" stroke="black" paint-order="fill stroke markers" d=" M 2222.1188360993247 125.617713377 L 2222.1188360993247 1579.4508070770003" stroke-miterlimit="10" stroke-width="1.3612669416666667" stroke-dasharray="12.565541,5.445067766666667"/></g><g><g><path fill="white" stroke="black" paint-order="fill stroke markers" d=" M 544.0188411065468 56.51980341800001 A 9.311065881 9.311065881 0 1 1 544.0188364510143 56.51049235367085 M 534.7077752255468 65.83086929900001 L 534.7077752255468 85.75981732500001 M 522.9464288495468 73.01835875100001 L 546.4691216015468 73.01835875100001 M 534.7077752255468 85.75981732500001 L 522.9464288495468 104.38194908700001 M 534.7077752255468 85.75981732500001 L 546.4691216015468 104.38194908700001" stroke-miterlimit="10" stroke-width="2.7769845610000004" stroke-dasharray=""/></g><g><g/><text fill="black" stroke="none" font-family="sans-serif" font-size="11pt" font-style="normal" font-weight="normal" text-decoration="normal" x="483.37636195650384" y="120.717152387" text-anchor="start" dominant-baseline="alphabetic" xml:space="preserve">Data Consumer</text></g><g><path fill="white" stroke="black" paint-order="fill stroke markers" d=" M 713.6229570828815 56.51980341800001 A 9.311065881 9.311065881 0 1 1 713.622952427349 56.51049235367085 M 704.3118912018815 65.83086929900001 L 704.3118912018815 85.75981732500001 M 692.5505448258815 73.01835875100001 L 716.0732375778815 73.01835875100001 M 704.3118912018815 85.75981732500001 L 692.5505448258815 104.38194908700001 M 704.3118912018815 85.75981732500001 L 716.0732375778815 104.38194908700001" stroke-miterlimit="10" stroke-width="2.7769845610000004" stroke-dasharray=""/></g><g><g/><text fill="black" stroke="none" font-family="sans-serif" font-size="11pt" font-style="normal" font-weight="normal" text-decoration="normal" x="659.4980255402604" y="120.717152387" text-anchor="start" dominant-baseline="alphabetic" xml:space="preserve">Data Provider</text></g><path fill="none" stroke="none"/><g><path fill="#FFF2CC" stroke="black" paint-order="fill stroke markers" d=" M 919.2001903914336 81.51266446700001 L 969.3075699557539 81.51266446700001 L 969.3075699557539 125.617713377 L 919.2001903914336 125.617713377 L 919.2001903914336 81.51266446700001 Z" stroke-miterlimit="10" stroke-width="2.613632528" stroke-dasharray=""/></g><g><g/><text fill="black" stroke="none" font-family="sans-serif" font-size="11pt" font-style="normal" font-weight="normal" text-decoration="normal" x="936.9238859719336" y="109.282510077" text-anchor="start" dominant-baseline="alphabetic" xml:space="preserve">UI</text></g><path fill="none" stroke="none"/><g><path fill="#FFF2CC" stroke="black" paint-order="fill stroke markers" d=" M 1184.8259468110953 81.51266446700001 L 1243.9025341390875 81.51266446700001 L 1243.9025341390875 125.617713377 L 1184.8259468110953 125.617713377 L 1184.8259468110953 81.51266446700001 Z" stroke-miterlimit="10" stroke-width="2.613632528" stroke-dasharray=""/></g><g><g/><text fill="black" stroke="none" font-family="sans-serif" font-size="11pt" font-style="normal" font-weight="normal" text-decoration="normal" x="1202.5496423915952" y="109.282510077" text-anchor="start" dominant-baseline="alphabetic" xml:space="preserve">API</text></g><path fill="none" stroke="none"/><g><path fill="yellow" stroke="black" paint-order="fill stroke markers" d=" M 1488.7588245076122 81.51266446700001 L 1649.6821678170497 81.51266446700001 L 1649.6821678170497 125.617713377 L 1488.7588245076122 125.617713377 L 1488.7588245076122 81.51266446700001 Z" stroke-miterlimit="10" stroke-width="2.613632528" stroke-dasharray=""/></g><g><g/><text fill="black" stroke="none" font-family="sans-serif" font-size="11pt" font-style="normal" font-weight="normal" text-decoration="normal" x="1506.482520088112" y="109.282510077" text-anchor="start" dominant-baseline="alphabetic" xml:space="preserve">Notification Service</text></g><path fill="none" stroke="none"/><g><path fill="#d5e8d4" stroke="black" paint-order="fill stroke markers" d=" M 1856.6394027046174 81.51266446700001 L 1981.7073688167893 81.51266446700001 L 1981.7073688167893 125.617713377 L 1856.6394027046174 125.617713377 L 1856.6394027046174 81.51266446700001 Z" stroke-miterlimit="10" stroke-width="2.613632528" stroke-dasharray=""/></g><g><g/><text fill="black" stroke="none" font-family="sans-serif" font-size="11pt" font-style="normal" font-weight="normal" text-decoration="normal" x="1874.3630982851173" y="109.282510077" text-anchor="start" dominant-baseline="alphabetic" xml:space="preserve">Grant Service</text></g><path fill="none" stroke="none"/><g><path fill="#e1d5e7" stroke="black" paint-order="fill stroke markers" d=" M 1998.0425721167892 81.51266446700001 L 2110.9058110561095 81.51266446700001 L 2110.9058110561095 125.617713377 L 1998.0425721167892 125.617713377 L 1998.0425721167892 81.51266446700001 Z" stroke-miterlimit="10" stroke-width="2.613632528" stroke-dasharray=""/></g><g><g/><text fill="black" stroke="none" font-family="sans-serif" font-size="11pt" font-style="normal" font-weight="normal" text-decoration="normal" x="2015.766267697289" y="109.282510077" text-anchor="start" dominant-baseline="alphabetic" xml:space="preserve">Log Service</text></g><g><path fill="lightgray" stroke="black" paint-order="fill stroke markers" d=" M 2198.2694392813246 93.600714909 L 2198.2694392813246 59.29678797900001 L 2245.9682329173247 59.29678797900001 L 2245.9682329173247 93.600714909" stroke-miterlimit="10" stroke-width="2.7769845610000004" stroke-dasharray=""/><path fill="lightgray" stroke="black" paint-order="fill stroke markers" d=" M 2245.9682329173247 58.104318138100005 L 2245.967040457421 58.21212868301663 L 2245.9634631969548 58.319928446968596 L 2245.9575014936495 58.42770665006936 L 2245.94915594367 58.53545251458841 L 2245.938427381565 58.64315526602909 L 2245.925316880181 58.75080413420601 L 2245.909825750558 58.85838835432205 L 2245.891955541795 58.96589716804486 L 2245.871708040899 59.073319824582654 L 2245.849085272603 59.1806455817593 L 2245.824089499165 59.28786370708852 L 2245.796723220141 59.394963478847124 L 2245.766989172136 59.501934187147185 L 2245.734890328531 59.60876513500702 L 2245.700429899183 59.715445639420864 L 2245.663611330106 59.82196503242718 L 2245.6244383031267 59.92831266217543 L 2245.5829147355153 60.03447789399126 L 2245.539044779593 60.14045011143997 L 2245.4928328223195 60.24621871738811 L 2245.4442834848523 60.35177313506323 L 2245.393401622084 60.45710280911153 L 2245.3401923221595 60.56219720665338 L 2245.2846609059634 60.6670458183366 L 2245.2268129265913 60.771638159387386 L 2245.166654168793 60.875963770658814 L 2245.1041906483943 60.980012219676674 L 2245.0394286116953 61.08377310168279 L 2244.972374534845 61.18723604067541 L 2244.9030351231963 61.29039069044686 L 2244.8314173106314 61.393226735618136 L 2244.7575282588728 61.4957338926704 L 2244.681375356764 61.597901910973384 L 2244.602966219531 61.69972057381039 L 2244.522308688023 61.80117969939998 L 2244.4394108279257 61.902269141914154 L 2244.3542809289556 62.00297879249289 L 2244.266927504032 62.10329858025506 L 2244.177359288425 62.20321847330548 L 2244.085585238881 62.302728479738136 L 2243.9916145327284 62.40181864863528 L 2243.89545656696 62.500479071062614 L 2243.797120957292 62.5986998810601 L 2243.696617537203 62.6964712566286 L 2243.593956356952 62.793783420712025 L 2243.489147682571 62.89062664217507 L 2243.38220199484 62.98699123677628 L 2243.273129988239 63.08286756813651 L 2243.1619425698777 63.178246048702505 L 2243.0486508584054 63.2731171407057 L 2242.933266182898 63.36747135711595 L 2242.815800081728 63.46129926259025 L 2242.696264301407 63.55459147441624 L 2242.574670795414 63.647338663450476 L 2242.4510317229974 63.73953155505134 L 2242.3253594479625 63.83116093000651 L 2242.197666537431 63.92221762545484 L 2242.067965760588 64.01269253580267 L 2241.936270087403 64.10257661363435 L 2241.802592687334 64.19186087061702 L 2241.6669469280087 64.28053637839936 L 2241.529346373891 64.36859426950451 L 2241.389804784921 64.45602573821674 L 2241.2483361151417 64.54282204146202 L 2241.104954511302 64.62897449968237 L 2240.9596743114425 64.71447449770376 L 2240.8125100434627 64.79931348559764 L 2240.6634764236665 64.8834829795359 L 2240.512588355292 64.96697456263931 L 2240.3598609270193 65.04977988581912 L 2240.2053094114654 65.13189066861203 L 2240.0489492636516 65.21329870000817 L 2239.8907961194636 65.29399583927226 L 2239.730865794083 65.37397401675761 L 2239.56917428041 65.45322523471312 L 2239.4057377474605 65.53174156808304 L 2239.240572538752 65.60951516529946 L 2239.0736951706676 65.68653824906747 L 2238.905122330805 65.76280311714287 L 2238.7348708763084 65.83830214310242 L 2238.56295783218 65.91302777710644 L 2238.389400389582 65.98697254665379 L 2238.2142159041136 66.06012905732914 L 2238.037421894078 66.13248999354239 L 2237.8590360387275 66.20404811926022 L 2237.6790761765005 66.27479627872968 L 2237.497560303232 66.3447273971938 L 2237.3145065703593 66.41383448159898 L 2237.129933283102 66.4821106212944 L 2236.943858898636 66.54954898872295 L 2236.756302024244 66.61614284010412 L 2236.5672814154577 66.68188551610825 L 2236.3768159741794 66.74677044252253 L 2236.184924746796 66.81079113090838 L 2235.991626922269 66.87394117925032 L 2235.7969418302205 66.93621427259615 L 2235.6008889389973 66.99760418368842 L 2235.403487853725 67.05810477358717 L 2235.204758314348 67.11770999228384 L 2235.0047201936545 67.17641387930622 L 2234.8033934952896 67.23421056431454 L 2234.600798351755 67.29109426768845 L 2234.3969550223974 67.34705930110503 L 2234.1918838913793 67.40210006810757 L 2233.9856054656425 67.45621106466523 L 2233.778140372858 67.50938687972345 L 2233.5695093593627 67.56162219574504 L 2233.359733288083 67.61291178924193 L 2233.148833136452 67.6632505312975 L 2232.936829994309 67.71263338807951 L 2232.7237450617913 67.76105542134341 L 2232.509599647215 67.80851178892625 L 2232.2944151649426 67.85499774523082 L 2232.0782131332435 67.9005086417002 L 2231.86101517214 67.94503992728269 L 2231.6428430012484 67.98858714888684 L 2231.4237184376025 68.03114595182676 L 2231.203663393477 68.07271208025765 L 2230.9826998741933 68.11328137760128 L 2230.760849975918 68.15284978696175 L 2230.538135883457 68.19141335153107 L 2230.314579868034 68.22896821498495 L 2230.0902042850635 68.2655106218683 L 2229.865031571917 68.30103691797092 L 2229.6390842456785 68.33554355069278 L 2229.4123849008924 68.36902706939938 L 2229.184956207304 68.40148412576673 L 2228.9568209075933 68.43291147411628 L 2228.7280018151 68.46330597173935 L 2228.4985218115426 68.4926645792115 L 2228.2684038447305 68.52098436069649 L 2228.037670926268 68.54826248423974 L 2227.806346129256 68.57449622205164 L 2227.5744525859805 68.59968295078025 L 2227.3420134856024 68.62382015177371 L 2227.109052071838 68.64690541133201 L 2226.8755916406353 68.66893642094847 L 2226.641655537842 68.68991097754045 L 2226.4072671568742 68.70982698366979 L 2226.172449936374 68.72868244775246 L 2225.9372273578683 68.74647548425779 L 2225.701622943419 68.76320431389692 L 2225.4656602532705 68.77886726380085 L 2225.229362883496 68.79346276768764 L 2224.992754463635 68.80698936601907 L 2224.7558586543323 68.81944570614655 L 2224.518699144972 68.83083054244649 L 2224.2812996513067 68.84114273644471 L 2224.0436839130884 68.85038125693043 L 2223.8058756916926 68.8585451800593 L 2223.5678987677434 68.86563368944577 L 2223.329776938735 68.87164607624486 L 2223.091534016652 68.87658173922287 L 2222.8531938255874 68.88044018481763 L 2222.6147801993625 68.8832210271878 L 2222.376316979141 68.88492398825143 L 2222.1378280110457 68.88554889771386 L 2221.899337143775 68.88509569308466 L 2221.660868226217 68.88356441968392 L 2221.422445105065 68.88095523063768 L 2221.184091622432 68.87726838686271 L 2220.945831613468 68.87250425704028 L 2220.7076889039745 68.86666331757941 L 2220.4696873080247 68.85974615256919 L 2220.23185062558 68.85175345372033 L 2219.99420264011 68.8426860202961 L 2219.7567671162155 68.83254475903225 L 2219.519567797251 68.82133068404647 L 2219.2826284029506 68.8090449167369 L 2219.045972627056 68.79568868567006 L 2218.8096241349485 68.78126332645789 L 2218.573606561279 68.76577028162431 L 2218.33794350761 68.7492111004609 L 2218.1026585400487 68.73158743887197 L 2217.867775186897 68.71290105920899 L 2217.6333169362933 68.69315383009435 L 2217.3993072338685 68.6723477262345 L 2217.165769480397 68.65048482822252 L 2216.9327270294602 68.62756732232997 L 2216.7002031851084 68.60359750028833 L 2216.4682211995328 68.57857775905984 L 2216.236804270738 68.55251060059778 L 2216.0059755402244 68.52539863159627 L 2215.7757580906728 68.49724456322961 L 2215.5461749436363 68.46805121088119 L 2215.317249057238 68.4378214938619 L 2215.089003323876 68.40655843511826 L 2214.8614605679336 68.3742651609301 L 2214.634643543496 68.3409449005979 L 2214.4085749320775 68.30660098611995 L 2214.1832773403507 68.27123685185907 L 2213.9587732978866 68.23485603419923 L 2213.7350852549025 68.19746217119186 L 2213.5122355800167 68.1590590021921 L 2213.2902465580105 68.11965036748485 L 2213.0691403876017 68.07924020790075 L 2212.8489391792223 68.03783256442209 L 2212.62966495281 67.99543157777869 L 2212.4113396356047 67.95204148803388 L 2212.1939850599565 67.90766663416049 L 2211.977622961141 67.86231145360694 L 2211.762274975189 67.81598048185344 L 2211.5479626367187 67.76867835195861 L 2211.334707376786 67.72040979409601 L 2211.122530520738 67.67117963508119 L 2210.911453286085 67.62099279788902 L 2210.7014967803734 67.56985430116141 L 2210.4926819990797 67.51776925870541 L 2210.2850298235076 67.46474287898188 L 2210.0785610187013 67.41078046458458 L 2209.8732962313693 67.35588741171 L 2209.66925598782 67.30006920961766 L 2209.4664606919073 67.24333144008128 L 2209.2649306229914 67.18567977683051 L 2209.0646859339117 67.12711998498365 L 2208.86574664897 67.06765792047108 L 2208.668132661929 67.0072995294497 L 2208.4718637340234 66.9460508477083 L 2208.2769594919814 66.88391800006403 L 2208.0834394260655 66.82090719974988 L 2207.891322888121 66.75702474779337 L 2207.700629089641 66.69227703238643 L 2207.511377099847 66.62667052824669 L 2207.32358584378 66.56021179596986 L 2207.1372741004093 66.4929074813738 L 2206.952460500754 66.4247643148339 L 2206.76916352602 66.35578911060999 L 2206.587401505752 66.28598876616503 L 2206.4071926160004 66.21537026147531 L 2206.228554877504 66.14394065833244 L 2206.051506153888 66.07170709963721 L 2205.8760641498775 65.99867680868529 L 2205.7022464095257 65.92485708844492 L 2205.530070314463 65.8502553208266 L 2205.3595530821544 65.77487896594495 L 2205.1907117641817 65.69873556137263 L 2205.023563244536 65.62183272138664 L 2204.8581242379296 65.5441781362069 L 2204.6944112881256 65.46577957122719 L 2204.532440766282 65.38664486623871 L 2204.372228869317 65.30678193464601 L 2204.213791618286 65.22619876267568 L 2204.057144856782 65.14490340857778 L 2203.902304249351 65.06290400181996 L 2203.7492852799246 64.98020874227457 L 2203.5981032502723 64.89682589939866 L 2203.4487732784714 64.81276381140702 L 2203.3013102973937 64.7280308844384 L 2203.155729053215 64.64263559171489 L 2203.012044103939 64.5565864726946 L 2202.8702698179395 64.46989213221772 L 2202.730420372528 64.38256123964607 L 2202.5925097525324 64.29460252799609 L 2202.4565517488995 64.2060247930657 L 2202.322559957316 64.11683689255453 L 2202.1905477768505 64.02704774517835 L 2202.06052840861 63.93666632977704 L 2201.9325148544235 63.84570168441684 L 2201.80651991554 63.75416290548648 L 2201.6825561913474 63.66205914678757 L 2201.5606360781157 63.56939961861922 L 2201.440771767754 63.47619358685704 L 2201.3229752465945 63.38245037202654 L 2201.20725829419 63.288179348371074 L 2201.0936324821396 63.19338994291445 L 2200.9821091729304 63.09809163451822 L 2200.8726995187994 63.00229395293381 L 2200.765414460622 62.90600647784956 L 2200.6602647268137 62.80923883793272 L 2200.5572608322605 62.71200070986665 L 2200.4564130772665 62.61430181738313 L 2200.3577315465222 62.516151930289986 L 2200.2612261080994 62.417560863494145 L 2200.166906412461 62.318538476020116 L 2200.074781891498 62.219094670024134 L 2199.984861757586 62.11923938980393 L 2199.8971550026627 62.018982620804316 L 2199.8116703973315 61.91833438861863 L 2199.728416489981 61.81730475798624 L 2199.6474016059333 61.715903831786 L 2199.5686338466085 61.61414175002604 L 2199.492121088717 61.51202868882973 L 2199.4178709834714 61.40957485941809 L 2199.34589095582 61.3067905070887 L 2199.2761882037053 61.203685910191126 L 2199.2087696973445 61.10027137909914 L 2199.1436421785324 60.996557255179674 L 2199.0808121599666 60.89255390975869 L 2199.0202859245965 60.78827174308406 L 2198.962069524995 60.683721183285556 L 2198.906168782754 60.57891268533202 L 2198.8525892879 60.473856729985926 L 2198.8013363983396 60.36856382275525 L 2198.7524152393175 60.26304449284297 L 2198.7058307029097 60.157309292094155 L 2198.661587447531 60.05136879394075 L 2198.6196898974695 59.94523359234431 L 2198.5801422424456 59.83891430073653 L 2198.542948437192 59.73242155095798 L 2198.5081122010583 59.62576599219489 L 2198.4756370176387 59.518958289914266 L 2198.4455261344247 59.41200912479732 L 2198.4177825624793 59.30492919167144 L 2198.392409076137 59.19772919844071 L 2198.369408212725 59.09041986501512 L 2198.3487822723105 58.98301192223859 L 2198.3305333174703 58.87551611081589 L 2198.314663173085 58.767943180238575 L 2198.3011734261554 58.660303887710064 L 2198.290065425645 58.55260899706992 L 2198.281340282345 58.444869277717444 L 2198.2749988687624 58.337095503534805 L 2198.2710418190327 58.2292984518096 L 2198.269469528858 58.121488902157175 L 2198.270282155466 58.013677635442654 L 2198.273479617594 57.905875432702864 L 2198.2790615955 57.79809307406824 L 2198.2870275309897 57.69034133768484 L 2198.2973766274763 57.582630998636496 L 2198.310107850059 57.47497282786737 L 2198.3252199256262 57.367377591104805 L 2198.342711342983 57.25985604778283 L 2198.3625803530017 57.15241894996617 L 2198.3848249687985 57.04507704127507 L 2198.40944296593 56.937841055810964 L 2198.436431882617 56.83072171708302 L 2198.46578901999 56.72372973693586 L 2198.497511442361 56.61687581447832 L 2198.5315959775126 56.51017063501361 L 2198.5680392170207 56.40362486897076 L 2198.6068375165914 56.29724917083759 L 2198.647986996427 56.19105417809525 L 2198.691483541614 56.08505051015453 L 2198.737322802534 55.979248767293896 L 2198.7855001952994 55.87365952959945 L 2198.8360109022105 55.76829335590698 L 2198.8888498722395 55.66316078274605 L 2198.9440118215325 55.55827232328636 L 2199.001491233941 55.453638466286456 L 2199.0612823615716 55.349269675044845 L 2199.1233792253615 55.24517638635367 L 2199.1877756156764 55.141369009455055 L 2199.25446509293 55.037857925000196 L 2199.3234409882307 54.93465348401127 L 2199.3946964040465 54.83176600684637 L 2199.468224214895 54.72920578216748 L 2199.5440170680567 54.6269830659116 L 2199.6220673843095 54.52510808026517 L 2199.702367358686 54.42359101264186 L 2199.7849089612564 54.32244201466383 L 2199.869683937929 54.22167120114659 L 2199.9566838112773 54.12128864908752 L 2200.0458998813856 54.02130439665817 L 2200.1373232267215 53.92172844220046 L 2200.230944705027 53.82257074322687 L 2200.326754954232 53.72384121542465 L 2200.424744393392 53.62554973166431 L 2200.5249032236434 53.52770612101232 L 2200.627221429188 53.43032016774821 L 2200.73168877829 53.33340161038615 L 2200.8382948243016 53.23696014070111 L 2200.9470289067067 53.14100540275969 L 2201.057880152188 53.045546991955725 L 2201.170837475713 52.950594454050744 L 2201.2858895816444 52.85615728421942 L 2201.4030249648667 52.762244926100024 L 2201.522231911939 52.668866770850116 L 2201.6434985022665 52.57603215620741 L 2201.766812609291 52.483750365556 L 2201.892161901704 52.39203062699805 L 2202.019533844682 52.300882112431 L 2202.1489157011356 52.21031393663032 L 2202.2802945329877 52.12033515633814 L 2202.4136572024645 52.0309547693575 L 2202.54899037341 51.942181713652616 L 2202.6862805126198 51.85402486645508 L 2202.8255138911945 51.766493043376144 L 2202.9666765859124 51.67959499752518 L 2203.1097544806216 51.59333941863436 L 2203.2547332676518 51.50773493218968 L 2203.401598449245 51.42279009856846 L 2203.5503353390054 51.338513412183275 L 2203.7009290633687 51.25491330063253 L 2203.853364563087 51.17199812385771 L 2204.0076265947378 51.0897761733074 L 2204.1636997322466 51.00825567110814 L 2204.3215683684293 50.927444769242214 L 2204.481216716554 50.84735154873246 L 2204.642628811919 50.7679840188342 L 2204.80578851345 50.689350116234266 L 2204.970679505311 50.611457704257404 L 2205.1372852985423 50.53431457207989 L 2205.305589232702 50.45792843395067 L 2205.4755744775375 50.382306928419894 L 2205.6472240346657 50.307457617575096 L 2205.820520739274 50.23338798628499 L 2205.9954472618365 50.16010544145098 L 2206.171986109847 50.08761731126648 L 2206.350119629567 50.015930844484096 L 2206.5298300077934 49.945053209690776 L 2206.711099273638 49.87499149459093 L 2206.893909300326 49.80575270529769 L 2207.078241807006 49.737343765632275 L 2207.2640783605816 49.66977151643166 L 2207.4514003775525 49.60304271486444 L 2207.6401891258724 49.537164033755175 L 2207.830425726824 49.47214206091707 L 2208.0220911569063 49.407983298493235 L 2208.2151662497354 49.34469416230643 L 2208.409631697963 49.282280981217546 L 2208.6054680552065 49.22074999649268 L 2208.8026557379935 49.16010736117902 L 2209.0011750277195 49.10035913948957 L 2209.2010060726216 49.04151130619671 L 2209.4021288897616 48.98356974603472 L 2209.604523367025 48.92654025311134 L 2209.8081692651335 48.87042853032834 L 2210.013046219666 48.81524018881123 L 2210.219133743099 48.760980747348185 L 2210.4264112268506 48.70765563183812 L 2210.634857943346 48.65527017474815 L 2210.8444530480874 48.60382961458035 L 2211.0551755817382 48.55333909534784 L 2211.2670044722213 48.50380366606049 L 2211.4799185368242 48.455228280219934 L 2211.693896484317 48.40761779532429 L 2211.9089169170843 48.36097697238237 L 2212.1249583332615 48.3153104754376 L 2212.341999128887 48.27062287110161 L 2212.5600176000626 48.2269186280976 L 2212.778991945122 48.18420211681345 L 2212.998900266814 48.1424776088647 L 2213.2197205744887 48.10174927666736 L 2213.4414307863008 48.062021193020726 L 2213.6640087314127 48.02329733070004 L 2213.8874321522153 47.985581562059274 L 2214.111678706554 47.94887765864386 L 2214.3367259699585 47.91318929081355 L 2214.562551437891 47.878520027375394 L 2214.7891325279934 47.844873335226836 L 2215.0164465823445 47.81225257900906 L 2215.2444708697285 47.7806610207705 L 2215.473182587907 47.75010181964065 L 2215.702558865899 47.720578031514165 L 2215.9325767662667 47.69209260874525 L 2216.163213287413 47.664648399852446 L 2216.3944453658773 47.63824814923377 L 2216.6262498786446 47.61289449689228 L 2216.858603645457 47.58858997817209 L 2217.091483431131 47.56533702350482 L 2217.3248659478827 47.54313795816655 L 2217.5587278576545 47.521995002045315 L 2217.7930457744505 47.50191026941911 L 2218.027796266674 47.482885768744474 L 2218.2629558594717 47.46492340245561 L 2218.4985010370797 47.44802496677417 L 2218.7344082451777 47.43219215152965 L 2218.97065389324 47.41742653999037 L 2219.2072143569003 47.403729608705206 L 2219.4440659803076 47.39110272735584 L 2219.6811850784984 47.3795471586199 L 2219.9185479397597 47.369064058044636 L 2220.156130828004 47.35965447393136 L 2220.393909985139 47.351319347230636 L 2220.6318616334484 47.3440595114482 L 2220.869961977965 47.33787569256158 L 2221.1081872088535 47.33276850894751 L 2221.346513503788 47.328738471320094 L 2221.584917030339 47.32578598267973 L 2221.823373948352 47.32391133827283 L 2222.061860412334 47.32311472556227 L 2222.3003525738372 47.323396224208665 L 2222.5388265838437 47.32475580606237 L 2222.7772585951525 47.32719333516634 L 2223.0156247647597 47.3307085677697 L 2223.253901256248 47.33530115235211 L 2223.4920642421666 47.34097062965894 L 2223.730089906415 47.3477164327472 L 2223.9679544466258 47.35553788704218 L 2224.205634076542 47.36443421040498 L 2224.4431050284 47.374404513210685 L 2224.680343555302 47.385447798437305 L 2224.917325933593 47.39756296176553 L 2225.154028465233 47.41074879168913 L 2225.3904274801653 47.42500396963608 L 2225.626499338686 47.44032707010049 L 2225.8622204338053 47.45671656078506 L 2226.0975671936108 47.4741708027544 L 2226.332516083623 47.492688050598844 L 2226.5670436091477 47.51226645260904 L 2226.801126317628 47.5329040509611 L 2227.034740800989 47.554598781912404 L 2227.2678636979763 47.57734847600791 L 2227.5004716964945 47.60115085829719 L 2227.7325415359373 47.62600354856183 L 2227.9640500095147 47.65190406155354 L 2228.1949739665724 47.67884980724257 L 2228.4252903149063 47.70683809107683 L 2228.6549760230746 47.735866114251266 L 2228.8840081226967 47.76593097398773 L 2229.1123637107544 47.79702966382531 L 2229.3400199518787 47.82915907392094 L 2229.5669540806357 47.86231599136038 L 2229.793143403801 47.89649710047953 L 2230.0185653026315 47.93169898319594 L 2230.243197235124 47.9679181193507 L 2230.4670167382737 48.00515088706036 L 2230.6900014303164 48.04339356307918 L 2230.9121290129688 48.08264232317141 L 2231.133377273657 48.12289324249378 L 2231.35372408774 48.16414229598789 L 2231.57314742072 48.20638535878274 L 2231.7916253304465 48.24961820660728 L 2232.00913596931 48.29383651621275 L 2232.225657586429 48.33903586580504 L 2232.4411685298214 48.38521173548684 L 2232.6556472485727 48.43235950770968 L 2232.86907229499 48.48047446773562 L 2233.0814223267457 48.52955180410875 L 2233.2926761090143 48.57958660913633 L 2233.5028125165936 48.63057387937956 L 2233.7118105360178 48.6825085161539 L 2233.9196492676588 48.73538532603896 L 2234.1263079278174 48.789199021397806 L 2234.331765850799 48.84394422090574 L 2234.536002490983 48.89961545008845 L 2234.738997424875 48.9562071418694 L 2234.9407303531516 49.01371363712657 L 2235.141181102688 49.07212918525836 L 2235.3403296285755 49.131447944758634 L 2235.538156016128 49.19166398380087 L 2235.734640482872 49.25277128083136 L 2235.9297633805236 49.314763725171304 L 2236.123505196956 49.37763511762794 L 2236.3158465581496 49.44137917111441 L 2236.506768230128 49.505989511278486 L 2236.696251120883 49.57145967714 L 2236.884276282284 49.637783121736916 L 2237.070824911971 49.70495321278004 L 2237.2558783552367 49.772963233316254 L 2237.439418106891 49.84180638240017 L 2237.6214258131117 49.91147577577426 L 2237.80188327328 49.98196444655723 L 2237.9807724417997 50.05326534594075 L 2238.1580754299034 50.1253713438943 L 2238.3337745074405 50.19827522987816 L 2238.5078521046485 50.27196971356451 L 2238.680290813914 50.346447425566375 L 2238.851073391509 50.421700918174615 L 2239.0201827593182 50.49772266610269 L 2239.187602006546 50.57450506723916 L 2239.353314391407 50.65204044340789 L 2239.5173033428005 50.73032104113588 L 2239.6795524619683 50.80933903242859 L 2239.840045524134 50.889086515552734 L 2239.9987664801247 50.969555515826464 L 2240.1556994579773 51.050737986416806 L 2240.3108287645246 51.13262580914435 L 2240.4641388869654 51.215210795295064 L 2240.6156144944152 51.29848468643916 L 2240.7652404394394 51.38243915525691 L 2240.913001759568 51.467065806371394 L 2241.058883678793 51.55235617718803 L 2241.2028716090426 51.63830173874081 L 2241.3449511516446 51.72489389654519 L 2241.4851080987632 51.812123991457554 L 2241.623328434821 51.899983300541116 L 2241.7595983378983 51.98846303793816 L 2241.893904181119 52.0775543557487 L 2242.0262325340104 52.16724834491519 L 2242.1565701638483 52.25753603611345 L 2242.284904036978 52.3484084006496 L 2242.4112213201183 52.439856351362934 L 2242.535509381647 52.53187074353457 L 2242.6577557928613 52.62444237580196 L 2242.777948329222 52.717561991079045 L 2242.8960749715757 52.81122027748188 L 2243.0121239073565 52.905407869259875 L 2243.126083531767 53.00011534773235 L 2243.237942448941 53.09533324223036 L 2243.347689473079 53.191052031043824 L 2243.45531362957 53.28726214237362 L 2243.5608041560886 53.38395395528879 L 2243.6641505036696 53.481117800688615 L 2243.7653423377647 53.57874396226953 L 2243.8643695392743 53.67682267749672 L 2243.961222205561 53.77534413858041 L 2244.0558906514398 53.874298493456585 L 2244.1483654101435 53.973675846772224 L 2244.2386372342744 54.073466260874795 L 2244.3266970967247 54.17365975680607 L 2244.4125361915817 54.274246315299926 L 2244.496145935008 54.37521587778435 L 2244.5775179660977 54.476558347387225 L 2244.6566441477166 54.578263589946054 L 2244.733516567312 54.68032143502133 L 2244.8081275377062 54.78272167691359 L 2244.8804695978642 54.88545407568398 L 2244.9505355136403 54.98850835817824 L 2245.0183182785013 55.091874219053985 L 2245.0838111142275 55.19554132181128 L 2245.1470074715894 55.29949929982622 L 2245.207901031004 55.40373775738766 L 2245.2664857031664 55.508246270736684 L 2245.3227556296583 55.61301438910906 L 2245.3767051835334 55.718031635780264 L 2245.4283289698815 55.82328750911313 L 2245.4776218263673 55.92877148360804 L 2245.5245788237457 56.03447301095545 L 2245.5691952663565 56.14038152109071 L 2245.611466692593 56.24648642325106 L 2245.6513888753466 56.35277710703471 L 2245.688957822433 56.45924294346186 L 2245.724169776989 56.56587328603757 L 2245.7570212178484 56.672657471816464 L 2245.7875088598944 56.779584822468934 L 2245.815629654388 56.88664464534902 L 2245.8413807892734 56.99382623456367 L 2245.864759689459 57.10111887204326 L 2245.885764017073 57.20851182861346 L 2245.9043916717014 57.31599436506811 L 2245.9206407905936 57.42355573324312 L 2245.9345097488513 57.53118517709132 L 2245.9459971595907 57.63887193375801 L 2245.95510187408 57.74660523465727 L 2245.961822981855 57.85437430654877 L 2245.966159810811 57.962168372615146 L 2245.9681119272686 58.06997665353961 M 2245.9682329173247 92.4082450681 L 2245.967040457421 92.51605561301662 L 2245.9634631969548 92.62385537696859 L 2245.9575014936495 92.73163358006936 L 2245.94915594367 92.8393794445884 L 2245.938427381565 92.94708219602909 L 2245.925316880181 93.05473106420601 L 2245.909825750558 93.16231528432205 L 2245.891955541795 93.26982409804485 L 2245.871708040899 93.37724675458266 L 2245.849085272603 93.4845725117593 L 2245.824089499165 93.59179063708852 L 2245.796723220141 93.69889040884712 L 2245.766989172136 93.80586111714719 L 2245.734890328531 93.91269206500702 L 2245.700429899183 94.01937256942087 L 2245.663611330106 94.12589196242718 L 2245.6244383031267 94.23223959217543 L 2245.5829147355153 94.33840482399125 L 2245.539044779593 94.44437704143996 L 2245.4928328223195 94.5501456473881 L 2245.4442834848523 94.65570006506323 L 2245.393401622084 94.76102973911152 L 2245.3401923221595 94.86612413665337 L 2245.2846609059634 94.97097274833659 L 2245.2268129265913 95.07556508938738 L 2245.166654168793 95.1798907006588 L 2245.1041906483943 95.28393914967667 L 2245.0394286116953 95.38770003168278 L 2244.972374534845 95.4911629706754 L 2244.9030351231963 95.59431762044686 L 2244.8314173106314 95.69715366561813 L 2244.7575282588728 95.7996608226704 L 2244.681375356764 95.90182884097338 L 2244.602966219531 96.00364750381038 L 2244.522308688023 96.10510662939998 L 2244.4394108279257 96.20619607191415 L 2244.3542809289556 96.30690572249289 L 2244.266927504032 96.40722551025506 L 2244.177359288425 96.50714540330549 L 2244.085585238881 96.60665540973812 L 2243.9916145327284 96.70574557863527 L 2243.89545656696 96.8044060010626 L 2243.797120957292 96.9026268110601 L 2243.696617537203 97.0003981866286 L 2243.593956356952 97.09771035071202 L 2243.489147682571 97.19455357217507 L 2243.38220199484 97.29091816677628 L 2243.273129988239 97.3867944981365 L 2243.1619425698777 97.4821729787025 L 2243.0486508584054 97.5770440707057 L 2242.933266182898 97.67139828711595 L 2242.815800081728 97.76522619259025 L 2242.696264301407 97.85851840441623 L 2242.574670795414 97.95126559345047 L 2242.4510317229974 98.04345848505133 L 2242.3253594479625 98.13508786000651 L 2242.197666537431 98.22614455545484 L 2242.067965760588 98.31661946580266 L 2241.936270087403 98.40650354363434 L 2241.802592687334 98.49578780061701 L 2241.6669469280087 98.58446330839936 L 2241.529346373891 98.67252119950452 L 2241.389804784921 98.75995266821674 L 2241.2483361151417 98.84674897146202 L 2241.104954511302 98.93290142968237 L 2240.9596743114425 99.01840142770375 L 2240.8125100434627 99.10324041559763 L 2240.6634764236665 99.18740990953589 L 2240.512588355292 99.2709014926393 L 2240.3598609270193 99.35370681581911 L 2240.2053094114654 99.43581759861202 L 2240.0489492636516 99.51722563000817 L 2239.8907961194636 99.59792276927226 L 2239.730865794083 99.6779009467576 L 2239.56917428041 99.75715216471312 L 2239.4057377474605 99.83566849808304 L 2239.240572538752 99.91344209529944 L 2239.0736951706676 99.99046517906746 L 2238.905122330805 100.06673004714287 L 2238.7348708763084 100.14222907310241 L 2238.56295783218 100.21695470710642 L 2238.389400389582 100.29089947665378 L 2238.2142159041136 100.36405598732914 L 2238.037421894078 100.43641692354238 L 2237.8590360387275 100.50797504926021 L 2237.6790761765005 100.57872320872968 L 2237.497560303232 100.64865432719378 L 2237.3145065703593 100.71776141159897 L 2237.129933283102 100.78603755129438 L 2236.943858898636 100.85347591872295 L 2236.756302024244 100.9200697701041 L 2236.5672814154577 100.98581244610824 L 2236.3768159741794 101.05069737252252 L 2236.184924746796 101.11471806090837 L 2235.991626922269 101.17786810925033 L 2235.7969418302205 101.24014120259615 L 2235.6008889389973 101.30153111368841 L 2235.403487853725 101.36203170358716 L 2235.204758314348 101.42163692228384 L 2235.0047201936545 101.48034080930621 L 2234.8033934952896 101.53813749431454 L 2234.600798351755 101.59502119768845 L 2234.3969550223974 101.65098623110502 L 2234.1918838913793 101.70602699810756 L 2233.9856054656425 101.76013799466523 L 2233.778140372858 101.81331380972344 L 2233.5695093593627 101.86554912574503 L 2233.359733288083 101.91683871924192 L 2233.148833136452 101.9671774612975 L 2232.936829994309 102.0165603180795 L 2232.7237450617913 102.06498235134342 L 2232.509599647215 102.11243871892626 L 2232.2944151649426 102.15892467523081 L 2232.0782131332435 102.2044355717002 L 2231.86101517214 102.24896685728268 L 2231.6428430012484 102.29251407888682 L 2231.4237184376025 102.33507288182676 L 2231.203663393477 102.37663901025765 L 2230.9826998741933 102.41720830760129 L 2230.760849975918 102.45677671696174 L 2230.538135883457 102.49534028153107 L 2230.314579868034 102.53289514498493 L 2230.0902042850635 102.56943755186829 L 2229.865031571917 102.60496384797091 L 2229.6390842456785 102.63947048069276 L 2229.4123849008924 102.67295399939937 L 2229.184956207304 102.70541105576673 L 2228.9568209075933 102.73683840411627 L 2228.7280018151 102.76723290173933 L 2228.4985218115426 102.79659150921151 L 2228.2684038447305 102.82491129069649 L 2228.037670926268 102.85218941423973 L 2227.806346129256 102.87842315205162 L 2227.5744525859805 102.90360988078025 L 2227.3420134856024 102.9277470817737 L 2227.109052071838 102.95083234133202 L 2226.8755916406353 102.97286335094847 L 2226.641655537842 102.99383790754045 L 2226.4072671568742 103.01375391366979 L 2226.172449936374 103.03260937775246 L 2225.9372273578683 103.05040241425777 L 2225.701622943419 103.06713124389691 L 2225.4656602532705 103.08279419380085 L 2225.229362883496 103.09738969768763 L 2224.992754463635 103.11091629601906 L 2224.7558586543323 103.12337263614656 L 2224.518699144972 103.13475747244648 L 2224.2812996513067 103.14506966644471 L 2224.0436839130884 103.15430818693042 L 2223.8058756916926 103.16247211005928 L 2223.5678987677434 103.16956061944578 L 2223.329776938735 103.17557300624486 L 2223.091534016652 103.18050866922287 L 2222.8531938255874 103.18436711481763 L 2222.6147801993625 103.18714795718779 L 2222.376316979141 103.18885091825143 L 2222.1378280110457 103.18947582771386 L 2221.899337143775 103.18902262308465 L 2221.660868226217 103.18749134968391 L 2221.422445105065 103.18488216063768 L 2221.184091622432 103.1811953168627 L 2220.945831613468 103.17643118704027 L 2220.7076889039745 103.1705902475794 L 2220.4696873080247 103.16367308256918 L 2220.23185062558 103.15568038372034 L 2219.99420264011 103.14661295029609 L 2219.7567671162155 103.13647168903225 L 2219.519567797251 103.12525761404646 L 2219.2826284029506 103.1129718467369 L 2219.045972627056 103.09961561567005 L 2218.8096241349485 103.08519025645788 L 2218.573606561279 103.06969721162432 L 2218.33794350761 103.0531380304609 L 2218.1026585400487 103.03551436887196 L 2217.867775186897 103.01682798920898 L 2217.6333169362933 102.99708076009435 L 2217.3993072338685 102.97627465623451 L 2217.165769480397 102.95441175822252 L 2216.9327270294602 102.93149425232995 L 2216.7002031851084 102.90752443028832 L 2216.4682211995328 102.88250468905984 L 2216.236804270738 102.85643753059779 L 2216.0059755402244 102.82932556159626 L 2215.7757580906728 102.80117149322962 L 2215.5461749436363 102.77197814088119 L 2215.317249057238 102.7417484238619 L 2215.089003323876 102.71048536511826 L 2214.8614605679336 102.67819209093008 L 2214.634643543496 102.64487183059789 L 2214.4085749320775 102.61052791611995 L 2214.1832773403507 102.57516378185908 L 2213.9587732978866 102.53878296419921 L 2213.7350852549025 102.50138910119185 L 2213.5122355800167 102.4629859321921 L 2213.2902465580105 102.42357729748485 L 2213.0691403876017 102.38316713790076 L 2212.8489391792223 102.34175949442208 L 2212.62966495281 102.29935850777868 L 2212.4113396356047 102.25596841803387 L 2212.1939850599565 102.2115935641605 L 2211.977622961141 102.16623838360692 L 2211.762274975189 102.11990741185345 L 2211.5479626367187 102.07260528195862 L 2211.334707376786 102.024336724096 L 2211.122530520738 101.97510656508118 L 2210.911453286085 101.92491972788902 L 2210.7014967803734 101.8737812311614 L 2210.4926819990797 101.82169618870542 L 2210.2850298235076 101.76866980898188 L 2210.0785610187013 101.71470739458458 L 2209.8732962313693 101.65981434170999 L 2209.66925598782 101.60399613961766 L 2209.4664606919073 101.54725837008127 L 2209.2649306229914 101.4896067068305 L 2209.0646859339117 101.43104691498365 L 2208.86574664897 101.37158485047108 L 2208.668132661929 101.3112264594497 L 2208.4718637340234 101.2499777777083 L 2208.2769594919814 101.18784493006403 L 2208.0834394260655 101.12483412974987 L 2207.891322888121 101.06095167779335 L 2207.700629089641 100.99620396238643 L 2207.511377099847 100.93059745824668 L 2207.32358584378 100.86413872596987 L 2207.1372741004093 100.79683441137381 L 2206.952460500754 100.7286912448339 L 2206.76916352602 100.65971604061 L 2206.587401505752 100.58991569616504 L 2206.4071926160004 100.5192971914753 L 2206.228554877504 100.44786758833243 L 2206.051506153888 100.3756340296372 L 2205.8760641498775 100.30260373868528 L 2205.7022464095257 100.22878401844491 L 2205.530070314463 100.15418225082661 L 2205.3595530821544 100.07880589594495 L 2205.1907117641817 100.00266249137262 L 2205.023563244536 99.92575965138663 L 2204.8581242379296 99.84810506620688 L 2204.6944112881256 99.76970650122719 L 2204.532440766282 99.69057179623871 L 2204.372228869317 99.610708864646 L 2204.213791618286 99.53012569267568 L 2204.057144856782 99.44883033857778 L 2203.902304249351 99.36683093181996 L 2203.7492852799246 99.28413567227457 L 2203.5981032502723 99.20075282939865 L 2203.4487732784714 99.11669074140701 L 2203.3013102973937 99.0319578144384 L 2203.155729053215 98.9465625217149 L 2203.012044103939 98.8605134026946 L 2202.8702698179395 98.77381906221773 L 2202.730420372528 98.68648816964605 L 2202.5925097525324 98.5985294579961 L 2202.4565517488995 98.5099517230657 L 2202.322559957316 98.42076382255453 L 2202.1905477768505 98.33097467517834 L 2202.06052840861 98.24059325977703 L 2201.9325148544235 98.14962861441684 L 2201.80651991554 98.05808983548647 L 2201.6825561913474 97.96598607678756 L 2201.5606360781157 97.87332654861922 L 2201.440771767754 97.78012051685704 L 2201.3229752465945 97.68637730202654 L 2201.20725829419 97.59210627837106 L 2201.0936324821396 97.49731687291444 L 2200.9821091729304 97.40201856451822 L 2200.8726995187994 97.30622088293381 L 2200.765414460622 97.20993340784955 L 2200.6602647268137 97.11316576793271 L 2200.5572608322605 97.01592763986665 L 2200.4564130772665 96.91822874738313 L 2200.3577315465222 96.82007886028998 L 2200.2612261080994 96.72148779349413 L 2200.166906412461 96.62246540602011 L 2200.074781891498 96.52302160002414 L 2199.984861757586 96.42316631980393 L 2199.8971550026627 96.32290955080431 L 2199.8116703973315 96.22226131861864 L 2199.728416489981 96.12123168798624 L 2199.6474016059333 96.019830761786 L 2199.5686338466085 95.91806868002604 L 2199.492121088717 95.81595561882972 L 2199.4178709834714 95.71350178941809 L 2199.34589095582 95.6107174370887 L 2199.2761882037053 95.50761284019111 L 2199.2087696973445 95.40419830909913 L 2199.1436421785324 95.30048418517967 L 2199.0808121599666 95.19648083975868 L 2199.0202859245965 95.09219867308406 L 2198.962069524995 94.98764811328554 L 2198.906168782754 94.88283961533202 L 2198.8525892879 94.77778365998593 L 2198.8013363983396 94.67249075275525 L 2198.7524152393175 94.56697142284297 L 2198.7058307029097 94.46123622209414 L 2198.661587447531 94.35529572394076 L 2198.6196898974695 94.24916052234431 L 2198.5801422424456 94.14284123073652 L 2198.542948437192 94.03634848095798 L 2198.5081122010583 93.92969292219489 L 2198.4756370176387 93.82288521991427 L 2198.4455261344247 93.71593605479731 L 2198.4177825624793 93.60885612167144 L 2198.392409076137 93.50165612844071 L 2198.369408212725 93.39434679501512 L 2198.3487822723105 93.28693885223859 L 2198.3305333174703 93.17944304081588 L 2198.314663173085 93.07187011023856 L 2198.3011734261554 92.96423081771006 L 2198.290065425645 92.85653592706991 L 2198.281340282345 92.74879620771745 L 2198.2749988687624 92.6410224335348 L 2198.2710418190327 92.5332253818096 L 2198.269469528858 92.42541583215717" stroke-miterlimit="10" stroke-width="2.7769845610000004" stroke-dasharray=""/></g><g><g/><text fill="black" stroke="none" font-family="sans-serif" font-size="11pt" font-style="normal" font-weight="normal" text-decoration="normal" x="2187.0830618683676" y="120.717152387" text-anchor="start" dominant-baseline="alphabetic" xml:space="preserve">Repository</text></g></g><g><path fill="white" stroke="black" paint-order="fill stroke markers" d=" M 936.0862785235937 257.932860107 L 952.4214818235938 257.932860107 L 952.4214818235938 1094.295269067 L 936.0862785235937 1094.295269067 L 936.0862785235937 257.932860107" stroke-miterlimit="10" stroke-width="1.3612669416666667" stroke-dasharray=""/><path fill="white" stroke="black" paint-order="fill stroke markers" d=" M 1206.1966388250912 320.006632647 L 1222.5318421250913 320.006632647 L 1222.5318421250913 1048.5566998269999 L 1206.1966388250912 1048.5566998269999 L 1206.1966388250912 320.006632647" stroke-miterlimit="10" stroke-width="1.3612669416666667" stroke-dasharray=""/><path fill="white" stroke="black" paint-order="fill stroke markers" d=" M 1561.0528945123308 382.080405187 L 1577.388097812331 382.080405187 L 1577.388097812331 1002.8181305869998 L 1561.0528945123308 1002.8181305869998 L 1561.0528945123308 382.080405187" stroke-miterlimit="10" stroke-width="1.3612669416666667" stroke-dasharray=""/><path fill="white" stroke="black" paint-order="fill stroke markers" d=" M 1911.0057841107032 444.154177727 L 1927.3409874107033 444.154177727 L 1927.3409874107033 581.3698854469999 L 1911.0057841107032 581.3698854469999 L 1911.0057841107032 444.154177727" stroke-miterlimit="10" stroke-width="1.3612669416666667" stroke-dasharray=""/><path fill="white" stroke="black" paint-order="fill stroke markers" d=" M 2213.9512344493246 489.892746967 L 2230.2864377493247 489.892746967 L 2230.2864377493247 535.6313162069999 L 2213.9512344493246 535.6313162069999 L 2213.9512344493246 489.892746967" stroke-miterlimit="10" stroke-width="1.3612669416666667" stroke-dasharray=""/><path fill="white" stroke="black" paint-order="fill stroke markers" d=" M 2213.9512344493246 687.548706897 L 2230.2864377493247 687.548706897 L 2230.2864377493247 733.2872761369999 L 2213.9512344493246 733.2872761369999 L 2213.9512344493246 687.548706897" stroke-miterlimit="10" stroke-width="1.3612669416666667" stroke-dasharray=""/><path fill="white" stroke="black" paint-order="fill stroke markers" d=" M 2046.3065899364492 795.361048677 L 2062.6417932364493 795.361048677 L 2062.6417932364493 932.5767563969998 L 2046.3065899364492 932.5767563969998 L 2046.3065899364492 795.361048677" stroke-miterlimit="10" stroke-width="1.3612669416666667" stroke-dasharray=""/><path fill="white" stroke="black" paint-order="fill stroke markers" d=" M 2213.9512344493246 841.0996179169999 L 2230.2864377493247 841.0996179169999 L 2230.2864377493247 886.8381871569999 L 2213.9512344493246 886.8381871569999 L 2213.9512344493246 841.0996179169999" stroke-miterlimit="10" stroke-width="1.3612669416666667" stroke-dasharray=""/><path fill="white" stroke="black" paint-order="fill stroke markers" d=" M 936.0862785235937 1202.107610847 L 952.4214818235938 1202.107610847 L 952.4214818235938 1522.2775955270004 L 936.0862785235937 1522.2775955270004 L 936.0862785235937 1202.107610847" stroke-miterlimit="10" stroke-width="1.3612669416666667" stroke-dasharray=""/><path fill="white" stroke="black" paint-order="fill stroke markers" d=" M 1206.1966388250912 1247.846180087 L 1222.5318421250913 1247.846180087 L 1222.5318421250913 1476.5390262870003 L 1206.1966388250912 1476.5390262870003 L 1206.1966388250912 1247.846180087" stroke-miterlimit="10" stroke-width="1.3612669416666667" stroke-dasharray=""/><path fill="white" stroke="black" paint-order="fill stroke markers" d=" M 1561.0528945123308 1293.584749327 L 1577.388097812331 1293.584749327 L 1577.388097812331 1430.8004570470002 L 1561.0528945123308 1430.8004570470002 L 1561.0528945123308 1293.584749327" stroke-miterlimit="10" stroke-width="1.3612669416666667" stroke-dasharray=""/><path fill="white" stroke="black" paint-order="fill stroke markers" d=" M 2213.9512344493246 1339.3233185670001 L 2230.2864377493247 1339.3233185670001 L 2230.2864377493247 1385.0618878070002 L 2213.9512344493246 1385.0618878070002 L 2213.9512344493246 1339.3233185670001" stroke-miterlimit="10" stroke-width="1.3612669416666667" stroke-dasharray=""/><path fill="black" stroke="black" paint-order="fill stroke markers" d=" M 534.7077752255468 177.07360377199998 L 526.5401735755468 177.07360377199998 M 8.16760165 158.288119977 L 511.8384906055469 158.288119977 L 526.5401735755469 172.98980294700002 L 526.5401735755469 195.859087567 L 8.16760165 195.859087567 L 8.16760165 158.288119977 M 511.8384906055469 158.288119977 L 511.8384906055469 172.98980294700002 L 526.5401735755469 172.98980294700002" stroke-miterlimit="10" stroke-width="1.3612669416666667" stroke-dasharray=""/><g><text fill="white" stroke="none" font-family="sans-serif" font-size="11pt" font-style="normal" font-weight="normal" text-decoration="normal" x="31.036886269999968" y="181.15740459699995" text-anchor="start" dominant-baseline="alphabetic" xml:space="preserve">1. Data consumer creates an incident report notification to data providers</text></g><g><text fill="black" stroke="none" font-family="sans-serif" font-size="11pt" font-style="normal" font-weight="normal" text-decoration="normal" x="607.4693993110936" y="235.06357548699998" text-anchor="start" dominant-baseline="alphabetic" xml:space="preserve">report incident</text><text fill="black" stroke="none" font-family="sans-serif" font-size="11pt" font-style="normal" font-weight="normal" text-decoration="normal" x="607.4693993110936" y="251.39877878699997" text-anchor="start" dominant-baseline="alphabetic" xml:space="preserve">(data leak involving participants emails)</text></g><g><path fill="none" stroke="black" paint-order="fill stroke markers" d=" M 534.7077752255468 257.932860107 L 922.636961139927 257.932860107" stroke-miterlimit="10" stroke-width="1.3612669416666667" stroke-dasharray=""/><g transform="translate(936.0862785235937,257.932860107) translate(-936.0862785235937,-257.932860107)"><path fill="black" stroke="none" paint-order="stroke fill markers" d=" M 922.473609106927 251.12652539866667 L 936.0862785235937 257.932860107 L 922.473609106927 264.73919481533335 Z"/></g></g><g><text fill="black" stroke="none" font-family="sans-serif" font-size="11pt" font-style="normal" font-weight="normal" text-decoration="normal" x="974.2017528902604" y="297.137348027" text-anchor="start" dominant-baseline="alphabetic" xml:space="preserve">new notification</text><text fill="black" stroke="none" font-family="sans-serif" font-size="11pt" font-style="normal" font-weight="normal" text-decoration="normal" x="974.2017528902604" y="313.47255132699996" text-anchor="start" dominant-baseline="alphabetic" xml:space="preserve">(incident report involving emails)</text></g><g><path fill="none" stroke="black" paint-order="fill stroke markers" d=" M 952.4214818235938 320.006632647 L 1192.7473214414244 320.006632647" stroke-miterlimit="10" stroke-width="1.3612669416666667" stroke-dasharray=""/><g transform="translate(1206.1966388250912,320.006632647) translate(-1206.1966388250912,-320.006632647)"><path fill="black" stroke="none" paint-order="stroke fill markers" d=" M 1192.5839694084245 313.20029793866667 L 1206.1966388250912 320.006632647 L 1192.5839694084245 326.81296735533334 Z"/></g></g><g><text fill="black" stroke="none" font-family="sans-serif" font-size="11pt" font-style="normal" font-weight="normal" text-decoration="normal" x="1244.3121131917578" y="359.21112056699997" text-anchor="start" dominant-baseline="alphabetic" xml:space="preserve">create notification</text><text fill="black" stroke="none" font-family="sans-serif" font-size="11pt" font-style="normal" font-weight="normal" text-decoration="normal" x="1244.3121131917578" y="375.54632386699996" text-anchor="start" dominant-baseline="alphabetic" xml:space="preserve">(type:incident, data type: email, consumer ID)</text></g><g><path fill="none" stroke="black" paint-order="fill stroke markers" d=" M 1222.5318421250913 382.080405187 L 1547.603577128664 382.080405187" stroke-miterlimit="10" stroke-width="1.3612669416666667" stroke-dasharray=""/><g transform="translate(1561.0528945123308,382.080405187) translate(-1561.0528945123308,-382.080405187)"><path fill="black" stroke="none" paint-order="stroke fill markers" d=" M 1547.4402250956641 375.27407047866666 L 1561.0528945123308 382.080405187 L 1547.4402250956641 388.88673989533333 Z"/></g></g><g><text fill="black" stroke="none" font-family="sans-serif" font-size="11pt" font-style="normal" font-weight="normal" text-decoration="normal" x="1599.1683688789976" y="421.28489310699996" text-anchor="start" dominant-baseline="alphabetic" xml:space="preserve">retrieve grants</text><text fill="black" stroke="none" font-family="sans-serif" font-size="11pt" font-style="normal" font-weight="normal" text-decoration="normal" x="1599.1683688789976" y="437.62009640699995" text-anchor="start" dominant-baseline="alphabetic" xml:space="preserve">(consumer ID, data type: email, status: valid)</text></g><g><path fill="none" stroke="black" paint-order="fill stroke markers" d=" M 1577.388097812331 444.154177727 L 1897.5564667270364 444.154177727" stroke-miterlimit="10" stroke-width="1.3612669416666667" stroke-dasharray=""/><g transform="translate(1911.0057841107032,444.154177727) translate(-1911.0057841107032,-444.154177727)"><path fill="black" stroke="none" paint-order="stroke fill markers" d=" M 1897.3931146940365 437.34784301866665 L 1911.0057841107032 444.154177727 L 1897.3931146940365 450.9605124353333 Z"/></g></g><g><text fill="black" stroke="none" font-family="sans-serif" font-size="11pt" font-style="normal" font-weight="normal" text-decoration="normal" x="2023.7957462449554" y="483.35866564699995" text-anchor="start" dominant-baseline="alphabetic" xml:space="preserve">retrieve grants</text></g><g><path fill="none" stroke="black" paint-order="fill stroke markers" d=" M 1927.3409874107033 489.892746967 L 2200.501917065658 489.892746967" stroke-miterlimit="10" stroke-width="1.3612669416666667" stroke-dasharray=""/><g transform="translate(2213.9512344493246,489.892746967) translate(-2213.9512344493246,-489.892746967)"><path fill="black" stroke="none" paint-order="stroke fill markers" d=" M 2200.338565032658 483.08641225866666 L 2213.9512344493246 489.892746967 L 2200.338565032658 496.69908167533333 Z"/></g></g><g><text fill="black" stroke="none" font-family="sans-serif" font-size="11pt" font-style="normal" font-weight="normal" text-decoration="normal" x="2050.273895659018" y="529.0972348869999" text-anchor="start" dominant-baseline="alphabetic" xml:space="preserve">grants</text></g><g><path fill="none" stroke="black" paint-order="fill stroke markers" d=" M 2213.9512344493246 535.6313162069999 L 1940.79030479437 535.6313162069999" stroke-miterlimit="10" stroke-width="1.3612669416666667" stroke-dasharray="6.53408132"/><g transform="translate(1927.3409874107033,535.6313162069999) translate(-1927.3409874107033,-535.6313162069999)"><path fill="black" stroke="none" paint-order="stroke fill markers" d=" M 1940.95365682737 528.8249814986666 L 1927.3409874107033 535.6313162069999 L 1940.95365682737 542.4376509153333 Z"/></g></g><g><text fill="black" stroke="none" font-family="sans-serif" font-size="11pt" font-style="normal" font-weight="normal" text-decoration="normal" x="1723.824725690521" y="574.8358041269998" text-anchor="start" dominant-baseline="alphabetic" xml:space="preserve">grants</text></g><g><path fill="none" stroke="black" paint-order="fill stroke markers" d=" M 1911.0057841107032 581.3698854469999 L 1590.8374151959977 581.3698854469999" stroke-miterlimit="10" stroke-width="1.3612669416666667" stroke-dasharray="6.53408132"/><g transform="translate(1577.388097812331,581.3698854469999) translate(-1577.388097812331,-581.3698854469999)"><path fill="black" stroke="none" paint-order="stroke fill markers" d=" M 1591.0007672289976 574.5635507386665 L 1577.388097812331 581.3698854469999 L 1591.0007672289976 588.1762201553332 Z"/></g></g><g><text fill="black" stroke="none" font-family="sans-serif" font-size="11pt" font-style="normal" font-weight="normal" text-decoration="normal" x="1698.4900930717458" y="664.679422277" text-anchor="start" dominant-baseline="alphabetic" xml:space="preserve">create notification</text><text fill="black" stroke="none" font-family="sans-serif" font-size="11pt" font-style="normal" font-weight="normal" text-decoration="normal" x="1698.4900930717458" y="681.014625577" text-anchor="start" dominant-baseline="alphabetic" xml:space="preserve">(sender: consumer ID, recipient: provider ID, incident details)</text></g><g><path fill="none" stroke="black" paint-order="fill stroke markers" d=" M 1577.388097812331 687.548706897 L 2200.501917065658 687.548706897" stroke-miterlimit="10" stroke-width="1.3612669416666667" stroke-dasharray=""/><g transform="translate(2213.9512344493246,687.548706897) translate(-2213.9512344493246,-687.548706897)"><path fill="black" stroke="none" paint-order="stroke fill markers" d=" M 2200.338565032658 680.7423721886666 L 2213.9512344493246 687.548706897 L 2200.338565032658 694.3550416053333 Z"/></g></g><g><text fill="black" stroke="none" font-family="sans-serif" font-size="11pt" font-style="normal" font-weight="normal" text-decoration="normal" x="1871.2208593681326" y="726.7531948169999" text-anchor="start" dominant-baseline="alphabetic" xml:space="preserve">created</text></g><g><path fill="none" stroke="black" paint-order="fill stroke markers" d=" M 2213.9512344493246 733.2872761369999 L 1590.8374151959977 733.2872761369999" stroke-miterlimit="10" stroke-width="1.3612669416666667" stroke-dasharray="6.53408132"/><g transform="translate(1577.388097812331,733.2872761369999) translate(-1577.388097812331,-733.2872761369999)"><path fill="black" stroke="none" paint-order="stroke fill markers" d=" M 1591.0007672289976 726.4809414286666 L 1577.388097812331 733.2872761369999 L 1591.0007672289976 740.0936108453333 Z"/></g></g><g><text fill="black" stroke="none" font-family="sans-serif" font-size="11pt" font-style="normal" font-weight="normal" text-decoration="normal" x="1758.4758686546634" y="772.491764057" text-anchor="start" dominant-baseline="alphabetic" xml:space="preserve">create log</text><text fill="black" stroke="none" font-family="sans-serif" font-size="11pt" font-style="normal" font-weight="normal" text-decoration="normal" x="1758.4758686546634" y="788.826967357" text-anchor="start" dominant-baseline="alphabetic" xml:space="preserve">(incident details)</text></g><g><path fill="none" stroke="black" paint-order="fill stroke markers" d=" M 1577.388097812331 795.361048677 L 2032.8572725527824 795.361048677" stroke-miterlimit="10" stroke-width="1.3612669416666667" stroke-dasharray=""/><g transform="translate(2046.3065899364492,795.361048677) translate(-2046.3065899364492,-795.361048677)"><path fill="black" stroke="none" paint-order="stroke fill markers" d=" M 2032.6939205197825 788.5547139686666 L 2046.3065899364492 795.361048677 L 2032.6939205197825 802.1673833853333 Z"/></g></g><g><text fill="black" stroke="none" font-family="sans-serif" font-size="11pt" font-style="normal" font-weight="normal" text-decoration="normal" x="2110.182713794059" y="834.5655365969999" text-anchor="start" dominant-baseline="alphabetic" xml:space="preserve">store log</text></g><g><path fill="none" stroke="black" paint-order="fill stroke markers" d=" M 2062.6417932364493 841.0996179169999 L 2200.501917065658 841.0996179169999" stroke-miterlimit="10" stroke-width="1.3612669416666667" stroke-dasharray=""/><g transform="translate(2213.9512344493246,841.0996179169999) translate(-2213.9512344493246,-841.0996179169999)"><path fill="black" stroke="none" paint-order="stroke fill markers" d=" M 2200.338565032658 834.2932832086666 L 2213.9512344493246 841.0996179169999 L 2200.338565032658 847.9059526253333 Z"/></g></g><g><text fill="black" stroke="none" font-family="sans-serif" font-size="11pt" font-style="normal" font-weight="normal" text-decoration="normal" x="2117.924298571891" y="880.3041058369998" text-anchor="start" dominant-baseline="alphabetic" xml:space="preserve">stored</text></g><g><path fill="none" stroke="black" paint-order="fill stroke markers" d=" M 2213.9512344493246 886.8381871569999 L 2076.091110620116 886.8381871569999" stroke-miterlimit="10" stroke-width="1.3612669416666667" stroke-dasharray="6.53408132"/><g transform="translate(2062.6417932364493,886.8381871569999) translate(-2062.6417932364493,-886.8381871569999)"><path fill="black" stroke="none" paint-order="stroke fill markers" d=" M 2076.2544626531158 880.0318524486665 L 2062.6417932364493 886.8381871569999 L 2076.2544626531158 893.6445218653332 Z"/></g></g><g><text fill="black" stroke="none" font-family="sans-serif" font-size="11pt" font-style="normal" font-weight="normal" text-decoration="normal" x="1789.835899782593" y="926.0426750769998" text-anchor="start" dominant-baseline="alphabetic" xml:space="preserve">logged</text></g><g><path fill="none" stroke="black" paint-order="fill stroke markers" d=" M 2046.3065899364492 932.5767563969998 L 1590.8374151959977 932.5767563969998" stroke-miterlimit="10" stroke-width="1.3612669416666667" stroke-dasharray="6.53408132"/><g transform="translate(1577.388097812331,932.5767563969998) translate(-1577.388097812331,-932.5767563969998)"><path fill="black" stroke="none" paint-order="stroke fill markers" d=" M 1591.0007672289976 925.7704216886665 L 1577.388097812331 932.5767563969998 L 1591.0007672289976 939.3830911053332 Z"/></g></g><g><text fill="black" stroke="none" font-family="sans-serif" font-size="11pt" font-style="normal" font-weight="normal" text-decoration="normal" x="1367.3435615560156" y="996.2840492669998" text-anchor="start" dominant-baseline="alphabetic" xml:space="preserve">created</text></g><g><path fill="none" stroke="black" paint-order="fill stroke markers" d=" M 1561.0528945123308 1002.8181305869998 L 1235.981159508758 1002.8181305869998" stroke-miterlimit="10" stroke-width="1.3612669416666667" stroke-dasharray="6.53408132"/><g transform="translate(1222.5318421250913,1002.8181305869998) translate(-1222.5318421250913,-1002.8181305869998)"><path fill="black" stroke="none" paint-order="stroke fill markers" d=" M 1236.144511541758 996.0117958786665 L 1222.5318421250913 1002.8181305869998 L 1236.144511541758 1009.6244652953332 Z"/></g></g><g><text fill="black" stroke="none" font-family="sans-serif" font-size="11pt" font-style="normal" font-weight="normal" text-decoration="normal" x="1054.8602535616471" y="1042.022618507" text-anchor="start" dominant-baseline="alphabetic" xml:space="preserve">created</text></g><g><path fill="none" stroke="black" paint-order="fill stroke markers" d=" M 1206.1966388250912 1048.5566998269999 L 965.8707992072605 1048.5566998269999" stroke-miterlimit="10" stroke-width="1.3612669416666667" stroke-dasharray="6.53408132"/><g transform="translate(952.4214818235938,1048.5566998269999) translate(-952.4214818235938,-1048.5566998269999)"><path fill="black" stroke="none" paint-order="stroke fill markers" d=" M 966.0341512402605 1041.7503651186667 L 952.4214818235938 1048.5566998269999 L 966.0341512402605 1055.363034535333 Z"/></g></g><g><text fill="black" stroke="none" font-family="sans-serif" font-size="11pt" font-style="normal" font-weight="normal" text-decoration="normal" x="587.5731819649022" y="1087.7611877470001" text-anchor="start" dominant-baseline="alphabetic" xml:space="preserve">"Incident report notification has been created"</text></g><g><path fill="none" stroke="black" paint-order="fill stroke markers" d=" M 936.0862785235937 1094.295269067 L 548.1570926092135 1094.295269067" stroke-miterlimit="10" stroke-width="1.3612669416666667" stroke-dasharray="6.53408132"/><g transform="translate(534.7077752255468,1094.295269067) translate(-534.7077752255468,-1094.295269067)"><path fill="black" stroke="none" paint-order="stroke fill markers" d=" M 548.3204446422135 1087.4889343586667 L 534.7077752255468 1094.295269067 L 548.3204446422135 1101.1016037753332 Z"/></g></g><path fill="black" stroke="black" paint-order="fill stroke markers" d=" M 534.7077752255468 1137.583557812 L 526.5401735755468 1137.583557812 M 180.91625887656244 1118.7980740169999 L 511.8384906055468 1118.7980740169999 L 526.5401735755468 1133.499756987 L 526.5401735755468 1156.3690416069999 L 180.91625887656244 1156.3690416069999 L 180.91625887656244 1118.7980740169999 M 511.8384906055468 1118.7980740169999 L 511.8384906055468 1133.499756987 L 526.5401735755468 1133.499756987" stroke-miterlimit="10" stroke-width="1.3612669416666667" stroke-dasharray=""/><g><text fill="white" stroke="none" font-family="sans-serif" font-size="11pt" font-style="normal" font-weight="normal" text-decoration="normal" x="203.78554349656247" y="1141.667358637" text-anchor="start" dominant-baseline="alphabetic" xml:space="preserve">2. Data provider is informed about the incident</text></g><g><text fill="black" stroke="none" font-family="sans-serif" font-size="11pt" font-style="normal" font-weight="normal" text-decoration="normal" x="752.1533008661556" y="1195.5735295270001" text-anchor="start" dominant-baseline="alphabetic" xml:space="preserve">see new notifications</text></g><g><path fill="none" stroke="black" paint-order="fill stroke markers" d=" M 704.3118912018815 1202.107610847 L 922.636961139927 1202.107610847" stroke-miterlimit="10" stroke-width="1.3612669416666667" stroke-dasharray=""/><g transform="translate(936.0862785235937,1202.107610847) translate(-936.0862785235937,-1202.107610847)"><path fill="black" stroke="none" paint-order="stroke fill markers" d=" M 922.473609106927 1195.3012761386667 L 936.0862785235937 1202.107610847 L 922.473609106927 1208.9139455553332 Z"/></g></g><g><text fill="black" stroke="none" font-family="sans-serif" font-size="11pt" font-style="normal" font-weight="normal" text-decoration="normal" x="1011.6712963472917" y="1241.3120987670002" text-anchor="start" dominant-baseline="alphabetic" xml:space="preserve">pull new notifications</text></g><g><path fill="none" stroke="black" paint-order="fill stroke markers" d=" M 952.4214818235938 1247.846180087 L 1192.7473214414244 1247.846180087" stroke-miterlimit="10" stroke-width="1.3612669416666667" stroke-dasharray=""/><g transform="translate(1206.1966388250912,1247.846180087) translate(-1206.1966388250912,-1247.846180087)"><path fill="black" stroke="none" paint-order="stroke fill markers" d=" M 1192.5839694084245 1241.0398453786668 L 1206.1966388250912 1247.846180087 L 1192.5839694084245 1254.6525147953332 Z"/></g></g><g><text fill="black" stroke="none" font-family="sans-serif" font-size="11pt" font-style="normal" font-weight="normal" text-decoration="normal" x="1306.2412361165625" y="1287.0506680070002" text-anchor="start" dominant-baseline="alphabetic" xml:space="preserve">retrieve (new) notifications</text></g><g><path fill="none" stroke="black" paint-order="fill stroke markers" d=" M 1222.5318421250913 1293.584749327 L 1547.603577128664 1293.584749327" stroke-miterlimit="10" stroke-width="1.3612669416666667" stroke-dasharray=""/><g transform="translate(1561.0528945123308,1293.584749327) translate(-1561.0528945123308,-1293.584749327)"><path fill="black" stroke="none" paint-order="stroke fill markers" d=" M 1547.4402250956641 1286.7784146186668 L 1561.0528945123308 1293.584749327 L 1547.4402250956641 1300.3910840353333 Z"/></g></g><g><text fill="black" stroke="none" font-family="sans-serif" font-size="11pt" font-style="normal" font-weight="normal" text-decoration="normal" x="1830.4835928276052" y="1332.7892372470003" text-anchor="start" dominant-baseline="alphabetic" xml:space="preserve">retrieve notifications</text></g><g><path fill="none" stroke="black" paint-order="fill stroke markers" d=" M 1577.388097812331 1339.3233185670001 L 2200.501917065658 1339.3233185670001" stroke-miterlimit="10" stroke-width="1.3612669416666667" stroke-dasharray=""/><g transform="translate(2213.9512344493246,1339.3233185670001) translate(-2213.9512344493246,-1339.3233185670001)"><path fill="black" stroke="none" paint-order="stroke fill markers" d=" M 2200.338565032658 1332.516983858667 L 2213.9512344493246 1339.3233185670001 L 2200.338565032658 1346.1296532753333 Z"/></g></g><g><text fill="black" stroke="none" font-family="sans-serif" font-size="11pt" font-style="normal" font-weight="normal" text-decoration="normal" x="1856.9617422416677" y="1378.5278064870004" text-anchor="start" dominant-baseline="alphabetic" xml:space="preserve">notifications</text></g><g><path fill="none" stroke="black" paint-order="fill stroke markers" d=" M 2213.9512344493246 1385.0618878070002 L 1590.8374151959977 1385.0618878070002" stroke-miterlimit="10" stroke-width="1.3612669416666667" stroke-dasharray="6.53408132"/><g transform="translate(1577.388097812331,1385.0618878070002) translate(-1577.388097812331,-1385.0618878070002)"><path fill="black" stroke="none" paint-order="stroke fill markers" d=" M 1591.0007672289976 1378.255553098667 L 1577.388097812331 1385.0618878070002 L 1591.0007672289976 1391.8682225153334 Z"/></g></g><g><text fill="black" stroke="none" font-family="sans-serif" font-size="11pt" font-style="normal" font-weight="normal" text-decoration="normal" x="1353.0844444295508" y="1424.2663757270004" text-anchor="start" dominant-baseline="alphabetic" xml:space="preserve">notifications</text></g><g><path fill="none" stroke="black" paint-order="fill stroke markers" d=" M 1561.0528945123308 1430.8004570470002 L 1235.981159508758 1430.8004570470002" stroke-miterlimit="10" stroke-width="1.3612669416666667" stroke-dasharray="6.53408132"/><g transform="translate(1222.5318421250913,1430.8004570470002) translate(-1222.5318421250913,-1430.8004570470002)"><path fill="black" stroke="none" paint-order="stroke fill markers" d=" M 1236.144511541758 1423.994122338667 L 1222.5318421250913 1430.8004570470002 L 1236.144511541758 1437.6067917553335 Z"/></g></g><g><text fill="black" stroke="none" font-family="sans-serif" font-size="11pt" font-style="normal" font-weight="normal" text-decoration="normal" x="1025.1179592501237" y="1470.0049449670005" text-anchor="start" dominant-baseline="alphabetic" xml:space="preserve">new notifications</text></g><g><path fill="none" stroke="black" paint-order="fill stroke markers" d=" M 1206.1966388250912 1476.5390262870003 L 965.8707992072605 1476.5390262870003" stroke-miterlimit="10" stroke-width="1.3612669416666667" stroke-dasharray="6.53408132"/><g transform="translate(952.4214818235938,1476.5390262870003) translate(-952.4214818235938,-1476.5390262870003)"><path fill="black" stroke="none" paint-order="stroke fill markers" d=" M 966.0341512402605 1469.732691578667 L 952.4214818235938 1476.5390262870003 L 966.0341512402605 1483.3453609953335 Z"/></g></g><g><text fill="black" stroke="none" font-family="sans-serif" font-size="11pt" font-style="normal" font-weight="normal" text-decoration="normal" x="744.4152942743588" y="1515.7435142070005" text-anchor="start" dominant-baseline="alphabetic" xml:space="preserve">List of new notifications</text></g><g><path fill="none" stroke="black" paint-order="fill stroke markers" d=" M 936.0862785235937 1522.2775955270004 L 717.7612085855482 1522.2775955270004" stroke-miterlimit="10" stroke-width="1.3612669416666667" stroke-dasharray="6.53408132"/><g transform="translate(704.3118912018815,1522.2775955270004) translate(-704.3118912018815,-1522.2775955270004)"><path fill="black" stroke="none" paint-order="stroke fill markers" d=" M 717.9245606185482 1515.4712608186671 L 704.3118912018815 1522.2775955270004 L 717.9245606185482 1529.0839302353336 Z"/></g></g><g><g/><path fill="none" stroke="black" paint-order="fill stroke markers" d=" M 1503.879682962331 605.8726903969999 L 2279.2920476493246 605.8726903969999 L 2279.2920476493246 957.0795613469999 L 1503.879682962331 957.0795613469999 L 1503.879682962331 605.8726903969999 Z" stroke-miterlimit="10" stroke-width="2.3336004714285714" stroke-dasharray=""/><path fill="white" stroke="black" paint-order="fill stroke markers" d=" M 1503.879682962331 605.8726903969999 L 1503.879682962331 625.4749343569999 L 1561.3044840935809 625.4749343569999 L 1571.105606073581 615.6738123769999 L 1571.105606073581 605.8726903969999 L 1503.879682962331 605.8726903969999" stroke-miterlimit="10" stroke-width="2.3336004714285714" stroke-dasharray=""/><text fill="black" stroke="none" font-family="sans-serif" font-size="8.8pt" font-style="normal" font-weight="bold" text-decoration="normal" x="1520.214886262331" y="618.9408530369999" text-anchor="start" dominant-baseline="alphabetic" xml:space="preserve">loop</text><g><rect fill="white" stroke="none" x="1584.990528878581" y="607.1795066609999" width="197.16804756226563" height="16.988611432000003"/></g><text fill="black" stroke="none" font-family="sans-serif" font-size="8.8pt" font-style="normal" font-weight="bold" text-decoration="normal" x="1587.440809373581" y="618.9408530369999" text-anchor="start" dominant-baseline="alphabetic" xml:space="preserve">[for each provider ID in the grants]</text></g></g><g/><g/><g/><g/><g/><g/><g/><g/></g></svg>