<svg xmlns="http://www.w3.org/2000/svg" xmlns:xlink="http://www.w3.org/1999/xlink" version="1.1" width="1777.2027922591408" height="2422.347297356999"><desc>actor%20Data%20Consumer%0Aactor%20Data%20Provider%0A%23participant%20Platform%20Core%0Aparticipantgroup%20%23FFF2CC%20Data%20Protection%20Cockpit%20(DPC)%20%0Aparticipant%20UI%20%23FFF2CC%0Aparticipant%20API%20%23FFF2CC%0Aparticipant%20Notification%20Service%20%23yellow%0Aparticipant%20Grant%20Service%20%23d5e8d4%0A%23participant%20Participant%20Service%20%23lightblue%0Aparticipant%20Log%20Service%20%23e1d5e7%0Adatabase%20Repository%20%23lightgray%0Aend%0A%0A%0Aautoactivation%20%0A%0Anote%20left%20of%20Data%20Consumer%20%23black%3A%3Ccolor%3A%23white%3E1.%20Data%20consumer%20creates%20grant%20request%0A%0AData%20Consumer%20-%3E%20UI%3Arequest%20grant%5Cn(required%20privileges%2C%20consumer%20ID)%0A%0AUI-%3EAPI%3Anew%20grant%20request%5Cn(required%20privileges%2C%20consumer%20ID)%0A%0AAPI-%3ENotification%20Service%3A%20create%20notification%5Cn(type%3Agrant%20request%2C%5Cnrequired%20privileges%2C%5Cnconsumer%20ID)%0A%0ANotification%20Service%20-%3E%20Grant%20Service%3A%20create%20grant%20request%5Cn(required%20privileges%2C%5Cnconsumer%20ID%2C%5Cnprovider%20ID%2C%5Cnstatus%3A%20pending)%0A%0AGrant%20Service-%3E%20Repository%3A%20store%20grant%5Cn(pending)%0ARepository%20--%3E%20Grant%20Service%3A%20stored%0A%0AGrant%20Service-%3E%20Log%20Service%3A%20create%20log%5Cn(grant%20request)%0ALog%20Service%20-%3E%20Repository%3A%20store%20log%0ARepository%20--%3E%20Log%20Service%3A%20stored%0ALog%20Service%20--%3EGrant%20Service%3A%20logged%0A%0A%0AGrant%20Service%20--%3E%20Notification%20Service%3A%20grant%20created%0A%0ANotification%20Service-%3ERepository%3A%20store%20notification%0ARepository--%3E%20Notification%20Service%3A%20stored%0ANotification%20Service%20-%3E%20Log%20Service%3A%20create%20log%5Cn(grant%20request)%0ALog%20Service-%3ERepository%3A%20store%20log%0ARepository--%3E%20Log%20Service%3A%20stored%0ALog%20Service--%3ENotification%20Service%3A%20logged%0A%0ANotification%20Service--%3EAPI%3A%20created%0AAPI--%3EUI%3A%20grant%20created%0A%0AUI--%3E%20Data%20Consumer%3A%20%22Grant%20has%20been%20requested%22%0A%0A%0A%0A%0A%0Anote%20left%20of%20Data%20Consumer%20%23black%3A%3Ccolor%3A%23white%3E2.%20Data%20provider%20approves%20grant%20request%0A%0AData%20Provider%20-%3E%20UI%3A%20click%20on%20grant%20request%20notification%0A%0AUI%20-%3E%20API%20%3A%20retrieve%20grant%20request%0AAPI%20-%3E%20Grant%20Service%20%3A%20retrieve%20grant%20request%0AGrant%20Service%20-%3E%20Repository%3A%20retrieve%20grant%20request%0ARepository%20--%3E%20Grant%20Service%20%3A%20grant%20request%0AGrant%20Service%20--%3E%20API%3A%20grant%20request%0AAPI%20--%3E%20UI%3A%20grant%20request%0AUI%20--%3E%20Data%20Provider%3A%20show%20grant%20request%5Cn(action%20%22Approve%22%20is%20available)%0A%0AData%20Provider%20-%3E%20UI%3A%20approve%20grant%20request%0AUI%20-%3E%20API%3A%20approve%20grant%5Cn(grant%20ID)%0AAPI-%3EGrant%20Service%3A%20approve%20grant%5Cn(grant%20ID)%0AGrant%20Service-%3E%20Repository%3A%20update%20grant%5Cn(grant%20ID%2C%20status%3A%20approved)%0ARepository%20--%3E%20Grant%20Service%3Aupdated%0AGrant%20Service%20-%3E%20Log%20Service%3A%20create%20log%5Cn(grant%20approved)%0ALog%20Service-%3E%20Repository%3A%20store%20log%0ARepository--%3E%20Log%20Service%3A%20stored%0ALog%20Service%20--%3E%20Grant%20Service%3A%20logged%0AGrant%20Service--%3E%20API%3A%20approved%0AAPI%20--%3E%20UI%20%3Aapproved%0AUI%20--%3E%20Data%20Provider%3A%20%22Grant%20request%20has%20been%20approved%22%0A%0A</desc><defs/><g><g/><g/><g/><g/><g/><g/><g/><g/><g/><g/><g/><g/><g/><g/><g/><g/><g/><g/><g/><g/><g/><g/><g/><g/><g/><g/><g/><g/><g/><g/><g/><g/><g/><g/><g/><g/><g/><g/><g/><g/><g/><g/><g/><g/><g/><g/><g/><g/><g/><g/><g/><g/><g/><g/><g/><g/><g/><g/><g/><g/><g/><g/><g/><g/><g/><g/><g/><g/><g/><g/><g/><g/><g/><g/><g/><g/><g/><g/><g/><g/><g/><g/><g/><g/><g/><g/><g/><g/><g/><g/><g/><g/><g/><g/><g/><g/><g/><g/><g/><g/><g/><g/><g/><g/><g/><g/><g/><g/><g/><g/><g/><g/><g/><g/><g/><g/><g/><g/><g/><g/><g/><g/><g/><g/><g/><g/><g/><g/><g/><g/><g/><g/><g/><g/><g/><g/><g/><g/><g/><g/><g/><g/><g/><g/><g/><g/><g/><g/><g/><g/><g/><g/><g/><g/><g/><g/><g/><g/><g/><g/><g/><g/><g/><g/><g/><g/><g/><g/><g/><g/><g/><g/><g/><g/><g/><g/><g/><g/><g/><g/><g/><g/><g/><g/><g/><g/><g/><g/><g/><g/><g/><g/><g/><g/><g/><g/><g/><g/><g/><g/><g/><g/><g/><g/><g/><g/><g/><g/><g/><g/><g/><g/><g/><g/><g/><g/><g/><g/><g/><g/><g/><g/><g/><g/><g/><g/><g/><g/><g/><g/><g/><g/><g/><g/><g/><g/><g/><g/><g/><g/><g/><g/><g/><g/><g/><g/><g/><g/><g/><g/><g/><g/><g/><g/><g/><g/><g/><g/><g/><g/><g/><g/><g/><g/><g/><g/><g/><g/><g/><g/><g/><g/><g/><g/><g/><g/><g/><g/><g/><g/><g/><g/><g><rect fill="white" stroke="none" x="0" y="0" width="1777" height="2430"/></g><g><g><path fill="#FFF2CC" stroke="black" paint-order="fill stroke markers" d=" M 738.1872899743437 9.556093930499998 L 1769.0351906091407 9.556093930499998 L 1769.0351906091407 2422.347297356999 L 738.1872899743437 2422.347297356999 L 738.1872899743437 9.556093930499998 Z" stroke-miterlimit="10" stroke-width="1.3612669416666667" stroke-dasharray=""/></g><g><text fill="black" stroke="none" font-family="sans-serif" font-size="11pt" font-style="normal" font-weight="normal" text-decoration="normal" x="1152.1796378137149" y="32.4253785505" text-anchor="start" dominant-baseline="alphabetic" xml:space="preserve">Data Protection Cockpit (DPC) </text></g></g><g><path fill="none" stroke="black" paint-order="fill stroke markers" d=" M 321.2146721982031 125.617713377 L 321.2146721982031 2422.347297356999" stroke-miterlimit="10" stroke-width="1.3612669416666667" stroke-dasharray="12.565541,5.445067766666667"/><path fill="none" stroke="black" paint-order="fill stroke markers" d=" M 453.3921600617448 125.617713377 L 453.3921600617448 2422.347297356999" stroke-miterlimit="10" stroke-width="1.3612669416666667" stroke-dasharray="12.565541,5.445067766666667"/><path fill="none" stroke="black" paint-order="fill stroke markers" d=" M 771.4085814065039 125.617713377 L 771.4085814065039 2422.347297356999" stroke-miterlimit="10" stroke-width="1.3612669416666667" stroke-dasharray="12.565541,5.445067766666667"/><path fill="none" stroke="black" paint-order="fill stroke markers" d=" M 1052.0987604335874 125.617713377 L 1052.0987604335874 2422.347297356999" stroke-miterlimit="10" stroke-width="1.3612669416666667" stroke-dasharray="12.565541,5.445067766666667"/><path fill="none" stroke="black" paint-order="fill stroke markers" d=" M 1239.1168508376238 125.617713377 L 1239.1168508376238 2422.347297356999" stroke-miterlimit="10" stroke-width="1.3612669416666667" stroke-dasharray="12.565541,5.445067766666667"/><path fill="none" stroke="black" paint-order="fill stroke markers" d=" M 1430.2151109193946 125.617713377 L 1430.2151109193946 2422.347297356999" stroke-miterlimit="10" stroke-width="1.3612669416666667" stroke-dasharray="12.565541,5.445067766666667"/><path fill="none" stroke="black" paint-order="fill stroke markers" d=" M 1598.4930432423764 125.617713377 L 1598.4930432423764 2422.347297356999" stroke-miterlimit="10" stroke-width="1.3612669416666667" stroke-dasharray="12.565541,5.445067766666667"/><path fill="none" stroke="black" paint-order="fill stroke markers" d=" M 1725.8318147281836 125.617713377 L 1725.8318147281836 2422.347297356999" stroke-miterlimit="10" stroke-width="1.3612669416666667" stroke-dasharray="12.565541,5.445067766666667"/></g><g><g><path fill="white" stroke="black" paint-order="fill stroke markers" d=" M 330.5257380792031 56.51980341800001 A 9.311065881 9.311065881 0 1 1 330.52573342367054 56.51049235367085 M 321.2146721982031 65.83086929900001 L 321.2146721982031 85.75981732500001 M 309.4533258222031 73.01835875100001 L 332.9760185742031 73.01835875100001 M 321.2146721982031 85.75981732500001 L 309.4533258222031 104.38194908700001 M 321.2146721982031 85.75981732500001 L 332.9760185742031 104.38194908700001" stroke-miterlimit="10" stroke-width="2.7769845610000004" stroke-dasharray=""/></g><g><g/><text fill="black" stroke="none" font-family="sans-serif" font-size="11pt" font-style="normal" font-weight="normal" text-decoration="normal" x="269.88325892916015" y="120.717152387" text-anchor="start" dominant-baseline="alphabetic" xml:space="preserve">Data Consumer</text></g><g><path fill="white" stroke="black" paint-order="fill stroke markers" d=" M 462.7032259427448 56.51980341800001 A 9.311065881 9.311065881 0 1 1 462.7032212872122 56.51049235367085 M 453.3921600617448 65.83086929900001 L 453.3921600617448 85.75981732500001 M 441.6308136857448 73.01835875100001 L 465.1535064377448 73.01835875100001 M 453.3921600617448 85.75981732500001 L 441.6308136857448 104.38194908700001 M 453.3921600617448 85.75981732500001 L 465.1535064377448 104.38194908700001" stroke-miterlimit="10" stroke-width="2.7769845610000004" stroke-dasharray=""/></g><g><g/><text fill="black" stroke="none" font-family="sans-serif" font-size="11pt" font-style="normal" font-weight="normal" text-decoration="normal" x="408.5782944001237" y="120.717152387" text-anchor="start" dominant-baseline="alphabetic" xml:space="preserve">Data Provider</text></g><path fill="none" stroke="none"/><g><path fill="#FFF2CC" stroke="black" paint-order="fill stroke markers" d=" M 746.3548916243437 81.51266446700001 L 796.4622711886641 81.51266446700001 L 796.4622711886641 125.617713377 L 746.3548916243437 125.617713377 L 746.3548916243437 81.51266446700001 Z" stroke-miterlimit="10" stroke-width="2.613632528" stroke-dasharray=""/></g><g><g/><text fill="black" stroke="none" font-family="sans-serif" font-size="11pt" font-style="normal" font-weight="normal" text-decoration="normal" x="764.0785872048438" y="109.282510077" text-anchor="start" dominant-baseline="alphabetic" xml:space="preserve">UI</text></g><path fill="none" stroke="none"/><g><path fill="#FFF2CC" stroke="black" paint-order="fill stroke markers" d=" M 1022.5604667695912 81.51266446700001 L 1081.6370540975834 81.51266446700001 L 1081.6370540975834 125.617713377 L 1022.5604667695912 125.617713377 L 1022.5604667695912 81.51266446700001 Z" stroke-miterlimit="10" stroke-width="2.613632528" stroke-dasharray=""/></g><g><g/><text fill="black" stroke="none" font-family="sans-serif" font-size="11pt" font-style="normal" font-weight="normal" text-decoration="normal" x="1040.2841623500913" y="109.282510077" text-anchor="start" dominant-baseline="alphabetic" xml:space="preserve">API</text></g><path fill="none" stroke="none"/><g><path fill="yellow" stroke="black" paint-order="fill stroke markers" d=" M 1158.6551791829052 81.51266446700001 L 1319.5785224923427 81.51266446700001 L 1319.5785224923427 125.617713377 L 1158.6551791829052 125.617713377 L 1158.6551791829052 81.51266446700001 Z" stroke-miterlimit="10" stroke-width="2.613632528" stroke-dasharray=""/></g><g><g/><text fill="black" stroke="none" font-family="sans-serif" font-size="11pt" font-style="normal" font-weight="normal" text-decoration="normal" x="1176.378874763405" y="109.282510077" text-anchor="start" dominant-baseline="alphabetic" xml:space="preserve">Notification Service</text></g><path fill="none" stroke="none"/><g><path fill="#d5e8d4" stroke="black" paint-order="fill stroke markers" d=" M 1367.6811278633088 81.51266446700001 L 1492.7490939754807 81.51266446700001 L 1492.7490939754807 125.617713377 L 1367.6811278633088 125.617713377 L 1367.6811278633088 81.51266446700001 Z" stroke-miterlimit="10" stroke-width="2.613632528" stroke-dasharray=""/></g><g><g/><text fill="black" stroke="none" font-family="sans-serif" font-size="11pt" font-style="normal" font-weight="normal" text-decoration="normal" x="1385.4048234438087" y="109.282510077" text-anchor="start" dominant-baseline="alphabetic" xml:space="preserve">Grant Service</text></g><path fill="none" stroke="none"/><g><path fill="#e1d5e7" stroke="black" paint-order="fill stroke markers" d=" M 1542.0614237727164 81.51266446700001 L 1654.9246627120367 81.51266446700001 L 1654.9246627120367 125.617713377 L 1542.0614237727164 125.617713377 L 1542.0614237727164 81.51266446700001 Z" stroke-miterlimit="10" stroke-width="2.613632528" stroke-dasharray=""/></g><g><g/><text fill="black" stroke="none" font-family="sans-serif" font-size="11pt" font-style="normal" font-weight="normal" text-decoration="normal" x="1559.7851193532163" y="109.282510077" text-anchor="start" dominant-baseline="alphabetic" xml:space="preserve">Log Service</text></g><g><path fill="lightgray" stroke="black" paint-order="fill stroke markers" d=" M 1701.9824179101836 93.600714909 L 1701.9824179101836 59.29678797900001 L 1749.6812115461837 59.29678797900001 L 1749.6812115461837 93.600714909" stroke-miterlimit="10" stroke-width="2.7769845610000004" stroke-dasharray=""/><path fill="lightgray" stroke="black" paint-order="fill stroke markers" d=" M 1749.6812115461837 58.104318138100005 L 1749.68001908628 58.21212868301663 L 1749.676441825814 58.319928446968596 L 1749.6704801225085 58.42770665006936 L 1749.6621345725293 58.53545251458841 L 1749.6514060104241 58.64315526602909 L 1749.6382955090403 58.75080413420601 L 1749.622804379417 58.85838835432205 L 1749.6049341706544 58.96589716804486 L 1749.5846866697584 59.073319824582654 L 1749.5620639014621 59.1806455817593 L 1749.5370681280237 59.28786370708852 L 1749.5097018489998 59.394963478847124 L 1749.4799678009952 59.501934187147185 L 1749.44786895739 59.60876513500702 L 1749.4134085280418 59.715445639420864 L 1749.376589958965 59.82196503242718 L 1749.337416931986 59.92831266217543 L 1749.295893364374 60.03447789399126 L 1749.252023408452 60.14045011143997 L 1749.2058114511788 60.24621871738811 L 1749.1572621137113 60.35177313506323 L 1749.1063802509434 60.45710280911153 L 1749.0531709510183 60.56219720665338 L 1748.9976395348222 60.6670458183366 L 1748.9397915554503 60.771638159387386 L 1748.879632797652 60.875963770658814 L 1748.8171692772532 60.980012219676674 L 1748.7524072405542 61.08377310168279 L 1748.6853531637041 61.18723604067541 L 1748.616013752055 61.29039069044686 L 1748.5443959394906 61.393226735618136 L 1748.470506887732 61.4957338926704 L 1748.3943539856227 61.597901910973384 L 1748.31594484839 61.69972057381039 L 1748.235287316882 61.80117969939998 L 1748.1523894567845 61.902269141914154 L 1748.0672595578146 62.00297879249289 L 1747.9799061328913 62.10329858025506 L 1747.8903379172841 62.20321847330548 L 1747.7985638677399 62.302728479738136 L 1747.7045931615876 62.40181864863528 L 1747.608435195819 62.500479071062614 L 1747.5100995861508 62.5986998810601 L 1747.409596166062 62.6964712566286 L 1747.3069349858108 62.793783420712025 L 1747.2021263114298 62.89062664217507 L 1747.095180623699 62.98699123677628 L 1746.9861086170981 63.08286756813651 L 1746.8749211987367 63.178246048702505 L 1746.7616294872641 63.2731171407057 L 1746.6462448117572 63.36747135711595 L 1746.5287787105872 63.46129926259025 L 1746.4092429302664 63.55459147441624 L 1746.287649424273 63.647338663450476 L 1746.1640103518566 63.73953155505134 L 1746.0383380768212 63.83116093000651 L 1745.9106451662897 63.92221762545484 L 1745.7809443894469 64.01269253580267 L 1745.6492487162618 64.10257661363435 L 1745.5155713161926 64.19186087061702 L 1745.3799255568676 64.28053637839936 L 1745.2423250027498 64.36859426950451 L 1745.10278341378 64.45602573821674 L 1744.9613147440007 64.54282204146202 L 1744.817933140161 64.62897449968237 L 1744.6726529403015 64.71447449770376 L 1744.525488672322 64.79931348559764 L 1744.3764550525257 64.8834829795359 L 1744.2255669841509 64.96697456263931 L 1744.0728395558785 65.04977988581912 L 1743.9182880403241 65.13189066861203 L 1743.7619278925106 65.21329870000817 L 1743.6037747483224 65.29399583927226 L 1743.4438444229422 65.37397401675761 L 1743.282152909269 65.45322523471312 L 1743.1187163763195 65.53174156808304 L 1742.953551167611 65.60951516529946 L 1742.7866737995269 65.68653824906747 L 1742.6181009596644 65.76280311714287 L 1742.4478495051671 65.83830214310242 L 1742.275936461039 65.91302777710644 L 1742.102379018441 65.98697254665379 L 1741.9271945329726 66.06012905732914 L 1741.7504005229366 66.13248999354239 L 1741.5720146675865 66.20404811926022 L 1741.3920548053593 66.27479627872968 L 1741.2105389320911 66.3447273971938 L 1741.0274851992183 66.41383448159898 L 1740.8429119119612 66.4821106212944 L 1740.656837527495 66.54954898872295 L 1740.4692806531032 66.61614284010412 L 1740.2802600443165 66.68188551610825 L 1740.0897946030386 66.74677044252253 L 1739.8979033756548 66.81079113090838 L 1739.704605551128 66.87394117925032 L 1739.5099204590795 66.93621427259615 L 1739.3138675678563 66.99760418368842 L 1739.1164664825842 67.05810477358717 L 1738.917736943207 67.11770999228384 L 1738.7176988225133 67.17641387930622 L 1738.5163721241483 67.23421056431454 L 1738.3137769806142 67.29109426768845 L 1738.1099336512566 67.34705930110503 L 1737.904862520238 67.40210006810757 L 1737.6985840945015 67.45621106466523 L 1737.4911190017172 67.50938687972345 L 1737.2824879882214 67.56162219574504 L 1737.072711916942 67.61291178924193 L 1736.861811765311 67.6632505312975 L 1736.649808623168 67.71263338807951 L 1736.4367236906503 67.76105542134341 L 1736.2225782760738 67.80851178892625 L 1736.0073937938016 67.85499774523082 L 1735.7911917621025 67.9005086417002 L 1735.5739938009992 67.94503992728269 L 1735.3558216301071 67.98858714888684 L 1735.1366970664617 68.03114595182676 L 1734.9166420223364 68.07271208025765 L 1734.6956785030522 68.11328137760128 L 1734.4738286047773 68.15284978696175 L 1734.2511145123162 68.19141335153107 L 1734.0275584968929 68.22896821498495 L 1733.8031829139222 68.2655106218683 L 1733.578010200776 68.30103691797092 L 1733.3520628745375 68.33554355069278 L 1733.1253635297514 68.36902706939938 L 1732.897934836163 68.40148412576673 L 1732.6697995364523 68.43291147411628 L 1732.4409804439588 68.46330597173935 L 1732.2115004404016 68.4926645792115 L 1731.9813824735895 68.52098436069649 L 1731.7506495551274 68.54826248423974 L 1731.519324758115 68.57449622205164 L 1731.2874312148392 68.59968295078025 L 1731.0549921144611 68.62382015177371 L 1730.822030700697 68.64690541133201 L 1730.588570269494 68.66893642094847 L 1730.354634166701 68.68991097754045 L 1730.1202457857332 68.70982698366979 L 1729.8854285652333 68.72868244775246 L 1729.6502059867275 68.74647548425779 L 1729.414601572278 68.76320431389692 L 1729.1786388821297 68.77886726380085 L 1728.942341512355 68.79346276768764 L 1728.7057330924938 68.80698936601907 L 1728.4688372831913 68.81944570614655 L 1728.2316777738308 68.83083054244649 L 1727.9942782801656 68.84114273644471 L 1727.7566625419472 68.85038125693043 L 1727.5188543205516 68.8585451800593 L 1727.2808773966026 68.86563368944577 L 1727.0427555675942 68.87164607624486 L 1726.8045126455108 68.87658173922287 L 1726.5661724544466 68.88044018481763 L 1726.3277588282215 68.8832210271878 L 1726.089295608 68.88492398825143 L 1725.8508066399047 68.88554889771386 L 1725.6123157726342 68.88509569308466 L 1725.3738468550764 68.88356441968392 L 1725.1354237339242 68.88095523063768 L 1724.897070251291 68.87726838686271 L 1724.6588102423268 68.87250425704028 L 1724.4206675328335 68.86666331757941 L 1724.1826659368837 68.85974615256919 L 1723.944829254439 68.85175345372033 L 1723.707181268969 68.8426860202961 L 1723.4697457450745 68.83254475903225 L 1723.2325464261098 68.82133068404647 L 1722.9956070318094 68.8090449167369 L 1722.758951255915 68.79568868567006 L 1722.5226027638073 68.78126332645789 L 1722.2865851901383 68.76577028162431 L 1722.0509221364687 68.7492111004609 L 1721.8156371689076 68.73158743887197 L 1721.5807538157555 68.71290105920899 L 1721.3462955651523 68.69315383009435 L 1721.1122858627273 68.6723477262345 L 1720.878748109256 68.65048482822252 L 1720.645705658319 68.62756732232997 L 1720.4131818139674 68.60359750028833 L 1720.1811998283915 68.57857775905984 L 1719.9497828995968 68.55251060059778 L 1719.7189541690834 68.52539863159627 L 1719.4887367195317 68.49724456322961 L 1719.2591535724953 68.46805121088119 L 1719.030227686097 68.4378214938619 L 1718.801981952735 68.40655843511826 L 1718.5744391967924 68.3742651609301 L 1718.3476221723552 68.3409449005979 L 1718.1215535609365 68.30660098611995 L 1717.8962559692095 68.27123685185907 L 1717.6717519267456 68.23485603419923 L 1717.4480638837617 68.19746217119186 L 1717.2252142088757 68.1590590021921 L 1717.0032251868697 68.11965036748485 L 1716.7821190164605 68.07924020790075 L 1716.5619178080813 68.03783256442209 L 1716.3426435816689 67.99543157777869 L 1716.1243182644637 67.95204148803388 L 1715.9069636888155 67.90766663416049 L 1715.6906015900004 67.86231145360694 L 1715.475253604048 67.81598048185344 L 1715.2609412655777 67.76867835195861 L 1715.0476860056447 67.72040979409601 L 1714.835509149597 67.67117963508119 L 1714.624431914944 67.62099279788902 L 1714.4144754092326 67.56985430116141 L 1714.2056606279386 67.51776925870541 L 1713.9980084523663 67.46474287898188 L 1713.79153964756 67.41078046458458 L 1713.5862748602285 67.35588741171 L 1713.382234616679 67.30006920961766 L 1713.179439320766 67.24333144008128 L 1712.9779092518504 67.18567977683051 L 1712.7776645627705 67.12711998498365 L 1712.578725277829 67.06765792047108 L 1712.3811112907883 67.0072995294497 L 1712.1848423628824 66.9460508477083 L 1711.9899381208406 66.88391800006403 L 1711.7964180549245 66.82090719974988 L 1711.6043015169798 66.75702474779337 L 1711.4136077185 66.69227703238643 L 1711.224355728706 66.62667052824669 L 1711.0365644726392 66.56021179596986 L 1710.8502527292685 66.4929074813738 L 1710.665439129613 66.4247643148339 L 1710.482142154879 66.35578911060999 L 1710.3003801346108 66.28598876616503 L 1710.1201712448592 66.21537026147531 L 1709.941533506363 66.14394065833244 L 1709.764484782747 66.07170709963721 L 1709.5890427787363 65.99867680868529 L 1709.4152250383847 65.92485708844492 L 1709.2430489433218 65.8502553208266 L 1709.0725317110137 65.77487896594495 L 1708.903690393041 65.69873556137263 L 1708.736541873395 65.62183272138664 L 1708.5711028667886 65.5441781362069 L 1708.4073899169846 65.46577957122719 L 1708.2454193951412 65.38664486623871 L 1708.0852074981758 65.30678193464601 L 1707.9267702471448 65.22619876267568 L 1707.770123485641 65.14490340857778 L 1707.61528287821 65.06290400181996 L 1707.4622639087838 64.98020874227457 L 1707.3110818791315 64.89682589939866 L 1707.1617519073302 64.81276381140702 L 1707.0142889262527 64.7280308844384 L 1706.8687076820743 64.64263559171489 L 1706.7250227327977 64.5565864726946 L 1706.5832484467985 64.46989213221772 L 1706.443399001387 64.38256123964607 L 1706.3054883813913 64.29460252799609 L 1706.1695303777583 64.2060247930657 L 1706.0355385861753 64.11683689255453 L 1705.9035264057095 64.02704774517835 L 1705.7735070374692 63.93666632977704 L 1705.6454934832827 63.84570168441684 L 1705.5194985443989 63.75416290548648 L 1705.3955348202064 63.66205914678757 L 1705.2736147069747 63.56939961861922 L 1705.1537503966133 63.47619358685704 L 1705.0359538754533 63.38245037202654 L 1704.9202369230488 63.288179348371074 L 1704.8066111109988 63.19338994291445 L 1704.6950878017892 63.09809163451822 L 1704.5856781476587 63.00229395293381 L 1704.478393089481 62.90600647784956 L 1704.3732433556727 62.80923883793272 L 1704.2702394611197 62.71200070986665 L 1704.1693917061255 62.61430181738313 L 1704.0707101753812 62.516151930289986 L 1703.9742047369584 62.417560863494145 L 1703.8798850413198 62.318538476020116 L 1703.7877605203569 62.219094670024134 L 1703.6978403864446 62.11923938980393 L 1703.6101336315216 62.018982620804316 L 1703.5246490261904 61.91833438861863 L 1703.44139511884 61.81730475798624 L 1703.3603802347923 61.715903831786 L 1703.2816124754675 61.61414175002604 L 1703.205099717576 61.51202868882973 L 1703.1308496123304 61.40957485941809 L 1703.0588695846786 61.3067905070887 L 1702.989166832564 61.203685910191126 L 1702.9217483262034 61.10027137909914 L 1702.8566208073914 60.996557255179674 L 1702.7937907888256 60.89255390975869 L 1702.7332645534555 60.78827174308406 L 1702.675048153854 60.683721183285556 L 1702.6191474116126 60.57891268533202 L 1702.5655679167592 60.473856729985926 L 1702.5143150271986 60.36856382275525 L 1702.4653938681765 60.26304449284297 L 1702.418809331769 60.157309292094155 L 1702.3745660763898 60.05136879394075 L 1702.3326685263285 59.94523359234431 L 1702.2931208713046 59.83891430073653 L 1702.255927066051 59.73242155095798 L 1702.221090829917 59.62576599219489 L 1702.1886156464975 59.518958289914266 L 1702.1585047632834 59.41200912479732 L 1702.1307611913383 59.30492919167144 L 1702.1053877049958 59.19772919844071 L 1702.082386841584 59.09041986501512 L 1702.0617609011695 58.98301192223859 L 1702.0435119463293 58.87551611081589 L 1702.027641801944 58.767943180238575 L 1702.0141520550144 58.660303887710064 L 1702.0030440545042 58.55260899706992 L 1701.9943189112041 58.444869277717444 L 1701.9879774976212 58.337095503534805 L 1701.9840204478915 58.2292984518096 L 1701.9824481577168 58.121488902157175 L 1701.9832607843248 58.013677635442654 L 1701.9864582464534 57.905875432702864 L 1701.992040224359 57.79809307406824 L 1702.0000061598487 57.69034133768484 L 1702.0103552563355 57.582630998636496 L 1702.0230864789182 57.47497282786737 L 1702.0381985544855 57.367377591104805 L 1702.055689971842 57.25985604778283 L 1702.0755589818607 57.15241894996617 L 1702.0978035976575 57.04507704127507 L 1702.1224215947889 56.937841055810964 L 1702.149410511476 56.83072171708302 L 1702.1787676488493 56.72372973693586 L 1702.2104900712197 56.61687581447832 L 1702.2445746063715 56.51017063501361 L 1702.2810178458797 56.40362486897076 L 1702.3198161454504 56.29724917083759 L 1702.360965625286 56.19105417809525 L 1702.4044621704732 56.08505051015453 L 1702.4503014313932 55.979248767293896 L 1702.4984788241584 55.87365952959945 L 1702.5489895310695 55.76829335590698 L 1702.6018285010982 55.66316078274605 L 1702.6569904503913 55.55827232328636 L 1702.7144698628 55.453638466286456 L 1702.7742609904308 55.349269675044845 L 1702.8363578542208 55.24517638635367 L 1702.9007542445352 55.141369009455055 L 1702.9674437217889 55.037857925000196 L 1703.0364196170897 54.93465348401127 L 1703.1076750329055 54.83176600684637 L 1703.1812028437541 54.72920578216748 L 1703.2569956969157 54.6269830659116 L 1703.3350460131683 54.52510808026517 L 1703.415345987545 54.42359101264186 L 1703.4978875901154 54.32244201466383 L 1703.5826625667883 54.22167120114659 L 1703.669662440136 54.12128864908752 L 1703.7588785102446 54.02130439665817 L 1703.8503018555805 53.92172844220046 L 1703.943923333886 53.82257074322687 L 1704.0397335830912 53.72384121542465 L 1704.1377230222508 53.62554973166431 L 1704.2378818525026 53.52770612101232 L 1704.340200058047 53.43032016774821 L 1704.444667407149 53.33340161038615 L 1704.5512734531603 53.23696014070111 L 1704.6600075355657 53.14100540275969 L 1704.770858781047 53.045546991955725 L 1704.8838161045724 52.950594454050744 L 1704.9988682105034 52.85615728421942 L 1705.1160035937255 52.762244926100024 L 1705.235210540798 52.668866770850116 L 1705.3564771311255 52.57603215620741 L 1705.4797912381498 52.483750365556 L 1705.6051405305634 52.39203062699805 L 1705.732512473541 52.300882112431 L 1705.8618943299948 52.21031393663032 L 1705.993273161847 52.12033515633814 L 1706.1266358313235 52.0309547693575 L 1706.2619690022689 51.942181713652616 L 1706.3992591414788 51.85402486645508 L 1706.5384925200535 51.766493043376144 L 1706.6796552147714 51.67959499752518 L 1706.8227331094806 51.59333941863436 L 1706.9677118965108 51.50773493218968 L 1707.114577078104 51.42279009856846 L 1707.2633139678646 51.338513412183275 L 1707.4139076922277 51.25491330063253 L 1707.5663431919459 51.17199812385771 L 1707.7206052235967 51.0897761733074 L 1707.8766783611054 51.00825567110814 L 1708.0345469972883 50.927444769242214 L 1708.1941953454132 50.84735154873246 L 1708.3556074407784 50.7679840188342 L 1708.5187671423087 50.689350116234266 L 1708.6836581341704 50.611457704257404 L 1708.8502639274013 50.53431457207989 L 1709.018567861561 50.45792843395067 L 1709.1885531063963 50.382306928419894 L 1709.3602026635247 50.307457617575096 L 1709.5334993681329 50.23338798628499 L 1709.7084258906955 50.16010544145098 L 1709.8849647387055 50.08761731126648 L 1710.0630982584257 50.015930844484096 L 1710.2428086366522 49.945053209690776 L 1710.4240779024972 49.87499149459093 L 1710.606887929185 49.80575270529769 L 1710.7912204358652 49.737343765632275 L 1710.9770569894408 49.66977151643166 L 1711.1643790064113 49.60304271486444 L 1711.3531677547314 49.537164033755175 L 1711.5434043556832 49.47214206091707 L 1711.7350697857653 49.407983298493235 L 1711.9281448785944 49.34469416230643 L 1712.122610326822 49.282280981217546 L 1712.3184466840655 49.22074999649268 L 1712.5156343668525 49.16010736117902 L 1712.7141536565787 49.10035913948957 L 1712.9139847014806 49.04151130619671 L 1713.1151075186206 48.98356974603472 L 1713.3175019958842 48.92654025311134 L 1713.5211478939923 48.87042853032834 L 1713.7260248485252 48.81524018881123 L 1713.9321123719578 48.760980747348185 L 1714.1393898557099 48.70765563183812 L 1714.3478365722053 48.65527017474815 L 1714.5574316769464 48.60382961458035 L 1714.7681542105975 48.55333909534784 L 1714.9799831010805 48.50380366606049 L 1715.192897165683 48.455228280219934 L 1715.406875113176 48.40761779532429 L 1715.6218955459433 48.36097697238237 L 1715.8379369621205 48.3153104754376 L 1716.0549777577462 48.27062287110161 L 1716.2729962289213 48.2269186280976 L 1716.491970573981 48.18420211681345 L 1716.7118788956727 48.1424776088647 L 1716.932699203348 48.10174927666736 L 1717.1544094151595 48.062021193020726 L 1717.3769873602714 48.02329733070004 L 1717.6004107810745 47.985581562059274 L 1717.8246573354127 47.94887765864386 L 1718.0497045988177 47.91318929081355 L 1718.2755300667504 47.878520027375394 L 1718.5021111568524 47.844873335226836 L 1718.7294252112035 47.81225257900906 L 1718.9574494985877 47.7806610207705 L 1719.186161216766 47.75010181964065 L 1719.4155374947577 47.720578031514165 L 1719.6455553951257 47.69209260874525 L 1719.8761919162719 47.664648399852446 L 1720.1074239947363 47.63824814923377 L 1720.3392285075038 47.61289449689228 L 1720.5715822743161 47.58858997817209 L 1720.8044620599903 47.56533702350482 L 1721.037844576742 47.54313795816655 L 1721.2717064865135 47.521995002045315 L 1721.5060244033093 47.50191026941911 L 1721.740774895533 47.482885768744474 L 1721.9759344883305 47.46492340245561 L 1722.211479665939 47.44802496677417 L 1722.4473868740365 47.43219215152965 L 1722.6836325220993 47.41742653999037 L 1722.920192985759 47.403729608705206 L 1723.1570446091669 47.39110272735584 L 1723.3941637073574 47.3795471586199 L 1723.631526568619 47.369064058044636 L 1723.8691094568626 47.35965447393136 L 1724.106888613998 47.351319347230636 L 1724.3448402623073 47.3440595114482 L 1724.5829406068242 47.33787569256158 L 1724.8211658377122 47.33276850894751 L 1725.0594921326472 47.328738471320094 L 1725.2978956591983 47.32578598267973 L 1725.5363525772111 47.32391133827283 L 1725.774839041193 47.32311472556227 L 1726.013331202696 47.323396224208665 L 1726.251805212703 47.32475580606237 L 1726.4902372240113 47.32719333516634 L 1726.7286033936186 47.3307085677697 L 1726.9668798851071 47.33530115235211 L 1727.2050428710254 47.34097062965894 L 1727.443068535274 47.3477164327472 L 1727.6809330754845 47.35553788704218 L 1727.9186127054013 47.36443421040498 L 1728.1560836572592 47.374404513210685 L 1728.3933221841612 47.385447798437305 L 1728.6303045624522 47.39756296176553 L 1728.8670070940918 47.41074879168913 L 1729.103406109024 47.42500396963608 L 1729.3394779675446 47.44032707010049 L 1729.5751990626643 47.45671656078506 L 1729.81054582247 47.4741708027544 L 1730.0454947124817 47.492688050598844 L 1730.2800222380067 47.51226645260904 L 1730.5141049464874 47.5329040509611 L 1730.747719429848 47.554598781912404 L 1730.9808423268353 47.57734847600791 L 1731.2134503253533 47.60115085829719 L 1731.4455201647963 47.62600354856183 L 1731.677028638374 47.65190406155354 L 1731.9079525954312 47.67884980724257 L 1732.1382689437655 47.70683809107683 L 1732.3679546519334 47.735866114251266 L 1732.5969867515557 47.76593097398773 L 1732.8253423396134 47.79702966382531 L 1733.052998580738 47.82915907392094 L 1733.2799327094947 47.86231599136038 L 1733.5061220326602 47.89649710047953 L 1733.7315439314903 47.93169898319594 L 1733.9561758639834 47.9679181193507 L 1734.179995367133 48.00515088706036 L 1734.4029800591754 48.04339356307918 L 1734.6251076418275 48.08264232317141 L 1734.846355902516 48.12289324249378 L 1735.0667027165991 48.16414229598789 L 1735.286126049579 48.20638535878274 L 1735.5046039593055 48.24961820660728 L 1735.7221145981694 48.29383651621275 L 1735.9386362152882 48.33903586580504 L 1736.1541471586806 48.38521173548684 L 1736.368625877432 48.43235950770968 L 1736.5820509238488 48.48047446773562 L 1736.7944009556047 48.52955180410875 L 1737.0056547378733 48.57958660913633 L 1737.2157911454526 48.63057387937956 L 1737.4247891648768 48.6825085161539 L 1737.6326278965178 48.73538532603896 L 1737.8392865566761 48.789199021397806 L 1738.0447444796578 48.84394422090574 L 1738.2489811198418 48.89961545008845 L 1738.4519760537341 48.9562071418694 L 1738.6537089820108 49.01371363712657 L 1738.8541597315468 49.07212918525836 L 1739.0533082574345 49.131447944758634 L 1739.2511346449871 49.19166398380087 L 1739.4476191117308 49.25277128083136 L 1739.6427420093823 49.314763725171304 L 1739.836483825815 49.37763511762794 L 1740.0288251870086 49.44137917111441 L 1740.219746858987 49.505989511278486 L 1740.4092297497423 49.57145967714 L 1740.5972549111432 49.637783121736916 L 1740.7838035408301 49.70495321278004 L 1740.968856984096 49.772963233316254 L 1741.1523967357502 49.84180638240017 L 1741.334404441971 49.91147577577426 L 1741.5148619021388 49.98196444655723 L 1741.6937510706587 50.05326534594075 L 1741.8710540587626 50.1253713438943 L 1742.0467531362992 50.19827522987816 L 1742.2208307335077 50.27196971356451 L 1742.3932694427729 50.346447425566375 L 1742.5640520203679 50.421700918174615 L 1742.7331613881772 50.49772266610269 L 1742.9005806354048 50.57450506723916 L 1743.0662930202657 50.65204044340789 L 1743.2302819716595 50.73032104113588 L 1743.3925310908273 50.80933903242859 L 1743.553024152993 50.889086515552734 L 1743.7117451089837 50.969555515826464 L 1743.8686780868363 51.050737986416806 L 1744.0238073933838 51.13262580914435 L 1744.1771175158244 51.215210795295064 L 1744.3285931232742 51.29848468643916 L 1744.4782190682984 51.38243915525691 L 1744.6259803884273 51.467065806371394 L 1744.7718623076516 51.55235617718803 L 1744.9158502379016 51.63830173874081 L 1745.0579297805039 51.72489389654519 L 1745.1980867276225 51.812123991457554 L 1745.3363070636797 51.899983300541116 L 1745.472576966757 51.98846303793816 L 1745.6068828099778 52.0775543557487 L 1745.7392111628697 52.16724834491519 L 1745.8695487927073 52.25753603611345 L 1745.9978826658366 52.3484084006496 L 1746.1241999489773 52.439856351362934 L 1746.248488010506 52.53187074353457 L 1746.3707344217205 52.62444237580196 L 1746.4909269580812 52.717561991079045 L 1746.6090536004347 52.81122027748188 L 1746.7251025362154 52.905407869259875 L 1746.8390621606263 53.00011534773235 L 1746.9509210777999 53.09533324223036 L 1747.0606681019378 53.191052031043824 L 1747.168292258429 53.28726214237362 L 1747.2737827849473 53.38395395528879 L 1747.3771291325286 53.481117800688615 L 1747.4783209666234 53.57874396226953 L 1747.5773481681333 53.67682267749672 L 1747.6742008344204 53.77534413858041 L 1747.7688692802988 53.874298493456585 L 1747.8613440390027 53.973675846772224 L 1747.9516158631334 54.073466260874795 L 1748.0396757255837 54.17365975680607 L 1748.125514820441 54.274246315299926 L 1748.2091245638667 54.37521587778435 L 1748.2904965949567 54.476558347387225 L 1748.3696227765756 54.578263589946054 L 1748.446495196171 54.68032143502133 L 1748.5211061665652 54.78272167691359 L 1748.5934482267232 54.88545407568398 L 1748.6635141424995 54.98850835817824 L 1748.7312969073605 55.091874219053985 L 1748.7967897430865 55.19554132181128 L 1748.8599861004484 55.29949929982622 L 1748.920879659863 55.40373775738766 L 1748.9794643320256 55.508246270736684 L 1749.035734258517 55.61301438910906 L 1749.0896838123924 55.718031635780264 L 1749.1413075987405 55.82328750911313 L 1749.1906004552263 55.92877148360804 L 1749.2375574526047 56.03447301095545 L 1749.2821738952157 56.14038152109071 L 1749.3244453214518 56.24648642325106 L 1749.3643675042056 56.35277710703471 L 1749.4019364512922 56.45924294346186 L 1749.4371484058483 56.56587328603757 L 1749.4699998467077 56.672657471816464 L 1749.5004874887534 56.779584822468934 L 1749.5286082832472 56.88664464534902 L 1749.5543594181327 56.99382623456367 L 1749.5777383183176 57.10111887204326 L 1749.5987426459321 57.20851182861346 L 1749.6173703005602 57.31599436506811 L 1749.6336194194525 57.42355573324312 L 1749.6474883777105 57.53118517709132 L 1749.6589757884497 57.63887193375801 L 1749.668080502939 57.74660523465727 L 1749.674801610714 57.85437430654877 L 1749.6791384396702 57.962168372615146 L 1749.6810905561276 58.06997665353961 M 1749.6812115461837 92.4082450681 L 1749.68001908628 92.51605561301662 L 1749.676441825814 92.62385537696859 L 1749.6704801225085 92.73163358006936 L 1749.6621345725293 92.8393794445884 L 1749.6514060104241 92.94708219602909 L 1749.6382955090403 93.05473106420601 L 1749.622804379417 93.16231528432205 L 1749.6049341706544 93.26982409804485 L 1749.5846866697584 93.37724675458266 L 1749.5620639014621 93.4845725117593 L 1749.5370681280237 93.59179063708852 L 1749.5097018489998 93.69889040884712 L 1749.4799678009952 93.80586111714719 L 1749.44786895739 93.91269206500702 L 1749.4134085280418 94.01937256942087 L 1749.376589958965 94.12589196242718 L 1749.337416931986 94.23223959217543 L 1749.295893364374 94.33840482399125 L 1749.252023408452 94.44437704143996 L 1749.2058114511788 94.5501456473881 L 1749.1572621137113 94.65570006506323 L 1749.1063802509434 94.76102973911152 L 1749.0531709510183 94.86612413665337 L 1748.9976395348222 94.97097274833659 L 1748.9397915554503 95.07556508938738 L 1748.879632797652 95.1798907006588 L 1748.8171692772532 95.28393914967667 L 1748.7524072405542 95.38770003168278 L 1748.6853531637041 95.4911629706754 L 1748.616013752055 95.59431762044686 L 1748.5443959394906 95.69715366561813 L 1748.470506887732 95.7996608226704 L 1748.3943539856227 95.90182884097338 L 1748.31594484839 96.00364750381038 L 1748.235287316882 96.10510662939998 L 1748.1523894567845 96.20619607191415 L 1748.0672595578146 96.30690572249289 L 1747.9799061328913 96.40722551025506 L 1747.8903379172841 96.50714540330549 L 1747.7985638677399 96.60665540973812 L 1747.7045931615876 96.70574557863527 L 1747.608435195819 96.8044060010626 L 1747.5100995861508 96.9026268110601 L 1747.409596166062 97.0003981866286 L 1747.3069349858108 97.09771035071202 L 1747.2021263114298 97.19455357217507 L 1747.095180623699 97.29091816677628 L 1746.9861086170981 97.3867944981365 L 1746.8749211987367 97.4821729787025 L 1746.7616294872641 97.5770440707057 L 1746.6462448117572 97.67139828711595 L 1746.5287787105872 97.76522619259025 L 1746.4092429302664 97.85851840441623 L 1746.287649424273 97.95126559345047 L 1746.1640103518566 98.04345848505133 L 1746.0383380768212 98.13508786000651 L 1745.9106451662897 98.22614455545484 L 1745.7809443894469 98.31661946580266 L 1745.6492487162618 98.40650354363434 L 1745.5155713161926 98.49578780061701 L 1745.3799255568676 98.58446330839936 L 1745.2423250027498 98.67252119950452 L 1745.10278341378 98.75995266821674 L 1744.9613147440007 98.84674897146202 L 1744.817933140161 98.93290142968237 L 1744.6726529403015 99.01840142770375 L 1744.525488672322 99.10324041559763 L 1744.3764550525257 99.18740990953589 L 1744.2255669841509 99.2709014926393 L 1744.0728395558785 99.35370681581911 L 1743.9182880403241 99.43581759861202 L 1743.7619278925106 99.51722563000817 L 1743.6037747483224 99.59792276927226 L 1743.4438444229422 99.6779009467576 L 1743.282152909269 99.75715216471312 L 1743.1187163763195 99.83566849808304 L 1742.953551167611 99.91344209529944 L 1742.7866737995269 99.99046517906746 L 1742.6181009596644 100.06673004714287 L 1742.4478495051671 100.14222907310241 L 1742.275936461039 100.21695470710642 L 1742.102379018441 100.29089947665378 L 1741.9271945329726 100.36405598732914 L 1741.7504005229366 100.43641692354238 L 1741.5720146675865 100.50797504926021 L 1741.3920548053593 100.57872320872968 L 1741.2105389320911 100.64865432719378 L 1741.0274851992183 100.71776141159897 L 1740.8429119119612 100.78603755129438 L 1740.656837527495 100.85347591872295 L 1740.4692806531032 100.9200697701041 L 1740.2802600443165 100.98581244610824 L 1740.0897946030386 101.05069737252252 L 1739.8979033756548 101.11471806090837 L 1739.704605551128 101.17786810925033 L 1739.5099204590795 101.24014120259615 L 1739.3138675678563 101.30153111368841 L 1739.1164664825842 101.36203170358716 L 1738.917736943207 101.42163692228384 L 1738.7176988225133 101.48034080930621 L 1738.5163721241483 101.53813749431454 L 1738.3137769806142 101.59502119768845 L 1738.1099336512566 101.65098623110502 L 1737.904862520238 101.70602699810756 L 1737.6985840945015 101.76013799466523 L 1737.4911190017172 101.81331380972344 L 1737.2824879882214 101.86554912574503 L 1737.072711916942 101.91683871924192 L 1736.861811765311 101.9671774612975 L 1736.649808623168 102.0165603180795 L 1736.4367236906503 102.06498235134342 L 1736.2225782760738 102.11243871892626 L 1736.0073937938016 102.15892467523081 L 1735.7911917621025 102.2044355717002 L 1735.5739938009992 102.24896685728268 L 1735.3558216301071 102.29251407888682 L 1735.1366970664617 102.33507288182676 L 1734.9166420223364 102.37663901025765 L 1734.6956785030522 102.41720830760129 L 1734.4738286047773 102.45677671696174 L 1734.2511145123162 102.49534028153107 L 1734.0275584968929 102.53289514498493 L 1733.8031829139222 102.56943755186829 L 1733.578010200776 102.60496384797091 L 1733.3520628745375 102.63947048069276 L 1733.1253635297514 102.67295399939937 L 1732.897934836163 102.70541105576673 L 1732.6697995364523 102.73683840411627 L 1732.4409804439588 102.76723290173933 L 1732.2115004404016 102.79659150921151 L 1731.9813824735895 102.82491129069649 L 1731.7506495551274 102.85218941423973 L 1731.519324758115 102.87842315205162 L 1731.2874312148392 102.90360988078025 L 1731.0549921144611 102.9277470817737 L 1730.822030700697 102.95083234133202 L 1730.588570269494 102.97286335094847 L 1730.354634166701 102.99383790754045 L 1730.1202457857332 103.01375391366979 L 1729.8854285652333 103.03260937775246 L 1729.6502059867275 103.05040241425777 L 1729.414601572278 103.06713124389691 L 1729.1786388821297 103.08279419380085 L 1728.942341512355 103.09738969768763 L 1728.7057330924938 103.11091629601906 L 1728.4688372831913 103.12337263614656 L 1728.2316777738308 103.13475747244648 L 1727.9942782801656 103.14506966644471 L 1727.7566625419472 103.15430818693042 L 1727.5188543205516 103.16247211005928 L 1727.2808773966026 103.16956061944578 L 1727.0427555675942 103.17557300624486 L 1726.8045126455108 103.18050866922287 L 1726.5661724544466 103.18436711481763 L 1726.3277588282215 103.18714795718779 L 1726.089295608 103.18885091825143 L 1725.8508066399047 103.18947582771386 L 1725.6123157726342 103.18902262308465 L 1725.3738468550764 103.18749134968391 L 1725.1354237339242 103.18488216063768 L 1724.897070251291 103.1811953168627 L 1724.6588102423268 103.17643118704027 L 1724.4206675328335 103.1705902475794 L 1724.1826659368837 103.16367308256918 L 1723.944829254439 103.15568038372034 L 1723.707181268969 103.14661295029609 L 1723.4697457450745 103.13647168903225 L 1723.2325464261098 103.12525761404646 L 1722.9956070318094 103.1129718467369 L 1722.758951255915 103.09961561567005 L 1722.5226027638073 103.08519025645788 L 1722.2865851901383 103.06969721162432 L 1722.0509221364687 103.0531380304609 L 1721.8156371689076 103.03551436887196 L 1721.5807538157555 103.01682798920898 L 1721.3462955651523 102.99708076009435 L 1721.1122858627273 102.97627465623451 L 1720.878748109256 102.95441175822252 L 1720.645705658319 102.93149425232995 L 1720.4131818139674 102.90752443028832 L 1720.1811998283915 102.88250468905984 L 1719.9497828995968 102.85643753059779 L 1719.7189541690834 102.82932556159626 L 1719.4887367195317 102.80117149322962 L 1719.2591535724953 102.77197814088119 L 1719.030227686097 102.7417484238619 L 1718.801981952735 102.71048536511826 L 1718.5744391967924 102.67819209093008 L 1718.3476221723552 102.64487183059789 L 1718.1215535609365 102.61052791611995 L 1717.8962559692095 102.57516378185908 L 1717.6717519267456 102.53878296419921 L 1717.4480638837617 102.50138910119185 L 1717.2252142088757 102.4629859321921 L 1717.0032251868697 102.42357729748485 L 1716.7821190164605 102.38316713790076 L 1716.5619178080813 102.34175949442208 L 1716.3426435816689 102.29935850777868 L 1716.1243182644637 102.25596841803387 L 1715.9069636888155 102.2115935641605 L 1715.6906015900004 102.16623838360692 L 1715.475253604048 102.11990741185345 L 1715.2609412655777 102.07260528195862 L 1715.0476860056447 102.024336724096 L 1714.835509149597 101.97510656508118 L 1714.624431914944 101.92491972788902 L 1714.4144754092326 101.8737812311614 L 1714.2056606279386 101.82169618870542 L 1713.9980084523663 101.76866980898188 L 1713.79153964756 101.71470739458458 L 1713.5862748602285 101.65981434170999 L 1713.382234616679 101.60399613961766 L 1713.179439320766 101.54725837008127 L 1712.9779092518504 101.4896067068305 L 1712.7776645627705 101.43104691498365 L 1712.578725277829 101.37158485047108 L 1712.3811112907883 101.3112264594497 L 1712.1848423628824 101.2499777777083 L 1711.9899381208406 101.18784493006403 L 1711.7964180549245 101.12483412974987 L 1711.6043015169798 101.06095167779335 L 1711.4136077185 100.99620396238643 L 1711.224355728706 100.93059745824668 L 1711.0365644726392 100.86413872596987 L 1710.8502527292685 100.79683441137381 L 1710.665439129613 100.7286912448339 L 1710.482142154879 100.65971604061 L 1710.3003801346108 100.58991569616504 L 1710.1201712448592 100.5192971914753 L 1709.941533506363 100.44786758833243 L 1709.764484782747 100.3756340296372 L 1709.5890427787363 100.30260373868528 L 1709.4152250383847 100.22878401844491 L 1709.2430489433218 100.15418225082661 L 1709.0725317110137 100.07880589594495 L 1708.903690393041 100.00266249137262 L 1708.736541873395 99.92575965138663 L 1708.5711028667886 99.84810506620688 L 1708.4073899169846 99.76970650122719 L 1708.2454193951412 99.69057179623871 L 1708.0852074981758 99.610708864646 L 1707.9267702471448 99.53012569267568 L 1707.770123485641 99.44883033857778 L 1707.61528287821 99.36683093181996 L 1707.4622639087838 99.28413567227457 L 1707.3110818791315 99.20075282939865 L 1707.1617519073302 99.11669074140701 L 1707.0142889262527 99.0319578144384 L 1706.8687076820743 98.9465625217149 L 1706.7250227327977 98.8605134026946 L 1706.5832484467985 98.77381906221773 L 1706.443399001387 98.68648816964605 L 1706.3054883813913 98.5985294579961 L 1706.1695303777583 98.5099517230657 L 1706.0355385861753 98.42076382255453 L 1705.9035264057095 98.33097467517834 L 1705.7735070374692 98.24059325977703 L 1705.6454934832827 98.14962861441684 L 1705.5194985443989 98.05808983548647 L 1705.3955348202064 97.96598607678756 L 1705.2736147069747 97.87332654861922 L 1705.1537503966133 97.78012051685704 L 1705.0359538754533 97.68637730202654 L 1704.9202369230488 97.59210627837106 L 1704.8066111109988 97.49731687291444 L 1704.6950878017892 97.40201856451822 L 1704.5856781476587 97.30622088293381 L 1704.478393089481 97.20993340784955 L 1704.3732433556727 97.11316576793271 L 1704.2702394611197 97.01592763986665 L 1704.1693917061255 96.91822874738313 L 1704.0707101753812 96.82007886028998 L 1703.9742047369584 96.72148779349413 L 1703.8798850413198 96.62246540602011 L 1703.7877605203569 96.52302160002414 L 1703.6978403864446 96.42316631980393 L 1703.6101336315216 96.32290955080431 L 1703.5246490261904 96.22226131861864 L 1703.44139511884 96.12123168798624 L 1703.3603802347923 96.019830761786 L 1703.2816124754675 95.91806868002604 L 1703.205099717576 95.81595561882972 L 1703.1308496123304 95.71350178941809 L 1703.0588695846786 95.6107174370887 L 1702.989166832564 95.50761284019111 L 1702.9217483262034 95.40419830909913 L 1702.8566208073914 95.30048418517967 L 1702.7937907888256 95.19648083975868 L 1702.7332645534555 95.09219867308406 L 1702.675048153854 94.98764811328554 L 1702.6191474116126 94.88283961533202 L 1702.5655679167592 94.77778365998593 L 1702.5143150271986 94.67249075275525 L 1702.4653938681765 94.56697142284297 L 1702.418809331769 94.46123622209414 L 1702.3745660763898 94.35529572394076 L 1702.3326685263285 94.24916052234431 L 1702.2931208713046 94.14284123073652 L 1702.255927066051 94.03634848095798 L 1702.221090829917 93.92969292219489 L 1702.1886156464975 93.82288521991427 L 1702.1585047632834 93.71593605479731 L 1702.1307611913383 93.60885612167144 L 1702.1053877049958 93.50165612844071 L 1702.082386841584 93.39434679501512 L 1702.0617609011695 93.28693885223859 L 1702.0435119463293 93.17944304081588 L 1702.027641801944 93.07187011023856 L 1702.0141520550144 92.96423081771006 L 1702.0030440545042 92.85653592706991 L 1701.9943189112041 92.74879620771745 L 1701.9879774976212 92.6410224335348 L 1701.9840204478915 92.5332253818096 L 1701.9824481577168 92.42541583215717" stroke-miterlimit="10" stroke-width="2.7769845610000004" stroke-dasharray=""/></g><g><g/><text fill="black" stroke="none" font-family="sans-serif" font-size="11pt" font-style="normal" font-weight="normal" text-decoration="normal" x="1690.7960404972266" y="120.717152387" text-anchor="start" dominant-baseline="alphabetic" xml:space="preserve">Repository</text></g></g><g><path fill="white" stroke="black" paint-order="fill stroke markers" d=" M 763.2409797565039 257.932860107 L 779.576183056504 257.932860107 L 779.576183056504 1306.6529119670001 L 763.2409797565039 1306.6529119670001 L 763.2409797565039 257.932860107" stroke-miterlimit="10" stroke-width="1.3612669416666667" stroke-dasharray=""/><path fill="white" stroke="black" paint-order="fill stroke markers" d=" M 1043.9311587835873 320.006632647 L 1060.2663620835874 320.006632647 L 1060.2663620835874 1260.914342727 L 1043.9311587835873 1260.914342727 L 1043.9311587835873 320.006632647" stroke-miterlimit="10" stroke-width="1.3612669416666667" stroke-dasharray=""/><path fill="white" stroke="black" paint-order="fill stroke markers" d=" M 1230.9492491876238 414.750811787 L 1247.2844524876239 414.750811787 L 1247.2844524876239 1215.175773487 L 1230.9492491876238 1215.175773487 L 1230.9492491876238 414.750811787" stroke-miterlimit="10" stroke-width="1.3612669416666667" stroke-dasharray=""/><path fill="white" stroke="black" paint-order="fill stroke markers" d=" M 1422.0475092693946 525.830194227 L 1438.3827125693947 525.830194227 L 1438.3827125693947 878.6705855069998 L 1422.0475092693946 878.6705855069998 L 1422.0475092693946 525.830194227" stroke-miterlimit="10" stroke-width="1.3612669416666667" stroke-dasharray=""/><path fill="white" stroke="black" paint-order="fill stroke markers" d=" M 1717.6642130781836 587.903966767 L 1733.9994163781837 587.903966767 L 1733.9994163781837 633.642536007 L 1717.6642130781836 633.642536007 L 1717.6642130781836 587.903966767" stroke-miterlimit="10" stroke-width="1.3612669416666667" stroke-dasharray=""/><path fill="white" stroke="black" paint-order="fill stroke markers" d=" M 1590.3254415923764 695.716308547 L 1606.6606448923765 695.716308547 L 1606.6606448923765 832.9320162669999 L 1590.3254415923764 832.9320162669999 L 1590.3254415923764 695.716308547" stroke-miterlimit="10" stroke-width="1.3612669416666667" stroke-dasharray=""/><path fill="white" stroke="black" paint-order="fill stroke markers" d=" M 1717.6642130781836 741.454877787 L 1733.9994163781837 741.454877787 L 1733.9994163781837 787.1934470269999 L 1717.6642130781836 787.1934470269999 L 1717.6642130781836 741.454877787" stroke-miterlimit="10" stroke-width="1.3612669416666667" stroke-dasharray=""/><path fill="white" stroke="black" paint-order="fill stroke markers" d=" M 1717.6642130781836 924.4091547469998 L 1733.9994163781837 924.4091547469998 L 1733.9994163781837 970.1477239869997 L 1717.6642130781836 970.1477239869997 L 1717.6642130781836 924.4091547469998" stroke-miterlimit="10" stroke-width="1.3612669416666667" stroke-dasharray=""/><path fill="white" stroke="black" paint-order="fill stroke markers" d=" M 1590.3254415923764 1032.2214965269998 L 1606.6606448923765 1032.2214965269998 L 1606.6606448923765 1169.437204247 L 1590.3254415923764 1169.437204247 L 1590.3254415923764 1032.2214965269998" stroke-miterlimit="10" stroke-width="1.3612669416666667" stroke-dasharray=""/><path fill="white" stroke="black" paint-order="fill stroke markers" d=" M 1717.6642130781836 1077.9600657669998 L 1733.9994163781837 1077.9600657669998 L 1733.9994163781837 1123.698635007 L 1717.6642130781836 1123.698635007 L 1717.6642130781836 1077.9600657669998" stroke-miterlimit="10" stroke-width="1.3612669416666667" stroke-dasharray=""/><path fill="white" stroke="black" paint-order="fill stroke markers" d=" M 763.2409797565039 1414.4652537470001 L 779.576183056504 1414.4652537470001 L 779.576183056504 1750.9704417270004 L 763.2409797565039 1750.9704417270004 L 763.2409797565039 1414.4652537470001" stroke-miterlimit="10" stroke-width="1.3612669416666667" stroke-dasharray=""/><path fill="white" stroke="black" paint-order="fill stroke markers" d=" M 1043.9311587835873 1460.2038229870002 L 1060.2663620835874 1460.2038229870002 L 1060.2663620835874 1688.8966691870005 L 1043.9311587835873 1688.8966691870005 L 1043.9311587835873 1460.2038229870002" stroke-miterlimit="10" stroke-width="1.3612669416666667" stroke-dasharray=""/><path fill="white" stroke="black" paint-order="fill stroke markers" d=" M 1422.0475092693946 1505.9423922270003 L 1438.3827125693947 1505.9423922270003 L 1438.3827125693947 1643.1580999470004 L 1422.0475092693946 1643.1580999470004 L 1422.0475092693946 1505.9423922270003" stroke-miterlimit="10" stroke-width="1.3612669416666667" stroke-dasharray=""/><path fill="white" stroke="black" paint-order="fill stroke markers" d=" M 1717.6642130781836 1551.6809614670003 L 1733.9994163781837 1551.6809614670003 L 1733.9994163781837 1597.4195307070004 L 1717.6642130781836 1597.4195307070004 L 1717.6642130781836 1551.6809614670003" stroke-miterlimit="10" stroke-width="1.3612669416666667" stroke-dasharray=""/><path fill="white" stroke="black" paint-order="fill stroke markers" d=" M 763.2409797565039 1796.7090109670005 L 779.576183056504 1796.7090109670005 L 779.576183056504 2365.1740858069993 L 763.2409797565039 2365.1740858069993 L 763.2409797565039 1796.7090109670005" stroke-miterlimit="10" stroke-width="1.3612669416666667" stroke-dasharray=""/><path fill="white" stroke="black" paint-order="fill stroke markers" d=" M 1043.9311587835873 1858.7827835070004 L 1060.2663620835874 1858.7827835070004 L 1060.2663620835874 2319.4355165669995 L 1043.9311587835873 2319.4355165669995 L 1043.9311587835873 1858.7827835070004" stroke-miterlimit="10" stroke-width="1.3612669416666667" stroke-dasharray=""/><path fill="white" stroke="black" paint-order="fill stroke markers" d=" M 1422.0475092693946 1920.8565560470004 L 1438.3827125693947 1920.8565560470004 L 1438.3827125693947 2273.6969473269996 L 1422.0475092693946 2273.6969473269996 L 1422.0475092693946 1920.8565560470004" stroke-miterlimit="10" stroke-width="1.3612669416666667" stroke-dasharray=""/><path fill="white" stroke="black" paint-order="fill stroke markers" d=" M 1717.6642130781836 1982.9303285870003 L 1733.9994163781837 1982.9303285870003 L 1733.9994163781837 2028.6688978270004 L 1717.6642130781836 2028.6688978270004 L 1717.6642130781836 1982.9303285870003" stroke-miterlimit="10" stroke-width="1.3612669416666667" stroke-dasharray=""/><path fill="white" stroke="black" paint-order="fill stroke markers" d=" M 1590.3254415923764 2090.7426703670003 L 1606.6606448923765 2090.7426703670003 L 1606.6606448923765 2227.958378087 L 1590.3254415923764 2227.958378087 L 1590.3254415923764 2090.7426703670003" stroke-miterlimit="10" stroke-width="1.3612669416666667" stroke-dasharray=""/><path fill="white" stroke="black" paint-order="fill stroke markers" d=" M 1717.6642130781836 2136.481239607 L 1733.9994163781837 2136.481239607 L 1733.9994163781837 2182.219808847 L 1717.6642130781836 2182.219808847 L 1717.6642130781836 2136.481239607" stroke-miterlimit="10" stroke-width="1.3612669416666667" stroke-dasharray=""/><path fill="black" stroke="black" paint-order="fill stroke markers" d=" M 321.2146721982031 177.07360377199998 L 313.0470705482031 177.07360377199998 M 8.997939174414062 158.288119977 L 298.34538757820314 158.288119977 L 313.0470705482031 172.98980294700002 L 313.0470705482031 195.859087567 L 8.997939174414062 195.859087567 L 8.997939174414062 158.288119977 M 298.34538757820314 158.288119977 L 298.34538757820314 172.98980294700002 L 313.0470705482031 172.98980294700002" stroke-miterlimit="10" stroke-width="1.3612669416666667" stroke-dasharray=""/><g><text fill="white" stroke="none" font-family="sans-serif" font-size="11pt" font-style="normal" font-weight="normal" text-decoration="normal" x="31.86722379441406" y="181.15740459699995" text-anchor="start" dominant-baseline="alphabetic" xml:space="preserve">1. Data consumer creates grant request</text></g><g><text fill="black" stroke="none" font-family="sans-serif" font-size="11pt" font-style="normal" font-weight="normal" text-decoration="normal" x="431.8306091804785" y="235.06357548699998" text-anchor="start" dominant-baseline="alphabetic" xml:space="preserve">request grant</text><text fill="black" stroke="none" font-family="sans-serif" font-size="11pt" font-style="normal" font-weight="normal" text-decoration="normal" x="431.8306091804785" y="251.39877878699997" text-anchor="start" dominant-baseline="alphabetic" xml:space="preserve">(required privileges, consumer ID)</text></g><g><path fill="none" stroke="black" paint-order="fill stroke markers" d=" M 321.2146721982031 257.932860107 L 749.7916623728372 257.932860107" stroke-miterlimit="10" stroke-width="1.3612669416666667" stroke-dasharray=""/><g transform="translate(763.2409797565039,257.932860107) translate(-763.2409797565039,-257.932860107)"><path fill="black" stroke="none" paint-order="stroke fill markers" d=" M 749.6283103398372 251.12652539866667 L 763.2409797565039 257.932860107 L 749.6283103398372 264.73919481533335 Z"/></g></g><g><text fill="black" stroke="none" font-family="sans-serif" font-size="11pt" font-style="normal" font-weight="normal" text-decoration="normal" x="801.3564541231706" y="297.137348027" text-anchor="start" dominant-baseline="alphabetic" xml:space="preserve">new grant request</text><text fill="black" stroke="none" font-family="sans-serif" font-size="11pt" font-style="normal" font-weight="normal" text-decoration="normal" x="801.3564541231706" y="313.47255132699996" text-anchor="start" dominant-baseline="alphabetic" xml:space="preserve">(required privileges, consumer ID)</text></g><g><path fill="none" stroke="black" paint-order="fill stroke markers" d=" M 779.576183056504 320.006632647 L 1030.4818413999205 320.006632647" stroke-miterlimit="10" stroke-width="1.3612669416666667" stroke-dasharray=""/><g transform="translate(1043.9311587835873,320.006632647) translate(-1043.9311587835873,-320.006632647)"><path fill="black" stroke="none" paint-order="stroke fill markers" d=" M 1030.3184893669206 313.20029793866667 L 1043.9311587835873 320.006632647 L 1030.3184893669206 326.81296735533334 Z"/></g></g><g><text fill="black" stroke="none" font-family="sans-serif" font-size="11pt" font-style="normal" font-weight="normal" text-decoration="normal" x="1082.046633150254" y="359.21112056699997" text-anchor="start" dominant-baseline="alphabetic" xml:space="preserve">create notification</text><text fill="black" stroke="none" font-family="sans-serif" font-size="11pt" font-style="normal" font-weight="normal" text-decoration="normal" x="1082.046633150254" y="375.54632386699996" text-anchor="start" dominant-baseline="alphabetic" xml:space="preserve">(type:grant request,</text><text fill="black" stroke="none" font-family="sans-serif" font-size="11pt" font-style="normal" font-weight="normal" text-decoration="normal" x="1082.046633150254" y="391.88152716699994" text-anchor="start" dominant-baseline="alphabetic" xml:space="preserve">required privileges,</text><text fill="black" stroke="none" font-family="sans-serif" font-size="11pt" font-style="normal" font-weight="normal" text-decoration="normal" x="1082.046633150254" y="408.21673046699993" text-anchor="start" dominant-baseline="alphabetic" xml:space="preserve">consumer ID)</text></g><g><path fill="none" stroke="black" paint-order="fill stroke markers" d=" M 1060.2663620835874 414.750811787 L 1217.499931803957 414.750811787" stroke-miterlimit="10" stroke-width="1.3612669416666667" stroke-dasharray=""/><g transform="translate(1230.9492491876238,414.750811787) translate(-1230.9492491876238,-414.750811787)"><path fill="black" stroke="none" paint-order="stroke fill markers" d=" M 1217.336579770957 407.94447707866664 L 1230.9492491876238 414.750811787 L 1217.336579770957 421.5571464953333 Z"/></g></g><g><text fill="black" stroke="none" font-family="sans-serif" font-size="11pt" font-style="normal" font-weight="normal" text-decoration="normal" x="1269.0647235542906" y="453.955299707" text-anchor="start" dominant-baseline="alphabetic" xml:space="preserve">create grant request</text><text fill="black" stroke="none" font-family="sans-serif" font-size="11pt" font-style="normal" font-weight="normal" text-decoration="normal" x="1269.0647235542906" y="470.290503007" text-anchor="start" dominant-baseline="alphabetic" xml:space="preserve">(required privileges,</text><text fill="black" stroke="none" font-family="sans-serif" font-size="11pt" font-style="normal" font-weight="normal" text-decoration="normal" x="1269.0647235542906" y="486.625706307" text-anchor="start" dominant-baseline="alphabetic" xml:space="preserve">consumer ID,</text><text fill="black" stroke="none" font-family="sans-serif" font-size="11pt" font-style="normal" font-weight="normal" text-decoration="normal" x="1269.0647235542906" y="502.96090960699996" text-anchor="start" dominant-baseline="alphabetic" xml:space="preserve">provider ID,</text><text fill="black" stroke="none" font-family="sans-serif" font-size="11pt" font-style="normal" font-weight="normal" text-decoration="normal" x="1269.0647235542906" y="519.296112907" text-anchor="start" dominant-baseline="alphabetic" xml:space="preserve">status: pending)</text></g><g><path fill="none" stroke="black" paint-order="fill stroke markers" d=" M 1247.2844524876239 525.830194227 L 1408.5981918857278 525.830194227" stroke-miterlimit="10" stroke-width="1.3612669416666667" stroke-dasharray=""/><g transform="translate(1422.0475092693946,525.830194227) translate(-1422.0475092693946,-525.830194227)"><path fill="black" stroke="none" paint-order="stroke fill markers" d=" M 1408.434839852728 519.0238595186667 L 1422.0475092693946 525.830194227 L 1408.434839852728 532.6365289353333 Z"/></g></g><g><text fill="black" stroke="none" font-family="sans-serif" font-size="11pt" font-style="normal" font-weight="normal" text-decoration="normal" x="1542.9841104067968" y="565.034682147" text-anchor="start" dominant-baseline="alphabetic" xml:space="preserve">store grant</text><text fill="black" stroke="none" font-family="sans-serif" font-size="11pt" font-style="normal" font-weight="normal" text-decoration="normal" x="1542.9841104067968" y="581.369885447" text-anchor="start" dominant-baseline="alphabetic" xml:space="preserve">(pending)</text></g><g><path fill="none" stroke="black" paint-order="fill stroke markers" d=" M 1438.3827125693947 587.903966767 L 1704.2148956945168 587.903966767" stroke-miterlimit="10" stroke-width="1.3612669416666667" stroke-dasharray=""/><g transform="translate(1717.6642130781836,587.903966767) translate(-1717.6642130781836,-587.903966767)"><path fill="black" stroke="none" paint-order="stroke fill markers" d=" M 1704.051543661517 581.0976320586667 L 1717.6642130781836 587.903966767 L 1704.051543661517 594.7103014753334 Z"/></g></g><g><text fill="black" stroke="none" font-family="sans-serif" font-size="11pt" font-style="normal" font-weight="normal" text-decoration="normal" x="1557.651247552793" y="627.108454687" text-anchor="start" dominant-baseline="alphabetic" xml:space="preserve">stored</text></g><g><path fill="none" stroke="black" paint-order="fill stroke markers" d=" M 1717.6642130781836 633.642536007 L 1451.8320299530615 633.642536007" stroke-miterlimit="10" stroke-width="1.3612669416666667" stroke-dasharray="6.53408132"/><g transform="translate(1438.3827125693947,633.642536007) translate(-1438.3827125693947,-633.642536007)"><path fill="black" stroke="none" paint-order="stroke fill markers" d=" M 1451.9953819860614 626.8362012986667 L 1438.3827125693947 633.642536007 L 1451.9953819860614 640.4488707153333 Z"/></g></g><g><text fill="black" stroke="none" font-family="sans-serif" font-size="11pt" font-style="normal" font-weight="normal" text-decoration="normal" x="1466.2796599666276" y="672.847023927" text-anchor="start" dominant-baseline="alphabetic" xml:space="preserve">create log</text><text fill="black" stroke="none" font-family="sans-serif" font-size="11pt" font-style="normal" font-weight="normal" text-decoration="normal" x="1466.2796599666276" y="689.182227227" text-anchor="start" dominant-baseline="alphabetic" xml:space="preserve">(grant request)</text></g><g><path fill="none" stroke="black" paint-order="fill stroke markers" d=" M 1438.3827125693947 695.716308547 L 1576.8761242087096 695.716308547" stroke-miterlimit="10" stroke-width="1.3612669416666667" stroke-dasharray=""/><g transform="translate(1590.3254415923764,695.716308547) translate(-1590.3254415923764,-695.716308547)"><path fill="black" stroke="none" paint-order="stroke fill markers" d=" M 1576.7127721757097 688.9099738386667 L 1590.3254415923764 695.716308547 L 1576.7127721757097 702.5226432553334 Z"/></g></g><g><text fill="black" stroke="none" font-family="sans-serif" font-size="11pt" font-style="normal" font-weight="normal" text-decoration="normal" x="1634.048628936452" y="734.920796467" text-anchor="start" dominant-baseline="alphabetic" xml:space="preserve">store log</text></g><g><path fill="none" stroke="black" paint-order="fill stroke markers" d=" M 1606.6606448923765 741.454877787 L 1704.2148956945168 741.454877787" stroke-miterlimit="10" stroke-width="1.3612669416666667" stroke-dasharray=""/><g transform="translate(1717.6642130781836,741.454877787) translate(-1717.6642130781836,-741.454877787)"><path fill="black" stroke="none" paint-order="stroke fill markers" d=" M 1704.051543661517 734.6485430786666 L 1717.6642130781836 741.454877787 L 1704.051543661517 748.2612124953333 Z"/></g></g><g><text fill="black" stroke="none" font-family="sans-serif" font-size="11pt" font-style="normal" font-weight="normal" text-decoration="normal" x="1641.790213714284" y="780.6593657069999" text-anchor="start" dominant-baseline="alphabetic" xml:space="preserve">stored</text></g><g><path fill="none" stroke="black" paint-order="fill stroke markers" d=" M 1717.6642130781836 787.1934470269999 L 1620.1099622760432 787.1934470269999" stroke-miterlimit="10" stroke-width="1.3612669416666667" stroke-dasharray="6.53408132"/><g transform="translate(1606.6606448923765,787.1934470269999) translate(-1606.6606448923765,-787.1934470269999)"><path fill="black" stroke="none" paint-order="stroke fill markers" d=" M 1620.2733143090431 780.3871123186666 L 1606.6606448923765 787.1934470269999 L 1620.2733143090431 793.9997817353333 Z"/></g></g><g><text fill="black" stroke="none" font-family="sans-serif" font-size="11pt" font-style="normal" font-weight="normal" text-decoration="normal" x="1492.3426329890885" y="826.3979349469998" text-anchor="start" dominant-baseline="alphabetic" xml:space="preserve">logged</text></g><g><path fill="none" stroke="black" paint-order="fill stroke markers" d=" M 1590.3254415923764 832.9320162669999 L 1451.8320299530615 832.9320162669999" stroke-miterlimit="10" stroke-width="1.3612669416666667" stroke-dasharray="6.53408132"/><g transform="translate(1438.3827125693947,832.9320162669999) translate(-1438.3827125693947,-832.9320162669999)"><path fill="black" stroke="none" paint-order="stroke fill markers" d=" M 1451.9953819860614 826.1256815586665 L 1438.3827125693947 832.9320162669999 L 1451.9953819860614 839.7383509753332 Z"/></g></g><g><text fill="black" stroke="none" font-family="sans-serif" font-size="11pt" font-style="normal" font-weight="normal" text-decoration="normal" x="1291.4734454781187" y="872.1365041869998" text-anchor="start" dominant-baseline="alphabetic" xml:space="preserve">grant created</text></g><g><path fill="none" stroke="black" paint-order="fill stroke markers" d=" M 1422.0475092693946 878.6705855069998 L 1260.7337698712906 878.6705855069998" stroke-miterlimit="10" stroke-width="1.3612669416666667" stroke-dasharray="6.53408132"/><g transform="translate(1247.2844524876239,878.6705855069998) translate(-1247.2844524876239,-878.6705855069998)"><path fill="black" stroke="none" paint-order="stroke fill markers" d=" M 1260.8971219042905 871.8642507986665 L 1247.2844524876239 878.6705855069998 L 1260.8971219042905 885.4769202153332 Z"/></g></g><g><text fill="black" stroke="none" font-family="sans-serif" font-size="11pt" font-style="normal" font-weight="normal" text-decoration="normal" x="1429.0992717477475" y="917.8750734269997" text-anchor="start" dominant-baseline="alphabetic" xml:space="preserve">store notification</text></g><g><path fill="none" stroke="black" paint-order="fill stroke markers" d=" M 1247.2844524876239 924.4091547469998 L 1704.2148956945168 924.4091547469998" stroke-miterlimit="10" stroke-width="1.3612669416666667" stroke-dasharray=""/><g transform="translate(1717.6642130781836,924.4091547469998) translate(-1717.6642130781836,-924.4091547469998)"><path fill="black" stroke="none" paint-order="stroke fill markers" d=" M 1704.051543661517 917.6028200386664 L 1717.6642130781836 924.4091547469998 L 1704.051543661517 931.2154894553331 Z"/></g></g><g><text fill="black" stroke="none" font-family="sans-serif" font-size="11pt" font-style="normal" font-weight="normal" text-decoration="normal" x="1462.1021175119076" y="963.6136426669997" text-anchor="start" dominant-baseline="alphabetic" xml:space="preserve">stored</text></g><g><path fill="none" stroke="black" paint-order="fill stroke markers" d=" M 1717.6642130781836 970.1477239869997 L 1260.7337698712906 970.1477239869997" stroke-miterlimit="10" stroke-width="1.3612669416666667" stroke-dasharray="6.53408132"/><g transform="translate(1247.2844524876239,970.1477239869997) translate(-1247.2844524876239,-970.1477239869997)"><path fill="black" stroke="none" paint-order="stroke fill markers" d=" M 1260.8971219042905 963.3413892786664 L 1247.2844524876239 970.1477239869997 L 1260.8971219042905 976.9540586953331 Z"/></g></g><g><text fill="black" stroke="none" font-family="sans-serif" font-size="11pt" font-style="normal" font-weight="normal" text-decoration="normal" x="1370.7305299257423" y="1009.3522119069997" text-anchor="start" dominant-baseline="alphabetic" xml:space="preserve">create log</text><text fill="black" stroke="none" font-family="sans-serif" font-size="11pt" font-style="normal" font-weight="normal" text-decoration="normal" x="1370.7305299257423" y="1025.6874152069997" text-anchor="start" dominant-baseline="alphabetic" xml:space="preserve">(grant request)</text></g><g><path fill="none" stroke="black" paint-order="fill stroke markers" d=" M 1247.2844524876239 1032.2214965269998 L 1576.8761242087096 1032.2214965269998" stroke-miterlimit="10" stroke-width="1.3612669416666667" stroke-dasharray=""/><g transform="translate(1590.3254415923764,1032.2214965269998) translate(-1590.3254415923764,-1032.2214965269998)"><path fill="black" stroke="none" paint-order="stroke fill markers" d=" M 1576.7127721757097 1025.4151618186665 L 1590.3254415923764 1032.2214965269998 L 1576.7127721757097 1039.027831235333 Z"/></g></g><g><text fill="black" stroke="none" font-family="sans-serif" font-size="11pt" font-style="normal" font-weight="normal" text-decoration="normal" x="1634.048628936452" y="1071.425984447" text-anchor="start" dominant-baseline="alphabetic" xml:space="preserve">store log</text></g><g><path fill="none" stroke="black" paint-order="fill stroke markers" d=" M 1606.6606448923765 1077.9600657669998 L 1704.2148956945168 1077.9600657669998" stroke-miterlimit="10" stroke-width="1.3612669416666667" stroke-dasharray=""/><g transform="translate(1717.6642130781836,1077.9600657669998) translate(-1717.6642130781836,-1077.9600657669998)"><path fill="black" stroke="none" paint-order="stroke fill markers" d=" M 1704.051543661517 1071.1537310586666 L 1717.6642130781836 1077.9600657669998 L 1704.051543661517 1084.766400475333 Z"/></g></g><g><text fill="black" stroke="none" font-family="sans-serif" font-size="11pt" font-style="normal" font-weight="normal" text-decoration="normal" x="1641.790213714284" y="1117.164553687" text-anchor="start" dominant-baseline="alphabetic" xml:space="preserve">stored</text></g><g><path fill="none" stroke="black" paint-order="fill stroke markers" d=" M 1717.6642130781836 1123.698635007 L 1620.1099622760432 1123.698635007" stroke-miterlimit="10" stroke-width="1.3612669416666667" stroke-dasharray="6.53408132"/><g transform="translate(1606.6606448923765,1123.698635007) translate(-1606.6606448923765,-1123.698635007)"><path fill="black" stroke="none" paint-order="stroke fill markers" d=" M 1620.2733143090431 1116.8923002986667 L 1606.6606448923765 1123.698635007 L 1620.2733143090431 1130.5049697153331 Z"/></g></g><g><text fill="black" stroke="none" font-family="sans-serif" font-size="11pt" font-style="normal" font-weight="normal" text-decoration="normal" x="1396.7935029482032" y="1162.9031229270001" text-anchor="start" dominant-baseline="alphabetic" xml:space="preserve">logged</text></g><g><path fill="none" stroke="black" paint-order="fill stroke markers" d=" M 1590.3254415923764 1169.437204247 L 1260.7337698712906 1169.437204247" stroke-miterlimit="10" stroke-width="1.3612669416666667" stroke-dasharray="6.53408132"/><g transform="translate(1247.2844524876239,1169.437204247) translate(-1247.2844524876239,-1169.437204247)"><path fill="black" stroke="none" paint-order="stroke fill markers" d=" M 1260.8971219042905 1162.6308695386667 L 1247.2844524876239 1169.437204247 L 1260.8971219042905 1176.2435389553332 Z"/></g></g><g><text fill="black" stroke="none" font-family="sans-serif" font-size="11pt" font-style="normal" font-weight="normal" text-decoration="normal" x="1121.1589988729102" y="1208.6416921670002" text-anchor="start" dominant-baseline="alphabetic" xml:space="preserve">created</text></g><g><path fill="none" stroke="black" paint-order="fill stroke markers" d=" M 1230.9492491876238 1215.175773487 L 1073.7156794672542 1215.175773487" stroke-miterlimit="10" stroke-width="1.3612669416666667" stroke-dasharray="6.53408132"/><g transform="translate(1060.2663620835874,1215.175773487) translate(-1060.2663620835874,-1215.175773487)"><path fill="black" stroke="none" paint-order="stroke fill markers" d=" M 1073.879031500254 1208.3694387786668 L 1060.2663620835874 1215.175773487 L 1073.879031500254 1221.9821081953332 Z"/></g></g><g><text fill="black" stroke="none" font-family="sans-serif" font-size="11pt" font-style="normal" font-weight="normal" text-decoration="normal" x="868.561135519655" y="1254.3802614070003" text-anchor="start" dominant-baseline="alphabetic" xml:space="preserve">grant created</text></g><g><path fill="none" stroke="black" paint-order="fill stroke markers" d=" M 1043.9311587835873 1260.914342727 L 793.0255004401706 1260.914342727" stroke-miterlimit="10" stroke-width="1.3612669416666667" stroke-dasharray="6.53408132"/><g transform="translate(779.576183056504,1260.914342727) translate(-779.576183056504,-1260.914342727)"><path fill="black" stroke="none" paint-order="stroke fill markers" d=" M 793.1888524731706 1254.1080080186669 L 779.576183056504 1260.914342727 L 793.1888524731706 1267.7206774353333 Z"/></g></g><g><text fill="black" stroke="none" font-family="sans-serif" font-size="11pt" font-style="normal" font-weight="normal" text-decoration="normal" x="451.8556259651465" y="1300.1188306470003" text-anchor="start" dominant-baseline="alphabetic" xml:space="preserve">"Grant has been requested"</text></g><g><path fill="none" stroke="black" paint-order="fill stroke markers" d=" M 763.2409797565039 1306.6529119670001 L 334.66398958186977 1306.6529119670001" stroke-miterlimit="10" stroke-width="1.3612669416666667" stroke-dasharray="6.53408132"/><g transform="translate(321.2146721982031,1306.6529119670001) translate(-321.2146721982031,-1306.6529119670001)"><path fill="black" stroke="none" paint-order="stroke fill markers" d=" M 334.8273416148698 1299.846577258667 L 321.2146721982031 1306.6529119670001 L 334.8273416148698 1313.4592466753334 Z"/></g></g><path fill="black" stroke="black" paint-order="fill stroke markers" d=" M 321.2146721982031 1349.9412007120002 L 313.0470705482031 1349.9412007120002 M 8.16760165 1331.155716917 L 298.34538757820314 1331.155716917 L 313.0470705482031 1345.8573998870002 L 313.0470705482031 1368.726684507 L 8.16760165 1368.726684507 L 8.16760165 1331.155716917 M 298.34538757820314 1331.155716917 L 298.34538757820314 1345.8573998870002 L 313.0470705482031 1345.8573998870002" stroke-miterlimit="10" stroke-width="1.3612669416666667" stroke-dasharray=""/><g><text fill="white" stroke="none" font-family="sans-serif" font-size="11pt" font-style="normal" font-weight="normal" text-decoration="normal" x="31.036886269999997" y="1354.0250015370002" text-anchor="start" dominant-baseline="alphabetic" xml:space="preserve">2. Data provider approves grant request</text></g><g><text fill="black" stroke="none" font-family="sans-serif" font-size="11pt" font-style="normal" font-weight="normal" text-decoration="normal" x="501.5664478388119" y="1407.9311724270003" text-anchor="start" dominant-baseline="alphabetic" xml:space="preserve">click on grant request notification</text></g><g><path fill="none" stroke="black" paint-order="fill stroke markers" d=" M 453.3921600617448 1414.4652537470001 L 749.7916623728372 1414.4652537470001" stroke-miterlimit="10" stroke-width="1.3612669416666667" stroke-dasharray=""/><g transform="translate(763.2409797565039,1414.4652537470001) translate(-763.2409797565039,-1414.4652537470001)"><path fill="black" stroke="none" paint-order="stroke fill markers" d=" M 749.6283103398372 1407.658919038667 L 763.2409797565039 1414.4652537470001 L 749.6283103398372 1421.2715884553334 Z"/></g></g><g><text fill="black" stroke="none" font-family="sans-serif" font-size="11pt" font-style="normal" font-weight="normal" text-decoration="normal" x="842.0829861055925" y="1453.6697416670004" text-anchor="start" dominant-baseline="alphabetic" xml:space="preserve">retrieve grant request</text></g><g><path fill="none" stroke="black" paint-order="fill stroke markers" d=" M 779.576183056504 1460.2038229870002 L 1030.4818413999205 1460.2038229870002" stroke-miterlimit="10" stroke-width="1.3612669416666667" stroke-dasharray=""/><g transform="translate(1043.9311587835873,1460.2038229870002) translate(-1043.9311587835873,-1460.2038229870002)"><path fill="black" stroke="none" paint-order="stroke fill markers" d=" M 1030.3184893669206 1453.397488278667 L 1043.9311587835873 1460.2038229870002 L 1030.3184893669206 1467.0101576953334 Z"/></g></g><g><text fill="black" stroke="none" font-family="sans-serif" font-size="11pt" font-style="normal" font-weight="normal" text-decoration="normal" x="1171.4862508620379" y="1499.4083109070004" text-anchor="start" dominant-baseline="alphabetic" xml:space="preserve">retrieve grant request</text></g><g><path fill="none" stroke="black" paint-order="fill stroke markers" d=" M 1060.2663620835874 1505.9423922270003 L 1408.5981918857278 1505.9423922270003" stroke-miterlimit="10" stroke-width="1.3612669416666667" stroke-dasharray=""/><g transform="translate(1422.0475092693946,1505.9423922270003) translate(-1422.0475092693946,-1505.9423922270003)"><path fill="black" stroke="none" paint-order="stroke fill markers" d=" M 1408.434839852728 1499.136057518667 L 1422.0475092693946 1505.9423922270003 L 1408.434839852728 1512.7487269353335 Z"/></g></g><g><text fill="black" stroke="none" font-family="sans-serif" font-size="11pt" font-style="normal" font-weight="normal" text-decoration="normal" x="1508.352778009336" y="1545.1468801470005" text-anchor="start" dominant-baseline="alphabetic" xml:space="preserve">retrieve grant request</text></g><g><path fill="none" stroke="black" paint-order="fill stroke markers" d=" M 1438.3827125693947 1551.6809614670003 L 1704.2148956945168 1551.6809614670003" stroke-miterlimit="10" stroke-width="1.3612669416666667" stroke-dasharray=""/><g transform="translate(1717.6642130781836,1551.6809614670003) translate(-1717.6642130781836,-1551.6809614670003)"><path fill="black" stroke="none" paint-order="stroke fill markers" d=" M 1704.051543661517 1544.874626758667 L 1717.6642130781836 1551.6809614670003 L 1704.051543661517 1558.4872961753335 Z"/></g></g><g><text fill="black" stroke="none" font-family="sans-serif" font-size="11pt" font-style="normal" font-weight="normal" text-decoration="normal" x="1534.8309274233984" y="1590.8854493870006" text-anchor="start" dominant-baseline="alphabetic" xml:space="preserve">grant request</text></g><g><path fill="none" stroke="black" paint-order="fill stroke markers" d=" M 1717.6642130781836 1597.4195307070004 L 1451.8320299530615 1597.4195307070004" stroke-miterlimit="10" stroke-width="1.3612669416666667" stroke-dasharray="6.53408132"/><g transform="translate(1438.3827125693947,1597.4195307070004) translate(-1438.3827125693947,-1597.4195307070004)"><path fill="black" stroke="none" paint-order="stroke fill markers" d=" M 1451.9953819860614 1590.6131959986672 L 1438.3827125693947 1597.4195307070004 L 1451.9953819860614 1604.2258654153336 Z"/></g></g><g><text fill="black" stroke="none" font-family="sans-serif" font-size="11pt" font-style="normal" font-weight="normal" text-decoration="normal" x="1197.9644002761004" y="1636.6240186270006" text-anchor="start" dominant-baseline="alphabetic" xml:space="preserve">grant request</text></g><g><path fill="none" stroke="black" paint-order="fill stroke markers" d=" M 1422.0475092693946 1643.1580999470004 L 1073.7156794672542 1643.1580999470004" stroke-miterlimit="10" stroke-width="1.3612669416666667" stroke-dasharray="6.53408132"/><g transform="translate(1060.2663620835874,1643.1580999470004) translate(-1060.2663620835874,-1643.1580999470004)"><path fill="black" stroke="none" paint-order="stroke fill markers" d=" M 1073.879031500254 1636.3517652386672 L 1060.2663620835874 1643.1580999470004 L 1073.879031500254 1649.9644346553337 Z"/></g></g><g><text fill="black" stroke="none" font-family="sans-serif" font-size="11pt" font-style="normal" font-weight="normal" text-decoration="normal" x="868.561135519655" y="1682.3625878670007" text-anchor="start" dominant-baseline="alphabetic" xml:space="preserve">grant request</text></g><g><path fill="none" stroke="black" paint-order="fill stroke markers" d=" M 1043.9311587835873 1688.8966691870005 L 793.0255004401706 1688.8966691870005" stroke-miterlimit="10" stroke-width="1.3612669416666667" stroke-dasharray="6.53408132"/><g transform="translate(779.576183056504,1688.8966691870005) translate(-779.576183056504,-1688.8966691870005)"><path fill="black" stroke="none" paint-order="stroke fill markers" d=" M 793.1888524731706 1682.0903344786673 L 779.576183056504 1688.8966691870005 L 793.1888524731706 1695.7030038953337 Z"/></g></g><g><text fill="black" stroke="none" font-family="sans-serif" font-size="11pt" font-style="normal" font-weight="normal" text-decoration="normal" x="511.03316079047204" y="1728.1011571070005" text-anchor="start" dominant-baseline="alphabetic" xml:space="preserve">show grant request</text><text fill="black" stroke="none" font-family="sans-serif" font-size="11pt" font-style="normal" font-weight="normal" text-decoration="normal" x="511.03316079047204" y="1744.4363604070006" text-anchor="start" dominant-baseline="alphabetic" xml:space="preserve">(action "Approve" is available)</text></g><g><path fill="none" stroke="black" paint-order="fill stroke markers" d=" M 763.2409797565039 1750.9704417270004 L 466.84147744541144 1750.9704417270004" stroke-miterlimit="10" stroke-width="1.3612669416666667" stroke-dasharray="6.53408132"/><g transform="translate(453.3921600617448,1750.9704417270004) translate(-453.3921600617448,-1750.9704417270004)"><path fill="black" stroke="none" paint-order="stroke fill markers" d=" M 467.00482947841147 1744.1641070186672 L 453.3921600617448 1750.9704417270004 L 467.00482947841147 1757.7767764353337 Z"/></g></g><g><text fill="black" stroke="none" font-family="sans-serif" font-size="11pt" font-style="normal" font-weight="normal" text-decoration="normal" x="536.5986362543392" y="1790.1749296470007" text-anchor="start" dominant-baseline="alphabetic" xml:space="preserve">approve grant request</text></g><g><path fill="none" stroke="black" paint-order="fill stroke markers" d=" M 453.3921600617448 1796.7090109670005 L 749.7916623728372 1796.7090109670005" stroke-miterlimit="10" stroke-width="1.3612669416666667" stroke-dasharray=""/><g transform="translate(763.2409797565039,1796.7090109670005) translate(-763.2409797565039,-1796.7090109670005)"><path fill="black" stroke="none" paint-order="stroke fill markers" d=" M 749.6283103398372 1789.9026762586673 L 763.2409797565039 1796.7090109670005 L 749.6283103398372 1803.5153456753337 Z"/></g></g><g><text fill="black" stroke="none" font-family="sans-serif" font-size="11pt" font-style="normal" font-weight="normal" text-decoration="normal" x="866.5210506807878" y="1835.9134988870005" text-anchor="start" dominant-baseline="alphabetic" xml:space="preserve">approve grant</text><text fill="black" stroke="none" font-family="sans-serif" font-size="11pt" font-style="normal" font-weight="normal" text-decoration="normal" x="866.5210506807878" y="1852.2487021870006" text-anchor="start" dominant-baseline="alphabetic" xml:space="preserve">(grant ID)</text></g><g><path fill="none" stroke="black" paint-order="fill stroke markers" d=" M 779.576183056504 1858.7827835070004 L 1030.4818413999205 1858.7827835070004" stroke-miterlimit="10" stroke-width="1.3612669416666667" stroke-dasharray=""/><g transform="translate(1043.9311587835873,1858.7827835070004) translate(-1043.9311587835873,-1858.7827835070004)"><path fill="black" stroke="none" paint-order="stroke fill markers" d=" M 1030.3184893669206 1851.9764487986672 L 1043.9311587835873 1858.7827835070004 L 1030.3184893669206 1865.5891182153337 Z"/></g></g><g><text fill="black" stroke="none" font-family="sans-serif" font-size="11pt" font-style="normal" font-weight="normal" text-decoration="normal" x="1195.9243154372332" y="1897.9872714270005" text-anchor="start" dominant-baseline="alphabetic" xml:space="preserve">approve grant</text><text fill="black" stroke="none" font-family="sans-serif" font-size="11pt" font-style="normal" font-weight="normal" text-decoration="normal" x="1195.9243154372332" y="1914.3224747270006" text-anchor="start" dominant-baseline="alphabetic" xml:space="preserve">(grant ID)</text></g><g><path fill="none" stroke="black" paint-order="fill stroke markers" d=" M 1060.2663620835874 1920.8565560470004 L 1408.5981918857278 1920.8565560470004" stroke-miterlimit="10" stroke-width="1.3612669416666667" stroke-dasharray=""/><g transform="translate(1422.0475092693946,1920.8565560470004) translate(-1422.0475092693946,-1920.8565560470004)"><path fill="black" stroke="none" paint-order="stroke fill markers" d=" M 1408.434839852728 1914.0502213386671 L 1422.0475092693946 1920.8565560470004 L 1408.434839852728 1927.6628907553336 Z"/></g></g><g><text fill="black" stroke="none" font-family="sans-serif" font-size="11pt" font-style="normal" font-weight="normal" text-decoration="normal" x="1488.8001657046484" y="1960.0610439670004" text-anchor="start" dominant-baseline="alphabetic" xml:space="preserve">update grant</text><text fill="black" stroke="none" font-family="sans-serif" font-size="11pt" font-style="normal" font-weight="normal" text-decoration="normal" x="1488.8001657046484" y="1976.3962472670005" text-anchor="start" dominant-baseline="alphabetic" xml:space="preserve">(grant ID, status: approved)</text></g><g><path fill="none" stroke="black" paint-order="fill stroke markers" d=" M 1438.3827125693947 1982.9303285870003 L 1704.2148956945168 1982.9303285870003" stroke-miterlimit="10" stroke-width="1.3612669416666667" stroke-dasharray=""/><g transform="translate(1717.6642130781836,1982.9303285870003) translate(-1717.6642130781836,-1982.9303285870003)"><path fill="black" stroke="none" paint-order="stroke fill markers" d=" M 1704.051543661517 1976.123993878667 L 1717.6642130781836 1982.9303285870003 L 1704.051543661517 1989.7366632953335 Z"/></g></g><g><text fill="black" stroke="none" font-family="sans-serif" font-size="11pt" font-style="normal" font-weight="normal" text-decoration="normal" x="1551.5274072207617" y="2022.1348165070006" text-anchor="start" dominant-baseline="alphabetic" xml:space="preserve">updated</text></g><g><path fill="none" stroke="black" paint-order="fill stroke markers" d=" M 1717.6642130781836 2028.6688978270004 L 1451.8320299530615 2028.6688978270004" stroke-miterlimit="10" stroke-width="1.3612669416666667" stroke-dasharray="6.53408132"/><g transform="translate(1438.3827125693947,2028.6688978270004) translate(-1438.3827125693947,-2028.6688978270004)"><path fill="black" stroke="none" paint-order="stroke fill markers" d=" M 1451.9953819860614 2021.8625631186671 L 1438.3827125693947 2028.6688978270004 L 1451.9953819860614 2035.4752325353336 Z"/></g></g><g><text fill="black" stroke="none" font-family="sans-serif" font-size="11pt" font-style="normal" font-weight="normal" text-decoration="normal" x="1460.1629836360612" y="2067.8733857470006" text-anchor="start" dominant-baseline="alphabetic" xml:space="preserve">create log</text><text fill="black" stroke="none" font-family="sans-serif" font-size="11pt" font-style="normal" font-weight="normal" text-decoration="normal" x="1460.1629836360612" y="2084.2085890470007" text-anchor="start" dominant-baseline="alphabetic" xml:space="preserve">(grant approved)</text></g><g><path fill="none" stroke="black" paint-order="fill stroke markers" d=" M 1438.3827125693947 2090.7426703670003 L 1576.8761242087096 2090.7426703670003" stroke-miterlimit="10" stroke-width="1.3612669416666667" stroke-dasharray=""/><g transform="translate(1590.3254415923764,2090.7426703670003) translate(-1590.3254415923764,-2090.7426703670003)"><path fill="black" stroke="none" paint-order="stroke fill markers" d=" M 1576.7127721757097 2083.936335658667 L 1590.3254415923764 2090.7426703670003 L 1576.7127721757097 2097.5490050753338 Z"/></g></g><g><text fill="black" stroke="none" font-family="sans-serif" font-size="11pt" font-style="normal" font-weight="normal" text-decoration="normal" x="1634.048628936452" y="2129.947158287" text-anchor="start" dominant-baseline="alphabetic" xml:space="preserve">store log</text></g><g><path fill="none" stroke="black" paint-order="fill stroke markers" d=" M 1606.6606448923765 2136.481239607 L 1704.2148956945168 2136.481239607" stroke-miterlimit="10" stroke-width="1.3612669416666667" stroke-dasharray=""/><g transform="translate(1717.6642130781836,2136.481239607) translate(-1717.6642130781836,-2136.481239607)"><path fill="black" stroke="none" paint-order="stroke fill markers" d=" M 1704.051543661517 2129.6749048986667 L 1717.6642130781836 2136.481239607 L 1704.051543661517 2143.2875743153336 Z"/></g></g><g><text fill="black" stroke="none" font-family="sans-serif" font-size="11pt" font-style="normal" font-weight="normal" text-decoration="normal" x="1641.790213714284" y="2175.685727527" text-anchor="start" dominant-baseline="alphabetic" xml:space="preserve">stored</text></g><g><path fill="none" stroke="black" paint-order="fill stroke markers" d=" M 1717.6642130781836 2182.219808847 L 1620.1099622760432 2182.219808847" stroke-miterlimit="10" stroke-width="1.3612669416666667" stroke-dasharray="6.53408132"/><g transform="translate(1606.6606448923765,2182.219808847) translate(-1606.6606448923765,-2182.219808847)"><path fill="black" stroke="none" paint-order="stroke fill markers" d=" M 1620.2733143090431 2175.4134741386665 L 1606.6606448923765 2182.219808847 L 1620.2733143090431 2189.0261435553334 Z"/></g></g><g><text fill="black" stroke="none" font-family="sans-serif" font-size="11pt" font-style="normal" font-weight="normal" text-decoration="normal" x="1492.3426329890885" y="2221.4242967669998" text-anchor="start" dominant-baseline="alphabetic" xml:space="preserve">logged</text></g><g><path fill="none" stroke="black" paint-order="fill stroke markers" d=" M 1590.3254415923764 2227.958378087 L 1451.8320299530615 2227.958378087" stroke-miterlimit="10" stroke-width="1.3612669416666667" stroke-dasharray="6.53408132"/><g transform="translate(1438.3827125693947,2227.958378087) translate(-1438.3827125693947,-2227.958378087)"><path fill="black" stroke="none" paint-order="stroke fill markers" d=" M 1451.9953819860614 2221.1520433786663 L 1438.3827125693947 2227.958378087 L 1451.9953819860614 2234.7647127953333 Z"/></g></g><g><text fill="black" stroke="none" font-family="sans-serif" font-size="11pt" font-style="normal" font-weight="normal" text-decoration="normal" x="1210.5914525832293" y="2267.1628660069996" text-anchor="start" dominant-baseline="alphabetic" xml:space="preserve">approved</text></g><g><path fill="none" stroke="black" paint-order="fill stroke markers" d=" M 1422.0475092693946 2273.6969473269996 L 1073.7156794672542 2273.6969473269996" stroke-miterlimit="10" stroke-width="1.3612669416666667" stroke-dasharray="6.53408132"/><g transform="translate(1060.2663620835874,2273.6969473269996) translate(-1060.2663620835874,-2273.6969473269996)"><path fill="black" stroke="none" paint-order="stroke fill markers" d=" M 1073.879031500254 2266.890612618666 L 1060.2663620835874 2273.6969473269996 L 1073.879031500254 2280.503282035333 Z"/></g></g><g><text fill="black" stroke="none" font-family="sans-serif" font-size="11pt" font-style="normal" font-weight="normal" text-decoration="normal" x="881.1881878267839" y="2312.9014352469994" text-anchor="start" dominant-baseline="alphabetic" xml:space="preserve">approved</text></g><g><path fill="none" stroke="black" paint-order="fill stroke markers" d=" M 1043.9311587835873 2319.4355165669995 L 793.0255004401706 2319.4355165669995" stroke-miterlimit="10" stroke-width="1.3612669416666667" stroke-dasharray="6.53408132"/><g transform="translate(779.576183056504,2319.4355165669995) translate(-779.576183056504,-2319.4355165669995)"><path fill="black" stroke="none" paint-order="stroke fill markers" d=" M 793.1888524731706 2312.629181858666 L 779.576183056504 2319.4355165669995 L 793.1888524731706 2326.241851275333 Z"/></g></g><g><text fill="black" stroke="none" font-family="sans-serif" font-size="11pt" font-style="normal" font-weight="normal" text-decoration="normal" x="493.49556313422204" y="2358.6400044869993" text-anchor="start" dominant-baseline="alphabetic" xml:space="preserve">"Grant request has been approved"</text></g><g><path fill="none" stroke="black" paint-order="fill stroke markers" d=" M 763.2409797565039 2365.1740858069993 L 466.84147744541144 2365.1740858069993" stroke-miterlimit="10" stroke-width="1.3612669416666667" stroke-dasharray="6.53408132"/><g transform="translate(453.3921600617448,2365.1740858069993) translate(-453.3921600617448,-2365.1740858069993)"><path fill="black" stroke="none" paint-order="stroke fill markers" d=" M 467.00482947841147 2358.367751098666 L 453.3921600617448 2365.1740858069993 L 467.00482947841147 2371.9804205153328 Z"/></g></g></g><g/><g/><g/><g/><g/><g/><g/><g/></g></svg>