<svg xmlns="http://www.w3.org/2000/svg" xmlns:xlink="http://www.w3.org/1999/xlink" version="1.1" width="1835.5197346717696" height="2602.0345336569985"><desc>actor%20Data%20Provider%0A%23actor%20Data%20Consumer%0Aparticipant%20Platform%20Core%0Aparticipantgroup%20%23FFF2CC%20Data%20Protection%20Cockpit%20(DPC)%20%0Aparticipant%20UI%20%23FFF2CC%0Aparticipant%20API%20%23FFF2CC%0A%23participant%20Grant%20Service%20%23d5e8d4%0Aparticipant%20Notification%20Service%20%23yellow%0A%23participant%20Participant%20Service%20%23lightblue%0Aparticipant%20Log%20Service%20%23e1d5e7%0Adatabase%20Repository%20%23lightgray%0Aend%0A%0A%0Aautoactivation%20%0A%0Anote%20left%20of%20Data%20Provider%3A1.%20Data%20provider%20creates%20a%20data%20modification%20request%20to%20the%20platform%0A%0A%0AData%20Provider%20-%3E%20UI%3A%20create%20request%5Cn(data%20modification%20request)%0A%0A%0A%0AUI%20-%3E%20API%3A%20new%20request%5Cn(data%20modification%20request)%0AAPI%20-%3E%20Notification%20Service%3A%20new%20request%5Cn(data%20modification%20request)%0ANotification%20Service%20-%3E%20Repository%3A%20store%20notification%5Cn(data%20modification%20request%2C%20status%3A%20pending)%0ARepository%20--%3E%20Notification%20Service%3A%20stored%0ANotification%20Service%20-%3E%20Log%20Service%3A%20create%20log%5Cn(data%20modification%20request)%0ALog%20Service%20-%3E%20Repository%3A%20store%20log%0ARepository%20--%3E%20Log%20Service%3A%20stored%0ALog%20Service%20--%3E%20Notification%20Service%3A%20logged%0ANotification%20Service%20--%3E%20API%3A%20created%0AAPI%20--%3E%20UI%3A%20created%0AUI%20--%3E%20Data%20Provider%3A%20%22Data%20modification%20request%20has%20been%20created%22%0A%0A%0A%0A%0A%0A%0A%0Anote%20left%20of%20Data%20Provider%3A2.%20Platform%20pulls%20the%20new%20notifications%0A%0Aopt%20Optional%0A%0ANotification%20Service%20-%3E%20Platform%20Core%3ANew%20notification%20alert%20(callback)%0APlatform%20Core%20--%3E%20Notification%20Service%3A%0Aend%0A%0APlatform%20Core%20-%3E%20API%3A%20pull%20notifications%0AAPI%20-%3E%20Notification%20Service%3A%20get%20new%20notifications%0ANotification%20Service%20-%3E%20Repository%3A%20retrieve%20notifications%0ARepository%20--%3E%20Notification%20Service%3A%20notifications%0ANotification%20Service%20--%3E%20API%3A%20notifications%0AAPI%20--%3E%20Platform%20Core%3A%20new%20notifications%0A%0A%0A%0A%0A%0A%0Anote%20left%20of%20Data%20Provider%3A3.%20Platform%20modifies%20data%20as%20requested%0A%0APlatform%20Core%20-%3E%20Platform%20Core%3A%20modify%20data%0APlatform%20Core%20--%3E%20Platform%20Core%3A%0APlatform%20Core%20-%3E%20API%3A%20create%20log%5Cn(data%20modified)%0AAPI%20-%3E%3E%20Log%20Service%3A%20create%20log%5Cn(data%20modified)%0ALog%20Service%20-%3E%20Repository%3A%20store%20log%0ARepository%20--%3E%20Log%20Service%3A%20stored%0ALog%20Service%20--%3E%3E%20API%3A%20logged%0AAPI--%3E%20Platform%20Core%3A%20log%20entry%20received%0A%0APlatform%20Core%20-%3E%20API%3A%20create%20notification%5Cn(reply%20to%20data%20notification%20request)%0AAPI%20-%3E%3E%20Notification%20Service%3A%20new%20notification%0ANotification%20Service%20-%3E%20Repository%3A%20store%20notification%0ARepository%20--%3E%20Notification%20Service%3A%20stored%0ANotification%20Service%20--%3E%3E%20API%20%3A%20created%0AAPI%20--%3E%20Platform%20Core%3A%20notification%20received%0A%0A%0A%0A%0A%0A%0A%0Anote%20left%20of%20Data%20Provider%3A4.%20Data%20provider%20is%20informed%20about%20data%20modification%0A%0AData%20Provider%20-%3E%20UI%3A%20see%20new%20notifications%0AUI%20-%3E%20API%20%3A%20pull%20new%20notifications%0AAPI%20-%3E%20Notification%20Service%20%3A%20get%20notifications%0ANotification%20Service%20-%3E%20Repository%3A%20retrieve%20notifications%0ARepository%20--%3E%20Notification%20Service%20%3A%20notifications%0ANotification%20Service%20--%3E%20API%3A%20notifications%0AAPI%20--%3E%20UI%3A%20new%20notifications%0AUI%20--%3E%20Data%20Provider%3A%20List%20of%20new%20notifications%0A%0A%0A%0A</desc><defs/><g><g/><g/><g/><g/><g/><g/><g/><g/><g/><g/><g/><g/><g/><g/><g/><g/><g/><g/><g/><g/><g/><g/><g/><g/><g/><g/><g/><g/><g/><g/><g/><g/><g/><g/><g/><g/><g/><g/><g/><g/><g/><g/><g/><g/><g/><g/><g/><g/><g/><g/><g/><g/><g/><g/><g/><g/><g/><g/><g/><g/><g/><g/><g/><g/><g/><g/><g/><g/><g/><g/><g/><g/><g/><g/><g/><g/><g/><g/><g/><g/><g/><g/><g/><g/><g/><g/><g/><g/><g/><g/><g/><g/><g/><g/><g/><g/><g/><g/><g/><g/><g/><g/><g/><g/><g/><g/><g/><g/><g/><g/><g/><g/><g/><g/><g/><g/><g/><g/><g/><g/><g/><g/><g/><g/><g/><g/><g/><g/><g/><g/><g/><g/><g/><g/><g/><g/><g/><g/><g/><g/><g/><g/><g/><g/><g/><g/><g/><g/><g/><g/><g/><g/><g/><g/><g/><g/><g/><g/><g/><g/><g/><g/><g/><g/><g/><g/><g/><g/><g/><g/><g/><g/><g/><g/><g/><g/><g/><g/><g/><g/><g/><g/><g/><g/><g/><g/><g/><g/><g/><g/><g/><g/><g/><g/><g/><g/><g/><g/><g/><g/><g/><g/><g/><g/><g/><g/><g/><g/><g/><g/><g/><g/><g/><g/><g/><g/><g/><g/><g/><g/><g/><g/><g/><g/><g/><g/><g/><g/><g/><g/><g/><g/><g/><g/><g/><g/><g/><g/><g/><g/><g/><g/><g/><g/><g/><g/><g/><g/><g/><g/><g/><g/><g/><g/><g/><g/><g/><g/><g/><g/><g/><g/><g/><g/><g/><g/><g/><g/><g/><g/><g/><g/><g/><g/><g/><g/><g/><g/><g/><g/><g/><g/><g/><g/><g/><g/><g><rect fill="white" stroke="none" x="0" y="0" width="1835" height="2610"/></g><g><g><path fill="#FFF2CC" stroke="black" paint-order="fill stroke markers" d=" M 871.8580695561458 9.556093930499998 L 1827.3521330217695 9.556093930499998 L 1827.3521330217695 2602.0345336569985 L 871.8580695561458 2602.0345336569985 L 871.8580695561458 9.556093930499998 Z" stroke-miterlimit="10" stroke-width="1.3612669416666667" stroke-dasharray=""/></g><g><text fill="black" stroke="none" font-family="sans-serif" font-size="11pt" font-style="normal" font-weight="normal" text-decoration="normal" x="1248.1734988109304" y="32.4253785505" text-anchor="start" dominant-baseline="alphabetic" xml:space="preserve">Data Protection Cockpit (DPC) </text></g></g><g><path fill="none" stroke="black" paint-order="fill stroke markers" d=" M 496.40430842867187 125.617713377 L 496.40430842867187 2602.0345336569985" stroke-miterlimit="10" stroke-width="1.3612669416666667" stroke-dasharray="12.565541,5.445067766666667"/><path fill="none" stroke="black" paint-order="fill stroke markers" d=" M 673.356423088698 125.617713377 L 673.356423088698 2602.0345336569985" stroke-miterlimit="10" stroke-width="1.3612669416666667" stroke-dasharray="12.565541,5.445067766666667"/><path fill="none" stroke="black" paint-order="fill stroke markers" d=" M 905.079360988306 125.617713377 L 905.079360988306 2602.0345336569985" stroke-miterlimit="10" stroke-width="1.3612669416666667" stroke-dasharray="12.565541,5.445067766666667"/><path fill="none" stroke="black" paint-order="fill stroke markers" d=" M 1138.5398036872643 125.617713377 L 1138.5398036872643 2602.0345336569985" stroke-miterlimit="10" stroke-width="1.3612669416666667" stroke-dasharray="12.565541,5.445067766666667"/><path fill="none" stroke="black" paint-order="fill stroke markers" d=" M 1372.0002463862227 125.617713377 L 1372.0002463862227 2602.0345336569985" stroke-miterlimit="10" stroke-width="1.3612669416666667" stroke-dasharray="12.565541,5.445067766666667"/><path fill="none" stroke="black" paint-order="fill stroke markers" d=" M 1605.460689085181 125.617713377 L 1605.460689085181 2602.0345336569985" stroke-miterlimit="10" stroke-width="1.3612669416666667" stroke-dasharray="12.565541,5.445067766666667"/><path fill="none" stroke="black" paint-order="fill stroke markers" d=" M 1784.1487571408124 125.617713377 L 1784.1487571408124 2602.0345336569985" stroke-miterlimit="10" stroke-width="1.3612669416666667" stroke-dasharray="12.565541,5.445067766666667"/></g><g><g><path fill="white" stroke="black" paint-order="fill stroke markers" d=" M 505.71537430967186 56.51980341800001 A 9.311065881 9.311065881 0 1 1 505.7153696541393 56.51049235367085 M 496.40430842867187 65.83086929900001 L 496.40430842867187 85.75981732500001 M 484.64296205267186 73.01835875100001 L 508.1656548046719 73.01835875100001 M 496.40430842867187 85.75981732500001 L 484.64296205267186 104.38194908700001 M 496.40430842867187 85.75981732500001 L 508.1656548046719 104.38194908700001" stroke-miterlimit="10" stroke-width="2.7769845610000004" stroke-dasharray=""/></g><g><g/><text fill="black" stroke="none" font-family="sans-serif" font-size="11pt" font-style="normal" font-weight="normal" text-decoration="normal" x="451.5904427670508" y="120.717152387" text-anchor="start" dominant-baseline="alphabetic" xml:space="preserve">Data Provider</text></g><path fill="none" stroke="none"/><g><path fill="white" stroke="black" paint-order="fill stroke markers" d=" M 610.4179981991159 81.51266446700001 L 736.29484797828 81.51266446700001 L 736.29484797828 125.617713377 L 610.4179981991159 125.617713377 L 610.4179981991159 81.51266446700001 Z" stroke-miterlimit="10" stroke-width="2.613632528" stroke-dasharray=""/></g><g><g/><text fill="black" stroke="none" font-family="sans-serif" font-size="11pt" font-style="normal" font-weight="normal" text-decoration="normal" x="628.1416937796159" y="109.282510077" text-anchor="start" dominant-baseline="alphabetic" xml:space="preserve">Platform Core</text></g><path fill="none" stroke="none"/><g><path fill="#FFF2CC" stroke="black" paint-order="fill stroke markers" d=" M 880.0256712061458 81.51266446700001 L 930.1330507704662 81.51266446700001 L 930.1330507704662 125.617713377 L 880.0256712061458 125.617713377 L 880.0256712061458 81.51266446700001 Z" stroke-miterlimit="10" stroke-width="2.613632528" stroke-dasharray=""/></g><g><g/><text fill="black" stroke="none" font-family="sans-serif" font-size="11pt" font-style="normal" font-weight="normal" text-decoration="normal" x="897.7493667866459" y="109.282510077" text-anchor="start" dominant-baseline="alphabetic" xml:space="preserve">UI</text></g><path fill="none" stroke="none"/><g><path fill="#FFF2CC" stroke="black" paint-order="fill stroke markers" d=" M 1109.0015100232683 81.51266446700001 L 1168.0780973512606 81.51266446700001 L 1168.0780973512606 125.617713377 L 1109.0015100232683 125.617713377 L 1109.0015100232683 81.51266446700001 Z" stroke-miterlimit="10" stroke-width="2.613632528" stroke-dasharray=""/></g><g><g/><text fill="black" stroke="none" font-family="sans-serif" font-size="11pt" font-style="normal" font-weight="normal" text-decoration="normal" x="1126.7252056037682" y="109.282510077" text-anchor="start" dominant-baseline="alphabetic" xml:space="preserve">API</text></g><path fill="none" stroke="none"/><g><path fill="yellow" stroke="black" paint-order="fill stroke markers" d=" M 1291.538574731504 81.51266446700001 L 1452.4619180409416 81.51266446700001 L 1452.4619180409416 125.617713377 L 1291.538574731504 125.617713377 L 1291.538574731504 81.51266446700001 Z" stroke-miterlimit="10" stroke-width="2.613632528" stroke-dasharray=""/></g><g><g/><text fill="black" stroke="none" font-family="sans-serif" font-size="11pt" font-style="normal" font-weight="normal" text-decoration="normal" x="1309.262270312004" y="109.282510077" text-anchor="start" dominant-baseline="alphabetic" xml:space="preserve">Notification Service</text></g><path fill="none" stroke="none"/><g><path fill="#e1d5e7" stroke="black" paint-order="fill stroke markers" d=" M 1549.029069615521 81.51266446700001 L 1661.8923085548413 81.51266446700001 L 1661.8923085548413 125.617713377 L 1549.029069615521 125.617713377 L 1549.029069615521 81.51266446700001 Z" stroke-miterlimit="10" stroke-width="2.613632528" stroke-dasharray=""/></g><g><g/><text fill="black" stroke="none" font-family="sans-serif" font-size="11pt" font-style="normal" font-weight="normal" text-decoration="normal" x="1566.7527651960208" y="109.282510077" text-anchor="start" dominant-baseline="alphabetic" xml:space="preserve">Log Service</text></g><g><path fill="lightgray" stroke="black" paint-order="fill stroke markers" d=" M 1760.2993603228124 93.600714909 L 1760.2993603228124 59.29678797900001 L 1807.9981539588125 59.29678797900001 L 1807.9981539588125 93.600714909" stroke-miterlimit="10" stroke-width="2.7769845610000004" stroke-dasharray=""/><path fill="lightgray" stroke="black" paint-order="fill stroke markers" d=" M 1807.9981539588125 58.104318138100005 L 1807.9969614989088 58.21212868301663 L 1807.9933842384428 58.319928446968596 L 1807.9874225351373 58.42770665006936 L 1807.9790769851581 58.53545251458841 L 1807.968348423053 58.64315526602909 L 1807.955237921669 58.75080413420601 L 1807.9397467920458 58.85838835432205 L 1807.9218765832832 58.96589716804486 L 1807.9016290823872 59.073319824582654 L 1807.879006314091 59.1806455817593 L 1807.8540105406526 59.28786370708852 L 1807.8266442616286 59.394963478847124 L 1807.796910213624 59.501934187147185 L 1807.7648113700188 59.60876513500702 L 1807.7303509406706 59.715445639420864 L 1807.6935323715938 59.82196503242718 L 1807.6543593446147 59.92831266217543 L 1807.6128357770028 60.03447789399126 L 1807.5689658210808 60.14045011143997 L 1807.5227538638076 60.24621871738811 L 1807.4742045263401 60.35177313506323 L 1807.4233226635722 60.45710280911153 L 1807.370113363647 60.56219720665338 L 1807.314581947451 60.6670458183366 L 1807.256733968079 60.771638159387386 L 1807.1965752102808 60.875963770658814 L 1807.134111689882 60.980012219676674 L 1807.069349653183 61.08377310168279 L 1807.002295576333 61.18723604067541 L 1806.932956164684 61.29039069044686 L 1806.8613383521194 61.393226735618136 L 1806.7874493003608 61.4957338926704 L 1806.7112963982515 61.597901910973384 L 1806.6328872610188 61.69972057381039 L 1806.5522297295108 61.80117969939998 L 1806.4693318694133 61.902269141914154 L 1806.3842019704434 62.00297879249289 L 1806.29684854552 62.10329858025506 L 1806.207280329913 62.20321847330548 L 1806.1155062803687 62.302728479738136 L 1806.0215355742164 62.40181864863528 L 1805.925377608448 62.500479071062614 L 1805.8270419987796 62.5986998810601 L 1805.726538578691 62.6964712566286 L 1805.6238773984396 62.793783420712025 L 1805.5190687240586 62.89062664217507 L 1805.4121230363278 62.98699123677628 L 1805.303051029727 63.08286756813651 L 1805.1918636113655 63.178246048702505 L 1805.078571899893 63.2731171407057 L 1804.963187224386 63.36747135711595 L 1804.845721123216 63.46129926259025 L 1804.7261853428952 63.55459147441624 L 1804.6045918369018 63.647338663450476 L 1804.4809527644854 63.73953155505134 L 1804.35528048945 63.83116093000651 L 1804.2275875789185 63.92221762545484 L 1804.0978868020757 64.01269253580267 L 1803.9661911288906 64.10257661363435 L 1803.8325137288214 64.19186087061702 L 1803.6968679694965 64.28053637839936 L 1803.5592674153786 64.36859426950451 L 1803.4197258264087 64.45602573821674 L 1803.2782571566295 64.54282204146202 L 1803.1348755527897 64.62897449968237 L 1802.9895953529303 64.71447449770376 L 1802.8424310849507 64.79931348559764 L 1802.6933974651545 64.8834829795359 L 1802.5425093967797 64.96697456263931 L 1802.3897819685074 65.04977988581912 L 1802.235230452953 65.13189066861203 L 1802.0788703051394 65.21329870000817 L 1801.9207171609512 65.29399583927226 L 1801.760786835571 65.37397401675761 L 1801.5990953218977 65.45322523471312 L 1801.4356587889483 65.53174156808304 L 1801.2704935802399 65.60951516529946 L 1801.1036162121557 65.68653824906747 L 1800.9350433722932 65.76280311714287 L 1800.764791917796 65.83830214310242 L 1800.5928788736678 65.91302777710644 L 1800.4193214310699 65.98697254665379 L 1800.2441369456014 66.06012905732914 L 1800.0673429355654 66.13248999354239 L 1799.8889570802153 66.20404811926022 L 1799.708997217988 66.27479627872968 L 1799.52748134472 66.3447273971938 L 1799.344427611847 66.41383448159898 L 1799.15985432459 66.4821106212944 L 1798.973779940124 66.54954898872295 L 1798.786223065732 66.61614284010412 L 1798.5972024569453 66.68188551610825 L 1798.4067370156674 66.74677044252253 L 1798.2148457882836 66.81079113090838 L 1798.0215479637568 66.87394117925032 L 1797.8268628717083 66.93621427259615 L 1797.630809980485 66.99760418368842 L 1797.433408895213 67.05810477358717 L 1797.2346793558359 67.11770999228384 L 1797.034641235142 67.17641387930622 L 1796.8333145367772 67.23421056431454 L 1796.630719393243 67.29109426768845 L 1796.4268760638854 67.34705930110503 L 1796.221804932867 67.40210006810757 L 1796.0155265071303 67.45621106466523 L 1795.808061414346 67.50938687972345 L 1795.5994304008502 67.56162219574504 L 1795.3896543295707 67.61291178924193 L 1795.1787541779397 67.6632505312975 L 1794.9667510357967 67.71263338807951 L 1794.753666103279 67.76105542134341 L 1794.5395206887026 67.80851178892625 L 1794.3243362064304 67.85499774523082 L 1794.1081341747313 67.9005086417002 L 1793.890936213628 67.94503992728269 L 1793.672764042736 67.98858714888684 L 1793.4536394790905 68.03114595182676 L 1793.2335844349652 68.07271208025765 L 1793.012620915681 68.11328137760128 L 1792.790771017406 68.15284978696175 L 1792.568056924945 68.19141335153107 L 1792.3445009095217 68.22896821498495 L 1792.120125326551 68.2655106218683 L 1791.8949526134047 68.30103691797092 L 1791.6690052871663 68.33554355069278 L 1791.4423059423802 68.36902706939938 L 1791.2148772487917 68.40148412576673 L 1790.986741949081 68.43291147411628 L 1790.7579228565876 68.46330597173935 L 1790.5284428530304 68.4926645792115 L 1790.2983248862183 68.52098436069649 L 1790.0675919677562 68.54826248423974 L 1789.836267170744 68.57449622205164 L 1789.604373627468 68.59968295078025 L 1789.37193452709 68.62382015177371 L 1789.1389731133258 68.64690541133201 L 1788.905512682123 68.66893642094847 L 1788.67157657933 68.68991097754045 L 1788.437188198362 68.70982698366979 L 1788.202370977862 68.72868244775246 L 1787.9671483993563 68.74647548425779 L 1787.7315439849067 68.76320431389692 L 1787.4955812947585 68.77886726380085 L 1787.2592839249837 68.79346276768764 L 1787.0226755051226 68.80698936601907 L 1786.78577969582 68.81944570614655 L 1786.5486201864596 68.83083054244649 L 1786.3112206927944 68.84114273644471 L 1786.073604954576 68.85038125693043 L 1785.8357967331804 68.8585451800593 L 1785.5978198092314 68.86563368944577 L 1785.359697980223 68.87164607624486 L 1785.1214550581396 68.87658173922287 L 1784.8831148670754 68.88044018481763 L 1784.6447012408503 68.8832210271878 L 1784.4062380206287 68.88492398825143 L 1784.1677490525335 68.88554889771386 L 1783.929258185263 68.88509569308466 L 1783.6907892677052 68.88356441968392 L 1783.452366146553 68.88095523063768 L 1783.21401266392 68.87726838686271 L 1782.9757526549556 68.87250425704028 L 1782.7376099454623 68.86666331757941 L 1782.4996083495125 68.85974615256919 L 1782.2617716670677 68.85175345372033 L 1782.0241236815978 68.8426860202961 L 1781.7866881577033 68.83254475903225 L 1781.5494888387386 68.82133068404647 L 1781.3125494444382 68.8090449167369 L 1781.0758936685438 68.79568868567006 L 1780.839545176436 68.78126332645789 L 1780.6035276027671 68.76577028162431 L 1780.3678645490975 68.7492111004609 L 1780.1325795815364 68.73158743887197 L 1779.8976962283843 68.71290105920899 L 1779.6632379777811 68.69315383009435 L 1779.429228275356 68.6723477262345 L 1779.195690521885 68.65048482822252 L 1778.9626480709478 68.62756732232997 L 1778.7301242265962 68.60359750028833 L 1778.4981422410203 68.57857775905984 L 1778.2667253122256 68.55251060059778 L 1778.0358965817122 68.52539863159627 L 1777.8056791321605 68.49724456322961 L 1777.576095985124 68.46805121088119 L 1777.3471700987259 68.4378214938619 L 1777.118924365364 68.40655843511826 L 1776.8913816094212 68.3742651609301 L 1776.664564584984 68.3409449005979 L 1776.4384959735653 68.30660098611995 L 1776.2131983818383 68.27123685185907 L 1775.9886943393744 68.23485603419923 L 1775.7650062963905 68.19746217119186 L 1775.5421566215045 68.1590590021921 L 1775.3201675994985 68.11965036748485 L 1775.0990614290893 68.07924020790075 L 1774.87886022071 68.03783256442209 L 1774.6595859942977 67.99543157777869 L 1774.4412606770925 67.95204148803388 L 1774.2239061014443 67.90766663416049 L 1774.0075440026292 67.86231145360694 L 1773.7921960166768 67.81598048185344 L 1773.5778836782065 67.76867835195861 L 1773.3646284182735 67.72040979409601 L 1773.152451562226 67.67117963508119 L 1772.9413743275727 67.62099279788902 L 1772.7314178218614 67.56985430116141 L 1772.5226030405674 67.51776925870541 L 1772.3149508649951 67.46474287898188 L 1772.1084820601889 67.41078046458458 L 1771.9032172728573 67.35588741171 L 1771.6991770293077 67.30006920961766 L 1771.4963817333949 67.24333144008128 L 1771.2948516644792 67.18567977683051 L 1771.0946069753993 67.12711998498365 L 1770.895667690458 67.06765792047108 L 1770.6980537034171 67.0072995294497 L 1770.5017847755112 66.9460508477083 L 1770.3068805334694 66.88391800006403 L 1770.1133604675533 66.82090719974988 L 1769.9212439296086 66.75702474779337 L 1769.730550131129 66.69227703238643 L 1769.541298141335 66.62667052824669 L 1769.353506885268 66.56021179596986 L 1769.1671951418973 66.4929074813738 L 1768.982381542242 66.4247643148339 L 1768.7990845675079 66.35578911060999 L 1768.6173225472396 66.28598876616503 L 1768.437113657488 66.21537026147531 L 1768.2584759189917 66.14394065833244 L 1768.081427195376 66.07170709963721 L 1767.905985191365 65.99867680868529 L 1767.7321674510135 65.92485708844492 L 1767.5599913559506 65.8502553208266 L 1767.3894741236425 65.77487896594495 L 1767.2206328056698 65.69873556137263 L 1767.0534842860238 65.62183272138664 L 1766.8880452794174 65.5441781362069 L 1766.7243323296134 65.46577957122719 L 1766.56236180777 65.38664486623871 L 1766.4021499108046 65.30678193464601 L 1766.2437126597736 65.22619876267568 L 1766.0870658982699 65.14490340857778 L 1765.932225290839 65.06290400181996 L 1765.7792063214126 64.98020874227457 L 1765.6280242917603 64.89682589939866 L 1765.478694319959 64.81276381140702 L 1765.3312313388815 64.7280308844384 L 1765.185650094703 64.64263559171489 L 1765.0419651454265 64.5565864726946 L 1764.9001908594273 64.46989213221772 L 1764.7603414140158 64.38256123964607 L 1764.6224307940201 64.29460252799609 L 1764.486472790387 64.2060247930657 L 1764.3524809988041 64.11683689255453 L 1764.2204688183383 64.02704774517835 L 1764.090449450098 63.93666632977704 L 1763.9624358959115 63.84570168441684 L 1763.8364409570277 63.75416290548648 L 1763.7124772328352 63.66205914678757 L 1763.5905571196035 63.56939961861922 L 1763.470692809242 63.47619358685704 L 1763.352896288082 63.38245037202654 L 1763.2371793356776 63.288179348371074 L 1763.1235535236276 63.19338994291445 L 1763.012030214418 63.09809163451822 L 1762.9026205602875 63.00229395293381 L 1762.7953355021098 62.90600647784956 L 1762.6901857683015 62.80923883793272 L 1762.5871818737485 62.71200070986665 L 1762.4863341187543 62.61430181738313 L 1762.38765258801 62.516151930289986 L 1762.2911471495872 62.417560863494145 L 1762.1968274539486 62.318538476020116 L 1762.1047029329857 62.219094670024134 L 1762.0147827990736 62.11923938980393 L 1761.9270760441505 62.018982620804316 L 1761.8415914388193 61.91833438861863 L 1761.758337531469 61.81730475798624 L 1761.677322647421 61.715903831786 L 1761.5985548880963 61.61414175002604 L 1761.522042130205 61.51202868882973 L 1761.4477920249592 61.40957485941809 L 1761.3758119973074 61.3067905070887 L 1761.3061092451928 61.203685910191126 L 1761.2386907388322 61.10027137909914 L 1761.1735632200202 60.996557255179674 L 1761.1107332014544 60.89255390975869 L 1761.0502069660843 60.78827174308406 L 1760.9919905664829 60.683721183285556 L 1760.9360898242414 60.57891268533202 L 1760.882510329388 60.473856729985926 L 1760.8312574398274 60.36856382275525 L 1760.7823362808053 60.26304449284297 L 1760.7357517443977 60.157309292094155 L 1760.6915084890186 60.05136879394075 L 1760.6496109389573 59.94523359234431 L 1760.6100632839334 59.83891430073653 L 1760.5728694786799 59.73242155095798 L 1760.538033242546 59.62576599219489 L 1760.5055580591263 59.518958289914266 L 1760.4754471759122 59.41200912479732 L 1760.447703603967 59.30492919167144 L 1760.4223301176246 59.19772919844071 L 1760.3993292542127 59.09041986501512 L 1760.3787033137983 58.98301192223859 L 1760.3604543589581 58.87551611081589 L 1760.3445842145727 58.767943180238575 L 1760.3310944676432 58.660303887710064 L 1760.319986467133 58.55260899706992 L 1760.311261323833 58.444869277717444 L 1760.30491991025 58.337095503534805 L 1760.3009628605203 58.2292984518096 L 1760.2993905703456 58.121488902157175 L 1760.3002031969536 58.013677635442654 L 1760.3034006590822 57.905875432702864 L 1760.3089826369878 57.79809307406824 L 1760.3169485724775 57.69034133768484 L 1760.3272976689643 57.582630998636496 L 1760.340028891547 57.47497282786737 L 1760.3551409671143 57.367377591104805 L 1760.3726323844708 57.25985604778283 L 1760.3925013944895 57.15241894996617 L 1760.4147460102863 57.04507704127507 L 1760.4393640074177 56.937841055810964 L 1760.4663529241047 56.83072171708302 L 1760.4957100614781 56.72372973693586 L 1760.5274324838485 56.61687581447832 L 1760.5615170190003 56.51017063501361 L 1760.5979602585085 56.40362486897076 L 1760.6367585580792 56.29724917083759 L 1760.677908037915 56.19105417809525 L 1760.721404583102 56.08505051015453 L 1760.767243844022 55.979248767293896 L 1760.8154212367872 55.87365952959945 L 1760.8659319436983 55.76829335590698 L 1760.918770913727 55.66316078274605 L 1760.97393286302 55.55827232328636 L 1761.0314122754287 55.453638466286456 L 1761.0912034030596 55.349269675044845 L 1761.1533002668496 55.24517638635367 L 1761.217696657164 55.141369009455055 L 1761.2843861344177 55.037857925000196 L 1761.3533620297185 54.93465348401127 L 1761.4246174455343 54.83176600684637 L 1761.498145256383 54.72920578216748 L 1761.5739381095445 54.6269830659116 L 1761.651988425797 54.52510808026517 L 1761.7322884001737 54.42359101264186 L 1761.8148300027442 54.32244201466383 L 1761.899604979417 54.22167120114659 L 1761.986604852765 54.12128864908752 L 1762.0758209228734 54.02130439665817 L 1762.1672442682093 53.92172844220046 L 1762.2608657465148 53.82257074322687 L 1762.35667599572 53.72384121542465 L 1762.4546654348796 53.62554973166431 L 1762.5548242651314 53.52770612101232 L 1762.6571424706758 53.43032016774821 L 1762.7616098197777 53.33340161038615 L 1762.8682158657891 53.23696014070111 L 1762.9769499481945 53.14100540275969 L 1763.087801193676 53.045546991955725 L 1763.2007585172012 52.950594454050744 L 1763.3158106231322 52.85615728421942 L 1763.4329460063543 52.762244926100024 L 1763.552152953427 52.668866770850116 L 1763.6734195437543 52.57603215620741 L 1763.7967336507786 52.483750365556 L 1763.9220829431922 52.39203062699805 L 1764.0494548861698 52.300882112431 L 1764.1788367426236 52.21031393663032 L 1764.3102155744757 52.12033515633814 L 1764.4435782439523 52.0309547693575 L 1764.5789114148977 51.942181713652616 L 1764.7162015541076 51.85402486645508 L 1764.8554349326823 51.766493043376144 L 1764.9965976274002 51.67959499752518 L 1765.1396755221094 51.59333941863436 L 1765.2846543091396 51.50773493218968 L 1765.4315194907329 51.42279009856846 L 1765.5802563804934 51.338513412183275 L 1765.7308501048565 51.25491330063253 L 1765.8832856045747 51.17199812385771 L 1766.0375476362256 51.0897761733074 L 1766.1936207737342 51.00825567110814 L 1766.3514894099171 50.927444769242214 L 1766.511137758042 50.84735154873246 L 1766.6725498534072 50.7679840188342 L 1766.8357095549375 50.689350116234266 L 1767.0006005467992 50.611457704257404 L 1767.1672063400301 50.53431457207989 L 1767.3355102741898 50.45792843395067 L 1767.505495519025 50.382306928419894 L 1767.6771450761535 50.307457617575096 L 1767.8504417807617 50.23338798628499 L 1768.0253683033243 50.16010544145098 L 1768.2019071513344 50.08761731126648 L 1768.3800406710545 50.015930844484096 L 1768.559751049281 49.945053209690776 L 1768.741020315126 49.87499149459093 L 1768.9238303418138 49.80575270529769 L 1769.108162848494 49.737343765632275 L 1769.2939994020696 49.66977151643166 L 1769.4813214190401 49.60304271486444 L 1769.6701101673602 49.537164033755175 L 1769.860346768312 49.47214206091707 L 1770.052012198394 49.407983298493235 L 1770.2450872912232 49.34469416230643 L 1770.4395527394508 49.282280981217546 L 1770.6353890966943 49.22074999649268 L 1770.8325767794813 49.16010736117902 L 1771.0310960692075 49.10035913948957 L 1771.2309271141094 49.04151130619671 L 1771.4320499312494 48.98356974603472 L 1771.634444408513 48.92654025311134 L 1771.838090306621 48.87042853032834 L 1772.042967261154 48.81524018881123 L 1772.2490547845866 48.760980747348185 L 1772.4563322683387 48.70765563183812 L 1772.6647789848341 48.65527017474815 L 1772.8743740895752 48.60382961458035 L 1773.0850966232263 48.55333909534784 L 1773.2969255137093 48.50380366606049 L 1773.5098395783118 48.455228280219934 L 1773.7238175258049 48.40761779532429 L 1773.938837958572 48.36097697238237 L 1774.1548793747493 48.3153104754376 L 1774.371920170375 48.27062287110161 L 1774.5899386415501 48.2269186280976 L 1774.8089129866098 48.18420211681345 L 1775.0288213083015 48.1424776088647 L 1775.2496416159768 48.10174927666736 L 1775.4713518277883 48.062021193020726 L 1775.6939297729002 48.02329733070004 L 1775.9173531937033 47.985581562059274 L 1776.1415997480415 47.94887765864386 L 1776.3666470114465 47.91318929081355 L 1776.5924724793792 47.878520027375394 L 1776.8190535694812 47.844873335226836 L 1777.0463676238323 47.81225257900906 L 1777.2743919112165 47.7806610207705 L 1777.503103629395 47.75010181964065 L 1777.7324799073865 47.720578031514165 L 1777.9624978077545 47.69209260874525 L 1778.1931343289007 47.664648399852446 L 1778.4243664073651 47.63824814923377 L 1778.6561709201326 47.61289449689228 L 1778.888524686945 47.58858997817209 L 1779.1214044726191 47.56533702350482 L 1779.3547869893707 47.54313795816655 L 1779.5886488991423 47.521995002045315 L 1779.8229668159381 47.50191026941911 L 1780.0577173081617 47.482885768744474 L 1780.2928769009593 47.46492340245561 L 1780.5284220785677 47.44802496677417 L 1780.7643292866653 47.43219215152965 L 1781.000574934728 47.41742653999037 L 1781.2371353983879 47.403729608705206 L 1781.4739870217957 47.39110272735584 L 1781.7111061199862 47.3795471586199 L 1781.9484689812477 47.369064058044636 L 1782.1860518694914 47.35965447393136 L 1782.4238310266269 47.351319347230636 L 1782.6617826749361 47.3440595114482 L 1782.899883019453 47.33787569256158 L 1783.138108250341 47.33276850894751 L 1783.376434545276 47.328738471320094 L 1783.614838071827 47.32578598267973 L 1783.85329498984 47.32391133827283 L 1784.0917814538218 47.32311472556227 L 1784.3302736153248 47.323396224208665 L 1784.5687476253318 47.32475580606237 L 1784.80717963664 47.32719333516634 L 1785.0455458062474 47.3307085677697 L 1785.283822297736 47.33530115235211 L 1785.5219852836542 47.34097062965894 L 1785.7600109479029 47.3477164327472 L 1785.9978754881133 47.35553788704218 L 1786.23555511803 47.36443421040498 L 1786.473026069888 47.374404513210685 L 1786.71026459679 47.385447798437305 L 1786.947246975081 47.39756296176553 L 1787.1839495067206 47.41074879168913 L 1787.4203485216528 47.42500396963608 L 1787.6564203801734 47.44032707010049 L 1787.892141475293 47.45671656078506 L 1788.1274882350988 47.4741708027544 L 1788.3624371251105 47.492688050598844 L 1788.5969646506355 47.51226645260904 L 1788.8310473591162 47.5329040509611 L 1789.0646618424769 47.554598781912404 L 1789.297784739464 47.57734847600791 L 1789.530392737982 47.60115085829719 L 1789.7624625774251 47.62600354856183 L 1789.9939710510027 47.65190406155354 L 1790.22489500806 47.67884980724257 L 1790.4552113563943 47.70683809107683 L 1790.6848970645622 47.735866114251266 L 1790.9139291641845 47.76593097398773 L 1791.1422847522422 47.79702966382531 L 1791.3699409933668 47.82915907392094 L 1791.5968751221235 47.86231599136038 L 1791.823064445289 47.89649710047953 L 1792.048486344119 47.93169898319594 L 1792.2731182766122 47.9679181193507 L 1792.4969377797618 48.00515088706036 L 1792.7199224718042 48.04339356307918 L 1792.9420500544563 48.08264232317141 L 1793.1632983151449 48.12289324249378 L 1793.383645129228 48.16414229598789 L 1793.6030684622078 48.20638535878274 L 1793.8215463719343 48.24961820660728 L 1794.0390570107982 48.29383651621275 L 1794.255578627917 48.33903586580504 L 1794.4710895713094 48.38521173548684 L 1794.6855682900607 48.43235950770968 L 1794.8989933364776 48.48047446773562 L 1795.1113433682335 48.52955180410875 L 1795.3225971505021 48.57958660913633 L 1795.5327335580814 48.63057387937956 L 1795.7417315775056 48.6825085161539 L 1795.9495703091466 48.73538532603896 L 1796.156228969305 48.789199021397806 L 1796.3616868922866 48.84394422090574 L 1796.5659235324706 48.89961545008845 L 1796.768918466363 48.9562071418694 L 1796.9706513946396 49.01371363712657 L 1797.1711021441756 49.07212918525836 L 1797.3702506700633 49.131447944758634 L 1797.568077057616 49.19166398380087 L 1797.7645615243596 49.25277128083136 L 1797.9596844220112 49.314763725171304 L 1798.153426238444 49.37763511762794 L 1798.3457675996374 49.44137917111441 L 1798.5366892716158 49.505989511278486 L 1798.726172162371 49.57145967714 L 1798.914197323772 49.637783121736916 L 1799.100745953459 49.70495321278004 L 1799.2857993967248 49.772963233316254 L 1799.469339148379 49.84180638240017 L 1799.6513468545998 49.91147577577426 L 1799.8318043147676 49.98196444655723 L 1800.0106934832875 50.05326534594075 L 1800.1879964713914 50.1253713438943 L 1800.363695548928 50.19827522987816 L 1800.5377731461365 50.27196971356451 L 1800.7102118554017 50.346447425566375 L 1800.8809944329967 50.421700918174615 L 1801.050103800806 50.49772266610269 L 1801.2175230480336 50.57450506723916 L 1801.3832354328945 50.65204044340789 L 1801.5472243842883 50.73032104113588 L 1801.7094735034561 50.80933903242859 L 1801.8699665656218 50.889086515552734 L 1802.0286875216125 50.969555515826464 L 1802.1856204994651 51.050737986416806 L 1802.3407498060126 51.13262580914435 L 1802.4940599284532 51.215210795295064 L 1802.645535535903 51.29848468643916 L 1802.7951614809272 51.38243915525691 L 1802.942922801056 51.467065806371394 L 1803.0888047202805 51.55235617718803 L 1803.2327926505304 51.63830173874081 L 1803.3748721931324 51.72489389654519 L 1803.5150291402513 51.812123991457554 L 1803.6532494763085 51.899983300541116 L 1803.7895193793859 51.98846303793816 L 1803.9238252226066 52.0775543557487 L 1804.0561535754985 52.16724834491519 L 1804.186491205336 52.25753603611345 L 1804.3148250784654 52.3484084006496 L 1804.4411423616061 52.439856351362934 L 1804.5654304231348 52.53187074353457 L 1804.6876768343493 52.62444237580196 L 1804.80786937071 52.717561991079045 L 1804.9259960130635 52.81122027748188 L 1805.0420449488443 52.905407869259875 L 1805.1560045732551 53.00011534773235 L 1805.2678634904287 53.09533324223036 L 1805.3776105145666 53.191052031043824 L 1805.4852346710577 53.28726214237362 L 1805.5907251975761 53.38395395528879 L 1805.6940715451574 53.481117800688615 L 1805.7952633792522 53.57874396226953 L 1805.8942905807621 53.67682267749672 L 1805.9911432470492 53.77534413858041 L 1806.0858116929276 53.874298493456585 L 1806.1782864516315 53.973675846772224 L 1806.2685582757622 54.073466260874795 L 1806.3566181382125 54.17365975680607 L 1806.4424572330697 54.274246315299926 L 1806.5260669764955 54.37521587778435 L 1806.6074390075855 54.476558347387225 L 1806.6865651892044 54.578263589946054 L 1806.7634376088 54.68032143502133 L 1806.838048579194 54.78272167691359 L 1806.910390639352 54.88545407568398 L 1806.9804565551283 54.98850835817824 L 1807.0482393199893 55.091874219053985 L 1807.1137321557153 55.19554132181128 L 1807.1769285130772 55.29949929982622 L 1807.2378220724918 55.40373775738766 L 1807.2964067446542 55.508246270736684 L 1807.352676671146 55.61301438910906 L 1807.4066262250212 55.718031635780264 L 1807.4582500113693 55.82328750911313 L 1807.5075428678551 55.92877148360804 L 1807.5544998652335 56.03447301095545 L 1807.5991163078445 56.14038152109071 L 1807.6413877340806 56.24648642325106 L 1807.6813099168344 56.35277710703471 L 1807.718878863921 56.45924294346186 L 1807.7540908184772 56.56587328603757 L 1807.7869422593365 56.672657471816464 L 1807.8174299013822 56.779584822468934 L 1807.845550695876 56.88664464534902 L 1807.8713018307615 56.99382623456367 L 1807.8946807309464 57.10111887204326 L 1807.915685058561 57.20851182861346 L 1807.934312713189 57.31599436506811 L 1807.9505618320813 57.42355573324312 L 1807.9644307903393 57.53118517709132 L 1807.9759182010785 57.63887193375801 L 1807.9850229155677 57.74660523465727 L 1807.9917440233428 57.85437430654877 L 1807.996080852299 57.962168372615146 L 1807.9980329687564 58.06997665353961 M 1807.9981539588125 92.4082450681 L 1807.9969614989088 92.51605561301662 L 1807.9933842384428 92.62385537696859 L 1807.9874225351373 92.73163358006936 L 1807.9790769851581 92.8393794445884 L 1807.968348423053 92.94708219602909 L 1807.955237921669 93.05473106420601 L 1807.9397467920458 93.16231528432205 L 1807.9218765832832 93.26982409804485 L 1807.9016290823872 93.37724675458266 L 1807.879006314091 93.4845725117593 L 1807.8540105406526 93.59179063708852 L 1807.8266442616286 93.69889040884712 L 1807.796910213624 93.80586111714719 L 1807.7648113700188 93.91269206500702 L 1807.7303509406706 94.01937256942087 L 1807.6935323715938 94.12589196242718 L 1807.6543593446147 94.23223959217543 L 1807.6128357770028 94.33840482399125 L 1807.5689658210808 94.44437704143996 L 1807.5227538638076 94.5501456473881 L 1807.4742045263401 94.65570006506323 L 1807.4233226635722 94.76102973911152 L 1807.370113363647 94.86612413665337 L 1807.314581947451 94.97097274833659 L 1807.256733968079 95.07556508938738 L 1807.1965752102808 95.1798907006588 L 1807.134111689882 95.28393914967667 L 1807.069349653183 95.38770003168278 L 1807.002295576333 95.4911629706754 L 1806.932956164684 95.59431762044686 L 1806.8613383521194 95.69715366561813 L 1806.7874493003608 95.7996608226704 L 1806.7112963982515 95.90182884097338 L 1806.6328872610188 96.00364750381038 L 1806.5522297295108 96.10510662939998 L 1806.4693318694133 96.20619607191415 L 1806.3842019704434 96.30690572249289 L 1806.29684854552 96.40722551025506 L 1806.207280329913 96.50714540330549 L 1806.1155062803687 96.60665540973812 L 1806.0215355742164 96.70574557863527 L 1805.925377608448 96.8044060010626 L 1805.8270419987796 96.9026268110601 L 1805.726538578691 97.0003981866286 L 1805.6238773984396 97.09771035071202 L 1805.5190687240586 97.19455357217507 L 1805.4121230363278 97.29091816677628 L 1805.303051029727 97.3867944981365 L 1805.1918636113655 97.4821729787025 L 1805.078571899893 97.5770440707057 L 1804.963187224386 97.67139828711595 L 1804.845721123216 97.76522619259025 L 1804.7261853428952 97.85851840441623 L 1804.6045918369018 97.95126559345047 L 1804.4809527644854 98.04345848505133 L 1804.35528048945 98.13508786000651 L 1804.2275875789185 98.22614455545484 L 1804.0978868020757 98.31661946580266 L 1803.9661911288906 98.40650354363434 L 1803.8325137288214 98.49578780061701 L 1803.6968679694965 98.58446330839936 L 1803.5592674153786 98.67252119950452 L 1803.4197258264087 98.75995266821674 L 1803.2782571566295 98.84674897146202 L 1803.1348755527897 98.93290142968237 L 1802.9895953529303 99.01840142770375 L 1802.8424310849507 99.10324041559763 L 1802.6933974651545 99.18740990953589 L 1802.5425093967797 99.2709014926393 L 1802.3897819685074 99.35370681581911 L 1802.235230452953 99.43581759861202 L 1802.0788703051394 99.51722563000817 L 1801.9207171609512 99.59792276927226 L 1801.760786835571 99.6779009467576 L 1801.5990953218977 99.75715216471312 L 1801.4356587889483 99.83566849808304 L 1801.2704935802399 99.91344209529944 L 1801.1036162121557 99.99046517906746 L 1800.9350433722932 100.06673004714287 L 1800.764791917796 100.14222907310241 L 1800.5928788736678 100.21695470710642 L 1800.4193214310699 100.29089947665378 L 1800.2441369456014 100.36405598732914 L 1800.0673429355654 100.43641692354238 L 1799.8889570802153 100.50797504926021 L 1799.708997217988 100.57872320872968 L 1799.52748134472 100.64865432719378 L 1799.344427611847 100.71776141159897 L 1799.15985432459 100.78603755129438 L 1798.973779940124 100.85347591872295 L 1798.786223065732 100.9200697701041 L 1798.5972024569453 100.98581244610824 L 1798.4067370156674 101.05069737252252 L 1798.2148457882836 101.11471806090837 L 1798.0215479637568 101.17786810925033 L 1797.8268628717083 101.24014120259615 L 1797.630809980485 101.30153111368841 L 1797.433408895213 101.36203170358716 L 1797.2346793558359 101.42163692228384 L 1797.034641235142 101.48034080930621 L 1796.8333145367772 101.53813749431454 L 1796.630719393243 101.59502119768845 L 1796.4268760638854 101.65098623110502 L 1796.221804932867 101.70602699810756 L 1796.0155265071303 101.76013799466523 L 1795.808061414346 101.81331380972344 L 1795.5994304008502 101.86554912574503 L 1795.3896543295707 101.91683871924192 L 1795.1787541779397 101.9671774612975 L 1794.9667510357967 102.0165603180795 L 1794.753666103279 102.06498235134342 L 1794.5395206887026 102.11243871892626 L 1794.3243362064304 102.15892467523081 L 1794.1081341747313 102.2044355717002 L 1793.890936213628 102.24896685728268 L 1793.672764042736 102.29251407888682 L 1793.4536394790905 102.33507288182676 L 1793.2335844349652 102.37663901025765 L 1793.012620915681 102.41720830760129 L 1792.790771017406 102.45677671696174 L 1792.568056924945 102.49534028153107 L 1792.3445009095217 102.53289514498493 L 1792.120125326551 102.56943755186829 L 1791.8949526134047 102.60496384797091 L 1791.6690052871663 102.63947048069276 L 1791.4423059423802 102.67295399939937 L 1791.2148772487917 102.70541105576673 L 1790.986741949081 102.73683840411627 L 1790.7579228565876 102.76723290173933 L 1790.5284428530304 102.79659150921151 L 1790.2983248862183 102.82491129069649 L 1790.0675919677562 102.85218941423973 L 1789.836267170744 102.87842315205162 L 1789.604373627468 102.90360988078025 L 1789.37193452709 102.9277470817737 L 1789.1389731133258 102.95083234133202 L 1788.905512682123 102.97286335094847 L 1788.67157657933 102.99383790754045 L 1788.437188198362 103.01375391366979 L 1788.202370977862 103.03260937775246 L 1787.9671483993563 103.05040241425777 L 1787.7315439849067 103.06713124389691 L 1787.4955812947585 103.08279419380085 L 1787.2592839249837 103.09738969768763 L 1787.0226755051226 103.11091629601906 L 1786.78577969582 103.12337263614656 L 1786.5486201864596 103.13475747244648 L 1786.3112206927944 103.14506966644471 L 1786.073604954576 103.15430818693042 L 1785.8357967331804 103.16247211005928 L 1785.5978198092314 103.16956061944578 L 1785.359697980223 103.17557300624486 L 1785.1214550581396 103.18050866922287 L 1784.8831148670754 103.18436711481763 L 1784.6447012408503 103.18714795718779 L 1784.4062380206287 103.18885091825143 L 1784.1677490525335 103.18947582771386 L 1783.929258185263 103.18902262308465 L 1783.6907892677052 103.18749134968391 L 1783.452366146553 103.18488216063768 L 1783.21401266392 103.1811953168627 L 1782.9757526549556 103.17643118704027 L 1782.7376099454623 103.1705902475794 L 1782.4996083495125 103.16367308256918 L 1782.2617716670677 103.15568038372034 L 1782.0241236815978 103.14661295029609 L 1781.7866881577033 103.13647168903225 L 1781.5494888387386 103.12525761404646 L 1781.3125494444382 103.1129718467369 L 1781.0758936685438 103.09961561567005 L 1780.839545176436 103.08519025645788 L 1780.6035276027671 103.06969721162432 L 1780.3678645490975 103.0531380304609 L 1780.1325795815364 103.03551436887196 L 1779.8976962283843 103.01682798920898 L 1779.6632379777811 102.99708076009435 L 1779.429228275356 102.97627465623451 L 1779.195690521885 102.95441175822252 L 1778.9626480709478 102.93149425232995 L 1778.7301242265962 102.90752443028832 L 1778.4981422410203 102.88250468905984 L 1778.2667253122256 102.85643753059779 L 1778.0358965817122 102.82932556159626 L 1777.8056791321605 102.80117149322962 L 1777.576095985124 102.77197814088119 L 1777.3471700987259 102.7417484238619 L 1777.118924365364 102.71048536511826 L 1776.8913816094212 102.67819209093008 L 1776.664564584984 102.64487183059789 L 1776.4384959735653 102.61052791611995 L 1776.2131983818383 102.57516378185908 L 1775.9886943393744 102.53878296419921 L 1775.7650062963905 102.50138910119185 L 1775.5421566215045 102.4629859321921 L 1775.3201675994985 102.42357729748485 L 1775.0990614290893 102.38316713790076 L 1774.87886022071 102.34175949442208 L 1774.6595859942977 102.29935850777868 L 1774.4412606770925 102.25596841803387 L 1774.2239061014443 102.2115935641605 L 1774.0075440026292 102.16623838360692 L 1773.7921960166768 102.11990741185345 L 1773.5778836782065 102.07260528195862 L 1773.3646284182735 102.024336724096 L 1773.152451562226 101.97510656508118 L 1772.9413743275727 101.92491972788902 L 1772.7314178218614 101.8737812311614 L 1772.5226030405674 101.82169618870542 L 1772.3149508649951 101.76866980898188 L 1772.1084820601889 101.71470739458458 L 1771.9032172728573 101.65981434170999 L 1771.6991770293077 101.60399613961766 L 1771.4963817333949 101.54725837008127 L 1771.2948516644792 101.4896067068305 L 1771.0946069753993 101.43104691498365 L 1770.895667690458 101.37158485047108 L 1770.6980537034171 101.3112264594497 L 1770.5017847755112 101.2499777777083 L 1770.3068805334694 101.18784493006403 L 1770.1133604675533 101.12483412974987 L 1769.9212439296086 101.06095167779335 L 1769.730550131129 100.99620396238643 L 1769.541298141335 100.93059745824668 L 1769.353506885268 100.86413872596987 L 1769.1671951418973 100.79683441137381 L 1768.982381542242 100.7286912448339 L 1768.7990845675079 100.65971604061 L 1768.6173225472396 100.58991569616504 L 1768.437113657488 100.5192971914753 L 1768.2584759189917 100.44786758833243 L 1768.081427195376 100.3756340296372 L 1767.905985191365 100.30260373868528 L 1767.7321674510135 100.22878401844491 L 1767.5599913559506 100.15418225082661 L 1767.3894741236425 100.07880589594495 L 1767.2206328056698 100.00266249137262 L 1767.0534842860238 99.92575965138663 L 1766.8880452794174 99.84810506620688 L 1766.7243323296134 99.76970650122719 L 1766.56236180777 99.69057179623871 L 1766.4021499108046 99.610708864646 L 1766.2437126597736 99.53012569267568 L 1766.0870658982699 99.44883033857778 L 1765.932225290839 99.36683093181996 L 1765.7792063214126 99.28413567227457 L 1765.6280242917603 99.20075282939865 L 1765.478694319959 99.11669074140701 L 1765.3312313388815 99.0319578144384 L 1765.185650094703 98.9465625217149 L 1765.0419651454265 98.8605134026946 L 1764.9001908594273 98.77381906221773 L 1764.7603414140158 98.68648816964605 L 1764.6224307940201 98.5985294579961 L 1764.486472790387 98.5099517230657 L 1764.3524809988041 98.42076382255453 L 1764.2204688183383 98.33097467517834 L 1764.090449450098 98.24059325977703 L 1763.9624358959115 98.14962861441684 L 1763.8364409570277 98.05808983548647 L 1763.7124772328352 97.96598607678756 L 1763.5905571196035 97.87332654861922 L 1763.470692809242 97.78012051685704 L 1763.352896288082 97.68637730202654 L 1763.2371793356776 97.59210627837106 L 1763.1235535236276 97.49731687291444 L 1763.012030214418 97.40201856451822 L 1762.9026205602875 97.30622088293381 L 1762.7953355021098 97.20993340784955 L 1762.6901857683015 97.11316576793271 L 1762.5871818737485 97.01592763986665 L 1762.4863341187543 96.91822874738313 L 1762.38765258801 96.82007886028998 L 1762.2911471495872 96.72148779349413 L 1762.1968274539486 96.62246540602011 L 1762.1047029329857 96.52302160002414 L 1762.0147827990736 96.42316631980393 L 1761.9270760441505 96.32290955080431 L 1761.8415914388193 96.22226131861864 L 1761.758337531469 96.12123168798624 L 1761.677322647421 96.019830761786 L 1761.5985548880963 95.91806868002604 L 1761.522042130205 95.81595561882972 L 1761.4477920249592 95.71350178941809 L 1761.3758119973074 95.6107174370887 L 1761.3061092451928 95.50761284019111 L 1761.2386907388322 95.40419830909913 L 1761.1735632200202 95.30048418517967 L 1761.1107332014544 95.19648083975868 L 1761.0502069660843 95.09219867308406 L 1760.9919905664829 94.98764811328554 L 1760.9360898242414 94.88283961533202 L 1760.882510329388 94.77778365998593 L 1760.8312574398274 94.67249075275525 L 1760.7823362808053 94.56697142284297 L 1760.7357517443977 94.46123622209414 L 1760.6915084890186 94.35529572394076 L 1760.6496109389573 94.24916052234431 L 1760.6100632839334 94.14284123073652 L 1760.5728694786799 94.03634848095798 L 1760.538033242546 93.92969292219489 L 1760.5055580591263 93.82288521991427 L 1760.4754471759122 93.71593605479731 L 1760.447703603967 93.60885612167144 L 1760.4223301176246 93.50165612844071 L 1760.3993292542127 93.39434679501512 L 1760.3787033137983 93.28693885223859 L 1760.3604543589581 93.17944304081588 L 1760.3445842145727 93.07187011023856 L 1760.3310944676432 92.96423081771006 L 1760.319986467133 92.85653592706991 L 1760.311261323833 92.74879620771745 L 1760.30491991025 92.6410224335348 L 1760.3009628605203 92.5332253818096 L 1760.2993905703456 92.42541583215717" stroke-miterlimit="10" stroke-width="2.7769845610000004" stroke-dasharray=""/></g><g><g/><text fill="black" stroke="none" font-family="sans-serif" font-size="11pt" font-style="normal" font-weight="normal" text-decoration="normal" x="1749.1129829098554" y="120.717152387" text-anchor="start" dominant-baseline="alphabetic" xml:space="preserve">Repository</text></g></g><g><path fill="white" stroke="black" paint-order="fill stroke markers" d=" M 896.911759338306 257.932860107 L 913.2469626383061 257.932860107 L 913.2469626383061 826.3979349469997 L 896.911759338306 826.3979349469997 L 896.911759338306 257.932860107" stroke-miterlimit="10" stroke-width="1.3612669416666667" stroke-dasharray=""/><path fill="white" stroke="black" paint-order="fill stroke markers" d=" M 1130.3722020372643 320.006632647 L 1146.7074053372644 320.006632647 L 1146.7074053372644 780.6593657069998 L 1130.3722020372643 780.6593657069998 L 1130.3722020372643 320.006632647" stroke-miterlimit="10" stroke-width="1.3612669416666667" stroke-dasharray=""/><path fill="white" stroke="black" paint-order="fill stroke markers" d=" M 1363.8326447362226 382.080405187 L 1380.1678480362227 382.080405187 L 1380.1678480362227 734.9207964669998 L 1363.8326447362226 734.9207964669998 L 1363.8326447362226 382.080405187" stroke-miterlimit="10" stroke-width="1.3612669416666667" stroke-dasharray=""/><path fill="white" stroke="black" paint-order="fill stroke markers" d=" M 1775.9811554908124 444.154177727 L 1792.3163587908125 444.154177727 L 1792.3163587908125 489.892746967 L 1775.9811554908124 489.892746967 L 1775.9811554908124 444.154177727" stroke-miterlimit="10" stroke-width="1.3612669416666667" stroke-dasharray=""/><path fill="white" stroke="black" paint-order="fill stroke markers" d=" M 1597.293087435181 551.966519507 L 1613.628290735181 551.966519507 L 1613.628290735181 689.1822272269999 L 1597.293087435181 689.1822272269999 L 1597.293087435181 551.966519507" stroke-miterlimit="10" stroke-width="1.3612669416666667" stroke-dasharray=""/><path fill="white" stroke="black" paint-order="fill stroke markers" d=" M 1775.9811554908124 597.705088747 L 1792.3163587908125 597.705088747 L 1792.3163587908125 643.4436579869999 L 1775.9811554908124 643.4436579869999 L 1775.9811554908124 597.705088747" stroke-miterlimit="10" stroke-width="1.3612669416666667" stroke-dasharray=""/><path fill="white" stroke="black" paint-order="fill stroke markers" d=" M 665.1888214386979 978.3153256369998 L 681.524024738698 978.3153256369998 L 681.524024738698 1024.0538948769997 L 665.1888214386979 1024.0538948769997 L 665.1888214386979 978.3153256369998" stroke-miterlimit="10" stroke-width="1.3612669416666667" stroke-dasharray=""/><path fill="white" stroke="black" paint-order="fill stroke markers" d=" M 1130.3722020372643 1094.2952690669997 L 1146.7074053372644 1094.2952690669997 L 1146.7074053372644 1322.988115267 L 1130.3722020372643 1322.988115267 L 1130.3722020372643 1094.2952690669997" stroke-miterlimit="10" stroke-width="1.3612669416666667" stroke-dasharray=""/><path fill="white" stroke="black" paint-order="fill stroke markers" d=" M 1363.8326447362226 1140.0338383069998 L 1380.1678480362227 1140.0338383069998 L 1380.1678480362227 1277.249546027 L 1363.8326447362226 1277.249546027 L 1363.8326447362226 1140.0338383069998" stroke-miterlimit="10" stroke-width="1.3612669416666667" stroke-dasharray=""/><path fill="white" stroke="black" paint-order="fill stroke markers" d=" M 1775.9811554908124 1185.7724075469998 L 1792.3163587908125 1185.7724075469998 L 1792.3163587908125 1231.510976787 L 1775.9811554908124 1231.510976787 L 1775.9811554908124 1185.7724075469998" stroke-miterlimit="10" stroke-width="1.3612669416666667" stroke-dasharray=""/><path fill="white" stroke="black" paint-order="fill stroke markers" d=" M 665.1888214386979 1452.036221337 L 681.524024738698 1452.036221337 L 681.524024738698 1497.774790577 L 665.1888214386979 1497.774790577 L 665.1888214386979 1452.036221337" stroke-miterlimit="10" stroke-width="1.3612669416666667" stroke-dasharray=""/><path fill="white" stroke="black" paint-order="fill stroke markers" d=" M 1130.3722020372643 1581.0843274069998 L 1146.7074053372644 1581.0843274069998 L 1146.7074053372644 1826.112376907 L 1130.3722020372643 1826.112376907 L 1130.3722020372643 1581.0843274069998" stroke-miterlimit="10" stroke-width="1.3612669416666667" stroke-dasharray=""/><path fill="white" stroke="black" paint-order="fill stroke markers" d=" M 1597.293087435181 1643.1580999469998 L 1613.628290735181 1643.1580999469998 L 1613.628290735181 1780.373807667 L 1597.293087435181 1780.373807667 L 1597.293087435181 1643.1580999469998" stroke-miterlimit="10" stroke-width="1.3612669416666667" stroke-dasharray=""/><path fill="white" stroke="black" paint-order="fill stroke markers" d=" M 1775.9811554908124 1688.8966691869998 L 1792.3163587908125 1688.8966691869998 L 1792.3163587908125 1734.6352384269999 L 1775.9811554908124 1734.6352384269999 L 1775.9811554908124 1688.8966691869998" stroke-miterlimit="10" stroke-width="1.3612669416666667" stroke-dasharray=""/><path fill="white" stroke="black" paint-order="fill stroke markers" d=" M 1130.3722020372643 1888.186149447 L 1146.7074053372644 1888.186149447 L 1146.7074053372644 2116.878995647 L 1130.3722020372643 2116.878995647 L 1130.3722020372643 1888.186149447" stroke-miterlimit="10" stroke-width="1.3612669416666667" stroke-dasharray=""/><path fill="white" stroke="black" paint-order="fill stroke markers" d=" M 1363.8326447362226 1933.924718687 L 1380.1678480362227 1933.924718687 L 1380.1678480362227 2071.140426407 L 1363.8326447362226 2071.140426407 L 1363.8326447362226 1933.924718687" stroke-miterlimit="10" stroke-width="1.3612669416666667" stroke-dasharray=""/><path fill="white" stroke="black" paint-order="fill stroke markers" d=" M 1775.9811554908124 1979.663287927 L 1792.3163587908125 1979.663287927 L 1792.3163587908125 2025.4018571670001 L 1775.9811554908124 2025.4018571670001 L 1775.9811554908124 1979.663287927" stroke-miterlimit="10" stroke-width="1.3612669416666667" stroke-dasharray=""/><path fill="white" stroke="black" paint-order="fill stroke markers" d=" M 896.911759338306 2224.691337427 L 913.2469626383061 2224.691337427 L 913.2469626383061 2544.8613221069986 L 896.911759338306 2544.8613221069986 L 896.911759338306 2224.691337427" stroke-miterlimit="10" stroke-width="1.3612669416666667" stroke-dasharray=""/><path fill="white" stroke="black" paint-order="fill stroke markers" d=" M 1130.3722020372643 2270.4299066669996 L 1146.7074053372644 2270.4299066669996 L 1146.7074053372644 2499.122752866999 L 1130.3722020372643 2499.122752866999 L 1130.3722020372643 2270.4299066669996" stroke-miterlimit="10" stroke-width="1.3612669416666667" stroke-dasharray=""/><path fill="white" stroke="black" paint-order="fill stroke markers" d=" M 1363.8326447362226 2316.1684759069994 L 1380.1678480362227 2316.1684759069994 L 1380.1678480362227 2453.384183626999 L 1363.8326447362226 2453.384183626999 L 1363.8326447362226 2316.1684759069994" stroke-miterlimit="10" stroke-width="1.3612669416666667" stroke-dasharray=""/><path fill="white" stroke="black" paint-order="fill stroke markers" d=" M 1775.9811554908124 2361.9070451469993 L 1792.3163587908125 2361.9070451469993 L 1792.3163587908125 2407.645614386999 L 1775.9811554908124 2407.645614386999 L 1775.9811554908124 2361.9070451469993" stroke-miterlimit="10" stroke-width="1.3612669416666667" stroke-dasharray=""/><path fill="white" stroke="black" paint-order="fill stroke markers" d=" M 496.40430842867187 177.07360377199998 L 488.2367067786719 177.07360377199998 M 8.16760165 158.288119977 L 473.5350238086719 158.288119977 L 488.2367067786719 172.98980294700002 L 488.2367067786719 195.859087567 L 8.16760165 195.859087567 L 8.16760165 158.288119977 M 473.5350238086719 158.288119977 L 473.5350238086719 172.98980294700002 L 488.2367067786719 172.98980294700002" stroke-miterlimit="10" stroke-width="1.3612669416666667" stroke-dasharray=""/><g><text fill="black" stroke="none" font-family="sans-serif" font-size="11pt" font-style="normal" font-weight="normal" text-decoration="normal" x="31.036886269999997" y="181.15740459699995" text-anchor="start" dominant-baseline="alphabetic" xml:space="preserve">1. Data provider creates a data modification request to the platform</text></g><g><text fill="black" stroke="none" font-family="sans-serif" font-size="11pt" font-style="normal" font-weight="normal" text-decoration="normal" x="609.8756852506764" y="235.06357548699998" text-anchor="start" dominant-baseline="alphabetic" xml:space="preserve">create request</text><text fill="black" stroke="none" font-family="sans-serif" font-size="11pt" font-style="normal" font-weight="normal" text-decoration="normal" x="609.8756852506764" y="251.39877878699997" text-anchor="start" dominant-baseline="alphabetic" xml:space="preserve">(data modification request)</text></g><g><path fill="none" stroke="black" paint-order="fill stroke markers" d=" M 496.40430842867187 257.932860107 L 883.4624419546393 257.932860107" stroke-miterlimit="10" stroke-width="1.3612669416666667" stroke-dasharray=""/><g transform="translate(896.911759338306,257.932860107) translate(-896.911759338306,-257.932860107)"><path fill="black" stroke="none" paint-order="stroke fill markers" d=" M 883.2990899216393 251.12652539866667 L 896.911759338306 257.932860107 L 883.2990899216393 264.73919481533335 Z"/></g></g><g><text fill="black" stroke="none" font-family="sans-serif" font-size="11pt" font-style="normal" font-weight="normal" text-decoration="normal" x="935.0272337049727" y="297.137348027" text-anchor="start" dominant-baseline="alphabetic" xml:space="preserve">new request</text><text fill="black" stroke="none" font-family="sans-serif" font-size="11pt" font-style="normal" font-weight="normal" text-decoration="normal" x="935.0272337049727" y="313.47255132699996" text-anchor="start" dominant-baseline="alphabetic" xml:space="preserve">(data modification request)</text></g><g><path fill="none" stroke="black" paint-order="fill stroke markers" d=" M 913.2469626383061 320.006632647 L 1116.9228846535975 320.006632647" stroke-miterlimit="10" stroke-width="1.3612669416666667" stroke-dasharray=""/><g transform="translate(1130.3722020372643,320.006632647) translate(-1130.3722020372643,-320.006632647)"><path fill="black" stroke="none" paint-order="stroke fill markers" d=" M 1116.7595326205976 313.20029793866667 L 1130.3722020372643 320.006632647 L 1116.7595326205976 326.81296735533334 Z"/></g></g><g><text fill="black" stroke="none" font-family="sans-serif" font-size="11pt" font-style="normal" font-weight="normal" text-decoration="normal" x="1168.487676403931" y="359.21112056699997" text-anchor="start" dominant-baseline="alphabetic" xml:space="preserve">new request</text><text fill="black" stroke="none" font-family="sans-serif" font-size="11pt" font-style="normal" font-weight="normal" text-decoration="normal" x="1168.487676403931" y="375.54632386699996" text-anchor="start" dominant-baseline="alphabetic" xml:space="preserve">(data modification request)</text></g><g><path fill="none" stroke="black" paint-order="fill stroke markers" d=" M 1146.7074053372644 382.080405187 L 1350.3833273525559 382.080405187" stroke-miterlimit="10" stroke-width="1.3612669416666667" stroke-dasharray=""/><g transform="translate(1363.8326447362226,382.080405187) translate(-1363.8326447362226,-382.080405187)"><path fill="black" stroke="none" paint-order="stroke fill markers" d=" M 1350.219975319556 375.27407047866666 L 1363.8326447362226 382.080405187 L 1350.219975319556 388.88673989533333 Z"/></g></g><g><text fill="black" stroke="none" font-family="sans-serif" font-size="11pt" font-style="normal" font-weight="normal" text-decoration="normal" x="1437.5019080745528" y="421.28489310699996" text-anchor="start" dominant-baseline="alphabetic" xml:space="preserve">store notification</text><text fill="black" stroke="none" font-family="sans-serif" font-size="11pt" font-style="normal" font-weight="normal" text-decoration="normal" x="1437.5019080745528" y="437.62009640699995" text-anchor="start" dominant-baseline="alphabetic" xml:space="preserve">(data modification request, status: pending)</text></g><g><path fill="none" stroke="black" paint-order="fill stroke markers" d=" M 1380.1678480362227 444.154177727 L 1762.5318381071456 444.154177727" stroke-miterlimit="10" stroke-width="1.3612669416666667" stroke-dasharray=""/><g transform="translate(1775.9811554908124,444.154177727) translate(-1775.9811554908124,-444.154177727)"><path fill="black" stroke="none" paint-order="stroke fill markers" d=" M 1762.3684860741457 437.34784301866665 L 1775.9811554908124 444.154177727 L 1762.3684860741457 450.9605124353333 Z"/></g></g><g><text fill="black" stroke="none" font-family="sans-serif" font-size="11pt" font-style="normal" font-weight="normal" text-decoration="normal" x="1557.7022864925216" y="483.35866564699995" text-anchor="start" dominant-baseline="alphabetic" xml:space="preserve">stored</text></g><g><path fill="none" stroke="black" paint-order="fill stroke markers" d=" M 1775.9811554908124 489.892746967 L 1393.6171654198895 489.892746967" stroke-miterlimit="10" stroke-width="1.3612669416666667" stroke-dasharray="6.53408132"/><g transform="translate(1380.1678480362227,489.892746967) translate(-1380.1678480362227,-489.892746967)"><path fill="black" stroke="none" paint-order="stroke fill markers" d=" M 1393.7805174528894 483.08641225866666 L 1380.1678480362227 489.892746967 L 1393.7805174528894 496.69908167533333 Z"/></g></g><g><text fill="black" stroke="none" font-family="sans-serif" font-size="11pt" font-style="normal" font-weight="normal" text-decoration="normal" x="1401.9481191028895" y="529.097234887" text-anchor="start" dominant-baseline="alphabetic" xml:space="preserve">create log</text><text fill="black" stroke="none" font-family="sans-serif" font-size="11pt" font-style="normal" font-weight="normal" text-decoration="normal" x="1401.9481191028895" y="545.432438187" text-anchor="start" dominant-baseline="alphabetic" xml:space="preserve">(data modification request)</text></g><g><path fill="none" stroke="black" paint-order="fill stroke markers" d=" M 1380.1678480362227 551.966519507 L 1583.8437700515142 551.966519507" stroke-miterlimit="10" stroke-width="1.3612669416666667" stroke-dasharray=""/><g transform="translate(1597.293087435181,551.966519507) translate(-1597.293087435181,-551.966519507)"><path fill="black" stroke="none" paint-order="stroke fill markers" d=" M 1583.6804180185143 545.1601847986667 L 1597.293087435181 551.966519507 L 1583.6804180185143 558.7728542153334 Z"/></g></g><g><text fill="black" stroke="none" font-family="sans-serif" font-size="11pt" font-style="normal" font-weight="normal" text-decoration="normal" x="1666.6909230641686" y="591.171007427" text-anchor="start" dominant-baseline="alphabetic" xml:space="preserve">store log</text></g><g><path fill="none" stroke="black" paint-order="fill stroke markers" d=" M 1613.628290735181 597.705088747 L 1762.5318381071456 597.705088747" stroke-miterlimit="10" stroke-width="1.3612669416666667" stroke-dasharray=""/><g transform="translate(1775.9811554908124,597.705088747) translate(-1775.9811554908124,-597.705088747)"><path fill="black" stroke="none" paint-order="stroke fill markers" d=" M 1762.3684860741457 590.8987540386667 L 1775.9811554908124 597.705088747 L 1762.3684860741457 604.5114234553333 Z"/></g></g><g><text fill="black" stroke="none" font-family="sans-serif" font-size="11pt" font-style="normal" font-weight="normal" text-decoration="normal" x="1674.4325078420006" y="636.9095766669999" text-anchor="start" dominant-baseline="alphabetic" xml:space="preserve">stored</text></g><g><path fill="none" stroke="black" paint-order="fill stroke markers" d=" M 1775.9811554908124 643.4436579869999 L 1627.0776081188478 643.4436579869999" stroke-miterlimit="10" stroke-width="1.3612669416666667" stroke-dasharray="6.53408132"/><g transform="translate(1613.628290735181,643.4436579869999) translate(-1613.628290735181,-643.4436579869999)"><path fill="black" stroke="none" paint-order="stroke fill markers" d=" M 1627.2409601518477 636.6373232786666 L 1613.628290735181 643.4436579869999 L 1627.2409601518477 650.2499926953333 Z"/></g></g><g><text fill="black" stroke="none" font-family="sans-serif" font-size="11pt" font-style="normal" font-weight="normal" text-decoration="normal" x="1466.719023643905" y="682.6481459069998" text-anchor="start" dominant-baseline="alphabetic" xml:space="preserve">logged</text></g><g><path fill="none" stroke="black" paint-order="fill stroke markers" d=" M 1597.293087435181 689.1822272269999 L 1393.6171654198895 689.1822272269999" stroke-miterlimit="10" stroke-width="1.3612669416666667" stroke-dasharray="6.53408132"/><g transform="translate(1380.1678480362227,689.1822272269999) translate(-1380.1678480362227,-689.1822272269999)"><path fill="black" stroke="none" paint-order="stroke fill markers" d=" M 1393.7805174528894 682.3758925186665 L 1380.1678480362227 689.1822272269999 L 1393.7805174528894 695.9885619353332 Z"/></g></g><g><text fill="black" stroke="none" font-family="sans-serif" font-size="11pt" font-style="normal" font-weight="normal" text-decoration="normal" x="1230.821218274048" y="728.3867151469998" text-anchor="start" dominant-baseline="alphabetic" xml:space="preserve">created</text></g><g><path fill="none" stroke="black" paint-order="fill stroke markers" d=" M 1363.8326447362226 734.9207964669998 L 1160.1567227209312 734.9207964669998" stroke-miterlimit="10" stroke-width="1.3612669416666667" stroke-dasharray="6.53408132"/><g transform="translate(1146.7074053372644,734.9207964669998) translate(-1146.7074053372644,-734.9207964669998)"><path fill="black" stroke="none" paint-order="stroke fill markers" d=" M 1160.320074753931 728.1144617586665 L 1146.7074053372644 734.9207964669998 L 1160.320074753931 741.7271311753332 Z"/></g></g><g><text fill="black" stroke="none" font-family="sans-serif" font-size="11pt" font-style="normal" font-weight="normal" text-decoration="normal" x="997.3607755750899" y="774.1252843869997" text-anchor="start" dominant-baseline="alphabetic" xml:space="preserve">created</text></g><g><path fill="none" stroke="black" paint-order="fill stroke markers" d=" M 1130.3722020372643 780.6593657069998 L 926.6962800219727 780.6593657069998" stroke-miterlimit="10" stroke-width="1.3612669416666667" stroke-dasharray="6.53408132"/><g transform="translate(913.2469626383061,780.6593657069998) translate(-913.2469626383061,-780.6593657069998)"><path fill="black" stroke="none" paint-order="stroke fill markers" d=" M 926.8596320549727 773.8530309986664 L 913.2469626383061 780.6593657069998 L 926.8596320549727 787.4657004153331 Z"/></g></g><g><text fill="black" stroke="none" font-family="sans-serif" font-size="11pt" font-style="normal" font-weight="normal" text-decoration="normal" x="549.6537919401295" y="819.8638536269997" text-anchor="start" dominant-baseline="alphabetic" xml:space="preserve">"Data modification request has been created"</text></g><g><path fill="none" stroke="black" paint-order="fill stroke markers" d=" M 896.911759338306 826.3979349469997 L 509.8536258123385 826.3979349469997" stroke-miterlimit="10" stroke-width="1.3612669416666667" stroke-dasharray="6.53408132"/><g transform="translate(496.40430842867187,826.3979349469997) translate(-496.40430842867187,-826.3979349469997)"><path fill="black" stroke="none" paint-order="stroke fill markers" d=" M 510.01697784533854 819.5916002386664 L 496.40430842867187 826.3979349469997 L 510.01697784533854 833.2042696553331 Z"/></g></g><path fill="white" stroke="black" paint-order="fill stroke markers" d=" M 496.40430842867187 869.6862236919998 L 488.2367067786719 869.6862236919998 M 200.48678499960937 850.9007398969998 L 473.5350238086719 850.9007398969998 L 488.2367067786719 865.6024228669997 L 488.2367067786719 888.4717074869998 L 200.48678499960937 888.4717074869998 L 200.48678499960937 850.9007398969998 M 473.5350238086719 850.9007398969998 L 473.5350238086719 865.6024228669997 L 488.2367067786719 865.6024228669997" stroke-miterlimit="10" stroke-width="1.3612669416666667" stroke-dasharray=""/><g><text fill="black" stroke="none" font-family="sans-serif" font-size="11pt" font-style="normal" font-weight="normal" text-decoration="normal" x="223.35606961960934" y="873.7700245169998" text-anchor="start" dominant-baseline="alphabetic" xml:space="preserve">2. Platform pulls the new notifications</text></g><g><text fill="black" stroke="none" font-family="sans-serif" font-size="11pt" font-style="normal" font-weight="normal" text-decoration="normal" x="925.3233919711518" y="971.7812443169997" text-anchor="start" dominant-baseline="alphabetic" xml:space="preserve">New notification alert (callback)</text></g><g><path fill="none" stroke="black" paint-order="fill stroke markers" d=" M 1372.0002463862227 978.3153256369998 L 694.9733421223647 978.3153256369998" stroke-miterlimit="10" stroke-width="1.3612669416666667" stroke-dasharray=""/><g transform="translate(681.524024738698,978.3153256369998) translate(-681.524024738698,-978.3153256369998)"><path fill="black" stroke="none" paint-order="stroke fill markers" d=" M 695.1366941553647 971.5089909286664 L 681.524024738698 978.3153256369998 L 695.1366941553647 985.1216603453331 Z"/></g></g><g><text fill="black" stroke="none" font-family="sans-serif" font-size="11pt" font-style="normal" font-weight="normal" text-decoration="normal" x="1026.7621355624603" y="1017.5198135569997" text-anchor="start" dominant-baseline="alphabetic" xml:space="preserve"/></g><g><path fill="none" stroke="black" paint-order="fill stroke markers" d=" M 681.524024738698 1024.0538948769997 L 1358.550929002556 1024.0538948769997" stroke-miterlimit="10" stroke-width="1.3612669416666667" stroke-dasharray="6.53408132"/><g transform="translate(1372.0002463862227,1024.0538948769997) translate(-1372.0002463862227,-1024.0538948769997)"><path fill="black" stroke="none" paint-order="stroke fill markers" d=" M 1358.387576969556 1017.2475601686664 L 1372.0002463862227 1024.0538948769997 L 1358.387576969556 1030.860229585333 Z"/></g></g><g><text fill="black" stroke="none" font-family="sans-serif" font-size="11pt" font-style="normal" font-weight="normal" text-decoration="normal" x="849.7097257709889" y="1087.761187747" text-anchor="start" dominant-baseline="alphabetic" xml:space="preserve">pull notifications</text></g><g><path fill="none" stroke="black" paint-order="fill stroke markers" d=" M 673.356423088698 1094.2952690669997 L 1116.9228846535975 1094.2952690669997" stroke-miterlimit="10" stroke-width="1.3612669416666667" stroke-dasharray=""/><g transform="translate(1130.3722020372643,1094.2952690669997) translate(-1130.3722020372643,-1094.2952690669997)"><path fill="black" stroke="none" paint-order="stroke fill markers" d=" M 1116.7595326205976 1087.4889343586665 L 1130.3722020372643 1094.2952690669997 L 1116.7595326205976 1101.101603775333 Z"/></g></g><g><text fill="black" stroke="none" font-family="sans-serif" font-size="11pt" font-style="normal" font-weight="normal" text-decoration="normal" x="1188.8527276734621" y="1133.499756987" text-anchor="start" dominant-baseline="alphabetic" xml:space="preserve">get new notifications</text></g><g><path fill="none" stroke="black" paint-order="fill stroke markers" d=" M 1146.7074053372644 1140.0338383069998 L 1350.3833273525559 1140.0338383069998" stroke-miterlimit="10" stroke-width="1.3612669416666667" stroke-dasharray=""/><g transform="translate(1363.8326447362226,1140.0338383069998) translate(-1363.8326447362226,-1140.0338383069998)"><path fill="black" stroke="none" paint-order="stroke fill markers" d=" M 1350.219975319556 1133.2275035986665 L 1363.8326447362226 1140.0338383069998 L 1350.219975319556 1146.840173015333 Z"/></g></g><g><text fill="black" stroke="none" font-family="sans-serif" font-size="11pt" font-style="normal" font-weight="normal" text-decoration="normal" x="1512.888428460295" y="1179.238326227" text-anchor="start" dominant-baseline="alphabetic" xml:space="preserve">retrieve notifications</text></g><g><path fill="none" stroke="black" paint-order="fill stroke markers" d=" M 1380.1678480362227 1185.7724075469998 L 1762.5318381071456 1185.7724075469998" stroke-miterlimit="10" stroke-width="1.3612669416666667" stroke-dasharray=""/><g transform="translate(1775.9811554908124,1185.7724075469998) translate(-1775.9811554908124,-1185.7724075469998)"><path fill="black" stroke="none" paint-order="stroke fill markers" d=" M 1762.3684860741457 1178.9660728386666 L 1775.9811554908124 1185.7724075469998 L 1762.3684860741457 1192.578742255333 Z"/></g></g><g><text fill="black" stroke="none" font-family="sans-serif" font-size="11pt" font-style="normal" font-weight="normal" text-decoration="normal" x="1539.3665778743575" y="1224.976895467" text-anchor="start" dominant-baseline="alphabetic" xml:space="preserve">notifications</text></g><g><path fill="none" stroke="black" paint-order="fill stroke markers" d=" M 1775.9811554908124 1231.510976787 L 1393.6171654198895 1231.510976787" stroke-miterlimit="10" stroke-width="1.3612669416666667" stroke-dasharray="6.53408132"/><g transform="translate(1380.1678480362227,1231.510976787) translate(-1380.1678480362227,-1231.510976787)"><path fill="black" stroke="none" paint-order="stroke fill markers" d=" M 1393.7805174528894 1224.7046420786667 L 1380.1678480362227 1231.510976787 L 1393.7805174528894 1238.3173114953331 Z"/></g></g><g><text fill="black" stroke="none" font-family="sans-serif" font-size="11pt" font-style="normal" font-weight="normal" text-decoration="normal" x="1216.5621011475832" y="1270.7154647070001" text-anchor="start" dominant-baseline="alphabetic" xml:space="preserve">notifications</text></g><g><path fill="none" stroke="black" paint-order="fill stroke markers" d=" M 1363.8326447362226 1277.249546027 L 1160.1567227209312 1277.249546027" stroke-miterlimit="10" stroke-width="1.3612669416666667" stroke-dasharray="6.53408132"/><g transform="translate(1146.7074053372644,1277.249546027) translate(-1146.7074053372644,-1277.249546027)"><path fill="black" stroke="none" paint-order="stroke fill markers" d=" M 1160.320074753931 1270.4432113186667 L 1146.7074053372644 1277.249546027 L 1160.320074753931 1284.0558807353332 Z"/></g></g><g><text fill="black" stroke="none" font-family="sans-serif" font-size="11pt" font-style="normal" font-weight="normal" text-decoration="normal" x="847.6732114887624" y="1316.4540339470002" text-anchor="start" dominant-baseline="alphabetic" xml:space="preserve">new notifications</text></g><g><path fill="none" stroke="black" paint-order="fill stroke markers" d=" M 1130.3722020372643 1322.988115267 L 686.8057404723646 1322.988115267" stroke-miterlimit="10" stroke-width="1.3612669416666667" stroke-dasharray="6.53408132"/><g transform="translate(673.356423088698,1322.988115267) translate(-673.356423088698,-1322.988115267)"><path fill="black" stroke="none" paint-order="stroke fill markers" d=" M 686.9690925053646 1316.1817805586668 L 673.356423088698 1322.988115267 L 686.9690925053646 1329.7944499753332 Z"/></g></g><path fill="white" stroke="black" paint-order="fill stroke markers" d=" M 496.40430842867187 1366.276404012 L 488.2367067786719 1366.276404012 M 191.51756197714843 1347.490920217 L 473.5350238086719 1347.490920217 L 488.2367067786719 1362.192603187 L 488.2367067786719 1385.061887807 L 191.51756197714843 1385.061887807 L 191.51756197714843 1347.490920217 M 473.5350238086719 1347.490920217 L 473.5350238086719 1362.192603187 L 488.2367067786719 1362.192603187" stroke-miterlimit="10" stroke-width="1.3612669416666667" stroke-dasharray=""/><g><text fill="black" stroke="none" font-family="sans-serif" font-size="11pt" font-style="normal" font-weight="normal" text-decoration="normal" x="214.3868465971484" y="1370.360204837" text-anchor="start" dominant-baseline="alphabetic" xml:space="preserve">3. Platform modifies data as requested</text></g><g><text fill="black" stroke="none" font-family="sans-serif" font-size="11pt" font-style="normal" font-weight="normal" text-decoration="normal" x="703.3042958053647" y="1424.266375727" text-anchor="start" dominant-baseline="alphabetic" xml:space="preserve">modify data</text></g><g><path fill="none" stroke="black" paint-order="fill stroke markers" d=" M 673.356423088698 1430.800457047 L 746.864837938698 1430.800457047 L 746.864837938698 1452.036221337 L 694.9733421223647 1452.036221337" stroke-miterlimit="10" stroke-width="1.3612669416666667" stroke-dasharray=""/><g transform="translate(681.524024738698,1452.036221337) translate(-681.524024738698,-1452.036221337)"><path fill="black" stroke="none" paint-order="stroke fill markers" d=" M 695.1366941553647 1445.2298866286667 L 681.524024738698 1452.036221337 L 695.1366941553647 1458.8425560453331 Z"/></g></g><g><text fill="black" stroke="none" font-family="sans-serif" font-size="11pt" font-style="normal" font-weight="normal" text-decoration="normal" x="703.3042958053647" y="1491.240709257" text-anchor="start" dominant-baseline="alphabetic" xml:space="preserve"/></g><g><path fill="none" stroke="black" paint-order="fill stroke markers" d=" M 681.524024738698 1497.774790577 L 746.864837938698 1497.774790577 L 746.864837938698 1519.0105548669999 L 686.8057404723646 1519.0105548669999" stroke-miterlimit="10" stroke-width="1.3612669416666667" stroke-dasharray="6.53408132"/><g transform="translate(673.356423088698,1519.0105548669999) translate(-673.356423088698,-1519.0105548669999)"><path fill="black" stroke="none" paint-order="stroke fill markers" d=" M 686.9690925053646 1512.2042201586667 L 673.356423088698 1519.0105548669999 L 686.9690925053646 1525.816889575333 Z"/></g></g><g><text fill="black" stroke="none" font-family="sans-serif" font-size="11pt" font-style="normal" font-weight="normal" text-decoration="normal" x="852.9738554096608" y="1558.215042787" text-anchor="start" dominant-baseline="alphabetic" xml:space="preserve">create log</text><text fill="black" stroke="none" font-family="sans-serif" font-size="11pt" font-style="normal" font-weight="normal" text-decoration="normal" x="852.9738554096608" y="1574.550246087" text-anchor="start" dominant-baseline="alphabetic" xml:space="preserve">(data modified)</text></g><g><path fill="none" stroke="black" paint-order="fill stroke markers" d=" M 673.356423088698 1581.0843274069998 L 1116.9228846535975 1581.0843274069998" stroke-miterlimit="10" stroke-width="1.3612669416666667" stroke-dasharray=""/><g transform="translate(1130.3722020372643,1581.0843274069998) translate(-1130.3722020372643,-1581.0843274069998)"><path fill="black" stroke="none" paint-order="stroke fill markers" d=" M 1116.7595326205976 1574.2779926986666 L 1130.3722020372643 1581.0843274069998 L 1116.7595326205976 1587.890662115333 Z"/></g></g><g><text fill="black" stroke="none" font-family="sans-serif" font-size="11pt" font-style="normal" font-weight="normal" text-decoration="normal" x="1323.1097892329024" y="1620.2888153269998" text-anchor="start" dominant-baseline="alphabetic" xml:space="preserve">create log</text><text fill="black" stroke="none" font-family="sans-serif" font-size="11pt" font-style="normal" font-weight="normal" text-decoration="normal" x="1323.1097892329024" y="1636.624018627" text-anchor="start" dominant-baseline="alphabetic" xml:space="preserve">(data modified)</text></g><g><path fill="none" stroke="black" paint-order="fill stroke markers" d=" M 1146.7074053372644 1643.1580999469998 L 1595.251187022681 1643.1580999469998" stroke-miterlimit="10" stroke-width="1.3612669416666667" stroke-dasharray=""/><g transform="translate(1597.293087435181,1643.1580999469998) translate(-1597.293087435181,-1643.1580999469998)"><path fill="none" stroke="black" paint-order="fill stroke markers" d=" M 1583.2978430521268 1636.9147024613765 L 1595.7627875696314 1643.1580999469998 L 1583.2978430521268 1649.401497432623" stroke-miterlimit="10" stroke-width="1.3612669416666667"/></g></g><g><text fill="black" stroke="none" font-family="sans-serif" font-size="11pt" font-style="normal" font-weight="normal" text-decoration="normal" x="1666.6909230641686" y="1682.362587867" text-anchor="start" dominant-baseline="alphabetic" xml:space="preserve">store log</text></g><g><path fill="none" stroke="black" paint-order="fill stroke markers" d=" M 1613.628290735181 1688.8966691869998 L 1762.5318381071456 1688.8966691869998" stroke-miterlimit="10" stroke-width="1.3612669416666667" stroke-dasharray=""/><g transform="translate(1775.9811554908124,1688.8966691869998) translate(-1775.9811554908124,-1688.8966691869998)"><path fill="black" stroke="none" paint-order="stroke fill markers" d=" M 1762.3684860741457 1682.0903344786666 L 1775.9811554908124 1688.8966691869998 L 1762.3684860741457 1695.703003895333 Z"/></g></g><g><text fill="black" stroke="none" font-family="sans-serif" font-size="11pt" font-style="normal" font-weight="normal" text-decoration="normal" x="1674.4325078420006" y="1728.101157107" text-anchor="start" dominant-baseline="alphabetic" xml:space="preserve">stored</text></g><g><path fill="none" stroke="black" paint-order="fill stroke markers" d=" M 1775.9811554908124 1734.6352384269999 L 1627.0776081188478 1734.6352384269999" stroke-miterlimit="10" stroke-width="1.3612669416666667" stroke-dasharray="6.53408132"/><g transform="translate(1613.628290735181,1734.6352384269999) translate(-1613.628290735181,-1734.6352384269999)"><path fill="black" stroke="none" paint-order="stroke fill markers" d=" M 1627.2409601518477 1727.8289037186667 L 1613.628290735181 1734.6352384269999 L 1627.2409601518477 1741.441573135333 Z"/></g></g><g><text fill="black" stroke="none" font-family="sans-serif" font-size="11pt" font-style="normal" font-weight="normal" text-decoration="normal" x="1349.9888022944258" y="1773.8397263470001" text-anchor="start" dominant-baseline="alphabetic" xml:space="preserve">logged</text></g><g><path fill="none" stroke="black" paint-order="fill stroke markers" d=" M 1597.293087435181 1780.373807667 L 1148.7493057497643 1780.373807667" stroke-miterlimit="10" stroke-width="1.3612669416666667" stroke-dasharray="6.53408132"/><g transform="translate(1146.7074053372644,1780.373807667) translate(-1146.7074053372644,-1780.373807667)"><path fill="none" stroke="black" paint-order="fill stroke markers" d=" M 1160.7026497203185 1774.1304101813766 L 1148.237705202814 1780.373807667 L 1160.7026497203185 1786.6172051526232" stroke-miterlimit="10" stroke-width="1.3612669416666667"/></g></g><g><text fill="black" stroke="none" font-family="sans-serif" font-size="11pt" font-style="normal" font-weight="normal" text-decoration="normal" x="844.0082258320241" y="1819.5782955870002" text-anchor="start" dominant-baseline="alphabetic" xml:space="preserve">log entry received</text></g><g><path fill="none" stroke="black" paint-order="fill stroke markers" d=" M 1130.3722020372643 1826.112376907 L 686.8057404723646 1826.112376907" stroke-miterlimit="10" stroke-width="1.3612669416666667" stroke-dasharray="6.53408132"/><g transform="translate(673.356423088698,1826.112376907) translate(-673.356423088698,-1826.112376907)"><path fill="black" stroke="none" paint-order="stroke fill markers" d=" M 686.9690925053646 1819.3060421986668 L 673.356423088698 1826.112376907 L 686.9690925053646 1832.9187116153332 Z"/></g></g><g><text fill="black" stroke="none" font-family="sans-serif" font-size="11pt" font-style="normal" font-weight="normal" text-decoration="normal" x="793.0776838398366" y="1865.316864827" text-anchor="start" dominant-baseline="alphabetic" xml:space="preserve">create notification</text><text fill="black" stroke="none" font-family="sans-serif" font-size="11pt" font-style="normal" font-weight="normal" text-decoration="normal" x="793.0776838398366" y="1881.6520681270001" text-anchor="start" dominant-baseline="alphabetic" xml:space="preserve">(reply to data notification request)</text></g><g><path fill="none" stroke="black" paint-order="fill stroke markers" d=" M 673.356423088698 1888.186149447 L 1116.9228846535975 1888.186149447" stroke-miterlimit="10" stroke-width="1.3612669416666667" stroke-dasharray=""/><g transform="translate(1130.3722020372643,1888.186149447) translate(-1130.3722020372643,-1888.186149447)"><path fill="black" stroke="none" paint-order="stroke fill markers" d=" M 1116.7595326205976 1881.3798147386667 L 1130.3722020372643 1888.186149447 L 1116.7595326205976 1894.9924841553332 Z"/></g></g><g><text fill="black" stroke="none" font-family="sans-serif" font-size="11pt" font-style="normal" font-weight="normal" text-decoration="normal" x="1204.7439172486575" y="1927.3906373670002" text-anchor="start" dominant-baseline="alphabetic" xml:space="preserve">new notification</text></g><g><path fill="none" stroke="black" paint-order="fill stroke markers" d=" M 1146.7074053372644 1933.924718687 L 1361.7907443237227 1933.924718687" stroke-miterlimit="10" stroke-width="1.3612669416666667" stroke-dasharray=""/><g transform="translate(1363.8326447362226,1933.924718687) translate(-1363.8326447362226,-1933.924718687)"><path fill="none" stroke="black" paint-order="fill stroke markers" d=" M 1349.8374003531685 1927.6813212013767 L 1362.302344870673 1933.924718687 L 1349.8374003531685 1940.1681161726233" stroke-miterlimit="10" stroke-width="1.3612669416666667"/></g></g><g><text fill="black" stroke="none" font-family="sans-serif" font-size="11pt" font-style="normal" font-weight="normal" text-decoration="normal" x="1524.6994407283614" y="1973.1292066070002" text-anchor="start" dominant-baseline="alphabetic" xml:space="preserve">store notification</text></g><g><path fill="none" stroke="black" paint-order="fill stroke markers" d=" M 1380.1678480362227 1979.663287927 L 1762.5318381071456 1979.663287927" stroke-miterlimit="10" stroke-width="1.3612669416666667" stroke-dasharray=""/><g transform="translate(1775.9811554908124,1979.663287927) translate(-1775.9811554908124,-1979.663287927)"><path fill="black" stroke="none" paint-order="stroke fill markers" d=" M 1762.3684860741457 1972.8569532186668 L 1775.9811554908124 1979.663287927 L 1762.3684860741457 1986.4696226353333 Z"/></g></g><g><text fill="black" stroke="none" font-family="sans-serif" font-size="11pt" font-style="normal" font-weight="normal" text-decoration="normal" x="1557.7022864925216" y="2018.8677758470003" text-anchor="start" dominant-baseline="alphabetic" xml:space="preserve">stored</text></g><g><path fill="none" stroke="black" paint-order="fill stroke markers" d=" M 1775.9811554908124 2025.4018571670001 L 1393.6171654198895 2025.4018571670001" stroke-miterlimit="10" stroke-width="1.3612669416666667" stroke-dasharray="6.53408132"/><g transform="translate(1380.1678480362227,2025.4018571670001) translate(-1380.1678480362227,-2025.4018571670001)"><path fill="black" stroke="none" paint-order="stroke fill markers" d=" M 1393.7805174528894 2018.595522458667 L 1380.1678480362227 2025.4018571670001 L 1393.7805174528894 2032.2081918753333 Z"/></g></g><g><text fill="black" stroke="none" font-family="sans-serif" font-size="11pt" font-style="normal" font-weight="normal" text-decoration="normal" x="1230.821218274048" y="2064.606345087" text-anchor="start" dominant-baseline="alphabetic" xml:space="preserve">created</text></g><g><path fill="none" stroke="black" paint-order="fill stroke markers" d=" M 1363.8326447362226 2071.140426407 L 1148.7493057497643 2071.140426407" stroke-miterlimit="10" stroke-width="1.3612669416666667" stroke-dasharray="6.53408132"/><g transform="translate(1146.7074053372644,2071.140426407) translate(-1146.7074053372644,-2071.140426407)"><path fill="none" stroke="black" paint-order="fill stroke markers" d=" M 1160.7026497203185 2064.8970289213767 L 1148.237705202814 2071.140426407 L 1160.7026497203185 2077.3838238926237" stroke-miterlimit="10" stroke-width="1.3612669416666667"/></g></g><g><text fill="black" stroke="none" font-family="sans-serif" font-size="11pt" font-style="normal" font-weight="normal" text-decoration="normal" x="837.0790952778249" y="2110.344914327" text-anchor="start" dominant-baseline="alphabetic" xml:space="preserve">notification received</text></g><g><path fill="none" stroke="black" paint-order="fill stroke markers" d=" M 1130.3722020372643 2116.878995647 L 686.8057404723646 2116.878995647" stroke-miterlimit="10" stroke-width="1.3612669416666667" stroke-dasharray="6.53408132"/><g transform="translate(673.356423088698,2116.878995647) translate(-673.356423088698,-2116.878995647)"><path fill="black" stroke="none" paint-order="stroke fill markers" d=" M 686.9690925053646 2110.0726609386666 L 673.356423088698 2116.878995647 L 686.9690925053646 2123.6853303553335 Z"/></g></g><path fill="white" stroke="black" paint-order="fill stroke markers" d=" M 496.40430842867187 2160.167284392 L 488.2367067786719 2160.167284392 M 106.76455599570312 2141.381800597 L 473.5350238086719 2141.381800597 L 488.2367067786719 2156.0834835670003 L 488.2367067786719 2178.952768187 L 106.76455599570312 2178.952768187 L 106.76455599570312 2141.381800597 M 473.5350238086719 2141.381800597 L 473.5350238086719 2156.0834835670003 L 488.2367067786719 2156.0834835670003" stroke-miterlimit="10" stroke-width="1.3612669416666667" stroke-dasharray=""/><g><text fill="black" stroke="none" font-family="sans-serif" font-size="11pt" font-style="normal" font-weight="normal" text-decoration="normal" x="129.6338406157031" y="2164.2510852170003" text-anchor="start" dominant-baseline="alphabetic" xml:space="preserve">4. Data provider is informed about data modification</text></g><g><text fill="black" stroke="none" font-family="sans-serif" font-size="11pt" font-style="normal" font-weight="normal" text-decoration="normal" x="628.6122498869069" y="2218.1572561069997" text-anchor="start" dominant-baseline="alphabetic" xml:space="preserve">see new notifications</text></g><g><path fill="none" stroke="black" paint-order="fill stroke markers" d=" M 496.40430842867187 2224.691337427 L 883.4624419546393 2224.691337427" stroke-miterlimit="10" stroke-width="1.3612669416666667" stroke-dasharray=""/><g transform="translate(896.911759338306,2224.691337427) translate(-896.911759338306,-2224.691337427)"><path fill="black" stroke="none" paint-order="stroke fill markers" d=" M 883.2990899216393 2217.8850027186663 L 896.911759338306 2224.691337427 L 883.2990899216393 2231.4976721353332 Z"/></g></g><g><text fill="black" stroke="none" font-family="sans-serif" font-size="11pt" font-style="normal" font-weight="normal" text-decoration="normal" x="954.1718183607344" y="2263.8958253469996" text-anchor="start" dominant-baseline="alphabetic" xml:space="preserve">pull new notifications</text></g><g><path fill="none" stroke="black" paint-order="fill stroke markers" d=" M 913.2469626383061 2270.4299066669996 L 1116.9228846535975 2270.4299066669996" stroke-miterlimit="10" stroke-width="1.3612669416666667" stroke-dasharray=""/><g transform="translate(1130.3722020372643,2270.4299066669996) translate(-1130.3722020372643,-2270.4299066669996)"><path fill="black" stroke="none" paint-order="stroke fill markers" d=" M 1116.7595326205976 2263.623571958666 L 1130.3722020372643 2270.4299066669996 L 1116.7595326205976 2277.236241375333 Z"/></g></g><g><text fill="black" stroke="none" font-family="sans-serif" font-size="11pt" font-style="normal" font-weight="normal" text-decoration="normal" x="1204.3359048585207" y="2309.6343945869994" text-anchor="start" dominant-baseline="alphabetic" xml:space="preserve">get notifications</text></g><g><path fill="none" stroke="black" paint-order="fill stroke markers" d=" M 1146.7074053372644 2316.1684759069994 L 1350.3833273525559 2316.1684759069994" stroke-miterlimit="10" stroke-width="1.3612669416666667" stroke-dasharray=""/><g transform="translate(1363.8326447362226,2316.1684759069994) translate(-1363.8326447362226,-2316.1684759069994)"><path fill="black" stroke="none" paint-order="stroke fill markers" d=" M 1350.219975319556 2309.362141198666 L 1363.8326447362226 2316.1684759069994 L 1350.219975319556 2322.974810615333 Z"/></g></g><g><text fill="black" stroke="none" font-family="sans-serif" font-size="11pt" font-style="normal" font-weight="normal" text-decoration="normal" x="1512.888428460295" y="2355.3729638269992" text-anchor="start" dominant-baseline="alphabetic" xml:space="preserve">retrieve notifications</text></g><g><path fill="none" stroke="black" paint-order="fill stroke markers" d=" M 1380.1678480362227 2361.9070451469993 L 1762.5318381071456 2361.9070451469993" stroke-miterlimit="10" stroke-width="1.3612669416666667" stroke-dasharray=""/><g transform="translate(1775.9811554908124,2361.9070451469993) translate(-1775.9811554908124,-2361.9070451469993)"><path fill="black" stroke="none" paint-order="stroke fill markers" d=" M 1762.3684860741457 2355.100710438666 L 1775.9811554908124 2361.9070451469993 L 1762.3684860741457 2368.7133798553327 Z"/></g></g><g><text fill="black" stroke="none" font-family="sans-serif" font-size="11pt" font-style="normal" font-weight="normal" text-decoration="normal" x="1539.3665778743575" y="2401.111533066999" text-anchor="start" dominant-baseline="alphabetic" xml:space="preserve">notifications</text></g><g><path fill="none" stroke="black" paint-order="fill stroke markers" d=" M 1775.9811554908124 2407.645614386999 L 1393.6171654198895 2407.645614386999" stroke-miterlimit="10" stroke-width="1.3612669416666667" stroke-dasharray="6.53408132"/><g transform="translate(1380.1678480362227,2407.645614386999) translate(-1380.1678480362227,-2407.645614386999)"><path fill="black" stroke="none" paint-order="stroke fill markers" d=" M 1393.7805174528894 2400.8392796786657 L 1380.1678480362227 2407.645614386999 L 1393.7805174528894 2414.4519490953326 Z"/></g></g><g><text fill="black" stroke="none" font-family="sans-serif" font-size="11pt" font-style="normal" font-weight="normal" text-decoration="normal" x="1216.5621011475832" y="2446.850102306999" text-anchor="start" dominant-baseline="alphabetic" xml:space="preserve">notifications</text></g><g><path fill="none" stroke="black" paint-order="fill stroke markers" d=" M 1363.8326447362226 2453.384183626999 L 1160.1567227209312 2453.384183626999" stroke-miterlimit="10" stroke-width="1.3612669416666667" stroke-dasharray="6.53408132"/><g transform="translate(1146.7074053372644,2453.384183626999) translate(-1146.7074053372644,-2453.384183626999)"><path fill="black" stroke="none" paint-order="stroke fill markers" d=" M 1160.320074753931 2446.5778489186655 L 1146.7074053372644 2453.384183626999 L 1160.320074753931 2460.1905183353324 Z"/></g></g><g><text fill="black" stroke="none" font-family="sans-serif" font-size="11pt" font-style="normal" font-weight="normal" text-decoration="normal" x="967.6184812635664" y="2492.5886715469987" text-anchor="start" dominant-baseline="alphabetic" xml:space="preserve">new notifications</text></g><g><path fill="none" stroke="black" paint-order="fill stroke markers" d=" M 1130.3722020372643 2499.122752866999 L 926.6962800219727 2499.122752866999" stroke-miterlimit="10" stroke-width="1.3612669416666667" stroke-dasharray="6.53408132"/><g transform="translate(913.2469626383061,2499.122752866999) translate(-913.2469626383061,-2499.122752866999)"><path fill="black" stroke="none" paint-order="stroke fill markers" d=" M 926.8596320549727 2492.3164181586653 L 913.2469626383061 2499.122752866999 L 926.8596320549727 2505.9290875753322 Z"/></g></g><g><text fill="black" stroke="none" font-family="sans-serif" font-size="11pt" font-style="normal" font-weight="normal" text-decoration="normal" x="620.87424329511" y="2538.3272407869986" text-anchor="start" dominant-baseline="alphabetic" xml:space="preserve">List of new notifications</text></g><g><path fill="none" stroke="black" paint-order="fill stroke markers" d=" M 896.911759338306 2544.8613221069986 L 509.8536258123385 2544.8613221069986" stroke-miterlimit="10" stroke-width="1.3612669416666667" stroke-dasharray="6.53408132"/><g transform="translate(496.40430842867187,2544.8613221069986) translate(-496.40430842867187,-2544.8613221069986)"><path fill="black" stroke="none" paint-order="stroke fill markers" d=" M 510.01697784533854 2538.054987398665 L 496.40430842867187 2544.8613221069986 L 510.01697784533854 2551.667656815332 Z"/></g></g><g><g/><path fill="none" stroke="black" paint-order="fill stroke markers" d=" M 608.0156098886979 912.9745124369998 L 1429.1734579362226 912.9745124369998 L 1429.1734579362226 1048.5566998269996 L 608.0156098886979 1048.5566998269996 L 608.0156098886979 912.9745124369998 Z" stroke-miterlimit="10" stroke-width="2.3336004714285714" stroke-dasharray=""/><path fill="white" stroke="black" paint-order="fill stroke markers" d=" M 608.0156098886979 912.9745124369998 L 608.0156098886979 932.5767563969998 L 658.9224819427994 932.5767563969998 L 668.7236039227994 922.7756344169998 L 668.7236039227994 912.9745124369998 L 608.0156098886979 912.9745124369998" stroke-miterlimit="10" stroke-width="2.3336004714285714" stroke-dasharray=""/><text fill="black" stroke="none" font-family="sans-serif" font-size="8.8pt" font-style="normal" font-weight="bold" text-decoration="normal" x="624.3508131886979" y="926.0426750769998" text-anchor="start" dominant-baseline="alphabetic" xml:space="preserve">opt</text><g><rect fill="white" stroke="none" x="682.6085267277994" y="914.2813287009998" width="60.28006233277344" height="16.988611432000003"/></g><text fill="black" stroke="none" font-family="sans-serif" font-size="8.8pt" font-style="normal" font-weight="bold" text-decoration="normal" x="685.0588072227994" y="926.0426750769998" text-anchor="start" dominant-baseline="alphabetic" xml:space="preserve">[Optional]</text></g></g><g/><g/><g/><g/><g/><g/><g/></g></svg>