<svg xmlns="http://www.w3.org/2000/svg" xmlns:xlink="http://www.w3.org/1999/xlink" version="1.1" width="1333.48950146978" height="1064.8919031269995"><desc>%23actor%20Data%20Consumer%0A%23actor%20Data%20Provider%0Aparticipant%20Data%20Consumer%20System%0Aparticipant%20Platform%20Core%0A%0Aparticipantgroup%20%23FFF2CC%20Data%20Protection%20Cockpit%20(DPC)%20%0Aparticipant%20UI%20%23FFF2CC%0Aparticipant%20API%20%23FFF2CC%0A%23participant%20Notification%20Service%20%23yellow%0Aparticipant%20Grant%20Service%20%23d5e8d4%0Aparticipant%20Participant%20Service%20%23lightblue%0Aparticipant%20Log%20Service%20%23e1d5e7%0Adatabase%20Repository%20%23lightgray%0Aend%0A%0A%0Aautoactivation%20%0A%0A%23note%20left%20of%20Data%20Consumer%20System%20%23black%3A%3Ccolor%3A%23white%3E1.%20Data%20consumer%20system%20request%20data%20asset%0A%0AData%20Consumer%20System%20-%3E%20Platform%20Core%3A%20get%20data%20asset%0A%0APlatform%20Core-%3E%20API%3Acheck%20grant%20for%20data%20flow%0AAPI%20-%3E%20Grant%20Service%3Acheck%20grant%20for%20data%20flow%0AGrant%20Service%20-%3E%20Repository%3A%20retrieve%20grants%0ARepository--%3EGrant%20Service%3A%20grants%0A%0A%0Aalt%20if%20there%20are%20grants%0A%20%20Grant%20Service-%3E%20Log%20Service%3A%20create%20log%5Cn(grant%20checked%20for%20data%20flow)%0A%20%20Log%20Service%20--%3E%20Grant%20Service%3A%20logged%0A%20%20Grant%20Service--%3E%20API%3Agranted%0A%20%20API%20--%3E%20Platform%20Core%3Agranted%0A%20%20Platform%20Core%20-%3E%20Platform%20Core%3Aget%20data%20asset%20from%20repository%0A%20%20Platform%20Core%20--%3E%20Platform%20Core%3Adata%20asset%0A%20%20Platform%20Core%20--%3E%20Data%20Consumer%20System%3Adata%20asset%0A%20%20%0Aelse%20there%20are%20no%20grants%0AGrant%20Service%20--%3E%20API%3A%20exception%3A%5Cnno%20grants%20found%0AAPI%20--%3E%20Platform%20Core%3A%20no%20grants%20found%0APlatform%20Core%20--%3E%20Data%20Consumer%20System%3A%20unauthorized%0Aend%0A</desc><defs/><g><g/><g/><g/><g/><g/><g/><g/><g/><g/><g/><g/><g/><g/><g/><g/><g/><g/><g/><g/><g/><g/><g/><g/><g/><g/><g/><g/><g/><g/><g/><g/><g/><g/><g/><g/><g/><g/><g/><g/><g/><g/><g/><g/><g/><g/><g/><g/><g/><g/><g/><g/><g/><g/><g/><g/><g/><g/><g/><g/><g/><g/><g/><g/><g/><g/><g/><g/><g/><g/><g/><g/><g/><g/><g/><g/><g/><g/><g/><g/><g/><g/><g/><g/><g/><g/><g/><g/><g/><g/><g/><g/><g/><g/><g/><g/><g/><g><rect fill="white" stroke="none" x="0" y="0" width="1333" height="1073"/></g><g><g><path fill="#FFF2CC" stroke="black" paint-order="fill stroke markers" d=" M 502.37824176412363 9.556093930499998 L 1325.32189981978 9.556093930499998 L 1325.32189981978 1064.8919031269995 L 502.37824176412363 1064.8919031269995 L 502.37824176412363 9.556093930499998 Z" stroke-miterlimit="10" stroke-width="1.3612669416666667" stroke-dasharray=""/></g><g><text fill="black" stroke="none" font-family="sans-serif" font-size="11pt" font-style="normal" font-weight="normal" text-decoration="normal" x="812.4184683139244" y="32.4253785505" text-anchor="start" dominant-baseline="alphabetic" xml:space="preserve">Data Protection Cockpit (DPC) </text></g></g><g><path fill="none" stroke="black" paint-order="fill stroke markers" d=" M 103.69728935696484 125.617713377 L 103.69728935696484 1064.8919031269995" stroke-miterlimit="10" stroke-width="1.3612669416666667" stroke-dasharray="12.565541,5.445067766666667"/><path fill="none" stroke="black" paint-order="fill stroke markers" d=" M 278.5006052535117 125.617713377 L 278.5006052535117 1064.8919031269995" stroke-miterlimit="10" stroke-width="1.3612669416666667" stroke-dasharray="12.565541,5.445067766666667"/><path fill="none" stroke="black" paint-order="fill stroke markers" d=" M 535.5995331962838 125.617713377 L 535.5995331962838 1064.8919031269995" stroke-miterlimit="10" stroke-width="1.3612669416666667" stroke-dasharray="12.565541,5.445067766666667"/><path fill="none" stroke="black" paint-order="fill stroke markers" d=" M 645.4042098069934 125.617713377 L 645.4042098069934 1064.8919031269995" stroke-miterlimit="10" stroke-width="1.3612669416666667" stroke-dasharray="12.565541,5.445067766666667"/><path fill="none" stroke="black" paint-order="fill stroke markers" d=" M 865.0135630284127 125.617713377 L 865.0135630284127 1064.8919031269995" stroke-miterlimit="10" stroke-width="1.3612669416666667" stroke-dasharray="12.565541,5.445067766666667"/><path fill="none" stroke="black" paint-order="fill stroke markers" d=" M 1022.7159267765221 125.617713377 L 1022.7159267765221 1064.8919031269995" stroke-miterlimit="10" stroke-width="1.3612669416666667" stroke-dasharray="12.565541,5.445067766666667"/><path fill="none" stroke="black" paint-order="fill stroke markers" d=" M 1174.3159269382056 125.617713377 L 1174.3159269382056 1064.8919031269995" stroke-miterlimit="10" stroke-width="1.3612669416666667" stroke-dasharray="12.565541,5.445067766666667"/><path fill="none" stroke="black" paint-order="fill stroke markers" d=" M 1282.1185239388228 125.617713377 L 1282.1185239388228 1064.8919031269995" stroke-miterlimit="10" stroke-width="1.3612669416666667" stroke-dasharray="12.565541,5.445067766666667"/></g><g><path fill="none" stroke="none"/><g><path fill="white" stroke="black" paint-order="fill stroke markers" d=" M 8.167601649999995 81.51266446700001 L 199.2269770639297 81.51266446700001 L 199.2269770639297 125.617713377 L 8.167601649999995 125.617713377 L 8.167601649999995 81.51266446700001 Z" stroke-miterlimit="10" stroke-width="2.613632528" stroke-dasharray=""/></g><g><g/><text fill="black" stroke="none" font-family="sans-serif" font-size="11pt" font-style="normal" font-weight="normal" text-decoration="normal" x="25.8912972305" y="109.282510077" text-anchor="start" dominant-baseline="alphabetic" xml:space="preserve">Data Consumer System</text></g><path fill="none" stroke="none"/><g><path fill="white" stroke="black" paint-order="fill stroke markers" d=" M 215.56218036392966 81.51266446700001 L 341.43903014309376 81.51266446700001 L 341.43903014309376 125.617713377 L 215.56218036392966 125.617713377 L 215.56218036392966 81.51266446700001 Z" stroke-miterlimit="10" stroke-width="2.613632528" stroke-dasharray=""/></g><g><g/><text fill="black" stroke="none" font-family="sans-serif" font-size="11pt" font-style="normal" font-weight="normal" text-decoration="normal" x="233.28587594442968" y="109.282510077" text-anchor="start" dominant-baseline="alphabetic" xml:space="preserve">Platform Core</text></g><path fill="none" stroke="none"/><g><path fill="#FFF2CC" stroke="black" paint-order="fill stroke markers" d=" M 510.5458434141236 81.51266446700001 L 560.653222978444 81.51266446700001 L 560.653222978444 125.617713377 L 510.5458434141236 125.617713377 L 510.5458434141236 81.51266446700001 Z" stroke-miterlimit="10" stroke-width="2.613632528" stroke-dasharray=""/></g><g><g/><text fill="black" stroke="none" font-family="sans-serif" font-size="11pt" font-style="normal" font-weight="normal" text-decoration="normal" x="528.2695389946236" y="109.282510077" text-anchor="start" dominant-baseline="alphabetic" xml:space="preserve">UI</text></g><path fill="none" stroke="none"/><g><path fill="#FFF2CC" stroke="black" paint-order="fill stroke markers" d=" M 615.8659161429973 81.51266446700001 L 674.9425034709895 81.51266446700001 L 674.9425034709895 125.617713377 L 615.8659161429973 125.617713377 L 615.8659161429973 81.51266446700001 Z" stroke-miterlimit="10" stroke-width="2.613632528" stroke-dasharray=""/></g><g><g/><text fill="black" stroke="none" font-family="sans-serif" font-size="11pt" font-style="normal" font-weight="normal" text-decoration="normal" x="633.5896117234973" y="109.282510077" text-anchor="start" dominant-baseline="alphabetic" xml:space="preserve">API</text></g><path fill="none" stroke="none"/><g><path fill="#d5e8d4" stroke="black" paint-order="fill stroke markers" d=" M 802.4795799723267 81.51266446700001 L 927.5475460844987 81.51266446700001 L 927.5475460844987 125.617713377 L 802.4795799723267 125.617713377 L 802.4795799723267 81.51266446700001 Z" stroke-miterlimit="10" stroke-width="2.613632528" stroke-dasharray=""/></g><g><g/><text fill="black" stroke="none" font-family="sans-serif" font-size="11pt" font-style="normal" font-weight="normal" text-decoration="normal" x="820.2032755528268" y="109.282510077" text-anchor="start" dominant-baseline="alphabetic" xml:space="preserve">Grant Service</text></g><path fill="none" stroke="none"/><g><path fill="lightblue" stroke="black" paint-order="fill stroke markers" d=" M 943.8827493844987 81.51266446700001 L 1101.5491041685455 81.51266446700001 L 1101.5491041685455 125.617713377 L 943.8827493844987 125.617713377 L 943.8827493844987 81.51266446700001 Z" stroke-miterlimit="10" stroke-width="2.613632528" stroke-dasharray=""/></g><g><g/><text fill="black" stroke="none" font-family="sans-serif" font-size="11pt" font-style="normal" font-weight="normal" text-decoration="normal" x="961.6064449649987" y="109.282510077" text-anchor="start" dominant-baseline="alphabetic" xml:space="preserve">Participant Service</text></g><path fill="none" stroke="none"/><g><path fill="#e1d5e7" stroke="black" paint-order="fill stroke markers" d=" M 1117.8843074685456 81.51266446700001 L 1230.747546407866 81.51266446700001 L 1230.747546407866 125.617713377 L 1117.8843074685456 125.617713377 L 1117.8843074685456 81.51266446700001 Z" stroke-miterlimit="10" stroke-width="2.613632528" stroke-dasharray=""/></g><g><g/><text fill="black" stroke="none" font-family="sans-serif" font-size="11pt" font-style="normal" font-weight="normal" text-decoration="normal" x="1135.6080030490455" y="109.282510077" text-anchor="start" dominant-baseline="alphabetic" xml:space="preserve">Log Service</text></g><g><path fill="lightgray" stroke="black" paint-order="fill stroke markers" d=" M 1258.2691271208228 93.600714909 L 1258.2691271208228 59.29678797900001 L 1305.9679207568229 59.29678797900001 L 1305.9679207568229 93.600714909" stroke-miterlimit="10" stroke-width="2.7769845610000004" stroke-dasharray=""/><path fill="lightgray" stroke="black" paint-order="fill stroke markers" d=" M 1305.9679207568229 58.104318138100005 L 1305.9667282969192 58.21212868301663 L 1305.9631510364532 58.319928446968596 L 1305.9571893331477 58.42770665006936 L 1305.9488437831685 58.53545251458841 L 1305.9381152210633 58.64315526602909 L 1305.9250047196795 58.75080413420601 L 1305.9095135900561 58.85838835432205 L 1305.8916433812935 58.96589716804486 L 1305.8713958803976 59.073319824582654 L 1305.8487731121013 59.1806455817593 L 1305.823777338663 59.28786370708852 L 1305.796411059639 59.394963478847124 L 1305.7666770116343 59.501934187147185 L 1305.7345781680292 59.60876513500702 L 1305.700117738681 59.715445639420864 L 1305.6632991696042 59.82196503242718 L 1305.624126142625 59.92831266217543 L 1305.5826025750132 60.03447789399126 L 1305.5387326190912 60.14045011143997 L 1305.492520661818 60.24621871738811 L 1305.4439713243505 60.35177313506323 L 1305.3930894615826 60.45710280911153 L 1305.3398801616574 60.56219720665338 L 1305.2843487454613 60.6670458183366 L 1305.2265007660894 60.771638159387386 L 1305.1663420082912 60.875963770658814 L 1305.1038784878924 60.980012219676674 L 1305.0391164511934 61.08377310168279 L 1304.9720623743433 61.18723604067541 L 1304.9027229626943 61.29039069044686 L 1304.8311051501298 61.393226735618136 L 1304.7572160983711 61.4957338926704 L 1304.681063196262 61.597901910973384 L 1304.6026540590292 61.69972057381039 L 1304.5219965275212 61.80117969939998 L 1304.4390986674237 61.902269141914154 L 1304.3539687684538 62.00297879249289 L 1304.2666153435305 62.10329858025506 L 1304.1770471279233 62.20321847330548 L 1304.085273078379 62.302728479738136 L 1303.9913023722268 62.40181864863528 L 1303.8951444064583 62.500479071062614 L 1303.79680879679 62.5986998810601 L 1303.6963053767013 62.6964712566286 L 1303.59364419645 62.793783420712025 L 1303.488835522069 62.89062664217507 L 1303.3818898343382 62.98699123677628 L 1303.2728178277373 63.08286756813651 L 1303.161630409376 63.178246048702505 L 1303.0483386979033 63.2731171407057 L 1302.9329540223964 63.36747135711595 L 1302.8154879212263 63.46129926259025 L 1302.6959521409055 63.55459147441624 L 1302.5743586349122 63.647338663450476 L 1302.4507195624958 63.73953155505134 L 1302.3250472874604 63.83116093000651 L 1302.1973543769288 63.92221762545484 L 1302.067653600086 64.01269253580267 L 1301.935957926901 64.10257661363435 L 1301.8022805268317 64.19186087061702 L 1301.6666347675068 64.28053637839936 L 1301.529034213389 64.36859426950451 L 1301.389492624419 64.45602573821674 L 1301.2480239546398 64.54282204146202 L 1301.1046423508 64.62897449968237 L 1300.9593621509407 64.71447449770376 L 1300.812197882961 64.79931348559764 L 1300.6631642631648 64.8834829795359 L 1300.51227619479 64.96697456263931 L 1300.3595487665177 65.04977988581912 L 1300.2049972509633 65.13189066861203 L 1300.0486371031498 65.21329870000817 L 1299.8904839589616 65.29399583927226 L 1299.7305536335814 65.37397401675761 L 1299.568862119908 65.45322523471312 L 1299.4054255869587 65.53174156808304 L 1299.2402603782502 65.60951516529946 L 1299.073383010166 65.68653824906747 L 1298.9048101703036 65.76280311714287 L 1298.7345587158063 65.83830214310242 L 1298.5626456716782 65.91302777710644 L 1298.3890882290802 65.98697254665379 L 1298.2139037436118 66.06012905732914 L 1298.0371097335758 66.13248999354239 L 1297.8587238782256 66.20404811926022 L 1297.6787640159985 66.27479627872968 L 1297.4972481427303 66.3447273971938 L 1297.3141944098575 66.41383448159898 L 1297.1296211226004 66.4821106212944 L 1296.9435467381343 66.54954898872295 L 1296.7559898637423 66.61614284010412 L 1296.5669692549557 66.68188551610825 L 1296.3765038136778 66.74677044252253 L 1296.184612586294 66.81079113090838 L 1295.9913147617672 66.87394117925032 L 1295.7966296697186 66.93621427259615 L 1295.6005767784955 66.99760418368842 L 1295.4031756932234 67.05810477358717 L 1295.2044461538462 67.11770999228384 L 1295.0044080331525 67.17641387930622 L 1294.8030813347875 67.23421056431454 L 1294.6004861912534 67.29109426768845 L 1294.3966428618958 67.34705930110503 L 1294.1915717308773 67.40210006810757 L 1293.9852933051407 67.45621106466523 L 1293.7778282123563 67.50938687972345 L 1293.5691971988606 67.56162219574504 L 1293.359421127581 67.61291178924193 L 1293.14852097595 67.6632505312975 L 1292.936517833807 67.71263338807951 L 1292.7234329012895 67.76105542134341 L 1292.509287486713 67.80851178892625 L 1292.2941030044408 67.85499774523082 L 1292.0779009727416 67.9005086417002 L 1291.8607030116384 67.94503992728269 L 1291.6425308407463 67.98858714888684 L 1291.4234062771009 68.03114595182676 L 1291.2033512329756 68.07271208025765 L 1290.9823877136914 68.11328137760128 L 1290.7605378154165 68.15284978696175 L 1290.5378237229554 68.19141335153107 L 1290.314267707532 68.22896821498495 L 1290.0898921245614 68.2655106218683 L 1289.864719411415 68.30103691797092 L 1289.6387720851767 68.33554355069278 L 1289.4120727403906 68.36902706939938 L 1289.184644046802 68.40148412576673 L 1288.9565087470914 68.43291147411628 L 1288.727689654598 68.46330597173935 L 1288.4982096510407 68.4926645792115 L 1288.2680916842287 68.52098436069649 L 1288.0373587657666 68.54826248423974 L 1287.8060339687543 68.57449622205164 L 1287.5741404254784 68.59968295078025 L 1287.3417013251003 68.62382015177371 L 1287.1087399113362 68.64690541133201 L 1286.8752794801333 68.66893642094847 L 1286.6413433773403 68.68991097754045 L 1286.4069549963724 68.70982698366979 L 1286.1721377758724 68.72868244775246 L 1285.9369151973667 68.74647548425779 L 1285.701310782917 68.76320431389692 L 1285.4653480927689 68.77886726380085 L 1285.229050722994 68.79346276768764 L 1284.992442303133 68.80698936601907 L 1284.7555464938305 68.81944570614655 L 1284.51838698447 68.83083054244649 L 1284.2809874908048 68.84114273644471 L 1284.0433717525864 68.85038125693043 L 1283.8055635311907 68.8585451800593 L 1283.5675866072418 68.86563368944577 L 1283.3294647782334 68.87164607624486 L 1283.09122185615 68.87658173922287 L 1282.8528816650858 68.88044018481763 L 1282.6144680388607 68.8832210271878 L 1282.376004818639 68.88492398825143 L 1282.1375158505439 68.88554889771386 L 1281.8990249832734 68.88509569308466 L 1281.6605560657156 68.88356441968392 L 1281.4221329445634 68.88095523063768 L 1281.1837794619303 68.87726838686271 L 1280.945519452966 68.87250425704028 L 1280.7073767434727 68.86666331757941 L 1280.469375147523 68.85974615256919 L 1280.231538465078 68.85175345372033 L 1279.9938904796081 68.8426860202961 L 1279.7564549557137 68.83254475903225 L 1279.519255636749 68.82133068404647 L 1279.2823162424486 68.8090449167369 L 1279.0456604665542 68.79568868567006 L 1278.8093119744465 68.78126332645789 L 1278.5732944007775 68.76577028162431 L 1278.3376313471078 68.7492111004609 L 1278.1023463795468 68.73158743887197 L 1277.8674630263947 68.71290105920899 L 1277.6330047757915 68.69315383009435 L 1277.3989950733665 68.6723477262345 L 1277.1654573198953 68.65048482822252 L 1276.9324148689582 68.62756732232997 L 1276.6998910246066 68.60359750028833 L 1276.4679090390307 68.57857775905984 L 1276.236492110236 68.55251060059778 L 1276.0056633797226 68.52539863159627 L 1275.775445930171 68.49724456322961 L 1275.5458627831345 68.46805121088119 L 1275.3169368967363 68.4378214938619 L 1275.0886911633743 68.40655843511826 L 1274.8611484074315 68.3742651609301 L 1274.6343313829943 68.3409449005979 L 1274.4082627715757 68.30660098611995 L 1274.1829651798487 68.27123685185907 L 1273.9584611373848 68.23485603419923 L 1273.734773094401 68.19746217119186 L 1273.511923419515 68.1590590021921 L 1273.289934397509 68.11965036748485 L 1273.0688282270996 68.07924020790075 L 1272.8486270187204 68.03783256442209 L 1272.629352792308 67.99543157777869 L 1272.4110274751029 67.95204148803388 L 1272.1936728994547 67.90766663416049 L 1271.9773108006395 67.86231145360694 L 1271.7619628146872 67.81598048185344 L 1271.5476504762169 67.76867835195861 L 1271.3343952162838 67.72040979409601 L 1271.1222183602363 67.67117963508119 L 1270.911141125583 67.62099279788902 L 1270.7011846198718 67.56985430116141 L 1270.4923698385778 67.51776925870541 L 1270.2847176630055 67.46474287898188 L 1270.0782488581992 67.41078046458458 L 1269.8729840708677 67.35588741171 L 1269.6689438273181 67.30006920961766 L 1269.4661485314052 67.24333144008128 L 1269.2646184624896 67.18567977683051 L 1269.0643737734097 67.12711998498365 L 1268.8654344884683 67.06765792047108 L 1268.6678205014275 67.0072995294497 L 1268.4715515735215 66.9460508477083 L 1268.2766473314798 66.88391800006403 L 1268.0831272655637 66.82090719974988 L 1267.891010727619 66.75702474779337 L 1267.7003169291393 66.69227703238643 L 1267.5110649393453 66.62667052824669 L 1267.3232736832783 66.56021179596986 L 1267.1369619399077 66.4929074813738 L 1266.9521483402523 66.4247643148339 L 1266.7688513655182 66.35578911060999 L 1266.58708934525 66.28598876616503 L 1266.4068804554984 66.21537026147531 L 1266.228242717002 66.14394065833244 L 1266.0511939933863 66.07170709963721 L 1265.8757519893754 65.99867680868529 L 1265.701934249024 65.92485708844492 L 1265.529758153961 65.8502553208266 L 1265.3592409216528 65.77487896594495 L 1265.1903996036801 65.69873556137263 L 1265.0232510840342 65.62183272138664 L 1264.8578120774278 65.5441781362069 L 1264.6940991276238 65.46577957122719 L 1264.5321286057804 65.38664486623871 L 1264.371916708815 65.30678193464601 L 1264.213479457784 65.22619876267568 L 1264.0568326962803 65.14490340857778 L 1263.9019920888493 65.06290400181996 L 1263.748973119423 64.98020874227457 L 1263.5977910897707 64.89682589939866 L 1263.4484611179694 64.81276381140702 L 1263.3009981368918 64.7280308844384 L 1263.1554168927134 64.64263559171489 L 1263.0117319434369 64.5565864726946 L 1262.8699576574377 64.46989213221772 L 1262.7301082120262 64.38256123964607 L 1262.5921975920305 64.29460252799609 L 1262.4562395883975 64.2060247930657 L 1262.3222477968145 64.11683689255453 L 1262.1902356163487 64.02704774517835 L 1262.0602162481084 63.93666632977704 L 1261.932202693922 63.84570168441684 L 1261.806207755038 63.75416290548648 L 1261.6822440308456 63.66205914678757 L 1261.560323917614 63.56939961861922 L 1261.4404596072525 63.47619358685704 L 1261.3226630860925 63.38245037202654 L 1261.206946133688 63.288179348371074 L 1261.093320321638 63.19338994291445 L 1260.9817970124284 63.09809163451822 L 1260.8723873582978 63.00229395293381 L 1260.7651023001201 62.90600647784956 L 1260.6599525663119 62.80923883793272 L 1260.5569486717588 62.71200070986665 L 1260.4561009167646 62.61430181738313 L 1260.3574193860204 62.516151930289986 L 1260.2609139475976 62.417560863494145 L 1260.166594251959 62.318538476020116 L 1260.074469730996 62.219094670024134 L 1259.984549597084 62.11923938980393 L 1259.8968428421608 62.018982620804316 L 1259.8113582368296 61.91833438861863 L 1259.7281043294793 61.81730475798624 L 1259.6470894454314 61.715903831786 L 1259.5683216861066 61.61414175002604 L 1259.4918089282153 61.51202868882973 L 1259.4175588229696 61.40957485941809 L 1259.3455787953178 61.3067905070887 L 1259.2758760432032 61.203685910191126 L 1259.2084575368426 61.10027137909914 L 1259.1433300180306 60.996557255179674 L 1259.0804999994648 60.89255390975869 L 1259.0199737640946 60.78827174308406 L 1258.9617573644932 60.683721183285556 L 1258.9058566222518 60.57891268533202 L 1258.8522771273983 60.473856729985926 L 1258.8010242378377 60.36856382275525 L 1258.7521030788157 60.26304449284297 L 1258.705518542408 60.157309292094155 L 1258.661275287029 60.05136879394075 L 1258.6193777369676 59.94523359234431 L 1258.5798300819438 59.83891430073653 L 1258.5426362766902 59.73242155095798 L 1258.5078000405563 59.62576599219489 L 1258.4753248571367 59.518958289914266 L 1258.4452139739226 59.41200912479732 L 1258.4174704019774 59.30492919167144 L 1258.392096915635 59.19772919844071 L 1258.369096052223 59.09041986501512 L 1258.3484701118086 58.98301192223859 L 1258.3302211569685 58.87551611081589 L 1258.314351012583 58.767943180238575 L 1258.3008612656536 58.660303887710064 L 1258.2897532651434 58.55260899706992 L 1258.2810281218433 58.444869277717444 L 1258.2746867082603 58.337095503534805 L 1258.2707296585306 58.2292984518096 L 1258.269157368356 58.121488902157175 L 1258.269969994964 58.013677635442654 L 1258.2731674570925 57.905875432702864 L 1258.2787494349982 57.79809307406824 L 1258.2867153704879 57.69034133768484 L 1258.2970644669747 57.582630998636496 L 1258.3097956895574 57.47497282786737 L 1258.3249077651246 57.367377591104805 L 1258.3423991824811 57.25985604778283 L 1258.3622681924999 57.15241894996617 L 1258.3845128082967 57.04507704127507 L 1258.409130805428 56.937841055810964 L 1258.436119722115 56.83072171708302 L 1258.4654768594885 56.72372973693586 L 1258.497199281859 56.61687581447832 L 1258.5312838170107 56.51017063501361 L 1258.5677270565188 56.40362486897076 L 1258.6065253560896 56.29724917083759 L 1258.6476748359253 56.19105417809525 L 1258.6911713811123 56.08505051015453 L 1258.7370106420324 55.979248767293896 L 1258.7851880347976 55.87365952959945 L 1258.8356987417087 55.76829335590698 L 1258.8885377117374 55.66316078274605 L 1258.9436996610305 55.55827232328636 L 1259.001179073439 55.453638466286456 L 1259.06097020107 55.349269675044845 L 1259.12306706486 55.24517638635367 L 1259.1874634551743 55.141369009455055 L 1259.254152932428 55.037857925000196 L 1259.3231288277289 54.93465348401127 L 1259.3943842435447 54.83176600684637 L 1259.4679120543933 54.72920578216748 L 1259.543704907555 54.6269830659116 L 1259.6217552238074 54.52510808026517 L 1259.702055198184 54.42359101264186 L 1259.7845968007546 54.32244201466383 L 1259.8693717774274 54.22167120114659 L 1259.9563716507753 54.12128864908752 L 1260.0455877208838 54.02130439665817 L 1260.1370110662197 53.92172844220046 L 1260.2306325445252 53.82257074322687 L 1260.3264427937304 53.72384121542465 L 1260.42443223289 53.62554973166431 L 1260.5245910631418 53.52770612101232 L 1260.6269092686862 53.43032016774821 L 1260.731376617788 53.33340161038615 L 1260.8379826637995 53.23696014070111 L 1260.9467167462049 53.14100540275969 L 1261.0575679916863 53.045546991955725 L 1261.1705253152115 52.950594454050744 L 1261.2855774211425 52.85615728421942 L 1261.4027128043647 52.762244926100024 L 1261.5219197514373 52.668866770850116 L 1261.6431863417647 52.57603215620741 L 1261.766500448789 52.483750365556 L 1261.8918497412026 52.39203062699805 L 1262.0192216841801 52.300882112431 L 1262.148603540634 52.21031393663032 L 1262.279982372486 52.12033515633814 L 1262.4133450419627 52.0309547693575 L 1262.548678212908 51.942181713652616 L 1262.685968352118 51.85402486645508 L 1262.8252017306927 51.766493043376144 L 1262.9663644254106 51.67959499752518 L 1263.1094423201198 51.59333941863436 L 1263.25442110715 51.50773493218968 L 1263.4012862887432 51.42279009856846 L 1263.5500231785038 51.338513412183275 L 1263.7006169028668 51.25491330063253 L 1263.853052402585 51.17199812385771 L 1264.007314434236 51.0897761733074 L 1264.1633875717446 51.00825567110814 L 1264.3212562079275 50.927444769242214 L 1264.4809045560523 50.84735154873246 L 1264.6423166514176 50.7679840188342 L 1264.8054763529478 50.689350116234266 L 1264.9703673448096 50.611457704257404 L 1265.1369731380405 50.53431457207989 L 1265.3052770722002 50.45792843395067 L 1265.4752623170355 50.382306928419894 L 1265.6469118741638 50.307457617575096 L 1265.820208578772 50.23338798628499 L 1265.9951351013347 50.16010544145098 L 1266.1716739493447 50.08761731126648 L 1266.349807469065 50.015930844484096 L 1266.5295178472913 49.945053209690776 L 1266.7107871131363 49.87499149459093 L 1266.8935971398241 49.80575270529769 L 1267.0779296465043 49.737343765632275 L 1267.26376620008 49.66977151643166 L 1267.4510882170505 49.60304271486444 L 1267.6398769653706 49.537164033755175 L 1267.8301135663223 49.47214206091707 L 1268.0217789964045 49.407983298493235 L 1268.2148540892335 49.34469416230643 L 1268.4093195374612 49.282280981217546 L 1268.6051558947047 49.22074999649268 L 1268.8023435774917 49.16010736117902 L 1269.0008628672178 49.10035913948957 L 1269.2006939121197 49.04151130619671 L 1269.4018167292597 48.98356974603472 L 1269.6042112065234 48.92654025311134 L 1269.8078571046315 48.87042853032834 L 1270.0127340591644 48.81524018881123 L 1270.218821582597 48.760980747348185 L 1270.426099066349 48.70765563183812 L 1270.6345457828445 48.65527017474815 L 1270.8441408875856 48.60382961458035 L 1271.0548634212366 48.55333909534784 L 1271.2666923117197 48.50380366606049 L 1271.4796063763222 48.455228280219934 L 1271.6935843238152 48.40761779532429 L 1271.9086047565825 48.36097697238237 L 1272.1246461727596 48.3153104754376 L 1272.3416869683854 48.27062287110161 L 1272.5597054395605 48.2269186280976 L 1272.7786797846202 48.18420211681345 L 1272.998588106312 48.1424776088647 L 1273.2194084139871 48.10174927666736 L 1273.4411186257987 48.062021193020726 L 1273.6636965709106 48.02329733070004 L 1273.8871199917137 47.985581562059274 L 1274.1113665460518 47.94887765864386 L 1274.3364138094569 47.91318929081355 L 1274.5622392773896 47.878520027375394 L 1274.7888203674916 47.844873335226836 L 1275.0161344218427 47.81225257900906 L 1275.244158709227 47.7806610207705 L 1275.4728704274053 47.75010181964065 L 1275.7022467053969 47.720578031514165 L 1275.9322646057649 47.69209260874525 L 1276.162901126911 47.664648399852446 L 1276.3941332053755 47.63824814923377 L 1276.625937718143 47.61289449689228 L 1276.8582914849553 47.58858997817209 L 1277.0911712706295 47.56533702350482 L 1277.324553787381 47.54313795816655 L 1277.5584156971527 47.521995002045315 L 1277.7927336139485 47.50191026941911 L 1278.027484106172 47.482885768744474 L 1278.2626436989697 47.46492340245561 L 1278.498188876578 47.44802496677417 L 1278.7340960846757 47.43219215152965 L 1278.9703417327385 47.41742653999037 L 1279.2069021963982 47.403729608705206 L 1279.443753819806 47.39110272735584 L 1279.6808729179966 47.3795471586199 L 1279.918235779258 47.369064058044636 L 1280.1558186675018 47.35965447393136 L 1280.3935978246373 47.351319347230636 L 1280.6315494729465 47.3440595114482 L 1280.8696498174634 47.33787569256158 L 1281.1078750483514 47.33276850894751 L 1281.3462013432863 47.328738471320094 L 1281.5846048698374 47.32578598267973 L 1281.8230617878503 47.32391133827283 L 1282.0615482518322 47.32311472556227 L 1282.3000404133352 47.323396224208665 L 1282.5385144233421 47.32475580606237 L 1282.7769464346504 47.32719333516634 L 1283.0153126042578 47.3307085677697 L 1283.2535890957463 47.33530115235211 L 1283.4917520816646 47.34097062965894 L 1283.7297777459132 47.3477164327472 L 1283.9676422861237 47.35553788704218 L 1284.2053219160405 47.36443421040498 L 1284.4427928678983 47.374404513210685 L 1284.6800313948004 47.385447798437305 L 1284.9170137730914 47.39756296176553 L 1285.153716304731 47.41074879168913 L 1285.3901153196632 47.42500396963608 L 1285.6261871781837 47.44032707010049 L 1285.8619082733035 47.45671656078506 L 1286.0972550331091 47.4741708027544 L 1286.332203923121 47.492688050598844 L 1286.566731448646 47.51226645260904 L 1286.8008141571265 47.5329040509611 L 1287.0344286404872 47.554598781912404 L 1287.2675515374744 47.57734847600791 L 1287.5001595359925 47.60115085829719 L 1287.7322293754355 47.62600354856183 L 1287.9637378490131 47.65190406155354 L 1288.1946618060704 47.67884980724257 L 1288.4249781544047 47.70683809107683 L 1288.6546638625725 47.735866114251266 L 1288.883695962195 47.76593097398773 L 1289.1120515502525 47.79702966382531 L 1289.3397077913771 47.82915907392094 L 1289.5666419201339 47.86231599136038 L 1289.7928312432994 47.89649710047953 L 1290.0182531421294 47.93169898319594 L 1290.2428850746226 47.9679181193507 L 1290.4667045777721 48.00515088706036 L 1290.6896892698146 48.04339356307918 L 1290.9118168524667 48.08264232317141 L 1291.1330651131552 48.12289324249378 L 1291.3534119272383 48.16414229598789 L 1291.5728352602182 48.20638535878274 L 1291.7913131699447 48.24961820660728 L 1292.0088238088085 48.29383651621275 L 1292.2253454259273 48.33903586580504 L 1292.4408563693198 48.38521173548684 L 1292.655335088071 48.43235950770968 L 1292.868760134488 48.48047446773562 L 1293.081110166244 48.52955180410875 L 1293.2923639485125 48.57958660913633 L 1293.5025003560918 48.63057387937956 L 1293.711498375516 48.6825085161539 L 1293.919337107157 48.73538532603896 L 1294.1259957673153 48.789199021397806 L 1294.331453690297 48.84394422090574 L 1294.535690330481 48.89961545008845 L 1294.7386852643733 48.9562071418694 L 1294.94041819265 49.01371363712657 L 1295.140868942186 49.07212918525836 L 1295.3400174680737 49.131447944758634 L 1295.5378438556263 49.19166398380087 L 1295.73432832237 49.25277128083136 L 1295.9294512200215 49.314763725171304 L 1296.1231930364543 49.37763511762794 L 1296.3155343976478 49.44137917111441 L 1296.5064560696262 49.505989511278486 L 1296.6959389603815 49.57145967714 L 1296.8839641217824 49.637783121736916 L 1297.0705127514693 49.70495321278004 L 1297.2555661947351 49.772963233316254 L 1297.4391059463894 49.84180638240017 L 1297.6211136526101 49.91147577577426 L 1297.801571112778 49.98196444655723 L 1297.9804602812978 50.05326534594075 L 1298.1577632694018 50.1253713438943 L 1298.3334623469384 50.19827522987816 L 1298.5075399441469 50.27196971356451 L 1298.679978653412 50.346447425566375 L 1298.850761231007 50.421700918174615 L 1299.0198705988164 50.49772266610269 L 1299.187289846044 50.57450506723916 L 1299.3530022309048 50.65204044340789 L 1299.5169911822986 50.73032104113588 L 1299.6792403014665 50.80933903242859 L 1299.8397333636321 50.889086515552734 L 1299.9984543196229 50.969555515826464 L 1300.1553872974755 51.050737986416806 L 1300.310516604023 51.13262580914435 L 1300.4638267264636 51.215210795295064 L 1300.6153023339134 51.29848468643916 L 1300.7649282789375 51.38243915525691 L 1300.9126895990664 51.467065806371394 L 1301.0585715182908 51.55235617718803 L 1301.2025594485408 51.63830173874081 L 1301.3446389911428 51.72489389654519 L 1301.4847959382616 51.812123991457554 L 1301.6230162743188 51.899983300541116 L 1301.7592861773962 51.98846303793816 L 1301.893592020617 52.0775543557487 L 1302.0259203735088 52.16724834491519 L 1302.1562580033465 52.25753603611345 L 1302.2845918764758 52.3484084006496 L 1302.4109091596165 52.439856351362934 L 1302.5351972211452 52.53187074353457 L 1302.6574436323597 52.62444237580196 L 1302.7776361687204 52.717561991079045 L 1302.8957628110738 52.81122027748188 L 1303.0118117468546 52.905407869259875 L 1303.1257713712655 53.00011534773235 L 1303.237630288439 53.09533324223036 L 1303.347377312577 53.191052031043824 L 1303.455001469068 53.28726214237362 L 1303.5604919955865 53.38395395528879 L 1303.6638383431678 53.481117800688615 L 1303.7650301772626 53.57874396226953 L 1303.8640573787725 53.67682267749672 L 1303.9609100450596 53.77534413858041 L 1304.055578490938 53.874298493456585 L 1304.1480532496419 53.973675846772224 L 1304.2383250737726 54.073466260874795 L 1304.326384936223 54.17365975680607 L 1304.41222403108 54.274246315299926 L 1304.4958337745059 54.37521587778435 L 1304.577205805596 54.476558347387225 L 1304.6563319872148 54.578263589946054 L 1304.7332044068103 54.68032143502133 L 1304.8078153772044 54.78272167691359 L 1304.8801574373624 54.88545407568398 L 1304.9502233531387 54.98850835817824 L 1305.0180061179997 55.091874219053985 L 1305.0834989537257 55.19554132181128 L 1305.1466953110876 55.29949929982622 L 1305.2075888705021 55.40373775738766 L 1305.2661735426645 55.508246270736684 L 1305.3224434691563 55.61301438910906 L 1305.3763930230316 55.718031635780264 L 1305.4280168093796 55.82328750911313 L 1305.4773096658655 55.92877148360804 L 1305.524266663244 56.03447301095545 L 1305.5688831058549 56.14038152109071 L 1305.611154532091 56.24648642325106 L 1305.6510767148447 56.35277710703471 L 1305.6886456619313 56.45924294346186 L 1305.7238576164875 56.56587328603757 L 1305.7567090573468 56.672657471816464 L 1305.7871966993926 56.779584822468934 L 1305.8153174938864 56.88664464534902 L 1305.8410686287718 56.99382623456367 L 1305.8644475289568 57.10111887204326 L 1305.8854518565713 57.20851182861346 L 1305.9040795111994 57.31599436506811 L 1305.9203286300917 57.42355573324312 L 1305.9341975883497 57.53118517709132 L 1305.9456849990888 57.63887193375801 L 1305.954789713578 57.74660523465727 L 1305.9615108213532 57.85437430654877 L 1305.9658476503093 57.962168372615146 L 1305.9677997667668 58.06997665353961 M 1305.9679207568229 92.4082450681 L 1305.9667282969192 92.51605561301662 L 1305.9631510364532 92.62385537696859 L 1305.9571893331477 92.73163358006936 L 1305.9488437831685 92.8393794445884 L 1305.9381152210633 92.94708219602909 L 1305.9250047196795 93.05473106420601 L 1305.9095135900561 93.16231528432205 L 1305.8916433812935 93.26982409804485 L 1305.8713958803976 93.37724675458266 L 1305.8487731121013 93.4845725117593 L 1305.823777338663 93.59179063708852 L 1305.796411059639 93.69889040884712 L 1305.7666770116343 93.80586111714719 L 1305.7345781680292 93.91269206500702 L 1305.700117738681 94.01937256942087 L 1305.6632991696042 94.12589196242718 L 1305.624126142625 94.23223959217543 L 1305.5826025750132 94.33840482399125 L 1305.5387326190912 94.44437704143996 L 1305.492520661818 94.5501456473881 L 1305.4439713243505 94.65570006506323 L 1305.3930894615826 94.76102973911152 L 1305.3398801616574 94.86612413665337 L 1305.2843487454613 94.97097274833659 L 1305.2265007660894 95.07556508938738 L 1305.1663420082912 95.1798907006588 L 1305.1038784878924 95.28393914967667 L 1305.0391164511934 95.38770003168278 L 1304.9720623743433 95.4911629706754 L 1304.9027229626943 95.59431762044686 L 1304.8311051501298 95.69715366561813 L 1304.7572160983711 95.7996608226704 L 1304.681063196262 95.90182884097338 L 1304.6026540590292 96.00364750381038 L 1304.5219965275212 96.10510662939998 L 1304.4390986674237 96.20619607191415 L 1304.3539687684538 96.30690572249289 L 1304.2666153435305 96.40722551025506 L 1304.1770471279233 96.50714540330549 L 1304.085273078379 96.60665540973812 L 1303.9913023722268 96.70574557863527 L 1303.8951444064583 96.8044060010626 L 1303.79680879679 96.9026268110601 L 1303.6963053767013 97.0003981866286 L 1303.59364419645 97.09771035071202 L 1303.488835522069 97.19455357217507 L 1303.3818898343382 97.29091816677628 L 1303.2728178277373 97.3867944981365 L 1303.161630409376 97.4821729787025 L 1303.0483386979033 97.5770440707057 L 1302.9329540223964 97.67139828711595 L 1302.8154879212263 97.76522619259025 L 1302.6959521409055 97.85851840441623 L 1302.5743586349122 97.95126559345047 L 1302.4507195624958 98.04345848505133 L 1302.3250472874604 98.13508786000651 L 1302.1973543769288 98.22614455545484 L 1302.067653600086 98.31661946580266 L 1301.935957926901 98.40650354363434 L 1301.8022805268317 98.49578780061701 L 1301.6666347675068 98.58446330839936 L 1301.529034213389 98.67252119950452 L 1301.389492624419 98.75995266821674 L 1301.2480239546398 98.84674897146202 L 1301.1046423508 98.93290142968237 L 1300.9593621509407 99.01840142770375 L 1300.812197882961 99.10324041559763 L 1300.6631642631648 99.18740990953589 L 1300.51227619479 99.2709014926393 L 1300.3595487665177 99.35370681581911 L 1300.2049972509633 99.43581759861202 L 1300.0486371031498 99.51722563000817 L 1299.8904839589616 99.59792276927226 L 1299.7305536335814 99.6779009467576 L 1299.568862119908 99.75715216471312 L 1299.4054255869587 99.83566849808304 L 1299.2402603782502 99.91344209529944 L 1299.073383010166 99.99046517906746 L 1298.9048101703036 100.06673004714287 L 1298.7345587158063 100.14222907310241 L 1298.5626456716782 100.21695470710642 L 1298.3890882290802 100.29089947665378 L 1298.2139037436118 100.36405598732914 L 1298.0371097335758 100.43641692354238 L 1297.8587238782256 100.50797504926021 L 1297.6787640159985 100.57872320872968 L 1297.4972481427303 100.64865432719378 L 1297.3141944098575 100.71776141159897 L 1297.1296211226004 100.78603755129438 L 1296.9435467381343 100.85347591872295 L 1296.7559898637423 100.9200697701041 L 1296.5669692549557 100.98581244610824 L 1296.3765038136778 101.05069737252252 L 1296.184612586294 101.11471806090837 L 1295.9913147617672 101.17786810925033 L 1295.7966296697186 101.24014120259615 L 1295.6005767784955 101.30153111368841 L 1295.4031756932234 101.36203170358716 L 1295.2044461538462 101.42163692228384 L 1295.0044080331525 101.48034080930621 L 1294.8030813347875 101.53813749431454 L 1294.6004861912534 101.59502119768845 L 1294.3966428618958 101.65098623110502 L 1294.1915717308773 101.70602699810756 L 1293.9852933051407 101.76013799466523 L 1293.7778282123563 101.81331380972344 L 1293.5691971988606 101.86554912574503 L 1293.359421127581 101.91683871924192 L 1293.14852097595 101.9671774612975 L 1292.936517833807 102.0165603180795 L 1292.7234329012895 102.06498235134342 L 1292.509287486713 102.11243871892626 L 1292.2941030044408 102.15892467523081 L 1292.0779009727416 102.2044355717002 L 1291.8607030116384 102.24896685728268 L 1291.6425308407463 102.29251407888682 L 1291.4234062771009 102.33507288182676 L 1291.2033512329756 102.37663901025765 L 1290.9823877136914 102.41720830760129 L 1290.7605378154165 102.45677671696174 L 1290.5378237229554 102.49534028153107 L 1290.314267707532 102.53289514498493 L 1290.0898921245614 102.56943755186829 L 1289.864719411415 102.60496384797091 L 1289.6387720851767 102.63947048069276 L 1289.4120727403906 102.67295399939937 L 1289.184644046802 102.70541105576673 L 1288.9565087470914 102.73683840411627 L 1288.727689654598 102.76723290173933 L 1288.4982096510407 102.79659150921151 L 1288.2680916842287 102.82491129069649 L 1288.0373587657666 102.85218941423973 L 1287.8060339687543 102.87842315205162 L 1287.5741404254784 102.90360988078025 L 1287.3417013251003 102.9277470817737 L 1287.1087399113362 102.95083234133202 L 1286.8752794801333 102.97286335094847 L 1286.6413433773403 102.99383790754045 L 1286.4069549963724 103.01375391366979 L 1286.1721377758724 103.03260937775246 L 1285.9369151973667 103.05040241425777 L 1285.701310782917 103.06713124389691 L 1285.4653480927689 103.08279419380085 L 1285.229050722994 103.09738969768763 L 1284.992442303133 103.11091629601906 L 1284.7555464938305 103.12337263614656 L 1284.51838698447 103.13475747244648 L 1284.2809874908048 103.14506966644471 L 1284.0433717525864 103.15430818693042 L 1283.8055635311907 103.16247211005928 L 1283.5675866072418 103.16956061944578 L 1283.3294647782334 103.17557300624486 L 1283.09122185615 103.18050866922287 L 1282.8528816650858 103.18436711481763 L 1282.6144680388607 103.18714795718779 L 1282.376004818639 103.18885091825143 L 1282.1375158505439 103.18947582771386 L 1281.8990249832734 103.18902262308465 L 1281.6605560657156 103.18749134968391 L 1281.4221329445634 103.18488216063768 L 1281.1837794619303 103.1811953168627 L 1280.945519452966 103.17643118704027 L 1280.7073767434727 103.1705902475794 L 1280.469375147523 103.16367308256918 L 1280.231538465078 103.15568038372034 L 1279.9938904796081 103.14661295029609 L 1279.7564549557137 103.13647168903225 L 1279.519255636749 103.12525761404646 L 1279.2823162424486 103.1129718467369 L 1279.0456604665542 103.09961561567005 L 1278.8093119744465 103.08519025645788 L 1278.5732944007775 103.06969721162432 L 1278.3376313471078 103.0531380304609 L 1278.1023463795468 103.03551436887196 L 1277.8674630263947 103.01682798920898 L 1277.6330047757915 102.99708076009435 L 1277.3989950733665 102.97627465623451 L 1277.1654573198953 102.95441175822252 L 1276.9324148689582 102.93149425232995 L 1276.6998910246066 102.90752443028832 L 1276.4679090390307 102.88250468905984 L 1276.236492110236 102.85643753059779 L 1276.0056633797226 102.82932556159626 L 1275.775445930171 102.80117149322962 L 1275.5458627831345 102.77197814088119 L 1275.3169368967363 102.7417484238619 L 1275.0886911633743 102.71048536511826 L 1274.8611484074315 102.67819209093008 L 1274.6343313829943 102.64487183059789 L 1274.4082627715757 102.61052791611995 L 1274.1829651798487 102.57516378185908 L 1273.9584611373848 102.53878296419921 L 1273.734773094401 102.50138910119185 L 1273.511923419515 102.4629859321921 L 1273.289934397509 102.42357729748485 L 1273.0688282270996 102.38316713790076 L 1272.8486270187204 102.34175949442208 L 1272.629352792308 102.29935850777868 L 1272.4110274751029 102.25596841803387 L 1272.1936728994547 102.2115935641605 L 1271.9773108006395 102.16623838360692 L 1271.7619628146872 102.11990741185345 L 1271.5476504762169 102.07260528195862 L 1271.3343952162838 102.024336724096 L 1271.1222183602363 101.97510656508118 L 1270.911141125583 101.92491972788902 L 1270.7011846198718 101.8737812311614 L 1270.4923698385778 101.82169618870542 L 1270.2847176630055 101.76866980898188 L 1270.0782488581992 101.71470739458458 L 1269.8729840708677 101.65981434170999 L 1269.6689438273181 101.60399613961766 L 1269.4661485314052 101.54725837008127 L 1269.2646184624896 101.4896067068305 L 1269.0643737734097 101.43104691498365 L 1268.8654344884683 101.37158485047108 L 1268.6678205014275 101.3112264594497 L 1268.4715515735215 101.2499777777083 L 1268.2766473314798 101.18784493006403 L 1268.0831272655637 101.12483412974987 L 1267.891010727619 101.06095167779335 L 1267.7003169291393 100.99620396238643 L 1267.5110649393453 100.93059745824668 L 1267.3232736832783 100.86413872596987 L 1267.1369619399077 100.79683441137381 L 1266.9521483402523 100.7286912448339 L 1266.7688513655182 100.65971604061 L 1266.58708934525 100.58991569616504 L 1266.4068804554984 100.5192971914753 L 1266.228242717002 100.44786758833243 L 1266.0511939933863 100.3756340296372 L 1265.8757519893754 100.30260373868528 L 1265.701934249024 100.22878401844491 L 1265.529758153961 100.15418225082661 L 1265.3592409216528 100.07880589594495 L 1265.1903996036801 100.00266249137262 L 1265.0232510840342 99.92575965138663 L 1264.8578120774278 99.84810506620688 L 1264.6940991276238 99.76970650122719 L 1264.5321286057804 99.69057179623871 L 1264.371916708815 99.610708864646 L 1264.213479457784 99.53012569267568 L 1264.0568326962803 99.44883033857778 L 1263.9019920888493 99.36683093181996 L 1263.748973119423 99.28413567227457 L 1263.5977910897707 99.20075282939865 L 1263.4484611179694 99.11669074140701 L 1263.3009981368918 99.0319578144384 L 1263.1554168927134 98.9465625217149 L 1263.0117319434369 98.8605134026946 L 1262.8699576574377 98.77381906221773 L 1262.7301082120262 98.68648816964605 L 1262.5921975920305 98.5985294579961 L 1262.4562395883975 98.5099517230657 L 1262.3222477968145 98.42076382255453 L 1262.1902356163487 98.33097467517834 L 1262.0602162481084 98.24059325977703 L 1261.932202693922 98.14962861441684 L 1261.806207755038 98.05808983548647 L 1261.6822440308456 97.96598607678756 L 1261.560323917614 97.87332654861922 L 1261.4404596072525 97.78012051685704 L 1261.3226630860925 97.68637730202654 L 1261.206946133688 97.59210627837106 L 1261.093320321638 97.49731687291444 L 1260.9817970124284 97.40201856451822 L 1260.8723873582978 97.30622088293381 L 1260.7651023001201 97.20993340784955 L 1260.6599525663119 97.11316576793271 L 1260.5569486717588 97.01592763986665 L 1260.4561009167646 96.91822874738313 L 1260.3574193860204 96.82007886028998 L 1260.2609139475976 96.72148779349413 L 1260.166594251959 96.62246540602011 L 1260.074469730996 96.52302160002414 L 1259.984549597084 96.42316631980393 L 1259.8968428421608 96.32290955080431 L 1259.8113582368296 96.22226131861864 L 1259.7281043294793 96.12123168798624 L 1259.6470894454314 96.019830761786 L 1259.5683216861066 95.91806868002604 L 1259.4918089282153 95.81595561882972 L 1259.4175588229696 95.71350178941809 L 1259.3455787953178 95.6107174370887 L 1259.2758760432032 95.50761284019111 L 1259.2084575368426 95.40419830909913 L 1259.1433300180306 95.30048418517967 L 1259.0804999994648 95.19648083975868 L 1259.0199737640946 95.09219867308406 L 1258.9617573644932 94.98764811328554 L 1258.9058566222518 94.88283961533202 L 1258.8522771273983 94.77778365998593 L 1258.8010242378377 94.67249075275525 L 1258.7521030788157 94.56697142284297 L 1258.705518542408 94.46123622209414 L 1258.661275287029 94.35529572394076 L 1258.6193777369676 94.24916052234431 L 1258.5798300819438 94.14284123073652 L 1258.5426362766902 94.03634848095798 L 1258.5078000405563 93.92969292219489 L 1258.4753248571367 93.82288521991427 L 1258.4452139739226 93.71593605479731 L 1258.4174704019774 93.60885612167144 L 1258.392096915635 93.50165612844071 L 1258.369096052223 93.39434679501512 L 1258.3484701118086 93.28693885223859 L 1258.3302211569685 93.17944304081588 L 1258.314351012583 93.07187011023856 L 1258.3008612656536 92.96423081771006 L 1258.2897532651434 92.85653592706991 L 1258.2810281218433 92.74879620771745 L 1258.2746867082603 92.6410224335348 L 1258.2707296585306 92.5332253818096 L 1258.269157368356 92.42541583215717" stroke-miterlimit="10" stroke-width="2.7769845610000004" stroke-dasharray=""/></g><g><g/><text fill="black" stroke="none" font-family="sans-serif" font-size="11pt" font-style="normal" font-weight="normal" text-decoration="normal" x="1247.0827497078658" y="120.717152387" text-anchor="start" dominant-baseline="alphabetic" xml:space="preserve">Repository</text></g></g><g><path fill="white" stroke="black" paint-order="fill stroke markers" d=" M 270.3330036035117 179.523884267 L 286.6682069035117 179.523884267 L 286.6682069035117 785.5599266969997 L 270.3330036035117 785.5599266969997 L 270.3330036035117 179.523884267" stroke-miterlimit="10" stroke-width="1.3612669416666667" stroke-dasharray=""/><path fill="white" stroke="black" paint-order="fill stroke markers" d=" M 637.2366081569934 225.262453507 L 653.5718114569935 225.262453507 L 653.5718114569935 605.8726903969998 L 637.2366081569934 605.8726903969998 L 637.2366081569934 225.262453507" stroke-miterlimit="10" stroke-width="1.3612669416666667" stroke-dasharray=""/><path fill="white" stroke="black" paint-order="fill stroke markers" d=" M 856.8459613784127 271.001022747 L 873.1811646784128 271.001022747 L 873.1811646784128 560.1341211569999 L 856.8459613784127 560.1341211569999 L 856.8459613784127 271.001022747" stroke-miterlimit="10" stroke-width="1.3612669416666667" stroke-dasharray=""/><path fill="white" stroke="black" paint-order="fill stroke markers" d=" M 1273.9509222888228 316.739591987 L 1290.2861255888229 316.739591987 L 1290.2861255888229 362.478161227 L 1273.9509222888228 362.478161227 L 1273.9509222888228 316.739591987" stroke-miterlimit="10" stroke-width="1.3612669416666667" stroke-dasharray=""/><path fill="white" stroke="black" paint-order="fill stroke markers" d=" M 1166.1483252882056 468.656982677 L 1182.4835285882057 468.656982677 L 1182.4835285882057 514.3955519169999 L 1166.1483252882056 514.3955519169999 L 1166.1483252882056 468.656982677" stroke-miterlimit="10" stroke-width="1.3612669416666667" stroke-dasharray=""/><path fill="white" stroke="black" paint-order="fill stroke markers" d=" M 278.5006052535117 672.8470239269998 L 294.8358085535117 672.8470239269998 L 294.8358085535117 718.5855931669997 L 278.5006052535117 718.5855931669997 L 278.5006052535117 672.8470239269998" stroke-miterlimit="10" stroke-width="1.3612669416666667" stroke-dasharray=""/><g><text fill="black" stroke="none" font-family="sans-serif" font-size="11pt" font-style="normal" font-weight="normal" text-decoration="normal" x="140.96648620191797" y="172.989802947" text-anchor="start" dominant-baseline="alphabetic" xml:space="preserve">get data asset</text></g><g><path fill="none" stroke="black" paint-order="fill stroke markers" d=" M 103.69728935696484 179.523884267 L 256.88368621984506 179.523884267" stroke-miterlimit="10" stroke-width="1.3612669416666667" stroke-dasharray=""/><g transform="translate(270.3330036035117,179.523884267) translate(-270.3330036035117,-179.523884267)"><path fill="black" stroke="none" paint-order="stroke fill markers" d=" M 256.72033418684504 172.71754955866666 L 270.3330036035117 179.523884267 L 256.72033418684504 186.33021897533334 Z"/></g></g><g><text fill="black" stroke="none" font-family="sans-serif" font-size="11pt" font-style="normal" font-weight="normal" text-decoration="normal" x="382.0956036362096" y="218.728372187" text-anchor="start" dominant-baseline="alphabetic" xml:space="preserve">check grant for data flow</text></g><g><path fill="none" stroke="black" paint-order="fill stroke markers" d=" M 286.6682069035117 225.262453507 L 623.7872907733267 225.262453507" stroke-miterlimit="10" stroke-width="1.3612669416666667" stroke-dasharray=""/><g transform="translate(637.2366081569934,225.262453507) translate(-637.2366081569934,-225.262453507)"><path fill="black" stroke="none" paint-order="stroke fill markers" d=" M 623.6239387403267 218.45611879866667 L 637.2366081569934 225.262453507 L 623.6239387403267 232.06878821533334 Z"/></g></g><g><text fill="black" stroke="none" font-family="sans-serif" font-size="11pt" font-style="normal" font-weight="normal" text-decoration="normal" x="675.3520825236601" y="264.466941427" text-anchor="start" dominant-baseline="alphabetic" xml:space="preserve">check grant for data flow</text></g><g><path fill="none" stroke="black" paint-order="fill stroke markers" d=" M 653.5718114569935 271.001022747 L 843.396643994746 271.001022747" stroke-miterlimit="10" stroke-width="1.3612669416666667" stroke-dasharray=""/><g transform="translate(856.8459613784127,271.001022747) translate(-856.8459613784127,-271.001022747)"><path fill="black" stroke="none" paint-order="stroke fill markers" d=" M 843.233291961746 264.19468803866664 L 856.8459613784127 271.001022747 L 843.233291961746 277.8073574553333 Z"/></g></g><g><text fill="black" stroke="none" font-family="sans-serif" font-size="11pt" font-style="normal" font-weight="normal" text-decoration="normal" x="1026.715678798559" y="310.20551066699994" text-anchor="start" dominant-baseline="alphabetic" xml:space="preserve">retrieve grants</text></g><g><path fill="none" stroke="black" paint-order="fill stroke markers" d=" M 873.1811646784128 316.739591987 L 1260.501604905156 316.739591987" stroke-miterlimit="10" stroke-width="1.3612669416666667" stroke-dasharray=""/><g transform="translate(1273.9509222888228,316.739591987) translate(-1273.9509222888228,-316.739591987)"><path fill="black" stroke="none" paint-order="stroke fill markers" d=" M 1260.338252872156 309.93325727866664 L 1273.9509222888228 316.739591987 L 1260.338252872156 323.5459266953333 Z"/></g></g><g><text fill="black" stroke="none" font-family="sans-serif" font-size="11pt" font-style="normal" font-weight="normal" text-decoration="normal" x="1053.1938282126216" y="355.94407990699995" text-anchor="start" dominant-baseline="alphabetic" xml:space="preserve">grants</text></g><g><path fill="none" stroke="black" paint-order="fill stroke markers" d=" M 1273.9509222888228 362.478161227 L 886.6304820620794 362.478161227" stroke-miterlimit="10" stroke-width="1.3612669416666667" stroke-dasharray="6.53408132"/><g transform="translate(873.1811646784128,362.478161227) translate(-873.1811646784128,-362.478161227)"><path fill="black" stroke="none" paint-order="stroke fill markers" d=" M 886.7938340950794 355.67182651866665 L 873.1811646784128 362.478161227 L 886.7938340950794 369.2844959353333 Z"/></g></g><g><text fill="black" stroke="none" font-family="sans-serif" font-size="11pt" font-style="normal" font-weight="normal" text-decoration="normal" x="926.7728763920006" y="445.78769805699994" text-anchor="start" dominant-baseline="alphabetic" xml:space="preserve">create log</text><text fill="black" stroke="none" font-family="sans-serif" font-size="11pt" font-style="normal" font-weight="normal" text-decoration="normal" x="926.7728763920006" y="462.12290135699993" text-anchor="start" dominant-baseline="alphabetic" xml:space="preserve">(grant checked for data flow)</text></g><g><path fill="none" stroke="black" paint-order="fill stroke markers" d=" M 873.1811646784128 468.656982677 L 1152.6990079045388 468.656982677" stroke-miterlimit="10" stroke-width="1.3612669416666667" stroke-dasharray=""/><g transform="translate(1166.1483252882056,468.656982677) translate(-1166.1483252882056,-468.656982677)"><path fill="black" stroke="none" paint-order="stroke fill markers" d=" M 1152.535655871539 461.85064796866664 L 1166.1483252882056 468.656982677 L 1152.535655871539 475.4633173853333 Z"/></g></g><g><text fill="black" stroke="none" font-family="sans-serif" font-size="11pt" font-style="normal" font-weight="normal" text-decoration="normal" x="997.6533008915123" y="507.8614705969999" text-anchor="start" dominant-baseline="alphabetic" xml:space="preserve">logged</text></g><g><path fill="none" stroke="black" paint-order="fill stroke markers" d=" M 1166.1483252882056 514.3955519169999 L 886.6304820620794 514.3955519169999" stroke-miterlimit="10" stroke-width="1.3612669416666667" stroke-dasharray="6.53408132"/><g transform="translate(873.1811646784128,514.3955519169999) translate(-873.1811646784128,-514.3955519169999)"><path fill="black" stroke="none" paint-order="stroke fill markers" d=" M 886.7938340950794 507.5892172086666 L 873.1811646784128 514.3955519169999 L 886.7938340950794 521.2018866253333 Z"/></g></g><g><text fill="black" stroke="none" font-family="sans-serif" font-size="11pt" font-style="normal" font-weight="normal" text-decoration="normal" x="730.3484814494414" y="553.6000398369998" text-anchor="start" dominant-baseline="alphabetic" xml:space="preserve">granted</text></g><g><path fill="none" stroke="black" paint-order="fill stroke markers" d=" M 856.8459613784127 560.1341211569999 L 667.0211288406601 560.1341211569999" stroke-miterlimit="10" stroke-width="1.3612669416666667" stroke-dasharray="6.53408132"/><g transform="translate(653.5718114569935,560.1341211569999) translate(-653.5718114569935,-560.1341211569999)"><path fill="black" stroke="none" paint-order="stroke fill markers" d=" M 667.1844808736602 553.3277864486665 L 653.5718114569935 560.1341211569999 L 667.1844808736602 566.9404558653332 Z"/></g></g><g><text fill="black" stroke="none" font-family="sans-serif" font-size="11pt" font-style="normal" font-weight="normal" text-decoration="normal" x="437.09200256199085" y="599.3386090769998" text-anchor="start" dominant-baseline="alphabetic" xml:space="preserve">granted</text></g><g><path fill="none" stroke="black" paint-order="fill stroke markers" d=" M 637.2366081569934 605.8726903969998 L 300.11752428717836 605.8726903969998" stroke-miterlimit="10" stroke-width="1.3612669416666667" stroke-dasharray="6.53408132"/><g transform="translate(286.6682069035117,605.8726903969998) translate(-286.6682069035117,-605.8726903969998)"><path fill="black" stroke="none" paint-order="stroke fill markers" d=" M 300.2808763201784 599.0663556886665 L 286.6682069035117 605.8726903969998 L 300.2808763201784 612.6790251053332 Z"/></g></g><g><text fill="black" stroke="none" font-family="sans-serif" font-size="11pt" font-style="normal" font-weight="normal" text-decoration="normal" x="316.61607962017837" y="645.0771783169997" text-anchor="start" dominant-baseline="alphabetic" xml:space="preserve">get data asset from repository</text></g><g><path fill="none" stroke="black" paint-order="fill stroke markers" d=" M 286.6682069035117 651.6112596369998 L 360.1766217535117 651.6112596369998 L 360.1766217535117 672.8470239269998 L 308.28512593717835 672.8470239269998" stroke-miterlimit="10" stroke-width="1.3612669416666667" stroke-dasharray=""/><g transform="translate(294.8358085535117,672.8470239269998) translate(-294.8358085535117,-672.8470239269998)"><path fill="black" stroke="none" paint-order="stroke fill markers" d=" M 308.4484779701784 666.0406892186664 L 294.8358085535117 672.8470239269998 L 308.4484779701784 679.6533586353331 Z"/></g></g><g><text fill="black" stroke="none" font-family="sans-serif" font-size="11pt" font-style="normal" font-weight="normal" text-decoration="normal" x="316.61607962017837" y="712.0515118469997" text-anchor="start" dominant-baseline="alphabetic" xml:space="preserve">data asset</text></g><g><path fill="none" stroke="black" paint-order="fill stroke markers" d=" M 294.8358085535117 718.5855931669997 L 360.1766217535117 718.5855931669997 L 360.1766217535117 739.8213574569997 L 300.11752428717836 739.8213574569997" stroke-miterlimit="10" stroke-width="1.3612669416666667" stroke-dasharray="6.53408132"/><g transform="translate(286.6682069035117,739.8213574569997) translate(-286.6682069035117,-739.8213574569997)"><path fill="black" stroke="none" paint-order="stroke fill markers" d=" M 300.2808763201784 733.0150227486664 L 286.6682069035117 739.8213574569997 L 300.2808763201784 746.6276921653331 Z"/></g></g><g><text fill="black" stroke="none" font-family="sans-serif" font-size="11pt" font-style="normal" font-weight="normal" text-decoration="normal" x="153.19268249098047" y="779.0258453769997" text-anchor="start" dominant-baseline="alphabetic" xml:space="preserve">data asset</text></g><g><path fill="none" stroke="black" paint-order="fill stroke markers" d=" M 270.3330036035117 785.5599266969997 L 117.14660674063151 785.5599266969997" stroke-miterlimit="10" stroke-width="1.3612669416666667" stroke-dasharray="6.53408132"/><g transform="translate(103.69728935696484,785.5599266969997) translate(-103.69728935696484,-785.5599266969997)"><path fill="black" stroke="none" paint-order="stroke fill markers" d=" M 117.30995877363151 778.7535919886664 L 103.69728935696484 785.5599266969997 L 117.30995877363151 792.366261405333 Z"/></g></g><g><text fill="black" stroke="none" font-family="sans-serif" font-size="11pt" font-style="normal" font-weight="normal" text-decoration="normal" x="704.2676022380156" y="868.8694635269997" text-anchor="start" dominant-baseline="alphabetic" xml:space="preserve">exception:</text><text fill="black" stroke="none" font-family="sans-serif" font-size="11pt" font-style="normal" font-weight="normal" text-decoration="normal" x="704.2676022380156" y="885.2046668269996" text-anchor="start" dominant-baseline="alphabetic" xml:space="preserve">no grants found</text></g><g><path fill="none" stroke="black" paint-order="fill stroke markers" d=" M 865.0135630284127 891.7387481469997 L 658.8535271906601 891.7387481469997" stroke-miterlimit="10" stroke-width="1.3612669416666667" stroke-dasharray="6.53408132"/><g transform="translate(645.4042098069934,891.7387481469997) translate(-645.4042098069934,-891.7387481469997)"><path fill="black" stroke="none" paint-order="stroke fill markers" d=" M 659.0168792236601 884.9324134386663 L 645.4042098069934 891.7387481469997 L 659.0168792236601 898.545082855333 Z"/></g></g><g><text fill="black" stroke="none" font-family="sans-serif" font-size="11pt" font-style="normal" font-weight="normal" text-decoration="normal" x="411.0111233505651" y="930.9432360669996" text-anchor="start" dominant-baseline="alphabetic" xml:space="preserve">no grants found</text></g><g><path fill="none" stroke="black" paint-order="fill stroke markers" d=" M 645.4042098069934 937.4773173869996 L 291.94992263717836 937.4773173869996" stroke-miterlimit="10" stroke-width="1.3612669416666667" stroke-dasharray="6.53408132"/><g transform="translate(278.5006052535117,937.4773173869996) translate(-278.5006052535117,-937.4773173869996)"><path fill="black" stroke="none" paint-order="stroke fill markers" d=" M 292.1132746701784 930.6709826786663 L 278.5006052535117 937.4773173869996 L 292.1132746701784 944.283652095333 Z"/></g></g><g><text fill="black" stroke="none" font-family="sans-serif" font-size="11pt" font-style="normal" font-weight="normal" text-decoration="normal" x="148.7152879424453" y="976.6818053069995" text-anchor="start" dominant-baseline="alphabetic" xml:space="preserve">unauthorized</text></g><g><path fill="none" stroke="black" paint-order="fill stroke markers" d=" M 278.5006052535117 983.2158866269996 L 117.14660674063151 983.2158866269996" stroke-miterlimit="10" stroke-width="1.3612669416666667" stroke-dasharray="6.53408132"/><g transform="translate(103.69728935696484,983.2158866269996) translate(-103.69728935696484,-983.2158866269996)"><path fill="black" stroke="none" paint-order="stroke fill markers" d=" M 117.30995877363151 976.4095519186662 L 103.69728935696484 983.2158866269996 L 117.30995877363151 990.0222213353329 Z"/></g></g><g><g/><path fill="none" stroke="black" paint-order="fill stroke markers" d=" M 46.52407780696485 386.98096617699997 L 1231.4891384882055 386.98096617699997 L 1231.4891384882055 1007.7186915769996 L 46.52407780696485 1007.7186915769996 L 46.52407780696485 386.98096617699997 Z" stroke-miterlimit="10" stroke-width="2.3336004714285714" stroke-dasharray=""/><path fill="white" stroke="black" paint-order="fill stroke markers" d=" M 46.52407780696485 386.98096617699997 L 46.52407780696485 406.583210137 L 92.88328140403516 406.583210137 L 102.68440338403516 396.782088157 L 102.68440338403516 386.98096617699997 L 46.52407780696485 386.98096617699997" stroke-miterlimit="10" stroke-width="2.3336004714285714" stroke-dasharray=""/><text fill="black" stroke="none" font-family="sans-serif" font-size="8.8pt" font-style="normal" font-weight="bold" text-decoration="normal" x="62.85928110696484" y="400.049128817" text-anchor="start" dominant-baseline="alphabetic" xml:space="preserve">alt</text><g><rect fill="white" stroke="none" x="116.56932618903517" y="388.287782441" width="111.79919685425781" height="16.988611432000003"/></g><text fill="black" stroke="none" font-family="sans-serif" font-size="8.8pt" font-style="normal" font-weight="bold" text-decoration="normal" x="119.01960668403517" y="400.049128817" text-anchor="start" dominant-baseline="alphabetic" xml:space="preserve">[if there are grants]</text><g><path fill="none" stroke="black" paint-order="fill stroke markers" d=" M 46.52407780696485 810.0627316469996 L 1231.4891384882055 810.0627316469996" stroke-miterlimit="10" stroke-width="2.3336004714285714" stroke-dasharray="4.083800825"/></g><g/><g><rect fill="white" stroke="none" x="116.56932618903517" y="811.3695479109996" width="118.96435798707031" height="16.988611432000003"/></g><text fill="black" stroke="none" font-family="sans-serif" font-size="8.8pt" font-style="normal" font-weight="bold" text-decoration="normal" x="119.01960668403517" y="823.1308942869996" text-anchor="start" dominant-baseline="alphabetic" xml:space="preserve">[there are no grants]</text></g><g/></g><g/><g/><g/><g/><g/><g/><g/><g/></g></svg>