<svg xmlns="http://www.w3.org/2000/svg" xmlns:xlink="http://www.w3.org/1999/xlink" version="1.1" width="2323.989616877773" height="1442.2350993570003"><desc>actor%20Data%20Consumer%0Aactor%20Data%20Provider%0Aparticipant%20Platform%20Core%0Aparticipantgroup%20%23FFF2CC%20Data%20Protection%20Cockpit%20(DPC)%20%0Aparticipant%20UI%20%23FFF2CC%0Aparticipant%20API%20%23FFF2CC%0Aparticipant%20Notification%20Service%20%23yellow%0Aparticipant%20Grant%20Service%20%23d5e8d4%0A%23participant%20Participant%20Service%20%23lightblue%0Aparticipant%20Log%20Service%20%23e1d5e7%0Adatabase%20Repository%20%23lightgray%0Aend%0A%0A%0Aautoactivation%20%0A%0Anote%20left%20of%20Data%20Consumer%20%23black%3A%3Ccolor%3A%23white%3E1.%20Data%20consumer%20creates%20an%20incident%20report%20notification%20to%20data%20providers%0A%0AData%20Consumer%20-%3E%20UI%3Areport%20incident%5Cn(data%20leak%20involving%20participants%20emails)%0A%0AUI-%3EAPI%3Anew%20notification%5Cn(incident%20report%20involving%20emails)%0A%0AAPI-%3ENotification%20Service%3A%20create%20notification%5Cn(type%3Aincident%2C%20data%20type%3A%20email%2C%20consumer%20ID)%0A%0ANotification%20Service%20-%3E%20Grant%20Service%3A%20retrieve%20grants%5Cn(consumer%20ID%2C%20data%20type%3A%20email%2C%20status%3A%20valid)%0A%0A%0A%0AGrant%20Service%20-%3E%20Repository%3A%20retrieve%20grants%0ARepository%20--%3E%20Grant%20Service%3A%20grants%0A%0AGrant%20Service%20--%3E%20Notification%20Service%3A%20grants%0A%0Aloop%20for%20each%20provider%20ID%20in%20the%20grants%0ANotification%20Service%20-%3E%20Repository%3A%20create%20notification%5Cn(sender%3A%20consumer%20ID%2C%20recipient%3A%20provider%20ID%2C%20incident%20details)%0ARepository%20--%3E%20Notification%20Service%3A%20created%0A%0ANotification%20Service%20-%3E%20Log%20Service%3A%20create%20log%5Cn(incident%20details)%0ALog%20Service-%3ERepository%3A%20store%20log%0ARepository--%3E%20Log%20Service%3A%20stored%0ALog%20Service--%3ENotification%20Service%3A%20logged%0A%0Aend%0A%0Anote%20left%20of%20Data%20Consumer%20%23black%3A%3Ccolor%3A%23white%3E2.%20Data%20provider%20is%20informed%20about%20the%20incident%0A%0AData%20Provider%20-%3E%20UI%3A%20see%20new%20notifications%0AUI%20-%3E%20API%20%3A%20pull%20new%20notifications%0AAPI%20-%3E%20Notification%20Service%20%3A%20retrieve%20(new)%20notifications%0ANotification%20Service%20-%3E%20Repository%3A%20retrieve%20notifications%0ARepository%20--%3E%20Notification%20Service%20%3A%20notifications%0ANotification%20Service%20--%3E%20API%3A%20notifications%0AAPI%20--%3E%20UI%3A%20new%20notifications%0AUI%20--%3E%20Data%20Provider%3A%20List%20of%20new%20notifications%0A</desc><defs/><g><g/><g/><g/><g/><g/><g/><g/><g/><g/><g/><g/><g/><g/><g/><g/><g/><g/><g/><g/><g/><g/><g/><g/><g/><g/><g/><g/><g/><g/><g/><g/><g/><g/><g/><g/><g/><g/><g/><g/><g/><g/><g/><g/><g/><g/><g/><g/><g/><g/><g/><g/><g/><g/><g/><g/><g/><g/><g/><g/><g/><g/><g/><g/><g/><g/><g/><g/><g/><g/><g/><g/><g/><g/><g/><g/><g/><g/><g/><g/><g/><g/><g/><g/><g/><g/><g/><g/><g/><g/><g/><g/><g/><g/><g/><g/><g/><g/><g/><g/><g/><g/><g/><g/><g/><g/><g/><g/><g/><g/><g/><g/><g/><g/><g/><g/><g/><g/><g/><g/><g/><g/><g/><g/><g/><g/><g/><g/><g/><g/><g/><g/><g/><g/><g/><g/><g/><g/><g/><g/><g/><g/><g/><g/><g/><g/><g/><g/><g/><g/><g/><g/><g/><g/><g/><g/><g/><g/><g/><g/><g/><g/><g/><g/><g/><g/><g/><g/><g/><g/><g/><g/><g/><g/><g/><g/><g/><g/><g/><g/><g/><g/><g/><g/><g/><g/><g/><g/><g/><g/><g/><g/><g/><g><rect fill="white" stroke="none" x="0" y="0" width="2323" height="1450"/></g><g><g><path fill="#FFF2CC" stroke="black" paint-order="fill stroke markers" d=" M 898.5569464198813 9.556093930499998 L 2277.34937460873 9.556093930499998 L 2277.34937460873 1442.2350993570003 L 898.5569464198813 1442.2350993570003 L 898.5569464198813 9.556093930499998 Z" stroke-miterlimit="10" stroke-width="1.3612669416666667" stroke-dasharray=""/></g><g><text fill="black" stroke="none" font-family="sans-serif" font-size="11pt" font-style="normal" font-weight="normal" text-decoration="normal" x="1486.5215580362783" y="32.4253785505" text-anchor="start" dominant-baseline="alphabetic" xml:space="preserve">Data Protection Cockpit (DPC) </text></g></g><g><path fill="none" stroke="black" paint-order="fill stroke markers" d=" M 534.7077752255468 125.617713377 L 534.7077752255468 1442.2350993570003" stroke-miterlimit="10" stroke-width="1.3612669416666667" stroke-dasharray="12.565541,5.445067766666667"/><path fill="none" stroke="black" paint-order="fill stroke markers" d=" M 647.1882574562109 125.617713377 L 647.1882574562109 1442.2350993570003" stroke-miterlimit="10" stroke-width="1.3612669416666667" stroke-dasharray="12.565541,5.445067766666667"/><path fill="none" stroke="black" paint-order="fill stroke markers" d=" M 771.275751307414 125.617713377 L 771.275751307414 1442.2350993570003" stroke-miterlimit="10" stroke-width="1.3612669416666667" stroke-dasharray="12.565541,5.445067766666667"/><path fill="none" stroke="black" paint-order="fill stroke markers" d=" M 931.7782378520416 125.617713377 L 931.7782378520416 1442.2350993570003" stroke-miterlimit="10" stroke-width="1.3612669416666667" stroke-dasharray="12.565541,5.445067766666667"/><path fill="none" stroke="black" paint-order="fill stroke markers" d=" M 1210.056199803539 125.617713377 L 1210.056199803539 1442.2350993570003" stroke-miterlimit="10" stroke-width="1.3612669416666667" stroke-dasharray="12.565541,5.445067766666667"/><path fill="none" stroke="black" paint-order="fill stroke markers" d=" M 1573.0800571407785 125.617713377 L 1573.0800571407785 1442.2350993570003" stroke-miterlimit="10" stroke-width="1.3612669416666667" stroke-dasharray="12.565541,5.445067766666667"/><path fill="none" stroke="black" paint-order="fill stroke markers" d=" M 1931.200548389151 125.617713377 L 1931.200548389151 1442.2350993570003" stroke-miterlimit="10" stroke-width="1.3612669416666667" stroke-dasharray="12.565541,5.445067766666667"/><path fill="none" stroke="black" paint-order="fill stroke markers" d=" M 2066.501354214897 125.617713377 L 2066.501354214897 1442.2350993570003" stroke-miterlimit="10" stroke-width="1.3612669416666667" stroke-dasharray="12.565541,5.445067766666667"/><path fill="none" stroke="black" paint-order="fill stroke markers" d=" M 2234.145998727773 125.617713377 L 2234.145998727773 1442.2350993570003" stroke-miterlimit="10" stroke-width="1.3612669416666667" stroke-dasharray="12.565541,5.445067766666667"/></g><g><g><path fill="white" stroke="black" paint-order="fill stroke markers" d=" M 544.0188411065468 56.51980341800001 A 9.311065881 9.311065881 0 1 1 544.0188364510143 56.51049235367085 M 534.7077752255468 65.83086929900001 L 534.7077752255468 85.75981732500001 M 522.9464288495468 73.01835875100001 L 546.4691216015468 73.01835875100001 M 534.7077752255468 85.75981732500001 L 522.9464288495468 104.38194908700001 M 534.7077752255468 85.75981732500001 L 546.4691216015468 104.38194908700001" stroke-miterlimit="10" stroke-width="2.7769845610000004" stroke-dasharray=""/></g><g><g/><text fill="black" stroke="none" font-family="sans-serif" font-size="11pt" font-style="normal" font-weight="normal" text-decoration="normal" x="483.37636195650384" y="120.717152387" text-anchor="start" dominant-baseline="alphabetic" xml:space="preserve">Data Consumer</text></g><g><path fill="white" stroke="black" paint-order="fill stroke markers" d=" M 656.4993233372109 56.51980341800001 A 9.311065881 9.311065881 0 1 1 656.4993186816783 56.51049235367085 M 647.1882574562109 65.83086929900001 L 647.1882574562109 85.75981732500001 M 635.4269110802109 73.01835875100001 L 658.9496038322109 73.01835875100001 M 647.1882574562109 85.75981732500001 L 635.4269110802109 104.38194908700001 M 647.1882574562109 85.75981732500001 L 658.9496038322109 104.38194908700001" stroke-miterlimit="10" stroke-width="2.7769845610000004" stroke-dasharray=""/></g><g><g/><text fill="black" stroke="none" font-family="sans-serif" font-size="11pt" font-style="normal" font-weight="normal" text-decoration="normal" x="602.3743917945898" y="120.717152387" text-anchor="start" dominant-baseline="alphabetic" xml:space="preserve">Data Provider</text></g><path fill="none" stroke="none"/><g><path fill="white" stroke="black" paint-order="fill stroke markers" d=" M 708.337326417832 81.51266446700001 L 834.214176196996 81.51266446700001 L 834.214176196996 125.617713377 L 708.337326417832 125.617713377 L 708.337326417832 81.51266446700001 Z" stroke-miterlimit="10" stroke-width="2.613632528" stroke-dasharray=""/></g><g><g/><text fill="black" stroke="none" font-family="sans-serif" font-size="11pt" font-style="normal" font-weight="normal" text-decoration="normal" x="726.061021998332" y="109.282510077" text-anchor="start" dominant-baseline="alphabetic" xml:space="preserve">Platform Core</text></g><path fill="none" stroke="none"/><g><path fill="#FFF2CC" stroke="black" paint-order="fill stroke markers" d=" M 906.7245480698814 81.51266446700001 L 956.8319276342017 81.51266446700001 L 956.8319276342017 125.617713377 L 906.7245480698814 125.617713377 L 906.7245480698814 81.51266446700001 Z" stroke-miterlimit="10" stroke-width="2.613632528" stroke-dasharray=""/></g><g><g/><text fill="black" stroke="none" font-family="sans-serif" font-size="11pt" font-style="normal" font-weight="normal" text-decoration="normal" x="924.4482436503814" y="109.282510077" text-anchor="start" dominant-baseline="alphabetic" xml:space="preserve">UI</text></g><path fill="none" stroke="none"/><g><path fill="#FFF2CC" stroke="black" paint-order="fill stroke markers" d=" M 1180.517906139543 81.51266446700001 L 1239.5944934675351 81.51266446700001 L 1239.5944934675351 125.617713377 L 1180.517906139543 125.617713377 L 1180.517906139543 81.51266446700001 Z" stroke-miterlimit="10" stroke-width="2.613632528" stroke-dasharray=""/></g><g><g/><text fill="black" stroke="none" font-family="sans-serif" font-size="11pt" font-style="normal" font-weight="normal" text-decoration="normal" x="1198.2416017200428" y="109.282510077" text-anchor="start" dominant-baseline="alphabetic" xml:space="preserve">API</text></g><path fill="none" stroke="none"/><g><path fill="yellow" stroke="black" paint-order="fill stroke markers" d=" M 1492.6183854860599 81.51266446700001 L 1653.5417287954974 81.51266446700001 L 1653.5417287954974 125.617713377 L 1492.6183854860599 125.617713377 L 1492.6183854860599 81.51266446700001 Z" stroke-miterlimit="10" stroke-width="2.613632528" stroke-dasharray=""/></g><g><g/><text fill="black" stroke="none" font-family="sans-serif" font-size="11pt" font-style="normal" font-weight="normal" text-decoration="normal" x="1510.3420810665598" y="109.282510077" text-anchor="start" dominant-baseline="alphabetic" xml:space="preserve">Notification Service</text></g><path fill="none" stroke="none"/><g><path fill="#d5e8d4" stroke="black" paint-order="fill stroke markers" d=" M 1868.6665653330651 81.51266446700001 L 1993.734531445237 81.51266446700001 L 1993.734531445237 125.617713377 L 1868.6665653330651 125.617713377 L 1868.6665653330651 81.51266446700001 Z" stroke-miterlimit="10" stroke-width="2.613632528" stroke-dasharray=""/></g><g><g/><text fill="black" stroke="none" font-family="sans-serif" font-size="11pt" font-style="normal" font-weight="normal" text-decoration="normal" x="1886.390260913565" y="109.282510077" text-anchor="start" dominant-baseline="alphabetic" xml:space="preserve">Grant Service</text></g><path fill="none" stroke="none"/><g><path fill="#e1d5e7" stroke="black" paint-order="fill stroke markers" d=" M 2010.0697347452372 81.51266446700001 L 2122.9329736845575 81.51266446700001 L 2122.9329736845575 125.617713377 L 2010.0697347452372 125.617713377 L 2010.0697347452372 81.51266446700001 Z" stroke-miterlimit="10" stroke-width="2.613632528" stroke-dasharray=""/></g><g><g/><text fill="black" stroke="none" font-family="sans-serif" font-size="11pt" font-style="normal" font-weight="normal" text-decoration="normal" x="2027.793430325737" y="109.282510077" text-anchor="start" dominant-baseline="alphabetic" xml:space="preserve">Log Service</text></g><g><path fill="lightgray" stroke="black" paint-order="fill stroke markers" d=" M 2210.296601909773 93.600714909 L 2210.296601909773 59.29678797900001 L 2257.995395545773 59.29678797900001 L 2257.995395545773 93.600714909" stroke-miterlimit="10" stroke-width="2.7769845610000004" stroke-dasharray=""/><path fill="lightgray" stroke="black" paint-order="fill stroke markers" d=" M 2257.995395545773 58.104318138100005 L 2257.9942030858692 58.21212868301663 L 2257.990625825403 58.319928446968596 L 2257.984664122098 58.42770665006936 L 2257.9763185721185 58.53545251458841 L 2257.9655900100133 58.64315526602909 L 2257.9524795086295 58.75080413420601 L 2257.9369883790064 58.85838835432205 L 2257.9191181702436 58.96589716804486 L 2257.8988706693476 59.073319824582654 L 2257.8762479010516 59.1806455817593 L 2257.8512521276134 59.28786370708852 L 2257.8238858485893 59.394963478847124 L 2257.7941518005846 59.501934187147185 L 2257.7620529569795 59.60876513500702 L 2257.7275925276313 59.715445639420864 L 2257.6907739585545 59.82196503242718 L 2257.651600931575 59.92831266217543 L 2257.6100773639637 60.03447789399126 L 2257.5662074080415 60.14045011143997 L 2257.519995450768 60.24621871738811 L 2257.4714461133008 60.35177313506323 L 2257.4205642505326 60.45710280911153 L 2257.367354950608 60.56219720665338 L 2257.311823534412 60.6670458183366 L 2257.2539755550397 60.771638159387386 L 2257.193816797241 60.875963770658814 L 2257.1313532768427 60.980012219676674 L 2257.0665912401437 61.08377310168279 L 2256.9995371632936 61.18723604067541 L 2256.9301977516448 61.29039069044686 L 2256.85857993908 61.393226735618136 L 2256.784690887321 61.4957338926704 L 2256.7085379852124 61.597901910973384 L 2256.6301288479794 61.69972057381039 L 2256.549471316471 61.80117969939998 L 2256.466573456374 61.902269141914154 L 2256.381443557404 62.00297879249289 L 2256.2940901324805 62.10329858025506 L 2256.2045219168735 62.20321847330548 L 2256.1127478673293 62.302728479738136 L 2256.018777161177 62.40181864863528 L 2255.9226191954085 62.500479071062614 L 2255.8242835857404 62.5986998810601 L 2255.7237801656515 62.6964712566286 L 2255.6211189854002 62.793783420712025 L 2255.5163103110194 62.89062664217507 L 2255.4093646232886 62.98699123677628 L 2255.3002926166873 63.08286756813651 L 2255.189105198326 63.178246048702505 L 2255.075813486854 63.2731171407057 L 2254.9604288113464 63.36747135711595 L 2254.8429627101764 63.46129926259025 L 2254.7234269298556 63.55459147441624 L 2254.6018334238624 63.647338663450476 L 2254.478194351446 63.73953155505134 L 2254.352522076411 63.83116093000651 L 2254.2248291658793 63.92221762545484 L 2254.0951283890363 64.01269253580267 L 2253.9634327158515 64.10257661363435 L 2253.829755315782 64.19186087061702 L 2253.694109556457 64.28053637839936 L 2253.556509002339 64.36859426950451 L 2253.4169674133695 64.45602573821674 L 2253.27549874359 64.54282204146202 L 2253.1321171397503 64.62897449968237 L 2252.986836939891 64.71447449770376 L 2252.839672671911 64.79931348559764 L 2252.690639052115 64.8834829795359 L 2252.5397509837403 64.96697456263931 L 2252.3870235554677 65.04977988581912 L 2252.232472039914 65.13189066861203 L 2252.0761118921 65.21329870000817 L 2251.917958747912 65.29399583927226 L 2251.7580284225314 65.37397401675761 L 2251.5963369088586 65.45322523471312 L 2251.432900375909 65.53174156808304 L 2251.2677351672005 65.60951516529946 L 2251.100857799116 65.68653824906747 L 2250.9322849592536 65.76280311714287 L 2250.762033504757 65.83830214310242 L 2250.5901204606284 65.91302777710644 L 2250.4165630180305 65.98697254665379 L 2250.241378532562 66.06012905732914 L 2250.0645845225263 66.13248999354239 L 2249.886198667176 66.20404811926022 L 2249.706238804949 66.27479627872968 L 2249.5247229316806 66.3447273971938 L 2249.3416691988077 66.41383448159898 L 2249.1570959115506 66.4821106212944 L 2248.9710215270843 66.54954898872295 L 2248.7834646526926 66.61614284010412 L 2248.594444043906 66.68188551610825 L 2248.403978602628 66.74677044252253 L 2248.212087375244 66.81079113090838 L 2248.0187895507174 66.87394117925032 L 2247.824104458669 66.93621427259615 L 2247.6280515674457 66.99760418368842 L 2247.4306504821734 67.05810477358717 L 2247.2319209427965 67.11770999228384 L 2247.031882822103 67.17641387930622 L 2246.830556123738 67.23421056431454 L 2246.6279609802036 67.29109426768845 L 2246.424117650846 67.34705930110503 L 2246.2190465198278 67.40210006810757 L 2246.012768094091 67.45621106466523 L 2245.8053030013066 67.50938687972345 L 2245.596671987811 67.56162219574504 L 2245.3868959165316 67.61291178924193 L 2245.1759957649006 67.6632505312975 L 2244.9639926227574 67.71263338807951 L 2244.7509076902397 67.76105542134341 L 2244.5367622756635 67.80851178892625 L 2244.321577793391 67.85499774523082 L 2244.105375761692 67.9005086417002 L 2243.8881778005884 67.94503992728269 L 2243.670005629697 67.98858714888684 L 2243.450881066051 68.03114595182676 L 2243.2308260219256 68.07271208025765 L 2243.0098625026417 68.11328137760128 L 2242.7880126043665 68.15284978696175 L 2242.5652985119054 68.19141335153107 L 2242.3417424964823 68.22896821498495 L 2242.117366913512 68.2655106218683 L 2241.8921942003653 68.30103691797092 L 2241.666246874127 68.33554355069278 L 2241.439547529341 68.36902706939938 L 2241.2121188357523 68.40148412576673 L 2240.9839835360417 68.43291147411628 L 2240.7551644435484 68.46330597173935 L 2240.525684439991 68.4926645792115 L 2240.295566473179 68.52098436069649 L 2240.0648335547166 68.54826248423974 L 2239.8335087577043 68.57449622205164 L 2239.601615214429 68.59968295078025 L 2239.369176114051 68.62382015177371 L 2239.1362147002865 68.64690541133201 L 2238.9027542690837 68.66893642094847 L 2238.6688181662903 68.68991097754045 L 2238.4344297853227 68.70982698366979 L 2238.1996125648225 68.72868244775246 L 2237.9643899863167 68.74647548425779 L 2237.7287855718673 68.76320431389692 L 2237.492822881719 68.77886726380085 L 2237.2565255119443 68.79346276768764 L 2237.0199170920832 68.80698936601907 L 2236.7830212827807 68.81944570614655 L 2236.5458617734203 68.83083054244649 L 2236.308462279755 68.84114273644471 L 2236.070846541537 68.85038125693043 L 2235.833038320141 68.8585451800593 L 2235.595061396192 68.86563368944577 L 2235.3569395671834 68.87164607624486 L 2235.1186966451005 68.87658173922287 L 2234.880356454036 68.88044018481763 L 2234.641942827811 68.8832210271878 L 2234.4034796075894 68.88492398825143 L 2234.164990639494 68.88554889771386 L 2233.9264997722235 68.88509569308466 L 2233.6880308546656 68.88356441968392 L 2233.4496077335134 68.88095523063768 L 2233.2112542508803 68.87726838686271 L 2232.9729942419162 68.87250425704028 L 2232.734851532423 68.86666331757941 L 2232.496849936473 68.85974615256919 L 2232.2590132540286 68.85175345372033 L 2232.0213652685584 68.8426860202961 L 2231.783929744664 68.83254475903225 L 2231.5467304256995 68.82133068404647 L 2231.309791031399 68.8090449167369 L 2231.0731352555044 68.79568868567006 L 2230.836786763397 68.78126332645789 L 2230.6007691897275 68.76577028162431 L 2230.3651061360583 68.7492111004609 L 2230.129821168497 68.73158743887197 L 2229.894937815345 68.71290105920899 L 2229.6604795647418 68.69315383009435 L 2229.426469862317 68.6723477262345 L 2229.1929321088455 68.65048482822252 L 2228.9598896579087 68.62756732232997 L 2228.727365813557 68.60359750028833 L 2228.495383827981 68.57857775905984 L 2228.2639668991865 68.55251060059778 L 2228.033138168673 68.52539863159627 L 2227.802920719121 68.49724456322961 L 2227.5733375720847 68.46805121088119 L 2227.3444116856863 68.4378214938619 L 2227.1161659523245 68.40655843511826 L 2226.888623196382 68.3742651609301 L 2226.6618061719446 68.3409449005979 L 2226.435737560526 68.30660098611995 L 2226.210439968799 68.27123685185907 L 2225.985935926335 68.23485603419923 L 2225.762247883351 68.19746217119186 L 2225.539398208465 68.1590590021921 L 2225.317409186459 68.11965036748485 L 2225.09630301605 68.07924020790075 L 2224.8761018076707 68.03783256442209 L 2224.6568275812583 67.99543157777869 L 2224.438502264053 67.95204148803388 L 2224.221147688405 67.90766663416049 L 2224.0047855895896 67.86231145360694 L 2223.7894376036375 67.81598048185344 L 2223.575125265167 67.76867835195861 L 2223.3618700052343 67.72040979409601 L 2223.1496931491865 67.67117963508119 L 2222.9386159145333 67.62099279788902 L 2222.728659408822 67.56985430116141 L 2222.519844627528 67.51776925870541 L 2222.312192451956 67.46474287898188 L 2222.1057236471497 67.41078046458458 L 2221.9004588598177 67.35588741171 L 2221.6964186162686 67.30006920961766 L 2221.4936233203557 67.24333144008128 L 2221.29209325144 67.18567977683051 L 2221.09184856236 67.12711998498365 L 2220.8929092774183 67.06765792047108 L 2220.6952952903775 67.0072995294497 L 2220.499026362472 66.9460508477083 L 2220.30412212043 66.88391800006403 L 2220.110602054514 66.82090719974988 L 2219.9184855165695 66.75702474779337 L 2219.7277917180895 66.69227703238643 L 2219.5385397282953 66.62667052824669 L 2219.3507484722286 66.56021179596986 L 2219.1644367288577 66.4929074813738 L 2218.9796231292025 66.4247643148339 L 2218.7963261544683 66.35578911060999 L 2218.6145641342005 66.28598876616503 L 2218.434355244449 66.21537026147531 L 2218.2557175059524 66.14394065833244 L 2218.0786687823365 66.07170709963721 L 2217.903226778326 65.99867680868529 L 2217.729409037974 65.92485708844492 L 2217.5572329429115 65.8502553208266 L 2217.386715710603 65.77487896594495 L 2217.21787439263 65.69873556137263 L 2217.0507258729845 65.62183272138664 L 2216.885286866378 65.5441781362069 L 2216.721573916574 65.46577957122719 L 2216.5596033947304 65.38664486623871 L 2216.3993914977655 65.30678193464601 L 2216.2409542467344 65.22619876267568 L 2216.0843074852305 65.14490340857778 L 2215.9294668777993 65.06290400181996 L 2215.776447908373 64.98020874227457 L 2215.6252658787207 64.89682589939866 L 2215.47593590692 64.81276381140702 L 2215.328472925842 64.7280308844384 L 2215.1828916816635 64.64263559171489 L 2215.0392067323874 64.5565864726946 L 2214.897432446388 64.46989213221772 L 2214.7575830009764 64.38256123964607 L 2214.619672380981 64.29460252799609 L 2214.483714377348 64.2060247930657 L 2214.3497225857645 64.11683689255453 L 2214.217710405299 64.02704774517835 L 2214.0876910370584 63.93666632977704 L 2213.959677482872 63.84570168441684 L 2213.8336825439883 63.75416290548648 L 2213.709718819796 63.66205914678757 L 2213.587798706564 63.56939961861922 L 2213.4679343962025 63.47619358685704 L 2213.350137875043 63.38245037202654 L 2213.2344209226385 63.288179348371074 L 2213.120795110588 63.19338994291445 L 2213.009271801379 63.09809163451822 L 2212.899862147248 63.00229395293381 L 2212.7925770890706 62.90600647784956 L 2212.687427355262 62.80923883793272 L 2212.584423460709 62.71200070986665 L 2212.483575705715 62.61430181738313 L 2212.3848941749707 62.516151930289986 L 2212.288388736548 62.417560863494145 L 2212.194069040909 62.318538476020116 L 2212.1019445199463 62.219094670024134 L 2212.012024386034 62.11923938980393 L 2211.924317631111 62.018982620804316 L 2211.83883302578 61.91833438861863 L 2211.7555791184295 61.81730475798624 L 2211.6745642343817 61.715903831786 L 2211.595796475057 61.61414175002604 L 2211.5192837171653 61.51202868882973 L 2211.44503361192 61.40957485941809 L 2211.3730535842683 61.3067905070887 L 2211.3033508321537 61.203685910191126 L 2211.235932325793 61.10027137909914 L 2211.170804806981 60.996557255179674 L 2211.107974788415 60.89255390975869 L 2211.047448553045 60.78827174308406 L 2210.9892321534435 60.683721183285556 L 2210.9333314112023 60.57891268533202 L 2210.8797519163486 60.473856729985926 L 2210.828499026788 60.36856382275525 L 2210.779577867766 60.26304449284297 L 2210.732993331358 60.157309292094155 L 2210.6887500759794 60.05136879394075 L 2210.646852525918 59.94523359234431 L 2210.607304870894 59.83891430073653 L 2210.5701110656405 59.73242155095798 L 2210.5352748295068 59.62576599219489 L 2210.502799646087 59.518958289914266 L 2210.472688762873 59.41200912479732 L 2210.4449451909277 59.30492919167144 L 2210.4195717045855 59.19772919844071 L 2210.3965708411733 59.09041986501512 L 2210.375944900759 58.98301192223859 L 2210.3576959459187 58.87551611081589 L 2210.3418258015336 58.767943180238575 L 2210.328336054604 58.660303887710064 L 2210.3172280540934 58.55260899706992 L 2210.3085029107933 58.444869277717444 L 2210.302161497211 58.337095503534805 L 2210.298204447481 58.2292984518096 L 2210.2966321573062 58.121488902157175 L 2210.297444783914 58.013677635442654 L 2210.3006422460426 57.905875432702864 L 2210.3062242239484 57.79809307406824 L 2210.314190159438 57.69034133768484 L 2210.3245392559247 57.582630998636496 L 2210.3372704785074 57.47497282786737 L 2210.3523825540747 57.367377591104805 L 2210.3698739714314 57.25985604778283 L 2210.38974298145 57.15241894996617 L 2210.411987597247 57.04507704127507 L 2210.4366055943783 56.937841055810964 L 2210.4635945110654 56.83072171708302 L 2210.4929516484385 56.72372973693586 L 2210.5246740708094 56.61687581447832 L 2210.558758605961 56.51017063501361 L 2210.595201845469 56.40362486897076 L 2210.63400014504 56.29724917083759 L 2210.6751496248753 56.19105417809525 L 2210.7186461700626 56.08505051015453 L 2210.7644854309824 55.979248767293896 L 2210.812662823748 55.87365952959945 L 2210.863173530659 55.76829335590698 L 2210.916012500688 55.66316078274605 L 2210.971174449981 55.55827232328636 L 2211.0286538623895 55.453638466286456 L 2211.08844499002 55.349269675044845 L 2211.15054185381 55.24517638635367 L 2211.214938244125 55.141369009455055 L 2211.2816277213783 55.037857925000196 L 2211.350603616679 54.93465348401127 L 2211.421859032495 54.83176600684637 L 2211.4953868433436 54.72920578216748 L 2211.571179696505 54.6269830659116 L 2211.649230012758 54.52510808026517 L 2211.7295299871344 54.42359101264186 L 2211.812071589705 54.32244201466383 L 2211.8968465663775 54.22167120114659 L 2211.9838464397258 54.12128864908752 L 2212.073062509834 54.02130439665817 L 2212.16448585517 53.92172844220046 L 2212.2581073334754 53.82257074322687 L 2212.3539175826804 53.72384121542465 L 2212.4519070218403 53.62554973166431 L 2212.552065852092 53.52770612101232 L 2212.6543840576364 53.43032016774821 L 2212.7588514067384 53.33340161038615 L 2212.86545745275 53.23696014070111 L 2212.974191535155 53.14100540275969 L 2213.0850427806363 53.045546991955725 L 2213.1980001041616 52.950594454050744 L 2213.313052210093 52.85615728421942 L 2213.430187593315 52.762244926100024 L 2213.5493945403873 52.668866770850116 L 2213.670661130715 52.57603215620741 L 2213.7939752377392 52.483750365556 L 2213.9193245301526 52.39203062699805 L 2214.0466964731304 52.300882112431 L 2214.176078329584 52.21031393663032 L 2214.307457161436 52.12033515633814 L 2214.440819830913 52.0309547693575 L 2214.5761530018585 51.942181713652616 L 2214.713443141068 51.85402486645508 L 2214.852676519643 51.766493043376144 L 2214.993839214361 51.67959499752518 L 2215.13691710907 51.59333941863436 L 2215.2818958961 51.50773493218968 L 2215.4287610776933 51.42279009856846 L 2215.577497967454 51.338513412183275 L 2215.728091691817 51.25491330063253 L 2215.8805271915353 51.17199812385771 L 2216.034789223186 51.0897761733074 L 2216.190862360695 51.00825567110814 L 2216.3487309968777 50.927444769242214 L 2216.5083793450026 50.84735154873246 L 2216.6697914403676 50.7679840188342 L 2216.8329511418983 50.689350116234266 L 2216.9978421337596 50.611457704257404 L 2217.1644479269908 50.53431457207989 L 2217.3327518611504 50.45792843395067 L 2217.502737105986 50.382306928419894 L 2217.674386663114 50.307457617575096 L 2217.8476833677223 50.23338798628499 L 2218.022609890285 50.16010544145098 L 2218.199148738295 50.08761731126648 L 2218.3772822580154 50.015930844484096 L 2218.556992636242 49.945053209690776 L 2218.7382619020864 49.87499149459093 L 2218.9210719287744 49.80575270529769 L 2219.1054044354546 49.737343765632275 L 2219.29124098903 49.66977151643166 L 2219.478563006001 49.60304271486444 L 2219.667351754321 49.537164033755175 L 2219.8575883552726 49.47214206091707 L 2220.0492537853547 49.407983298493235 L 2220.242328878184 49.34469416230643 L 2220.4367943264115 49.282280981217546 L 2220.632630683655 49.22074999649268 L 2220.829818366442 49.16010736117902 L 2221.028337656168 49.10035913948957 L 2221.22816870107 49.04151130619671 L 2221.42929151821 48.98356974603472 L 2221.6316859954736 48.92654025311134 L 2221.835331893582 48.87042853032834 L 2222.0402088481146 48.81524018881123 L 2222.2462963715475 48.760980747348185 L 2222.453573855299 48.70765563183812 L 2222.6620205717945 48.65527017474815 L 2222.871615676536 48.60382961458035 L 2223.0823382101867 48.55333909534784 L 2223.2941671006697 48.50380366606049 L 2223.5070811652727 48.455228280219934 L 2223.7210591127655 48.40761779532429 L 2223.9360795455327 48.36097697238237 L 2224.15212096171 48.3153104754376 L 2224.3691617573354 48.27062287110161 L 2224.587180228511 48.2269186280976 L 2224.8061545735704 48.18420211681345 L 2225.0260628952624 48.1424776088647 L 2225.246883202937 48.10174927666736 L 2225.468593414749 48.062021193020726 L 2225.691171359861 48.02329733070004 L 2225.9145947806637 47.985581562059274 L 2226.1388413350023 47.94887765864386 L 2226.363888598407 47.91318929081355 L 2226.5897140663396 47.878520027375394 L 2226.816295156442 47.844873335226836 L 2227.043609210793 47.81225257900906 L 2227.271633498177 47.7806610207705 L 2227.5003452163555 47.75010181964065 L 2227.7297214943474 47.720578031514165 L 2227.959739394715 47.69209260874525 L 2228.1903759158613 47.664648399852446 L 2228.4216079943258 47.63824814923377 L 2228.653412507093 47.61289449689228 L 2228.8857662739056 47.58858997817209 L 2229.1186460595795 47.56533702350482 L 2229.352028576331 47.54313795816655 L 2229.585890486103 47.521995002045315 L 2229.820208402899 47.50191026941911 L 2230.0549588951226 47.482885768744474 L 2230.29011848792 47.46492340245561 L 2230.525663665528 47.44802496677417 L 2230.761570873626 47.43219215152965 L 2230.9978165216885 47.41742653999037 L 2231.2343769853487 47.403729608705206 L 2231.471228608756 47.39110272735584 L 2231.708347706947 47.3795471586199 L 2231.945710568208 47.369064058044636 L 2232.1832934564522 47.35965447393136 L 2232.4210726135875 47.351319347230636 L 2232.659024261897 47.3440595114482 L 2232.8971246064134 47.33787569256158 L 2233.135349837302 47.33276850894751 L 2233.3736761322366 47.328738471320094 L 2233.6120796587875 47.32578598267973 L 2233.8505365768006 47.32391133827283 L 2234.0890230407826 47.32311472556227 L 2234.3275152022857 47.323396224208665 L 2234.565989212292 47.32475580606237 L 2234.804421223601 47.32719333516634 L 2235.042787393208 47.3307085677697 L 2235.2810638846963 47.33530115235211 L 2235.519226870615 47.34097062965894 L 2235.7572525348633 47.3477164327472 L 2235.995117075074 47.35553788704218 L 2236.2327967049905 47.36443421040498 L 2236.4702676568486 47.374404513210685 L 2236.7075061837504 47.385447798437305 L 2236.9444885620414 47.39756296176553 L 2237.1811910936813 47.41074879168913 L 2237.4175901086137 47.42500396963608 L 2237.653661967134 47.44032707010049 L 2237.8893830622537 47.45671656078506 L 2238.124729822059 47.4741708027544 L 2238.3596787120714 47.492688050598844 L 2238.594206237596 47.51226645260904 L 2238.8282889460766 47.5329040509611 L 2239.0619034294373 47.554598781912404 L 2239.2950263264247 47.57734847600791 L 2239.527634324943 47.60115085829719 L 2239.7597041643858 47.62600354856183 L 2239.991212637963 47.65190406155354 L 2240.222136595021 47.67884980724257 L 2240.4524529433547 47.70683809107683 L 2240.682138651523 47.735866114251266 L 2240.911170751145 47.76593097398773 L 2241.139526339203 47.79702966382531 L 2241.367182580327 47.82915907392094 L 2241.594116709084 47.86231599136038 L 2241.8203060322494 47.89649710047953 L 2242.04572793108 47.93169898319594 L 2242.2703598635726 47.9679181193507 L 2242.494179366722 48.00515088706036 L 2242.717164058765 48.04339356307918 L 2242.939291641417 48.08264232317141 L 2243.1605399021055 48.12289324249378 L 2243.3808867161883 48.16414229598789 L 2243.6003100491685 48.20638535878274 L 2243.818787958895 48.24961820660728 L 2244.0362985977586 48.29383651621275 L 2244.2528202148774 48.33903586580504 L 2244.46833115827 48.38521173548684 L 2244.682809877021 48.43235950770968 L 2244.8962349234384 48.48047446773562 L 2245.108584955194 48.52955180410875 L 2245.3198387374628 48.57958660913633 L 2245.529975145042 48.63057387937956 L 2245.738973164466 48.6825085161539 L 2245.946811896107 48.73538532603896 L 2246.153470556266 48.789199021397806 L 2246.3589284792474 48.84394422090574 L 2246.5631651194312 48.89961545008845 L 2246.7661600533233 48.9562071418694 L 2246.9678929816 49.01371363712657 L 2247.1683437311362 49.07212918525836 L 2247.367492257024 49.131447944758634 L 2247.5653186445766 49.19166398380087 L 2247.76180311132 49.25277128083136 L 2247.956926008972 49.314763725171304 L 2248.1506678254045 49.37763511762794 L 2248.343009186598 49.44137917111441 L 2248.5339308585762 49.505989511278486 L 2248.7234137493315 49.57145967714 L 2248.9114389107326 49.637783121736916 L 2249.0979875404196 49.70495321278004 L 2249.283040983685 49.772963233316254 L 2249.4665807353394 49.84180638240017 L 2249.64858844156 49.91147577577426 L 2249.8290459017285 49.98196444655723 L 2250.007935070248 50.05326534594075 L 2250.185238058352 50.1253713438943 L 2250.360937135889 50.19827522987816 L 2250.535014733097 50.27196971356451 L 2250.7074534423623 50.346447425566375 L 2250.8782360199575 50.421700918174615 L 2251.0473453877667 50.49772266610269 L 2251.2147646349945 50.57450506723916 L 2251.3804770198553 50.65204044340789 L 2251.544465971249 50.73032104113588 L 2251.7067150904168 50.80933903242859 L 2251.8672081525824 50.889086515552734 L 2252.025929108573 50.969555515826464 L 2252.1828620864258 51.050737986416806 L 2252.337991392973 51.13262580914435 L 2252.491301515414 51.215210795295064 L 2252.6427771228637 51.29848468643916 L 2252.792403067888 51.38243915525691 L 2252.9401643880165 51.467065806371394 L 2253.0860463072413 51.55235617718803 L 2253.230034237491 51.63830173874081 L 2253.372113780093 51.72489389654519 L 2253.5122707272117 51.812123991457554 L 2253.6504910632693 51.899983300541116 L 2253.7867609663467 51.98846303793816 L 2253.9210668095675 52.0775543557487 L 2254.053395162459 52.16724834491519 L 2254.1837327922967 52.25753603611345 L 2254.3120666654263 52.3484084006496 L 2254.4383839485668 52.439856351362934 L 2254.5626720100954 52.53187074353457 L 2254.6849184213097 52.62444237580196 L 2254.8051109576704 52.717561991079045 L 2254.923237600024 52.81122027748188 L 2255.039286535805 52.905407869259875 L 2255.1532461602155 53.00011534773235 L 2255.2651050773893 53.09533324223036 L 2255.3748521015273 53.191052031043824 L 2255.4824762580183 53.28726214237362 L 2255.587966784537 53.38395395528879 L 2255.691313132118 53.481117800688615 L 2255.792504966213 53.57874396226953 L 2255.8915321677227 53.67682267749672 L 2255.9883848340096 53.77534413858041 L 2256.083053279888 53.874298493456585 L 2256.175528038592 53.973675846772224 L 2256.265799862723 54.073466260874795 L 2256.353859725173 54.17365975680607 L 2256.43969882003 54.274246315299926 L 2256.5233085634563 54.37521587778435 L 2256.604680594546 54.476558347387225 L 2256.683806776165 54.578263589946054 L 2256.7606791957605 54.68032143502133 L 2256.8352901661547 54.78272167691359 L 2256.9076322263127 54.88545407568398 L 2256.9776981420887 54.98850835817824 L 2257.0454809069497 55.091874219053985 L 2257.110973742676 55.19554132181128 L 2257.174170100038 55.29949929982622 L 2257.2350636594524 55.40373775738766 L 2257.293648331615 55.508246270736684 L 2257.3499182581068 55.61301438910906 L 2257.403867811982 55.718031635780264 L 2257.45549159833 55.82328750911313 L 2257.5047844548158 55.92877148360804 L 2257.551741452194 56.03447301095545 L 2257.596357894805 56.14038152109071 L 2257.638629321041 56.24648642325106 L 2257.678551503795 56.35277710703471 L 2257.7161204508816 56.45924294346186 L 2257.7513324054376 56.56587328603757 L 2257.784183846297 56.672657471816464 L 2257.814671488343 56.779584822468934 L 2257.8427922828364 56.88664464534902 L 2257.868543417722 56.99382623456367 L 2257.8919223179073 57.10111887204326 L 2257.9129266455216 57.20851182861346 L 2257.93155430015 57.31599436506811 L 2257.947803419042 57.42355573324312 L 2257.9616723772997 57.53118517709132 L 2257.973159788039 57.63887193375801 L 2257.9822645025283 57.74660523465727 L 2257.9889856103036 57.85437430654877 L 2257.9933224392594 57.962168372615146 L 2257.995274555717 58.06997665353961 M 2257.995395545773 92.4082450681 L 2257.9942030858692 92.51605561301662 L 2257.990625825403 92.62385537696859 L 2257.984664122098 92.73163358006936 L 2257.9763185721185 92.8393794445884 L 2257.9655900100133 92.94708219602909 L 2257.9524795086295 93.05473106420601 L 2257.9369883790064 93.16231528432205 L 2257.9191181702436 93.26982409804485 L 2257.8988706693476 93.37724675458266 L 2257.8762479010516 93.4845725117593 L 2257.8512521276134 93.59179063708852 L 2257.8238858485893 93.69889040884712 L 2257.7941518005846 93.80586111714719 L 2257.7620529569795 93.91269206500702 L 2257.7275925276313 94.01937256942087 L 2257.6907739585545 94.12589196242718 L 2257.651600931575 94.23223959217543 L 2257.6100773639637 94.33840482399125 L 2257.5662074080415 94.44437704143996 L 2257.519995450768 94.5501456473881 L 2257.4714461133008 94.65570006506323 L 2257.4205642505326 94.76102973911152 L 2257.367354950608 94.86612413665337 L 2257.311823534412 94.97097274833659 L 2257.2539755550397 95.07556508938738 L 2257.193816797241 95.1798907006588 L 2257.1313532768427 95.28393914967667 L 2257.0665912401437 95.38770003168278 L 2256.9995371632936 95.4911629706754 L 2256.9301977516448 95.59431762044686 L 2256.85857993908 95.69715366561813 L 2256.784690887321 95.7996608226704 L 2256.7085379852124 95.90182884097338 L 2256.6301288479794 96.00364750381038 L 2256.549471316471 96.10510662939998 L 2256.466573456374 96.20619607191415 L 2256.381443557404 96.30690572249289 L 2256.2940901324805 96.40722551025506 L 2256.2045219168735 96.50714540330549 L 2256.1127478673293 96.60665540973812 L 2256.018777161177 96.70574557863527 L 2255.9226191954085 96.8044060010626 L 2255.8242835857404 96.9026268110601 L 2255.7237801656515 97.0003981866286 L 2255.6211189854002 97.09771035071202 L 2255.5163103110194 97.19455357217507 L 2255.4093646232886 97.29091816677628 L 2255.3002926166873 97.3867944981365 L 2255.189105198326 97.4821729787025 L 2255.075813486854 97.5770440707057 L 2254.9604288113464 97.67139828711595 L 2254.8429627101764 97.76522619259025 L 2254.7234269298556 97.85851840441623 L 2254.6018334238624 97.95126559345047 L 2254.478194351446 98.04345848505133 L 2254.352522076411 98.13508786000651 L 2254.2248291658793 98.22614455545484 L 2254.0951283890363 98.31661946580266 L 2253.9634327158515 98.40650354363434 L 2253.829755315782 98.49578780061701 L 2253.694109556457 98.58446330839936 L 2253.556509002339 98.67252119950452 L 2253.4169674133695 98.75995266821674 L 2253.27549874359 98.84674897146202 L 2253.1321171397503 98.93290142968237 L 2252.986836939891 99.01840142770375 L 2252.839672671911 99.10324041559763 L 2252.690639052115 99.18740990953589 L 2252.5397509837403 99.2709014926393 L 2252.3870235554677 99.35370681581911 L 2252.232472039914 99.43581759861202 L 2252.0761118921 99.51722563000817 L 2251.917958747912 99.59792276927226 L 2251.7580284225314 99.6779009467576 L 2251.5963369088586 99.75715216471312 L 2251.432900375909 99.83566849808304 L 2251.2677351672005 99.91344209529944 L 2251.100857799116 99.99046517906746 L 2250.9322849592536 100.06673004714287 L 2250.762033504757 100.14222907310241 L 2250.5901204606284 100.21695470710642 L 2250.4165630180305 100.29089947665378 L 2250.241378532562 100.36405598732914 L 2250.0645845225263 100.43641692354238 L 2249.886198667176 100.50797504926021 L 2249.706238804949 100.57872320872968 L 2249.5247229316806 100.64865432719378 L 2249.3416691988077 100.71776141159897 L 2249.1570959115506 100.78603755129438 L 2248.9710215270843 100.85347591872295 L 2248.7834646526926 100.9200697701041 L 2248.594444043906 100.98581244610824 L 2248.403978602628 101.05069737252252 L 2248.212087375244 101.11471806090837 L 2248.0187895507174 101.17786810925033 L 2247.824104458669 101.24014120259615 L 2247.6280515674457 101.30153111368841 L 2247.4306504821734 101.36203170358716 L 2247.2319209427965 101.42163692228384 L 2247.031882822103 101.48034080930621 L 2246.830556123738 101.53813749431454 L 2246.6279609802036 101.59502119768845 L 2246.424117650846 101.65098623110502 L 2246.2190465198278 101.70602699810756 L 2246.012768094091 101.76013799466523 L 2245.8053030013066 101.81331380972344 L 2245.596671987811 101.86554912574503 L 2245.3868959165316 101.91683871924192 L 2245.1759957649006 101.9671774612975 L 2244.9639926227574 102.0165603180795 L 2244.7509076902397 102.06498235134342 L 2244.5367622756635 102.11243871892626 L 2244.321577793391 102.15892467523081 L 2244.105375761692 102.2044355717002 L 2243.8881778005884 102.24896685728268 L 2243.670005629697 102.29251407888682 L 2243.450881066051 102.33507288182676 L 2243.2308260219256 102.37663901025765 L 2243.0098625026417 102.41720830760129 L 2242.7880126043665 102.45677671696174 L 2242.5652985119054 102.49534028153107 L 2242.3417424964823 102.53289514498493 L 2242.117366913512 102.56943755186829 L 2241.8921942003653 102.60496384797091 L 2241.666246874127 102.63947048069276 L 2241.439547529341 102.67295399939937 L 2241.2121188357523 102.70541105576673 L 2240.9839835360417 102.73683840411627 L 2240.7551644435484 102.76723290173933 L 2240.525684439991 102.79659150921151 L 2240.295566473179 102.82491129069649 L 2240.0648335547166 102.85218941423973 L 2239.8335087577043 102.87842315205162 L 2239.601615214429 102.90360988078025 L 2239.369176114051 102.9277470817737 L 2239.1362147002865 102.95083234133202 L 2238.9027542690837 102.97286335094847 L 2238.6688181662903 102.99383790754045 L 2238.4344297853227 103.01375391366979 L 2238.1996125648225 103.03260937775246 L 2237.9643899863167 103.05040241425777 L 2237.7287855718673 103.06713124389691 L 2237.492822881719 103.08279419380085 L 2237.2565255119443 103.09738969768763 L 2237.0199170920832 103.11091629601906 L 2236.7830212827807 103.12337263614656 L 2236.5458617734203 103.13475747244648 L 2236.308462279755 103.14506966644471 L 2236.070846541537 103.15430818693042 L 2235.833038320141 103.16247211005928 L 2235.595061396192 103.16956061944578 L 2235.3569395671834 103.17557300624486 L 2235.1186966451005 103.18050866922287 L 2234.880356454036 103.18436711481763 L 2234.641942827811 103.18714795718779 L 2234.4034796075894 103.18885091825143 L 2234.164990639494 103.18947582771386 L 2233.9264997722235 103.18902262308465 L 2233.6880308546656 103.18749134968391 L 2233.4496077335134 103.18488216063768 L 2233.2112542508803 103.1811953168627 L 2232.9729942419162 103.17643118704027 L 2232.734851532423 103.1705902475794 L 2232.496849936473 103.16367308256918 L 2232.2590132540286 103.15568038372034 L 2232.0213652685584 103.14661295029609 L 2231.783929744664 103.13647168903225 L 2231.5467304256995 103.12525761404646 L 2231.309791031399 103.1129718467369 L 2231.0731352555044 103.09961561567005 L 2230.836786763397 103.08519025645788 L 2230.6007691897275 103.06969721162432 L 2230.3651061360583 103.0531380304609 L 2230.129821168497 103.03551436887196 L 2229.894937815345 103.01682798920898 L 2229.6604795647418 102.99708076009435 L 2229.426469862317 102.97627465623451 L 2229.1929321088455 102.95441175822252 L 2228.9598896579087 102.93149425232995 L 2228.727365813557 102.90752443028832 L 2228.495383827981 102.88250468905984 L 2228.2639668991865 102.85643753059779 L 2228.033138168673 102.82932556159626 L 2227.802920719121 102.80117149322962 L 2227.5733375720847 102.77197814088119 L 2227.3444116856863 102.7417484238619 L 2227.1161659523245 102.71048536511826 L 2226.888623196382 102.67819209093008 L 2226.6618061719446 102.64487183059789 L 2226.435737560526 102.61052791611995 L 2226.210439968799 102.57516378185908 L 2225.985935926335 102.53878296419921 L 2225.762247883351 102.50138910119185 L 2225.539398208465 102.4629859321921 L 2225.317409186459 102.42357729748485 L 2225.09630301605 102.38316713790076 L 2224.8761018076707 102.34175949442208 L 2224.6568275812583 102.29935850777868 L 2224.438502264053 102.25596841803387 L 2224.221147688405 102.2115935641605 L 2224.0047855895896 102.16623838360692 L 2223.7894376036375 102.11990741185345 L 2223.575125265167 102.07260528195862 L 2223.3618700052343 102.024336724096 L 2223.1496931491865 101.97510656508118 L 2222.9386159145333 101.92491972788902 L 2222.728659408822 101.8737812311614 L 2222.519844627528 101.82169618870542 L 2222.312192451956 101.76866980898188 L 2222.1057236471497 101.71470739458458 L 2221.9004588598177 101.65981434170999 L 2221.6964186162686 101.60399613961766 L 2221.4936233203557 101.54725837008127 L 2221.29209325144 101.4896067068305 L 2221.09184856236 101.43104691498365 L 2220.8929092774183 101.37158485047108 L 2220.6952952903775 101.3112264594497 L 2220.499026362472 101.2499777777083 L 2220.30412212043 101.18784493006403 L 2220.110602054514 101.12483412974987 L 2219.9184855165695 101.06095167779335 L 2219.7277917180895 100.99620396238643 L 2219.5385397282953 100.93059745824668 L 2219.3507484722286 100.86413872596987 L 2219.1644367288577 100.79683441137381 L 2218.9796231292025 100.7286912448339 L 2218.7963261544683 100.65971604061 L 2218.6145641342005 100.58991569616504 L 2218.434355244449 100.5192971914753 L 2218.2557175059524 100.44786758833243 L 2218.0786687823365 100.3756340296372 L 2217.903226778326 100.30260373868528 L 2217.729409037974 100.22878401844491 L 2217.5572329429115 100.15418225082661 L 2217.386715710603 100.07880589594495 L 2217.21787439263 100.00266249137262 L 2217.0507258729845 99.92575965138663 L 2216.885286866378 99.84810506620688 L 2216.721573916574 99.76970650122719 L 2216.5596033947304 99.69057179623871 L 2216.3993914977655 99.610708864646 L 2216.2409542467344 99.53012569267568 L 2216.0843074852305 99.44883033857778 L 2215.9294668777993 99.36683093181996 L 2215.776447908373 99.28413567227457 L 2215.6252658787207 99.20075282939865 L 2215.47593590692 99.11669074140701 L 2215.328472925842 99.0319578144384 L 2215.1828916816635 98.9465625217149 L 2215.0392067323874 98.8605134026946 L 2214.897432446388 98.77381906221773 L 2214.7575830009764 98.68648816964605 L 2214.619672380981 98.5985294579961 L 2214.483714377348 98.5099517230657 L 2214.3497225857645 98.42076382255453 L 2214.217710405299 98.33097467517834 L 2214.0876910370584 98.24059325977703 L 2213.959677482872 98.14962861441684 L 2213.8336825439883 98.05808983548647 L 2213.709718819796 97.96598607678756 L 2213.587798706564 97.87332654861922 L 2213.4679343962025 97.78012051685704 L 2213.350137875043 97.68637730202654 L 2213.2344209226385 97.59210627837106 L 2213.120795110588 97.49731687291444 L 2213.009271801379 97.40201856451822 L 2212.899862147248 97.30622088293381 L 2212.7925770890706 97.20993340784955 L 2212.687427355262 97.11316576793271 L 2212.584423460709 97.01592763986665 L 2212.483575705715 96.91822874738313 L 2212.3848941749707 96.82007886028998 L 2212.288388736548 96.72148779349413 L 2212.194069040909 96.62246540602011 L 2212.1019445199463 96.52302160002414 L 2212.012024386034 96.42316631980393 L 2211.924317631111 96.32290955080431 L 2211.83883302578 96.22226131861864 L 2211.7555791184295 96.12123168798624 L 2211.6745642343817 96.019830761786 L 2211.595796475057 95.91806868002604 L 2211.5192837171653 95.81595561882972 L 2211.44503361192 95.71350178941809 L 2211.3730535842683 95.6107174370887 L 2211.3033508321537 95.50761284019111 L 2211.235932325793 95.40419830909913 L 2211.170804806981 95.30048418517967 L 2211.107974788415 95.19648083975868 L 2211.047448553045 95.09219867308406 L 2210.9892321534435 94.98764811328554 L 2210.9333314112023 94.88283961533202 L 2210.8797519163486 94.77778365998593 L 2210.828499026788 94.67249075275525 L 2210.779577867766 94.56697142284297 L 2210.732993331358 94.46123622209414 L 2210.6887500759794 94.35529572394076 L 2210.646852525918 94.24916052234431 L 2210.607304870894 94.14284123073652 L 2210.5701110656405 94.03634848095798 L 2210.5352748295068 93.92969292219489 L 2210.502799646087 93.82288521991427 L 2210.472688762873 93.71593605479731 L 2210.4449451909277 93.60885612167144 L 2210.4195717045855 93.50165612844071 L 2210.3965708411733 93.39434679501512 L 2210.375944900759 93.28693885223859 L 2210.3576959459187 93.17944304081588 L 2210.3418258015336 93.07187011023856 L 2210.328336054604 92.96423081771006 L 2210.3172280540934 92.85653592706991 L 2210.3085029107933 92.74879620771745 L 2210.302161497211 92.6410224335348 L 2210.298204447481 92.5332253818096 L 2210.2966321573062 92.42541583215717" stroke-miterlimit="10" stroke-width="2.7769845610000004" stroke-dasharray=""/></g><g><g/><text fill="black" stroke="none" font-family="sans-serif" font-size="11pt" font-style="normal" font-weight="normal" text-decoration="normal" x="2199.110224496816" y="120.717152387" text-anchor="start" dominant-baseline="alphabetic" xml:space="preserve">Repository</text></g></g><g><path fill="white" stroke="black" paint-order="fill stroke markers" d=" M 923.6106362020415 257.932860107 L 939.9458395020416 257.932860107 L 939.9458395020416 1425.8998960570002 L 923.6106362020415 1425.8998960570002 L 923.6106362020415 257.932860107" stroke-miterlimit="10" stroke-width="1.3612669416666667" stroke-dasharray=""/><path fill="white" stroke="black" paint-order="fill stroke markers" d=" M 1201.8885981535389 320.006632647 L 1218.223801453539 320.006632647 L 1218.223801453539 1425.8998960570002 L 1201.8885981535389 1425.8998960570002 L 1201.8885981535389 320.006632647" stroke-miterlimit="10" stroke-width="1.3612669416666667" stroke-dasharray=""/><path fill="white" stroke="black" paint-order="fill stroke markers" d=" M 1564.9124554907785 382.080405187 L 1581.2476587907786 382.080405187 L 1581.2476587907786 1425.8998960570002 L 1564.9124554907785 1425.8998960570002 L 1564.9124554907785 382.080405187" stroke-miterlimit="10" stroke-width="1.3612669416666667" stroke-dasharray=""/><path fill="white" stroke="black" paint-order="fill stroke markers" d=" M 1923.032946739151 444.154177727 L 1939.368150039151 444.154177727 L 1939.368150039151 581.3698854469999 L 1923.032946739151 581.3698854469999 L 1923.032946739151 444.154177727" stroke-miterlimit="10" stroke-width="1.3612669416666667" stroke-dasharray=""/><path fill="white" stroke="black" paint-order="fill stroke markers" d=" M 2225.978397077773 489.892746967 L 2242.313600377773 489.892746967 L 2242.313600377773 535.6313162069999 L 2225.978397077773 535.6313162069999 L 2225.978397077773 489.892746967" stroke-miterlimit="10" stroke-width="1.3612669416666667" stroke-dasharray=""/><path fill="white" stroke="black" paint-order="fill stroke markers" d=" M 2225.978397077773 687.548706897 L 2242.313600377773 687.548706897 L 2242.313600377773 733.2872761369999 L 2225.978397077773 733.2872761369999 L 2225.978397077773 687.548706897" stroke-miterlimit="10" stroke-width="1.3612669416666667" stroke-dasharray=""/><path fill="white" stroke="black" paint-order="fill stroke markers" d=" M 2058.333752564897 795.361048677 L 2074.6689558648973 795.361048677 L 2074.6689558648973 932.5767563969998 L 2058.333752564897 932.5767563969998 L 2058.333752564897 795.361048677" stroke-miterlimit="10" stroke-width="1.3612669416666667" stroke-dasharray=""/><path fill="white" stroke="black" paint-order="fill stroke markers" d=" M 2225.978397077773 841.0996179169999 L 2242.313600377773 841.0996179169999 L 2242.313600377773 886.8381871569999 L 2225.978397077773 886.8381871569999 L 2225.978397077773 841.0996179169999" stroke-miterlimit="10" stroke-width="1.3612669416666667" stroke-dasharray=""/><path fill="white" stroke="black" paint-order="fill stroke markers" d=" M 931.7782378520416 1064.891903127 L 948.1134411520417 1064.891903127 L 948.1134411520417 1385.0618878070004 L 931.7782378520416 1385.0618878070004 L 931.7782378520416 1064.891903127" stroke-miterlimit="10" stroke-width="1.3612669416666667" stroke-dasharray=""/><path fill="white" stroke="black" paint-order="fill stroke markers" d=" M 1210.056199803539 1110.630472367 L 1226.391403103539 1110.630472367 L 1226.391403103539 1339.3233185670003 L 1210.056199803539 1339.3233185670003 L 1210.056199803539 1110.630472367" stroke-miterlimit="10" stroke-width="1.3612669416666667" stroke-dasharray=""/><path fill="white" stroke="black" paint-order="fill stroke markers" d=" M 1573.0800571407785 1156.369041607 L 1589.4152604407786 1156.369041607 L 1589.4152604407786 1293.5847493270003 L 1573.0800571407785 1293.5847493270003 L 1573.0800571407785 1156.369041607" stroke-miterlimit="10" stroke-width="1.3612669416666667" stroke-dasharray=""/><path fill="white" stroke="black" paint-order="fill stroke markers" d=" M 2225.978397077773 1202.1076108470002 L 2242.313600377773 1202.1076108470002 L 2242.313600377773 1247.8461800870002 L 2225.978397077773 1247.8461800870002 L 2225.978397077773 1202.1076108470002" stroke-miterlimit="10" stroke-width="1.3612669416666667" stroke-dasharray=""/><path fill="black" stroke="black" paint-order="fill stroke markers" d=" M 534.7077752255468 177.07360377199998 L 526.5401735755468 177.07360377199998 M 8.16760165 158.288119977 L 511.8384906055469 158.288119977 L 526.5401735755469 172.98980294700002 L 526.5401735755469 195.859087567 L 8.16760165 195.859087567 L 8.16760165 158.288119977 M 511.8384906055469 158.288119977 L 511.8384906055469 172.98980294700002 L 526.5401735755469 172.98980294700002" stroke-miterlimit="10" stroke-width="1.3612669416666667" stroke-dasharray=""/><g><text fill="white" stroke="none" font-family="sans-serif" font-size="11pt" font-style="normal" font-weight="normal" text-decoration="normal" x="31.036886269999968" y="181.15740459699995" text-anchor="start" dominant-baseline="alphabetic" xml:space="preserve">1. Data consumer creates an incident report notification to data providers</text></g><g><text fill="black" stroke="none" font-family="sans-serif" font-size="11pt" font-style="normal" font-weight="normal" text-decoration="normal" x="601.2315781503175" y="235.06357548699998" text-anchor="start" dominant-baseline="alphabetic" xml:space="preserve">report incident</text><text fill="black" stroke="none" font-family="sans-serif" font-size="11pt" font-style="normal" font-weight="normal" text-decoration="normal" x="601.2315781503175" y="251.39877878699997" text-anchor="start" dominant-baseline="alphabetic" xml:space="preserve">(data leak involving participants emails)</text></g><g><path fill="none" stroke="black" paint-order="fill stroke markers" d=" M 534.7077752255468 257.932860107 L 910.1613188183749 257.932860107" stroke-miterlimit="10" stroke-width="1.3612669416666667" stroke-dasharray=""/><g transform="translate(923.6106362020415,257.932860107) translate(-923.6106362020415,-257.932860107)"><path fill="black" stroke="none" paint-order="stroke fill markers" d=" M 909.9979667853748 251.12652539866667 L 923.6106362020415 257.932860107 L 909.9979667853748 264.73919481533335 Z"/></g></g><g><text fill="black" stroke="none" font-family="sans-serif" font-size="11pt" font-style="normal" font-weight="normal" text-decoration="normal" x="965.8099113937083" y="297.137348027" text-anchor="start" dominant-baseline="alphabetic" xml:space="preserve">new notification</text><text fill="black" stroke="none" font-family="sans-serif" font-size="11pt" font-style="normal" font-weight="normal" text-decoration="normal" x="965.8099113937083" y="313.47255132699996" text-anchor="start" dominant-baseline="alphabetic" xml:space="preserve">(incident report involving emails)</text></g><g><path fill="none" stroke="black" paint-order="fill stroke markers" d=" M 939.9458395020416 320.006632647 L 1188.439280769872 320.006632647" stroke-miterlimit="10" stroke-width="1.3612669416666667" stroke-dasharray=""/><g transform="translate(1201.8885981535389,320.006632647) translate(-1201.8885981535389,-320.006632647)"><path fill="black" stroke="none" paint-order="stroke fill markers" d=" M 1188.2759287368722 313.20029793866667 L 1201.8885981535389 320.006632647 L 1188.2759287368722 326.81296735533334 Z"/></g></g><g><text fill="black" stroke="none" font-family="sans-serif" font-size="11pt" font-style="normal" font-weight="normal" text-decoration="normal" x="1244.0878733452055" y="359.21112056699997" text-anchor="start" dominant-baseline="alphabetic" xml:space="preserve">create notification</text><text fill="black" stroke="none" font-family="sans-serif" font-size="11pt" font-style="normal" font-weight="normal" text-decoration="normal" x="1244.0878733452055" y="375.54632386699996" text-anchor="start" dominant-baseline="alphabetic" xml:space="preserve">(type:incident, data type: email, consumer ID)</text></g><g><path fill="none" stroke="black" paint-order="fill stroke markers" d=" M 1218.223801453539 382.080405187 L 1551.4631381071117 382.080405187" stroke-miterlimit="10" stroke-width="1.3612669416666667" stroke-dasharray=""/><g transform="translate(1564.9124554907785,382.080405187) translate(-1564.9124554907785,-382.080405187)"><path fill="black" stroke="none" paint-order="stroke fill markers" d=" M 1551.2997860741118 375.27407047866666 L 1564.9124554907785 382.080405187 L 1551.2997860741118 388.88673989533333 Z"/></g></g><g><text fill="black" stroke="none" font-family="sans-serif" font-size="11pt" font-style="normal" font-weight="normal" text-decoration="normal" x="1607.1117306824453" y="421.28489310699996" text-anchor="start" dominant-baseline="alphabetic" xml:space="preserve">retrieve grants</text><text fill="black" stroke="none" font-family="sans-serif" font-size="11pt" font-style="normal" font-weight="normal" text-decoration="normal" x="1607.1117306824453" y="437.62009640699995" text-anchor="start" dominant-baseline="alphabetic" xml:space="preserve">(consumer ID, data type: email, status: valid)</text></g><g><path fill="none" stroke="black" paint-order="fill stroke markers" d=" M 1581.2476587907786 444.154177727 L 1909.5836293554842 444.154177727" stroke-miterlimit="10" stroke-width="1.3612669416666667" stroke-dasharray=""/><g transform="translate(1923.032946739151,444.154177727) translate(-1923.032946739151,-444.154177727)"><path fill="black" stroke="none" paint-order="stroke fill markers" d=" M 1909.4202773224843 437.34784301866665 L 1923.032946739151 444.154177727 L 1909.4202773224843 450.9605124353333 Z"/></g></g><g><text fill="black" stroke="none" font-family="sans-serif" font-size="11pt" font-style="normal" font-weight="normal" text-decoration="normal" x="2035.8229088734033" y="483.35866564699995" text-anchor="start" dominant-baseline="alphabetic" xml:space="preserve">retrieve grants</text></g><g><path fill="none" stroke="black" paint-order="fill stroke markers" d=" M 1939.368150039151 489.892746967 L 2212.5290796941063 489.892746967" stroke-miterlimit="10" stroke-width="1.3612669416666667" stroke-dasharray=""/><g transform="translate(2225.978397077773,489.892746967) translate(-2225.978397077773,-489.892746967)"><path fill="black" stroke="none" paint-order="stroke fill markers" d=" M 2212.3657276611066 483.08641225866666 L 2225.978397077773 489.892746967 L 2212.3657276611066 496.69908167533333 Z"/></g></g><g><text fill="black" stroke="none" font-family="sans-serif" font-size="11pt" font-style="normal" font-weight="normal" text-decoration="normal" x="2062.301058287466" y="529.0972348869999" text-anchor="start" dominant-baseline="alphabetic" xml:space="preserve">grants</text></g><g><path fill="none" stroke="black" paint-order="fill stroke markers" d=" M 2225.978397077773 535.6313162069999 L 1952.8174674228178 535.6313162069999" stroke-miterlimit="10" stroke-width="1.3612669416666667" stroke-dasharray="6.53408132"/><g transform="translate(1939.368150039151,535.6313162069999) translate(-1939.368150039151,-535.6313162069999)"><path fill="black" stroke="none" paint-order="stroke fill markers" d=" M 1952.9808194558177 528.8249814986666 L 1939.368150039151 535.6313162069999 L 1952.9808194558177 542.4376509153333 Z"/></g></g><g><text fill="black" stroke="none" font-family="sans-serif" font-size="11pt" font-style="normal" font-weight="normal" text-decoration="normal" x="1731.7680874939688" y="574.8358041269998" text-anchor="start" dominant-baseline="alphabetic" xml:space="preserve">grants</text></g><g><path fill="none" stroke="black" paint-order="fill stroke markers" d=" M 1923.032946739151 581.3698854469999 L 1594.6969761744454 581.3698854469999" stroke-miterlimit="10" stroke-width="1.3612669416666667" stroke-dasharray="6.53408132"/><g transform="translate(1581.2476587907786,581.3698854469999) translate(-1581.2476587907786,-581.3698854469999)"><path fill="black" stroke="none" paint-order="stroke fill markers" d=" M 1594.8603282074453 574.5635507386665 L 1581.2476587907786 581.3698854469999 L 1594.8603282074453 588.1762201553332 Z"/></g></g><g><text fill="black" stroke="none" font-family="sans-serif" font-size="11pt" font-style="normal" font-weight="normal" text-decoration="normal" x="1706.4334548751938" y="664.679422277" text-anchor="start" dominant-baseline="alphabetic" xml:space="preserve">create notification</text><text fill="black" stroke="none" font-family="sans-serif" font-size="11pt" font-style="normal" font-weight="normal" text-decoration="normal" x="1706.4334548751938" y="681.014625577" text-anchor="start" dominant-baseline="alphabetic" xml:space="preserve">(sender: consumer ID, recipient: provider ID, incident details)</text></g><g><path fill="none" stroke="black" paint-order="fill stroke markers" d=" M 1581.2476587907786 687.548706897 L 2212.5290796941063 687.548706897" stroke-miterlimit="10" stroke-width="1.3612669416666667" stroke-dasharray=""/><g transform="translate(2225.978397077773,687.548706897) translate(-2225.978397077773,-687.548706897)"><path fill="black" stroke="none" paint-order="stroke fill markers" d=" M 2212.3657276611066 680.7423721886666 L 2225.978397077773 687.548706897 L 2212.3657276611066 694.3550416053333 Z"/></g></g><g><text fill="black" stroke="none" font-family="sans-serif" font-size="11pt" font-style="normal" font-weight="normal" text-decoration="normal" x="1879.1642211715805" y="726.7531948169999" text-anchor="start" dominant-baseline="alphabetic" xml:space="preserve">created</text></g><g><path fill="none" stroke="black" paint-order="fill stroke markers" d=" M 2225.978397077773 733.2872761369999 L 1594.6969761744454 733.2872761369999" stroke-miterlimit="10" stroke-width="1.3612669416666667" stroke-dasharray="6.53408132"/><g transform="translate(1581.2476587907786,733.2872761369999) translate(-1581.2476587907786,-733.2872761369999)"><path fill="black" stroke="none" paint-order="stroke fill markers" d=" M 1594.8603282074453 726.4809414286666 L 1581.2476587907786 733.2872761369999 L 1594.8603282074453 740.0936108453333 Z"/></g></g><g><text fill="black" stroke="none" font-family="sans-serif" font-size="11pt" font-style="normal" font-weight="normal" text-decoration="normal" x="1766.4192304581113" y="772.491764057" text-anchor="start" dominant-baseline="alphabetic" xml:space="preserve">create log</text><text fill="black" stroke="none" font-family="sans-serif" font-size="11pt" font-style="normal" font-weight="normal" text-decoration="normal" x="1766.4192304581113" y="788.826967357" text-anchor="start" dominant-baseline="alphabetic" xml:space="preserve">(incident details)</text></g><g><path fill="none" stroke="black" paint-order="fill stroke markers" d=" M 1581.2476587907786 795.361048677 L 2044.8844351812304 795.361048677" stroke-miterlimit="10" stroke-width="1.3612669416666667" stroke-dasharray=""/><g transform="translate(2058.333752564897,795.361048677) translate(-2058.333752564897,-795.361048677)"><path fill="black" stroke="none" paint-order="stroke fill markers" d=" M 2044.7210831482305 788.5547139686666 L 2058.333752564897 795.361048677 L 2044.7210831482305 802.1673833853333 Z"/></g></g><g><text fill="black" stroke="none" font-family="sans-serif" font-size="11pt" font-style="normal" font-weight="normal" text-decoration="normal" x="2122.209876422507" y="834.5655365969999" text-anchor="start" dominant-baseline="alphabetic" xml:space="preserve">store log</text></g><g><path fill="none" stroke="black" paint-order="fill stroke markers" d=" M 2074.6689558648973 841.0996179169999 L 2212.5290796941063 841.0996179169999" stroke-miterlimit="10" stroke-width="1.3612669416666667" stroke-dasharray=""/><g transform="translate(2225.978397077773,841.0996179169999) translate(-2225.978397077773,-841.0996179169999)"><path fill="black" stroke="none" paint-order="stroke fill markers" d=" M 2212.3657276611066 834.2932832086666 L 2225.978397077773 841.0996179169999 L 2212.3657276611066 847.9059526253333 Z"/></g></g><g><text fill="black" stroke="none" font-family="sans-serif" font-size="11pt" font-style="normal" font-weight="normal" text-decoration="normal" x="2129.951461200339" y="880.3041058369998" text-anchor="start" dominant-baseline="alphabetic" xml:space="preserve">stored</text></g><g><path fill="none" stroke="black" paint-order="fill stroke markers" d=" M 2225.978397077773 886.8381871569999 L 2088.118273248564 886.8381871569999" stroke-miterlimit="10" stroke-width="1.3612669416666667" stroke-dasharray="6.53408132"/><g transform="translate(2074.6689558648973,886.8381871569999) translate(-2074.6689558648973,-886.8381871569999)"><path fill="black" stroke="none" paint-order="stroke fill markers" d=" M 2088.2816252815637 880.0318524486665 L 2074.6689558648973 886.8381871569999 L 2088.2816252815637 893.6445218653332 Z"/></g></g><g><text fill="black" stroke="none" font-family="sans-serif" font-size="11pt" font-style="normal" font-weight="normal" text-decoration="normal" x="1797.779261586041" y="926.0426750769998" text-anchor="start" dominant-baseline="alphabetic" xml:space="preserve">logged</text></g><g><path fill="none" stroke="black" paint-order="fill stroke markers" d=" M 2058.333752564897 932.5767563969998 L 1594.6969761744454 932.5767563969998" stroke-miterlimit="10" stroke-width="1.3612669416666667" stroke-dasharray="6.53408132"/><g transform="translate(1581.2476587907786,932.5767563969998) translate(-1581.2476587907786,-932.5767563969998)"><path fill="black" stroke="none" paint-order="stroke fill markers" d=" M 1594.8603282074453 925.7704216886665 L 1581.2476587907786 932.5767563969998 L 1594.8603282074453 939.3830911053332 Z"/></g></g><path fill="black" stroke="black" paint-order="fill stroke markers" d=" M 534.7077752255468 1000.3678500919999 L 526.5401735755468 1000.3678500919999 M 180.91625887656244 981.5823662969999 L 511.8384906055468 981.5823662969999 L 526.5401735755468 996.2840492669999 L 526.5401735755468 1019.1533338869999 L 180.91625887656244 1019.1533338869999 L 180.91625887656244 981.5823662969999 M 511.8384906055468 981.5823662969999 L 511.8384906055468 996.2840492669999 L 526.5401735755468 996.2840492669999" stroke-miterlimit="10" stroke-width="1.3612669416666667" stroke-dasharray=""/><g><text fill="white" stroke="none" font-family="sans-serif" font-size="11pt" font-style="normal" font-weight="normal" text-decoration="normal" x="203.78554349656247" y="1004.4516509169999" text-anchor="start" dominant-baseline="alphabetic" xml:space="preserve">2. Data provider is informed about the incident</text></g><g><text fill="black" stroke="none" font-family="sans-serif" font-size="11pt" font-style="normal" font-weight="normal" text-decoration="normal" x="721.4374636575442" y="1058.3578218070002" text-anchor="start" dominant-baseline="alphabetic" xml:space="preserve">see new notifications</text></g><g><path fill="none" stroke="black" paint-order="fill stroke markers" d=" M 647.1882574562109 1064.891903127 L 918.3289204683749 1064.891903127" stroke-miterlimit="10" stroke-width="1.3612669416666667" stroke-dasharray=""/><g transform="translate(931.7782378520416,1064.891903127) translate(-931.7782378520416,-1064.891903127)"><path fill="black" stroke="none" paint-order="stroke fill markers" d=" M 918.1655684353749 1058.0855684186668 L 931.7782378520416 1064.891903127 L 918.1655684353749 1071.6982378353332 Z"/></g></g><g><text fill="black" stroke="none" font-family="sans-serif" font-size="11pt" font-style="normal" font-weight="normal" text-decoration="normal" x="1011.4470565007396" y="1104.0963910470002" text-anchor="start" dominant-baseline="alphabetic" xml:space="preserve">pull new notifications</text></g><g><path fill="none" stroke="black" paint-order="fill stroke markers" d=" M 948.1134411520416 1110.630472367 L 1196.6068824198721 1110.630472367" stroke-miterlimit="10" stroke-width="1.3612669416666667" stroke-dasharray=""/><g transform="translate(1210.056199803539,1110.630472367) translate(-1210.056199803539,-1110.630472367)"><path fill="black" stroke="none" paint-order="stroke fill markers" d=" M 1196.4435303868722 1103.8241376586668 L 1210.056199803539 1110.630472367 L 1196.4435303868722 1117.4368070753333 Z"/></g></g><g><text fill="black" stroke="none" font-family="sans-serif" font-size="11pt" font-style="normal" font-weight="normal" text-decoration="normal" x="1314.1845979200102" y="1149.8349602870003" text-anchor="start" dominant-baseline="alphabetic" xml:space="preserve">retrieve (new) notifications</text></g><g><path fill="none" stroke="black" paint-order="fill stroke markers" d=" M 1226.391403103539 1156.369041607 L 1559.6307397571118 1156.369041607" stroke-miterlimit="10" stroke-width="1.3612669416666667" stroke-dasharray=""/><g transform="translate(1573.0800571407785,1156.369041607) translate(-1573.0800571407785,-1156.369041607)"><path fill="black" stroke="none" paint-order="stroke fill markers" d=" M 1559.4673877241119 1149.5627068986669 L 1573.0800571407785 1156.369041607 L 1559.4673877241119 1163.1753763153333 Z"/></g></g><g><text fill="black" stroke="none" font-family="sans-serif" font-size="11pt" font-style="normal" font-weight="normal" text-decoration="normal" x="1842.5107554560532" y="1195.5735295270003" text-anchor="start" dominant-baseline="alphabetic" xml:space="preserve">retrieve notifications</text></g><g><path fill="none" stroke="black" paint-order="fill stroke markers" d=" M 1589.4152604407786 1202.1076108470002 L 2212.5290796941063 1202.1076108470002" stroke-miterlimit="10" stroke-width="1.3612669416666667" stroke-dasharray=""/><g transform="translate(2225.978397077773,1202.1076108470002) translate(-2225.978397077773,-1202.1076108470002)"><path fill="black" stroke="none" paint-order="stroke fill markers" d=" M 2212.3657276611066 1195.301276138667 L 2225.978397077773 1202.1076108470002 L 2212.3657276611066 1208.9139455553334 Z"/></g></g><g><text fill="black" stroke="none" font-family="sans-serif" font-size="11pt" font-style="normal" font-weight="normal" text-decoration="normal" x="1868.9889048701157" y="1241.3120987670004" text-anchor="start" dominant-baseline="alphabetic" xml:space="preserve">notifications</text></g><g><path fill="none" stroke="black" paint-order="fill stroke markers" d=" M 2225.978397077773 1247.8461800870002 L 1602.8645778244454 1247.8461800870002" stroke-miterlimit="10" stroke-width="1.3612669416666667" stroke-dasharray="6.53408132"/><g transform="translate(1589.4152604407786,1247.8461800870002) translate(-1589.4152604407786,-1247.8461800870002)"><path fill="black" stroke="none" paint-order="stroke fill markers" d=" M 1603.0279298574453 1241.039845378667 L 1589.4152604407786 1247.8461800870002 L 1603.0279298574453 1254.6525147953334 Z"/></g></g><g><text fill="black" stroke="none" font-family="sans-serif" font-size="11pt" font-style="normal" font-weight="normal" text-decoration="normal" x="1361.0278062329985" y="1287.0506680070005" text-anchor="start" dominant-baseline="alphabetic" xml:space="preserve">notifications</text></g><g><path fill="none" stroke="black" paint-order="fill stroke markers" d=" M 1573.0800571407785 1293.5847493270003 L 1239.8407204872058 1293.5847493270003" stroke-miterlimit="10" stroke-width="1.3612669416666667" stroke-dasharray="6.53408132"/><g transform="translate(1226.391403103539,1293.5847493270003) translate(-1226.391403103539,-1293.5847493270003)"><path fill="black" stroke="none" paint-order="stroke fill markers" d=" M 1240.0040725202057 1286.778414618667 L 1226.391403103539 1293.5847493270003 L 1240.0040725202057 1300.3910840353335 Z"/></g></g><g><text fill="black" stroke="none" font-family="sans-serif" font-size="11pt" font-style="normal" font-weight="normal" text-decoration="normal" x="1024.8937194035716" y="1332.7892372470005" text-anchor="start" dominant-baseline="alphabetic" xml:space="preserve">new notifications</text></g><g><path fill="none" stroke="black" paint-order="fill stroke markers" d=" M 1210.056199803539 1339.3233185670003 L 961.5627585357082 1339.3233185670003" stroke-miterlimit="10" stroke-width="1.3612669416666667" stroke-dasharray="6.53408132"/><g transform="translate(948.1134411520416,1339.3233185670003) translate(-948.1134411520416,-1339.3233185670003)"><path fill="black" stroke="none" paint-order="stroke fill markers" d=" M 961.7261105687082 1332.5169838586671 L 948.1134411520416 1339.3233185670003 L 961.7261105687082 1346.1296532753336 Z"/></g></g><g><text fill="black" stroke="none" font-family="sans-serif" font-size="11pt" font-style="normal" font-weight="normal" text-decoration="normal" x="713.6994570657473" y="1378.5278064870006" text-anchor="start" dominant-baseline="alphabetic" xml:space="preserve">List of new notifications</text></g><g><path fill="none" stroke="black" paint-order="fill stroke markers" d=" M 931.7782378520416 1385.0618878070004 L 660.6375748398775 1385.0618878070004" stroke-miterlimit="10" stroke-width="1.3612669416666667" stroke-dasharray="6.53408132"/><g transform="translate(647.1882574562109,1385.0618878070004) translate(-647.1882574562109,-1385.0618878070004)"><path fill="black" stroke="none" paint-order="stroke fill markers" d=" M 660.8009268728775 1378.2555530986672 L 647.1882574562109 1385.0618878070004 L 660.8009268728775 1391.8682225153336 Z"/></g></g><g><g/><path fill="none" stroke="black" paint-order="fill stroke markers" d=" M 1507.7392439407786 605.8726903969999 L 2291.319210277773 605.8726903969999 L 2291.319210277773 957.0795613469999 L 1507.7392439407786 957.0795613469999 L 1507.7392439407786 605.8726903969999 Z" stroke-miterlimit="10" stroke-width="2.3336004714285714" stroke-dasharray=""/><path fill="white" stroke="black" paint-order="fill stroke markers" d=" M 1507.7392439407786 605.8726903969999 L 1507.7392439407786 625.4749343569999 L 1565.1640450720286 625.4749343569999 L 1574.9651670520286 615.6738123769999 L 1574.9651670520286 605.8726903969999 L 1507.7392439407786 605.8726903969999" stroke-miterlimit="10" stroke-width="2.3336004714285714" stroke-dasharray=""/><text fill="black" stroke="none" font-family="sans-serif" font-size="8.8pt" font-style="normal" font-weight="bold" text-decoration="normal" x="1524.0744472407787" y="618.9408530369999" text-anchor="start" dominant-baseline="alphabetic" xml:space="preserve">loop</text><g><rect fill="white" stroke="none" x="1588.8500898570287" y="607.1795066609999" width="197.16804756226563" height="16.988611432000003"/></g><text fill="black" stroke="none" font-family="sans-serif" font-size="8.8pt" font-style="normal" font-weight="bold" text-decoration="normal" x="1591.3003703520287" y="618.9408530369999" text-anchor="start" dominant-baseline="alphabetic" xml:space="preserve">[for each provider ID in the grants]</text></g></g><g/><g/><g/><g/><g/><g/><g/><g/><g/></g></svg>