<svg xmlns="http://www.w3.org/2000/svg" height="16" width="16" viewBox="0 0 576 512"><!--!Font Awesome Free 6.5.2 by @fontawesome - https://fontawesome.com License - https://fontawesome.com/license/free Copyright 2024 Fonticons, Inc.--><path fill="#70AD47" d="M384 64c0-17.7 14.3-32 32-32H544c17.7 0 32 14.3 32 32s-14.3 32-32 32H448v96c0 17.7-14.3 32-32 32H320v96c0 17.7-14.3 32-32 32H192v96c0 17.7-14.3 32-32 32H32c-17.7 0-32-14.3-32-32s14.3-32 32-32h96V320c0-17.7 14.3-32 32-32h96V192c0-17.7 14.3-32 32-32h96V64z"/></svg>